<svg width="101" height="100" viewBox="0 0 101 100" fill="none" xmlns="http://www.w3.org/2000/svg">
<circle cx="20" cy="20" r="20" fill="#EAEFFF"/>
<mask id="mask0_117_2054" style="mask-type:luminance" maskUnits="userSpaceOnUse" x="0" y="0" width="100" height="100">
<path d="M100 0H0V100H100V0Z" fill="white"/>
</mask>
<g mask="url(#mask0_117_2054)">
<path d="M46.1426 61.7188H22.7051C21.1511 61.7188 19.6607 61.1014 18.5619 60.0026C17.463 58.9037 16.8457 57.4134 16.8457 55.8594V36.3281C16.8457 31.6661 18.6977 27.1951 21.9942 23.8985C25.2908 20.602 29.7618 18.75 34.4238 18.75C39.0858 18.75 43.5569 20.602 46.8534 23.8985C50.15 27.1951 52.002 31.6661 52.002 36.3281V55.8594C52.002 57.4134 51.3846 58.9037 50.2858 60.0026C49.1869 61.1014 47.6966 61.7188 46.1426 61.7188ZM34.4238 22.6562C30.7991 22.6604 27.324 24.1021 24.7609 26.6652C22.1978 29.2283 20.7561 32.7034 20.752 36.3281V55.8594C20.752 56.3774 20.9577 56.8742 21.324 57.2404C21.6903 57.6067 22.1871 57.8125 22.7051 57.8125H46.1426C46.6606 57.8125 47.1574 57.6067 47.5236 57.2404C47.8899 56.8742 48.0957 56.3774 48.0957 55.8594V36.3281C48.097 34.5323 47.7442 32.7539 47.0576 31.0946C46.371 29.4353 45.364 27.9276 44.0942 26.6578C42.8244 25.388 41.3167 24.381 39.6573 23.6943C37.998 23.0077 36.2196 22.655 34.4238 22.6562Z" fill="#7CB8EB"/>
<path d="M46.1426 77.3438H22.7051C21.1511 77.3438 19.6607 76.7264 18.5619 75.6276C17.463 74.5287 16.8457 73.0384 16.8457 71.4844C16.8457 69.9304 17.463 68.44 18.5619 67.3412C19.6607 66.2423 21.1511 65.625 22.7051 65.625H46.1426C47.6966 65.625 49.1869 66.2423 50.2858 67.3412C51.3846 68.44 52.002 69.9304 52.002 71.4844C52.002 73.0384 51.3846 74.5287 50.2858 75.6276C49.1869 76.7264 47.6966 77.3438 46.1426 77.3438ZM22.7051 69.5312C22.1871 69.5312 21.6903 69.737 21.324 70.1033C20.9577 70.4696 20.752 70.9664 20.752 71.4844C20.752 72.0024 20.9577 72.4992 21.324 72.8654C21.6903 73.2317 22.1871 73.4375 22.7051 73.4375H46.1426C46.6606 73.4375 47.1574 73.2317 47.5236 72.8654C47.8899 72.4992 48.0957 72.0024 48.0957 71.4844C48.0957 70.9664 47.8899 70.4696 47.5236 70.1033C47.1574 69.737 46.6606 69.5312 46.1426 69.5312H22.7051Z" fill="#7CB8EB"/>
<path d="M18.7988 57.8125H2.00195C1.74547 57.8125 1.49149 57.762 1.25452 57.6638C1.01756 57.5657 0.80225 57.4218 0.620885 57.2404C0.254603 56.8742 0.0488281 56.3774 0.0488281 55.8594V48.0469C0.0488281 47.5289 0.254603 47.0321 0.620885 46.6658C0.987167 46.2995 1.48395 46.0938 2.00195 46.0938H18.7988C19.3168 46.0938 19.8136 46.2995 20.1799 46.6658C20.5462 47.0321 20.752 47.5289 20.752 48.0469C20.752 48.5649 20.5462 49.0617 20.1799 49.4279C19.8136 49.7942 19.3168 50 18.7988 50H3.95508V53.9062H18.7988C19.3168 53.9062 19.8136 54.112 20.1799 54.4783C20.5462 54.8446 20.752 55.3414 20.752 55.8594C20.752 56.3774 20.5462 56.8742 20.1799 57.2404C19.8136 57.6067 19.3168 57.8125 18.7988 57.8125Z" fill="#7CB8EB"/>
<path d="M98.0957 57.8125H50.0488C49.5308 57.8125 49.034 57.6067 48.6678 57.2404C48.3015 56.8742 48.0957 56.3774 48.0957 55.8594C48.0957 55.3414 48.3015 54.8446 48.6678 54.4783C49.034 54.112 49.5308 53.9062 50.0488 53.9062H96.1426V50H50.0488C49.5308 50 49.034 49.7942 48.6678 49.4279C48.3015 49.0617 48.0957 48.5649 48.0957 48.0469C48.0957 47.5289 48.3015 47.0321 48.6678 46.6658C49.034 46.2995 49.5308 46.0938 50.0488 46.0938H98.0957C98.6137 46.0938 99.1105 46.2995 99.4768 46.6658C99.8431 47.0321 100.049 47.5289 100.049 48.0469V55.8594C100.049 56.3774 99.8431 56.8742 99.4768 57.2404C99.1105 57.6067 98.6137 57.8125 98.0957 57.8125Z" fill="#7CB8EB"/>
<path d="M5.9082 96.875C5.3902 96.875 4.89342 96.6692 4.52714 96.3029C4.16085 95.9367 3.95508 95.4399 3.95508 94.9219V55.8594C3.95508 55.3414 4.16085 54.8446 4.52714 54.4783C4.89342 54.112 5.3902 53.9062 5.9082 53.9062C6.4262 53.9062 6.92299 54.112 7.28927 54.4783C7.65555 54.8446 7.86133 55.3414 7.86133 55.8594V94.9219C7.86133 95.4399 7.65555 95.9367 7.28927 96.3029C6.92299 96.6692 6.4262 96.875 5.9082 96.875Z" fill="#7CB8EB"/>
<path d="M94.1895 96.875H57.8613C57.3433 96.875 56.8465 96.6692 56.4803 96.3029C56.114 95.9367 55.9082 95.4399 55.9082 94.9219V55.8594C55.9082 55.3414 56.114 54.8446 56.4803 54.4783C56.8465 54.112 57.3433 53.9062 57.8613 53.9062C58.3793 53.9062 58.8761 54.112 59.2424 54.4783C59.6087 54.8446 59.8145 55.3414 59.8145 55.8594V92.9688H92.2363V55.8594C92.2363 55.3414 92.4421 54.8446 92.8084 54.4783C93.1747 54.112 93.6715 53.9062 94.1895 53.9062C94.7075 53.9062 95.2042 54.112 95.5705 54.4783C95.9368 54.8446 96.1426 55.3414 96.1426 55.8594V94.9219C96.1426 95.4399 95.9368 95.9367 95.5705 96.3029C95.2042 96.6692 94.7075 96.875 94.1895 96.875Z" fill="#7CB8EB"/>
<path d="M50.0488 96.875C49.5308 96.875 49.034 96.6692 48.6678 96.3029C48.3015 95.9367 48.0957 95.4399 48.0957 94.9219C48.0957 94.4039 47.8899 93.9071 47.5236 93.5408C47.1574 93.1745 46.6606 92.9688 46.1426 92.9688H22.7051C22.1871 92.9688 21.6903 93.1745 21.324 93.5408C20.9577 93.9071 20.752 94.4039 20.752 94.9219C20.752 95.4399 20.5462 95.9367 20.1799 96.3029C19.8136 96.6692 19.3168 96.875 18.7988 96.875C18.2808 96.875 17.784 96.6692 17.4178 96.3029C17.0515 95.9367 16.8457 95.4399 16.8457 94.9219C16.8457 93.3679 17.463 91.8775 18.5619 90.7787C19.6607 89.6798 21.1511 89.0625 22.7051 89.0625H46.1426C47.6966 89.0625 49.1869 89.6798 50.2858 90.7787C51.3846 91.8775 52.002 93.3679 52.002 94.9219C52.002 95.4399 51.7962 95.9367 51.4299 96.3029C51.0636 96.6692 50.5668 96.875 50.0488 96.875Z" fill="#7CB8EB"/>
<path d="M34.4238 96.875C33.9058 96.875 33.409 96.6692 33.0428 96.3029C32.6765 95.9367 32.4707 95.4399 32.4707 94.9219V83.2031C32.4707 82.6851 32.6765 82.1883 33.0428 81.8221C33.409 81.4558 33.9058 81.25 34.4238 81.25C34.9418 81.25 35.4386 81.4558 35.8049 81.8221C36.1712 82.1883 36.377 82.6851 36.377 83.2031V94.9219C36.377 95.4399 36.1712 95.9367 35.8049 96.3029C35.4386 96.6692 34.9418 96.875 34.4238 96.875Z" fill="#7CB8EB"/>
<path d="M34.4238 69.5312C33.9058 69.5312 33.409 69.3255 33.0428 68.9592C32.6765 68.5929 32.4707 68.0961 32.4707 67.5781V59.7656C32.4707 59.2476 32.6765 58.7508 33.0428 58.3846C33.409 58.0183 33.9058 57.8125 34.4238 57.8125C34.9418 57.8125 35.4386 58.0183 35.8049 58.3846C36.1712 58.7508 36.377 59.2476 36.377 59.7656V67.5781C36.377 68.0961 36.1712 68.5929 35.8049 68.9592C35.4386 69.3255 34.9418 69.5312 34.4238 69.5312Z" fill="#7CB8EB"/>
<path d="M38.3301 85.1562H30.5176C29.9996 85.1562 29.5028 84.9505 29.1365 84.5842C28.7702 84.2179 28.5645 83.7211 28.5645 83.2031V75.3906C28.5645 74.8726 28.7702 74.3758 29.1365 74.0096C29.5028 73.6433 29.9996 73.4375 30.5176 73.4375C31.0356 73.4375 31.5324 73.6433 31.8986 74.0096C32.2649 74.3758 32.4707 74.8726 32.4707 75.3906V81.25H36.377V75.3906C36.377 74.8726 36.5827 74.3758 36.949 74.0096C37.3153 73.6433 37.8121 73.4375 38.3301 73.4375C38.8481 73.4375 39.3449 73.6433 39.7111 74.0096C40.0774 74.3758 40.2832 74.8726 40.2832 75.3906V83.2031C40.2832 83.7211 40.0774 84.2179 39.7111 84.5842C39.3449 84.9505 38.8481 85.1562 38.3301 85.1562Z" fill="#7CB8EB"/>
<path d="M94.1895 77.3438H57.8613C57.3433 77.3438 56.8465 77.138 56.4803 76.7717C56.114 76.4054 55.9082 75.9086 55.9082 75.3906C55.9082 74.8726 56.114 74.3758 56.4803 74.0096C56.8465 73.6433 57.3433 73.4375 57.8613 73.4375H94.1895C94.7075 73.4375 95.2042 73.6433 95.5705 74.0096C95.9368 74.3758 96.1426 74.8726 96.1426 75.3906C96.1426 75.9086 95.9368 76.4054 95.5705 76.7717C95.2042 77.138 94.7075 77.3438 94.1895 77.3438Z" fill="#7CB8EB"/>
<path d="M81.8848 65.625H70.166C69.648 65.625 69.1512 65.4192 68.7849 65.0529C68.4187 64.6867 68.2129 64.1899 68.2129 63.6719C68.2129 63.1539 68.4187 62.6571 68.7849 62.2908C69.1512 61.9245 69.648 61.7188 70.166 61.7188H81.8848C82.4028 61.7188 82.8996 61.9245 83.2658 62.2908C83.6321 62.6571 83.8379 63.1539 83.8379 63.6719C83.8379 64.1899 83.6321 64.6867 83.2658 65.0529C82.8996 65.4192 82.4028 65.625 81.8848 65.625Z" fill="#FCB428"/>
<path d="M81.8848 85.1562H70.166C69.648 85.1562 69.1512 84.9505 68.7849 84.5842C68.4187 84.2179 68.2129 83.7211 68.2129 83.2031C68.2129 82.6851 68.4187 82.1883 68.7849 81.8221C69.1512 81.4558 69.648 81.25 70.166 81.25H81.8848C82.4028 81.25 82.8996 81.4558 83.2658 81.8221C83.6321 82.1883 83.8379 82.6851 83.8379 83.2031C83.8379 83.7211 83.6321 84.2179 83.2658 84.5842C82.8996 84.9505 82.4028 85.1562 81.8848 85.1562Z" fill="#FCB428"/>
<path d="M70.166 50C69.648 50 69.1512 49.7942 68.7849 49.4279C68.4187 49.0617 68.2129 48.5649 68.2129 48.0469V40.2344C68.2129 39.7164 68.4187 39.2196 68.7849 38.8533C69.1512 38.487 69.648 38.2812 70.166 38.2812C70.684 38.2812 71.1808 38.487 71.5471 38.8533C71.9134 39.2196 72.1191 39.7164 72.1191 40.2344V48.0469C72.1191 48.5649 71.9134 49.0617 71.5471 49.4279C71.1808 49.7942 70.684 50 70.166 50Z" fill="#7CB8EB"/>
<path d="M14.8926 22.6562C14.3746 22.6562 13.8778 22.4505 13.5115 22.0842C13.1452 21.7179 12.9395 21.2211 12.9395 20.7031C12.9426 18.1141 13.9724 15.6319 15.8032 13.8012C17.6339 11.9705 20.116 10.9406 22.7051 10.9375C23.2231 10.9375 23.7199 11.1433 24.0861 11.5096C24.4524 11.8758 24.6582 12.3726 24.6582 12.8906C24.6582 13.4086 24.4524 13.9054 24.0861 14.2717C23.7199 14.638 23.2231 14.8438 22.7051 14.8438C21.1511 14.8438 19.6607 15.4611 18.5619 16.5599C17.463 17.6588 16.8457 19.1491 16.8457 20.7031C16.8457 21.2211 16.6399 21.7179 16.2736 22.0842C15.9074 22.4505 15.4106 22.6562 14.8926 22.6562Z" fill="#FCB428"/>
<path d="M14.8926 22.6562C14.3746 22.6562 13.8778 22.4505 13.5115 22.0842C13.1452 21.7179 12.9395 21.2211 12.9395 20.7031C12.9395 19.9337 12.7879 19.1717 12.4934 18.4608C12.199 17.7499 11.7674 17.104 11.2233 16.5599C10.6792 16.0158 10.0333 15.5842 9.32236 15.2898C8.61147 14.9953 7.84954 14.8438 7.08008 14.8438C6.56208 14.8438 6.06529 14.638 5.69901 14.2717C5.33273 13.9054 5.12695 13.4086 5.12695 12.8906C5.12695 12.3726 5.33273 11.8758 5.69901 11.5096C6.06529 11.1433 6.56208 10.9375 7.08008 10.9375C9.66913 10.9406 12.1513 11.9705 13.982 13.8012C15.8127 15.6319 16.8426 18.1141 16.8457 20.7031C16.8457 21.2211 16.6399 21.7179 16.2736 22.0842C15.9074 22.4505 15.4106 22.6562 14.8926 22.6562Z" fill="#FCB428"/>
<path d="M22.7051 14.8438C20.116 14.8406 17.6339 13.8108 15.8032 11.98C13.9724 10.1493 12.9426 7.66718 12.9395 5.07812C12.9395 4.56012 13.1452 4.06334 13.5115 3.69706C13.8778 3.33078 14.3746 3.125 14.8926 3.125C15.4106 3.125 15.9074 3.33078 16.2736 3.69706C16.6399 4.06334 16.8457 4.56012 16.8457 5.07812C16.8457 6.63213 17.463 8.12248 18.5619 9.22133C19.6607 10.3202 21.1511 10.9375 22.7051 10.9375C23.2231 10.9375 23.7199 11.1433 24.0861 11.5096C24.4524 11.8758 24.6582 12.3726 24.6582 12.8906C24.6582 13.4086 24.4524 13.9054 24.0861 14.2717C23.7199 14.638 23.2231 14.8438 22.7051 14.8438Z" fill="#FCB428"/>
<path d="M7.08008 14.8438C6.56208 14.8438 6.06529 14.638 5.69901 14.2717C5.33273 13.9054 5.12695 13.4086 5.12695 12.8906C5.12695 12.3726 5.33273 11.8758 5.69901 11.5096C6.06529 11.1433 6.56208 10.9375 7.08008 10.9375C7.84954 10.9375 8.61147 10.7859 9.32236 10.4915C10.0333 10.197 10.6792 9.76542 11.2233 9.22133C11.7674 8.67724 12.199 8.0313 12.4934 7.32041C12.7879 6.60952 12.9395 5.84759 12.9395 5.07812C12.9395 4.56012 13.1452 4.06334 13.5115 3.69706C13.8778 3.33078 14.3746 3.125 14.8926 3.125C15.4106 3.125 15.9074 3.33078 16.2736 3.69706C16.6399 4.06334 16.8457 4.56012 16.8457 5.07812C16.8426 7.66718 15.8127 10.1493 13.982 11.98C12.1513 13.8108 9.66913 14.8406 7.08008 14.8438Z" fill="#FCB428"/>
<path d="M62.3535 34.375C61.8355 34.375 61.3387 34.1692 60.9724 33.8029C60.6062 33.4367 60.4004 32.9399 60.4004 32.4219V24.6094C60.4004 24.0914 60.6062 23.5946 60.9724 23.2283C61.3387 22.862 61.8355 22.6563 62.3535 22.6562C62.8715 22.6562 63.3683 22.862 63.7346 23.2283C64.1009 23.5946 64.3066 24.0914 64.3066 24.6094V32.4219C64.3066 32.6784 64.2561 32.9323 64.158 33.1693C64.0598 33.4063 63.9159 33.6216 63.7346 33.8029C63.5532 33.9843 63.3379 34.1282 63.1009 34.2263C62.864 34.3245 62.61 34.375 62.3535 34.375Z" fill="#FCB428"/>
<path d="M66.2598 30.4688H58.4473C57.9293 30.4688 57.4325 30.263 57.0662 29.8967C56.6999 29.5304 56.4941 29.0336 56.4941 28.5156C56.4941 27.9976 56.6999 27.5008 57.0662 27.1346C57.4325 26.7683 57.9293 26.5625 58.4473 26.5625H66.2598C66.7778 26.5625 67.2746 26.7683 67.6408 27.1346C68.0071 27.5008 68.2129 27.9976 68.2129 28.5156C68.2129 29.0336 68.0071 29.5304 67.6408 29.8967C67.2746 30.263 66.7778 30.4688 66.2598 30.4688Z" fill="#FCB428"/>
<path d="M81.8848 22.6562C81.3668 22.6562 80.87 22.4505 80.5037 22.0842C80.1374 21.7179 79.9316 21.2211 79.9316 20.7031V12.8906C79.9316 12.3726 80.1374 11.8758 80.5037 11.5096C80.87 11.1433 81.3668 10.9375 81.8848 10.9375C82.4028 10.9375 82.8996 11.1433 83.2658 11.5096C83.6321 11.8758 83.8379 12.3726 83.8379 12.8906V20.7031C83.8379 21.2211 83.6321 21.7179 83.2658 22.0842C82.8996 22.4505 82.4028 22.6562 81.8848 22.6562Z" fill="#FCB428"/>
<path d="M85.791 18.75H77.9785C77.4605 18.75 76.9637 18.5442 76.5974 18.1779C76.2312 17.8117 76.0254 17.3149 76.0254 16.7969C76.0254 16.2789 76.2312 15.7821 76.5974 15.4158C76.9637 15.0495 77.4605 14.8438 77.9785 14.8438H85.791C86.309 14.8438 86.8058 15.0495 87.1721 15.4158C87.5384 15.7821 87.7441 16.2789 87.7441 16.7969C87.7441 17.3149 87.5384 17.8117 87.1721 18.1779C86.8058 18.5442 86.309 18.75 85.791 18.75Z" fill="#FCB428"/>
<path d="M72.1191 5.07812C72.1191 5.46442 72.0046 5.84203 71.79 6.16322C71.5754 6.48441 71.2703 6.73475 70.9134 6.88258C70.5566 7.0304 70.1639 7.06908 69.785 6.99372C69.4061 6.91836 69.0581 6.73234 68.7849 6.45919C68.5118 6.18604 68.3258 5.83803 68.2504 5.45916C68.1751 5.08029 68.2137 4.68758 68.3616 4.3307C68.5094 3.97381 68.7597 3.66877 69.0809 3.45416C69.4021 3.23955 69.7797 3.125 70.166 3.125C70.684 3.125 71.1808 3.33078 71.5471 3.69706C71.9134 4.06334 72.1191 4.56012 72.1191 5.07812Z" fill="#FCB428"/>
<path d="M42.2363 24.7461C41.7183 24.7461 41.2215 24.5403 40.8553 24.174C40.489 23.8078 40.2832 23.311 40.2832 22.793V5.07812C40.2832 4.56012 40.489 4.06334 40.8553 3.69706C41.2215 3.33078 41.7183 3.125 42.2363 3.125H61.377C61.895 3.125 62.3917 3.33078 62.758 3.69706C63.1243 4.06334 63.3301 4.56012 63.3301 5.07812C63.3301 5.59613 63.1243 6.09291 62.758 6.45919C62.3917 6.82547 61.895 7.03125 61.377 7.03125H44.1895V22.793C44.1895 23.311 43.9837 23.8078 43.6174 24.174C43.2511 24.5403 42.7543 24.7461 42.2363 24.7461Z" fill="#7CB8EB"/>
<path d="M98.0957 42.1875H50.0488C49.5308 42.1875 49.034 41.9817 48.6678 41.6154C48.3015 41.2492 48.0957 40.7524 48.0957 40.2344C48.0957 39.7164 48.3015 39.2196 48.6678 38.8533C49.034 38.487 49.5308 38.2812 50.0488 38.2812H96.1426V7.03125H78.9551C78.4371 7.03125 77.9403 6.82547 77.574 6.45919C77.2077 6.09291 77.002 5.59613 77.002 5.07812C77.002 4.56012 77.2077 4.06334 77.574 3.69706C77.9403 3.33078 78.4371 3.125 78.9551 3.125H98.0957C98.6137 3.125 99.1105 3.33078 99.4768 3.69706C99.8431 4.06334 100.049 4.56012 100.049 5.07812V40.2344C100.049 40.7524 99.8431 41.2492 99.4768 41.6154C99.1105 41.9817 98.6137 42.1875 98.0957 42.1875Z" fill="#7CB8EB"/>
</g>
</svg>
