<svg width="541" height="600" viewBox="0 0 541 600" fill="none" xmlns="http://www.w3.org/2000/svg">
<g opacity="0.1" clip-path="url(#clip0_117_720)">
<path fill-rule="evenodd" clip-rule="evenodd" d="M408.86 450C408.86 367.157 364.192 300 309.092 300C253.991 300 209.323 367.157 209.323 450C209.323 532.843 253.991 600 309.092 600C364.192 600 408.86 532.843 408.86 450ZM399.358 428.226C399.358 357.409 358.945 300 309.092 300C259.239 300 218.825 357.409 218.825 428.226C218.825 499.043 259.239 556.451 309.092 556.451C358.945 556.451 399.358 499.043 399.358 428.226Z" fill="url(#paint0_radial_117_720)"/>
<path fill-rule="evenodd" clip-rule="evenodd" d="M408.86 150C408.86 232.843 364.192 300 309.092 300C253.991 300 209.323 232.843 209.323 150C209.323 67.1573 253.991 0 309.092 0C364.192 0 408.86 67.1573 408.86 150ZM399.358 171.774C399.358 242.591 358.945 300 309.092 300C259.239 300 218.825 242.591 218.825 171.774C218.825 100.957 259.239 43.5484 309.092 43.5484C358.945 43.5484 399.358 100.957 399.358 171.774Z" fill="url(#paint1_radial_117_720)"/>
<path fill-rule="evenodd" clip-rule="evenodd" d="M488.579 288.4C417.001 246.979 336.642 252.174 309.091 300.003C281.541 347.832 317.233 420.184 388.81 461.606C460.388 503.027 540.748 497.832 568.298 450.003C595.848 402.174 560.157 329.822 488.579 288.4ZM465.015 285.761C403.827 250.353 334.018 256.729 309.091 300.003C284.165 343.277 313.56 407.062 374.748 442.471C435.936 477.879 505.745 471.503 530.671 428.229C555.598 384.955 526.202 321.17 465.015 285.761Z" fill="url(#paint2_radial_117_720)"/>
<path fill-rule="evenodd" clip-rule="evenodd" d="M229.372 138.401C300.95 179.822 336.642 252.174 309.091 300.004C281.541 347.833 201.181 353.028 129.604 311.606C58.0257 270.185 22.3342 197.833 49.8846 150.004C77.4349 102.174 157.794 96.9798 229.372 138.401ZM243.435 157.536C304.622 192.945 334.018 256.73 309.091 300.004C284.165 343.278 214.355 349.654 153.168 314.245C91.9803 278.837 62.5849 215.052 87.5114 171.778C112.438 128.504 182.247 122.128 243.435 157.536Z" fill="url(#paint3_radial_117_720)"/>
<path fill-rule="evenodd" clip-rule="evenodd" d="M129.603 288.4C201.181 246.979 281.54 252.174 309.09 300.003C336.641 347.832 300.949 420.184 229.371 461.606C157.794 503.027 77.4342 497.832 49.8838 450.003C22.3335 402.174 58.0249 329.822 129.603 288.4ZM153.167 285.761C214.355 250.353 284.164 256.729 309.09 300.003C334.017 343.277 304.622 407.062 243.434 442.471C182.246 477.879 112.437 471.503 87.5106 428.229C62.5841 384.955 91.9795 321.17 153.167 285.761Z" fill="url(#paint4_radial_117_720)"/>
<path fill-rule="evenodd" clip-rule="evenodd" d="M388.81 138.401C317.232 179.822 281.54 252.174 309.091 300.004C336.641 347.833 417 353.028 488.578 311.606C560.156 270.185 595.848 197.833 568.297 150.004C540.747 102.174 460.388 96.9798 388.81 138.401ZM374.747 157.536C313.56 192.945 284.164 256.73 309.091 300.004C334.017 343.278 403.826 349.654 465.014 314.245C526.202 278.837 555.597 215.052 530.671 171.778C505.744 128.504 435.935 122.128 374.747 157.536Z" fill="url(#paint5_radial_117_720)"/>
</g>
<defs>
<radialGradient id="paint0_radial_117_720" cx="0" cy="0" r="1" gradientUnits="userSpaceOnUse" gradientTransform="translate(307.58 450) rotate(-43.8724) scale(178.239 409.943)">
<stop stop-color="#7CB8EB"/>
<stop offset="1" stop-color="#EAEFFF"/>
</radialGradient>
<radialGradient id="paint1_radial_117_720" cx="0" cy="0" r="1" gradientUnits="userSpaceOnUse" gradientTransform="translate(307.58 150) rotate(43.8724) scale(178.239 409.943)">
<stop stop-color="#7CB8EB"/>
<stop offset="1" stop-color="#EAEFFF"/>
</radialGradient>
<radialGradient id="paint2_radial_117_720" cx="0" cy="0" r="1" gradientUnits="userSpaceOnUse" gradientTransform="translate(437.939 376.315) rotate(-103.775) scale(178.431 409.503)">
<stop stop-color="#7CB8EB"/>
<stop offset="1" stop-color="#EAEFFF"/>
</radialGradient>
<radialGradient id="paint3_radial_117_720" cx="0" cy="0" r="1" gradientUnits="userSpaceOnUse" gradientTransform="translate(178.732 226.316) rotate(-16.2295) scale(178.073 410.324)">
<stop stop-color="#7CB8EB"/>
<stop offset="1" stop-color="#EAEFFF"/>
</radialGradient>
<radialGradient id="paint4_radial_117_720" cx="0" cy="0" r="1" gradientUnits="userSpaceOnUse" gradientTransform="translate(180.243 376.315) rotate(-76.2246) scale(178.431 409.503)">
<stop stop-color="#7CB8EB"/>
<stop offset="1" stop-color="#EAEFFF"/>
</radialGradient>
<radialGradient id="paint5_radial_117_720" cx="0" cy="0" r="1" gradientUnits="userSpaceOnUse" gradientTransform="translate(439.45 226.316) rotate(-163.771) scale(178.073 410.324)">
<stop stop-color="#7CB8EB"/>
<stop offset="1" stop-color="#EAEFFF"/>
</radialGradient>
<clipPath id="clip0_117_720">
<rect width="618.182" height="600" fill="white"/>
</clipPath>
</defs>
</svg>
