<svg width="959" height="833" viewBox="0 0 959 833" fill="none" xmlns="http://www.w3.org/2000/svg">
<g opacity="0.15" clip-path="url(#clip0_117_623)">
<path d="M488.06 151.681C563.927 235.586 619.702 322.92 648.642 396.149C663.119 432.781 670.778 465.627 671.041 492.607C671.305 519.595 664.19 540.102 649.838 553.079C635.486 566.056 614.368 571.077 587.542 568.106C560.725 565.136 528.814 554.22 493.82 536.139C423.866 499.996 342.571 435.736 266.704 351.831C190.837 267.926 135.061 180.592 106.122 107.364C91.6447 70.731 83.986 37.8858 83.7225 10.9057C83.4589 -16.0821 90.5742 -36.5895 104.926 -49.5666C119.278 -62.5437 140.396 -67.5648 167.221 -64.5938C194.039 -61.6237 225.949 -50.7072 260.944 -32.6265C330.898 3.5168 412.193 67.7761 488.06 151.681Z" stroke="url(#paint0_linear_117_623)" stroke-width="10"/>
<path d="M277.307 141.078C361.212 65.2112 448.546 9.43573 521.775 -19.504C558.407 -33.981 591.252 -41.6397 618.232 -41.9032C645.22 -42.1669 665.728 -35.0515 678.705 -20.6995C691.682 -6.3475 696.703 14.7705 693.732 41.5956C690.762 68.413 679.845 100.324 661.765 135.318C625.621 205.272 561.362 286.567 477.457 362.434C393.552 438.301 306.218 494.077 232.989 523.016C196.357 537.493 163.512 545.152 136.531 545.416C109.544 545.679 89.0361 538.564 76.0591 524.212C63.082 509.86 58.0609 488.742 61.0319 461.917C64.002 435.099 74.9185 403.189 92.9992 368.194C129.143 298.24 193.402 216.945 277.307 141.078Z" stroke="url(#paint1_linear_117_623)" stroke-width="10"/>
<path d="M384.88 102.731C497.855 108.415 599.049 130.73 671.293 162.047C707.433 177.714 736.073 195.523 755.338 214.415C774.607 233.311 784.077 252.844 783.105 272.168C782.132 291.493 770.75 309.976 749.681 326.843C728.618 343.706 698.335 358.551 660.805 370.511C585.783 394.419 482.86 406.465 369.884 400.781C256.908 395.097 155.715 372.782 83.471 341.465C47.331 325.799 18.6905 307.989 -0.573678 289.098C-19.8434 270.201 -29.313 250.669 -28.3408 231.344C-27.3685 212.019 -15.9863 193.536 5.0827 176.669C26.1456 159.806 56.4291 144.961 93.959 133.001C168.981 109.093 271.904 97.0472 384.88 102.731Z" stroke="url(#paint2_linear_117_623)" stroke-width="10"/>
<path d="M356.97 657.479C337.646 656.507 319.163 645.125 302.295 624.056C285.433 602.993 270.588 572.709 258.628 535.179C234.72 460.157 222.674 357.235 228.358 244.259C234.042 131.283 256.357 30.0892 287.674 -42.1545C303.34 -78.2945 321.15 -106.935 340.041 -126.199C358.938 -145.469 378.47 -154.939 397.795 -153.966C417.119 -152.994 435.603 -141.612 452.47 -120.543C469.333 -99.4799 484.178 -69.1964 496.138 -31.6666C520.045 43.3556 532.092 146.278 526.408 259.254C520.724 372.23 498.408 473.423 467.092 545.667C451.425 581.807 433.616 610.448 414.724 629.712C395.827 648.982 376.295 658.451 356.97 657.479Z" stroke="url(#paint3_linear_117_623)" stroke-width="10"/>
</g>
<defs>
<linearGradient id="paint0_linear_117_623" x1="101.573" y1="-53.2753" x2="653.191" y2="556.788" gradientUnits="userSpaceOnUse">
<stop stop-color="#7CB8EB"/>
<stop offset="1" stop-color="white" stop-opacity="0"/>
</linearGradient>
<linearGradient id="paint1_linear_117_623" x1="72.3504" y1="527.565" x2="682.413" y2="-24.0529" gradientUnits="userSpaceOnUse">
<stop stop-color="#7CB8EB"/>
<stop offset="1" stop-color="white" stop-opacity="0"/>
</linearGradient>
<linearGradient id="paint2_linear_117_623" x1="-33.3344" y1="231.093" x2="788.098" y2="272.42" gradientUnits="userSpaceOnUse">
<stop stop-color="#7CB8EB"/>
<stop offset="1" stop-color="white" stop-opacity="0"/>
</linearGradient>
<linearGradient id="paint3_linear_117_623" x1="398.047" y1="-158.96" x2="356.72" y2="662.472" gradientUnits="userSpaceOnUse">
<stop stop-color="#7CB8EB"/>
<stop offset="1" stop-color="white" stop-opacity="0"/>
</linearGradient>
<clipPath id="clip0_117_623">
<rect width="822.472" height="822.472" fill="white" transform="translate(-203.459 222.534) rotate(-42.1198)"/>
</clipPath>
</defs>
</svg>
