<svg width="143" height="65" viewBox="0 0 143 65" fill="none" xmlns="http://www.w3.org/2000/svg">
<path d="M111.644 10.7398H100.655V52.2006H111.644V36.7152H117.389L126.131 52.2006H139.118L126.131 31.2204L139.118 10.7398H126.88L117.389 27.2242H111.644V10.7398Z" fill="#052770"/>
<path d="M55.1977 52.2006H44.7077V10.7398H55.1977L68.685 34.4674L82.1722 10.7398H92.1628V52.2006H81.1732V31.2204L70.9329 48.4541H65.6878L55.1977 31.2204V52.2006Z" fill="#052770"/>
<path fill-rule="evenodd" clip-rule="evenodd" d="M12.7379 18.7323H34.9669V10.4901H1.49858V51.9508H25.7256C39.4626 51.9508 47.2053 29.2223 25.7256 26.4749H12.7379V18.7323ZM12.7379 34.7171V44.2082H22.9783C29.4721 41.7105 27.9735 35.966 22.9783 34.7171H12.7379Z" fill="#052770"/>
<path d="M0 0V4.49574H142.865V0H0Z" fill="#DBA11C"/>
<path d="M3.72889 59.895V63.44H2.75862V60.6211H1.47443V63.44H0.507332V59.895H3.72889Z" fill="#58595A"/>
<path d="M7.30736 63.5034C6.89092 63.5034 6.56433 63.3522 6.32757 63.0499H6.27684C6.31066 63.3459 6.32757 63.5171 6.32757 63.5636V65H5.36047V59.895H6.14684L6.28318 60.3547H6.32757C6.55376 60.0038 6.88881 59.8284 7.33273 59.8284C7.75128 59.8284 8.07893 59.9901 8.31568 60.3135C8.55244 60.6369 8.67082 61.0861 8.67082 61.6611C8.67082 62.0395 8.6148 62.3682 8.50276 62.6472C8.39284 62.9263 8.23536 63.1387 8.03031 63.2846C7.82526 63.4304 7.58428 63.5034 7.30736 63.5034ZM7.02199 60.6021C6.78312 60.6021 6.60872 60.676 6.4988 60.824C6.38888 60.9699 6.3318 61.2119 6.32757 61.5501V61.6548C6.32757 62.0353 6.38359 62.308 6.49563 62.4729C6.60978 62.6377 6.78946 62.7202 7.03467 62.7202C7.46801 62.7202 7.68469 62.3629 7.68469 61.6484C7.68469 61.2996 7.63078 61.0386 7.52298 60.8652C7.41728 60.6898 7.25028 60.6021 7.02199 60.6021Z" fill="#58595A"/>
<path d="M10.8573 61.6611C10.8573 62.012 10.9144 62.2773 11.0285 62.457C11.1448 62.6367 11.3329 62.7265 11.5929 62.7265C11.8508 62.7265 12.0358 62.6377 12.1478 62.4602C12.262 62.2805 12.319 62.0141 12.319 61.6611C12.319 61.3102 12.262 61.047 12.1478 60.8716C12.0337 60.6961 11.8466 60.6084 11.5866 60.6084C11.3287 60.6084 11.1427 60.6961 11.0285 60.8716C10.9144 61.0449 10.8573 61.3081 10.8573 61.6611ZM13.3083 61.6611C13.3083 62.2382 13.1561 62.6895 12.8517 63.0151C12.5473 63.3406 12.1235 63.5034 11.5802 63.5034C11.2399 63.5034 10.9397 63.4294 10.6797 63.2814C10.4197 63.1313 10.22 62.9168 10.0804 62.6377C9.94092 62.3587 9.87116 62.0332 9.87116 61.6611C9.87116 61.0819 10.0223 60.6317 10.3246 60.3103C10.6269 59.989 11.0518 59.8284 11.5993 59.8284C11.9396 59.8284 12.2398 59.9024 12.4998 60.0503C12.7598 60.1983 12.9595 60.4108 13.0991 60.6877C13.2386 60.9646 13.3083 61.2891 13.3083 61.6611Z" fill="#58595A"/>
<path d="M15.6597 59.895V61.2965C15.6597 61.4444 15.6354 61.8059 15.5868 62.3809L17.2229 59.895H18.3866V63.44H17.4512V62.0258C17.4512 61.7742 17.4724 61.4191 17.5146 60.9604L15.8848 63.44H14.7243V59.895H15.6597Z" fill="#58595A"/>
<path d="M20.9028 61.2584C21.2686 61.2584 21.5275 61.2288 21.6797 61.1696C21.834 61.1105 21.9112 61.0164 21.9112 60.8874C21.9112 60.7733 21.8552 60.6877 21.7431 60.6306C21.6311 60.5735 21.4461 60.545 21.1882 60.545C21.0255 60.545 20.8405 60.5651 20.6333 60.6052C20.4283 60.6454 20.2412 60.7004 20.0721 60.7701L19.7867 60.0947C20.0383 59.9996 20.2824 59.932 20.5192 59.8918C20.7559 59.8495 21.0202 59.8284 21.3119 59.8284C21.7537 59.8284 22.1078 59.9129 22.3741 60.082C22.6405 60.2512 22.7736 60.4805 22.7736 60.7701C22.7736 61.1696 22.5379 61.4296 22.0665 61.5501V61.5818C22.3561 61.6537 22.5622 61.7562 22.6849 61.8894C22.8096 62.0205 22.8719 62.1928 22.8719 62.4063C22.8719 62.6219 22.8022 62.8132 22.6627 62.9802C22.5231 63.1472 22.3213 63.2761 22.057 63.367C21.7928 63.4579 21.4821 63.5034 21.1248 63.5034C20.5329 63.5034 20.0784 63.4304 19.7614 63.2846V62.4855C19.9431 62.5701 20.1418 62.6367 20.3575 62.6853C20.5752 62.7339 20.7855 62.7582 20.9885 62.7582C21.3034 62.7582 21.5391 62.7233 21.6956 62.6536C21.852 62.5817 21.9302 62.4802 21.9302 62.3492C21.9302 62.2054 21.8478 62.0998 21.6829 62.0321C21.518 61.9623 21.2643 61.9275 20.9219 61.9275H20.5477V61.2584H20.9028Z" fill="#58595A"/>
<path d="M27.519 60.824C27.519 61.0143 27.4587 61.177 27.3382 61.3123C27.2199 61.4455 27.0444 61.5311 26.8119 61.5692V61.5945C27.0634 61.6241 27.2621 61.7108 27.408 61.8545C27.556 61.9962 27.6299 62.1716 27.6299 62.3809C27.6299 62.7255 27.4947 62.9886 27.2241 63.1704C26.9535 63.3501 26.5667 63.44 26.0636 63.44H24.2467V59.895H26.0636C26.5498 59.895 26.9133 59.9742 27.1543 60.1328C27.3974 60.2892 27.519 60.5196 27.519 60.824ZM26.628 62.3302C26.628 62.1906 26.5741 62.0902 26.4663 62.0289C26.3584 61.9655 26.1967 61.9338 25.9811 61.9338H25.2138V62.7709H26.0001C26.2052 62.7709 26.3606 62.7329 26.4663 62.6568C26.5741 62.5785 26.628 62.4697 26.628 62.3302ZM26.5392 60.9001C26.5392 60.6845 26.368 60.5767 26.0255 60.5767H25.2138V61.2775H25.9145C26.1196 61.2775 26.2749 61.2479 26.3806 61.1887C26.4863 61.1295 26.5392 61.0333 26.5392 60.9001Z" fill="#58595A"/>
<path d="M29.7879 61.6611C29.7879 62.012 29.845 62.2773 29.9591 62.457C30.0754 62.6367 30.2635 62.7265 30.5235 62.7265C30.7814 62.7265 30.9664 62.6377 31.0784 62.4602C31.1926 62.2805 31.2496 62.0141 31.2496 61.6611C31.2496 61.3102 31.1926 61.047 31.0784 60.8716C30.9643 60.6961 30.7772 60.6084 30.5172 60.6084C30.2593 60.6084 30.0733 60.6961 29.9591 60.8716C29.845 61.0449 29.7879 61.3081 29.7879 61.6611ZM32.2389 61.6611C32.2389 62.2382 32.0867 62.6895 31.7823 63.0151C31.4779 63.3406 31.0541 63.5034 30.5108 63.5034C30.1705 63.5034 29.8703 63.4294 29.6103 63.2814C29.3503 63.1313 29.1505 62.9168 29.011 62.6377C28.8715 62.3587 28.8018 62.0332 28.8018 61.6611C28.8018 61.0819 28.9529 60.6317 29.2552 60.3103C29.5575 59.989 29.9824 59.8284 30.5299 59.8284C30.8702 59.8284 31.1704 59.9024 31.4304 60.0503C31.6904 60.1983 31.8901 60.4108 32.0297 60.6877C32.1692 60.9646 32.2389 61.2891 32.2389 61.6611Z" fill="#58595A"/>
<path d="M35.8745 62.7329V60.6211H35.1484C35.0955 61.0143 35.0226 61.3874 34.9296 61.7404C34.8387 62.0934 34.7118 62.4242 34.5491 62.7329H35.8745ZM37.3616 64.7115H36.4928V63.44H34.1083V64.7115H33.2395V62.7329H33.5376C33.7405 62.4179 33.9107 62.0205 34.0481 61.5406C34.1855 61.0608 34.2817 60.5122 34.3366 59.895H36.8416V62.7329H37.3616V64.7115Z" fill="#58595A"/>
<path d="M40.0237 63.5034C38.9202 63.5034 38.3685 62.8977 38.3685 61.6865C38.3685 61.084 38.5186 60.6243 38.8188 60.3072C39.1189 59.988 39.5491 59.8284 40.1093 59.8284C40.5194 59.8284 40.8872 59.9087 41.2128 60.0694L40.9274 60.8177C40.7752 60.7564 40.6335 60.7067 40.5025 60.6687C40.3714 60.6285 40.2404 60.6084 40.1093 60.6084C39.6062 60.6084 39.3546 60.9657 39.3546 61.6801C39.3546 62.3735 39.6062 62.7202 40.1093 62.7202C40.2953 62.7202 40.4676 62.6959 40.6261 62.6472C40.7847 62.5965 40.9432 62.5183 41.1018 62.4126V63.2402C40.9453 63.3395 40.7868 63.4082 40.6261 63.4463C40.4676 63.4843 40.2668 63.5034 40.0237 63.5034Z" fill="#58595A"/>
<path d="M45.4761 59.895V60.6211H44.3156V63.44H43.3485V60.6211H42.1848V59.895H45.4761Z" fill="#58595A"/>
<path d="M50.028 60.824C50.028 61.0143 49.9678 61.177 49.8473 61.3123C49.7289 61.4455 49.5535 61.5311 49.3209 61.5692V61.5945C49.5725 61.6241 49.7712 61.7108 49.9171 61.8545C50.065 61.9962 50.139 62.1716 50.139 62.3809C50.139 62.7255 50.0037 62.9886 49.7331 63.1704C49.4626 63.3501 49.0757 63.44 48.5726 63.44H46.7557V59.895H48.5726C49.0588 59.895 49.4224 59.9742 49.6634 60.1328C49.9065 60.2892 50.028 60.5196 50.028 60.824ZM49.137 62.3302C49.137 62.1906 49.0831 62.0902 48.9753 62.0289C48.8675 61.9655 48.7058 61.9338 48.4902 61.9338H47.7228V62.7709H48.5092C48.7143 62.7709 48.8696 62.7329 48.9753 62.6568C49.0831 62.5785 49.137 62.4697 49.137 62.3302ZM49.0482 60.9001C49.0482 60.6845 48.877 60.5767 48.5346 60.5767H47.7228V61.2775H48.4236C48.6286 61.2775 48.784 61.2479 48.8897 61.1887C48.9954 61.1295 49.0482 61.0333 49.0482 60.9001Z" fill="#58595A"/>
<path d="M52.2969 61.6611C52.2969 62.012 52.354 62.2773 52.4682 62.457C52.5844 62.6367 52.7726 62.7265 53.0326 62.7265C53.2905 62.7265 53.4754 62.6377 53.5875 62.4602C53.7016 62.2805 53.7587 62.0141 53.7587 61.6611C53.7587 61.3102 53.7016 61.047 53.5875 60.8716C53.4733 60.6961 53.2862 60.6084 53.0262 60.6084C52.7683 60.6084 52.5823 60.6961 52.4682 60.8716C52.354 61.0449 52.2969 61.3081 52.2969 61.6611ZM54.748 61.6611C54.748 62.2382 54.5958 62.6895 54.2914 63.0151C53.987 63.3406 53.5632 63.5034 53.0199 63.5034C52.6796 63.5034 52.3794 63.4294 52.1194 63.2814C51.8594 63.1313 51.6596 62.9168 51.5201 62.6377C51.3806 62.3587 51.3108 62.0332 51.3108 61.6611C51.3108 61.0819 51.462 60.6317 51.7642 60.3103C52.0665 59.989 52.4914 59.8284 53.0389 59.8284C53.3793 59.8284 53.6794 59.9024 53.9394 60.0503C54.1994 60.1983 54.3992 60.4108 54.5387 60.6877C54.6782 60.9646 54.748 61.2891 54.748 61.6611Z" fill="#58595A"/>
<path d="M62.9355 63.44H62.0318V60.6465L61.981 60.843C61.8669 61.2891 61.7644 61.6262 61.6735 61.8545L61.0456 63.44H60.3576L59.7202 61.8419C59.6293 61.6093 59.5321 61.2827 59.4285 60.8621L59.3683 60.6465V63.44H58.4678V59.895H59.7995L60.4083 61.4075C60.4717 61.5702 60.5299 61.7573 60.5827 61.9687C60.6377 62.1801 60.6747 62.3608 60.6937 62.5109C60.7634 62.1938 60.8173 61.9666 60.8554 61.8292C60.8956 61.6897 60.9389 61.5618 60.9854 61.4455C61.0319 61.3292 61.2422 60.8124 61.6164 59.895H62.9355V63.44Z" fill="#58595A"/>
<path d="M66.0383 60.5164C65.8332 60.5164 65.6726 60.582 65.5563 60.713C65.4401 60.842 65.3735 61.0259 65.3566 61.2648H66.7137C66.7094 61.0259 66.6471 60.842 66.5266 60.713C66.4061 60.582 66.2433 60.5164 66.0383 60.5164ZM66.1746 63.5034C65.6039 63.5034 65.1579 63.3459 64.8365 63.0309C64.5152 62.7159 64.3546 62.2699 64.3546 61.6928C64.3546 61.0988 64.5026 60.6401 64.7985 60.3167C65.0966 59.9911 65.5077 59.8284 66.032 59.8284C66.5329 59.8284 66.923 59.9711 67.202 60.2564C67.481 60.5418 67.6205 60.9361 67.6205 61.4392V61.9084H65.3344C65.3449 62.1832 65.4263 62.3978 65.5785 62.5521C65.7307 62.7064 65.9442 62.7836 66.219 62.7836C66.4325 62.7836 66.6344 62.7614 66.8247 62.717C67.0149 62.6726 67.2136 62.6018 67.4208 62.5046V63.2529C67.2517 63.3374 67.0709 63.3998 66.8786 63.44C66.6862 63.4822 66.4516 63.5034 66.1746 63.5034Z" fill="#58595A"/>
<path d="M71.9568 59.895V60.6211H70.7963V63.44H69.8292V60.6211H68.6655V59.895H71.9568Z" fill="#58595A"/>
<path d="M75.4877 63.44L75.3007 62.958H75.2753C75.1125 63.163 74.9445 63.3057 74.7711 63.386C74.5999 63.4643 74.3758 63.5034 74.0989 63.5034C73.7586 63.5034 73.4901 63.4061 73.2935 63.2117C73.099 63.0172 73.0018 62.7403 73.0018 62.3809C73.0018 62.0046 73.1329 61.7277 73.395 61.5501C73.6592 61.3705 74.0566 61.2711 74.5872 61.2521L75.2024 61.2331V61.0777C75.2024 60.7183 75.0185 60.5386 74.6506 60.5386C74.3674 60.5386 74.0344 60.6243 73.6518 60.7955L73.3316 60.1423C73.7396 59.9288 74.1919 59.822 74.6887 59.822C75.1643 59.822 75.529 59.9256 75.7826 60.1328C76.0363 60.3399 76.1631 60.6549 76.1631 61.0777V63.44H75.4877ZM75.2024 61.7975L74.8282 61.8101C74.5471 61.8186 74.3378 61.8693 74.2004 61.9623C74.063 62.0554 73.9943 62.197 73.9943 62.3872C73.9943 62.6599 74.1507 62.7963 74.4636 62.7963C74.6876 62.7963 74.8663 62.7318 74.9994 62.6029C75.1347 62.4739 75.2024 62.3027 75.2024 62.0892V61.7975Z" fill="#58595A"/>
<path d="M80.9529 63.44H79.9857V60.6211H79.0947C79.0271 61.4138 78.9447 62.0057 78.8474 62.3968C78.7502 62.7857 78.6202 63.0679 78.4574 63.2434C78.2968 63.4167 78.0854 63.5034 77.8232 63.5034C77.5992 63.5034 77.4153 63.4695 77.2715 63.4019V62.6282C77.3751 62.6705 77.4787 62.6916 77.5823 62.6916C77.7028 62.6916 77.8032 62.605 77.8835 62.4316C77.9659 62.2583 78.0389 61.9697 78.1023 61.566C78.1678 61.1601 78.2238 60.6031 78.2703 59.895H80.9529V63.44Z" fill="#58595A"/>
<path d="M85.7616 63.44H84.7945V60.6211H83.9035C83.8358 61.4138 83.7534 62.0057 83.6562 62.3968C83.5589 62.7857 83.4289 63.0679 83.2662 63.2434C83.1055 63.4167 82.8941 63.5034 82.632 63.5034C82.4079 63.5034 82.224 63.4695 82.0803 63.4019V62.6282C82.1838 62.6705 82.2874 62.6916 82.391 62.6916C82.5115 62.6916 82.6119 62.605 82.6922 62.4316C82.7747 62.2583 82.8476 61.9697 82.911 61.566C82.9766 61.1601 83.0326 60.6031 83.0791 59.895H85.7616V63.44Z" fill="#58595A"/>
<path d="M88.1669 61.6611C88.1669 62.012 88.2239 62.2773 88.3381 62.457C88.4543 62.6367 88.6425 62.7265 88.9025 62.7265C89.1604 62.7265 89.3454 62.6377 89.4574 62.4602C89.5715 62.2805 89.6286 62.0141 89.6286 61.6611C89.6286 61.3102 89.5715 61.047 89.4574 60.8716C89.3432 60.6961 89.1562 60.6084 88.8961 60.6084C88.6383 60.6084 88.4522 60.6961 88.3381 60.8716C88.2239 61.0449 88.1669 61.3081 88.1669 61.6611ZM90.6179 61.6611C90.6179 62.2382 90.4657 62.6895 90.1613 63.0151C89.8569 63.3406 89.4331 63.5034 88.8898 63.5034C88.5495 63.5034 88.2493 63.4294 87.9893 63.2814C87.7293 63.1313 87.5295 62.9168 87.39 62.6377C87.2505 62.3587 87.1807 62.0332 87.1807 61.6611C87.1807 61.0819 87.3319 60.6317 87.6342 60.3103C87.9364 59.989 88.3613 59.8284 88.9088 59.8284C89.2492 59.8284 89.5493 59.9024 89.8093 60.0503C90.0694 60.1983 90.2691 60.4108 90.4086 60.6877C90.5481 60.9646 90.6179 61.2891 90.6179 61.6611Z" fill="#58595A"/>
<path d="M94.3581 59.895H95.4235L94.0188 61.5945L95.5471 63.44H94.45L93.001 61.6421V63.44H92.0339V59.895H93.001V61.6167L94.3581 59.895Z" fill="#58595A"/>
<path d="M97.4419 61.6611C97.4419 62.012 97.499 62.2773 97.6131 62.457C97.7294 62.6367 97.9175 62.7265 98.1775 62.7265C98.4354 62.7265 98.6204 62.6377 98.7324 62.4602C98.8466 62.2805 98.9037 62.0141 98.9037 61.6611C98.9037 61.3102 98.8466 61.047 98.7324 60.8716C98.6183 60.6961 98.4312 60.6084 98.1712 60.6084C97.9133 60.6084 97.7273 60.6961 97.6131 60.8716C97.499 61.0449 97.4419 61.3081 97.4419 61.6611ZM99.893 61.6611C99.893 62.2382 99.7408 62.6895 99.4364 63.0151C99.132 63.3406 98.7081 63.5034 98.1649 63.5034C97.8245 63.5034 97.5243 63.4294 97.2643 63.2814C97.0043 63.1313 96.8046 62.9168 96.6651 62.6377C96.5255 62.3587 96.4558 62.0332 96.4558 61.6611C96.4558 61.0819 96.6069 60.6317 96.9092 60.3103C97.2115 59.989 97.6364 59.8284 98.1839 59.8284C98.5242 59.8284 98.8244 59.9024 99.0844 60.0503C99.3444 60.1983 99.5442 60.4108 99.6837 60.6877C99.8232 60.9646 99.893 61.2891 99.893 61.6611Z" fill="#58595A"/>
<path d="M102.276 59.895V61.2584H103.627V59.895H104.594V63.44H103.627V61.9782H102.276V63.44H101.309V59.895H102.276Z" fill="#58595A"/>
<path d="M107.665 63.5034C106.562 63.5034 106.01 62.8977 106.01 61.6865C106.01 61.084 106.16 60.6243 106.46 60.3072C106.76 59.988 107.19 59.8284 107.751 59.8284C108.161 59.8284 108.529 59.9087 108.854 60.0694L108.569 60.8177C108.417 60.7564 108.275 60.7067 108.144 60.6687C108.013 60.6285 107.882 60.6084 107.751 60.6084C107.248 60.6084 106.996 60.9657 106.996 61.6801C106.996 62.3735 107.248 62.7202 107.751 62.7202C107.937 62.7202 108.109 62.6959 108.267 62.6472C108.426 62.5965 108.585 62.5183 108.743 62.4126V63.2402C108.587 63.3395 108.428 63.4082 108.267 63.4463C108.109 63.4843 107.908 63.5034 107.665 63.5034Z" fill="#58595A"/>
<path d="M113.117 59.895V60.6211H111.957V63.44H110.99V60.6211H109.826V59.895H113.117Z" fill="#58595A"/>
<path d="M116.344 63.5034C115.928 63.5034 115.601 63.3522 115.364 63.0499H115.313C115.347 63.3459 115.364 63.5171 115.364 63.5636V65H114.397V59.895H115.183L115.32 60.3547H115.364C115.59 60.0038 115.925 59.8284 116.369 59.8284C116.788 59.8284 117.116 59.9901 117.352 60.3135C117.589 60.6369 117.707 61.0861 117.707 61.6611C117.707 62.0395 117.651 62.3682 117.539 62.6472C117.429 62.9263 117.272 63.1387 117.067 63.2846C116.862 63.4304 116.621 63.5034 116.344 63.5034ZM116.059 60.6021C115.82 60.6021 115.645 60.676 115.535 60.824C115.425 60.9699 115.368 61.2119 115.364 61.5501V61.6548C115.364 62.0353 115.42 62.308 115.532 62.4729C115.646 62.6377 115.826 62.7202 116.071 62.7202C116.505 62.7202 116.721 62.3629 116.721 61.6484C116.721 61.2996 116.667 61.0386 116.56 60.8652C116.454 60.6898 116.287 60.6021 116.059 60.6021Z" fill="#58595A"/>
<path d="M118.616 59.895H119.675L120.344 61.8894C120.401 62.0628 120.44 62.2678 120.461 62.5046H120.48C120.504 62.2868 120.549 62.0818 120.617 61.8894L121.273 59.895H122.31L120.81 63.8934C120.673 64.2633 120.476 64.5402 120.22 64.7241C119.967 64.908 119.67 65 119.329 65C119.162 65 118.999 64.982 118.838 64.9461V64.1788C118.954 64.2062 119.081 64.22 119.219 64.22C119.39 64.22 119.539 64.1671 119.666 64.0614C119.795 63.9579 119.895 63.8004 119.967 63.589L120.024 63.4146L118.616 59.895Z" fill="#58595A"/>
<path d="M125.762 59.895H126.827L125.422 61.5945L126.951 63.44H125.854L124.405 61.6421V63.44H123.437V59.895H124.405V61.6167L125.762 59.895Z" fill="#58595A"/>
<path d="M131.427 62.7329H131.943V64.7115H131.075V63.44H128.075V59.895H129.042V62.7138H130.456V59.895H131.427V62.7329Z" fill="#58595A"/>
<path d="M134.098 59.895V61.2965C134.098 61.4444 134.074 61.8059 134.025 62.3809L135.661 59.895H136.825V63.44H135.89V62.0258C135.89 61.7742 135.911 61.4191 135.953 60.9604L134.323 63.44H133.163V59.895H134.098Z" fill="#58595A"/>
<path d="M139.395 59.895V61.2965C139.395 61.4444 139.371 61.8059 139.322 62.3809L140.958 59.895H142.122V63.44H141.187V62.0258C141.187 61.7742 141.208 61.4191 141.25 60.9604L139.62 63.44H138.46V59.895H139.395ZM141.837 58.3698C141.797 58.7651 141.648 59.0536 141.39 59.2354C141.132 59.4151 140.76 59.505 140.274 59.505C139.773 59.505 139.402 59.4183 139.161 59.2449C138.922 59.0716 138.787 58.7799 138.758 58.3698H139.624C139.638 58.5875 139.692 58.7408 139.785 58.8296C139.88 58.9162 140.049 58.9596 140.293 58.9596C140.506 58.9596 140.665 58.912 140.768 58.8169C140.874 58.7197 140.938 58.5706 140.962 58.3698H141.837Z" fill="#58595A"/>
</svg>
