<svg width="24" height="25" viewBox="0 0 24 25" fill="none" xmlns="http://www.w3.org/2000/svg">
<path d="M12 2.5C15.31 2.5 18 5.16 18 8.45C18 12.91 12 19.5 12 19.5C12 19.5 6 12.91 6 8.45C6 5.16 8.69 2.5 12 2.5ZM12 6.5C11.4696 6.5 10.9609 6.71071 10.5858 7.08579C10.2107 7.46086 10 7.96957 10 8.5C10 9.03043 10.2107 9.53914 10.5858 9.91421C10.9609 10.2893 11.4696 10.5 12 10.5C12.5304 10.5 13.0391 10.2893 13.4142 9.91421C13.7893 9.53914 14 9.03043 14 8.5C14 7.96957 13.7893 7.46086 13.4142 7.08579C13.0391 6.71071 12.5304 6.5 12 6.5ZM20 19.5C20 21.71 16.42 23.5 12 23.5C7.58 23.5 4 21.71 4 19.5C4 18.21 5.22 17.06 7.11 16.33L7.75 17.24C6.67 17.69 6 18.31 6 19C6 20.38 8.69 21.5 12 21.5C15.31 21.5 18 20.38 18 19C18 18.31 17.33 17.69 16.25 17.24L16.89 16.33C18.78 17.06 20 18.21 20 19.5Z" fill="#303945"/>
</svg>
