<svg width="332" height="60" viewBox="0 0 332 60" fill="none" xmlns="http://www.w3.org/2000/svg">
<g clip-path="url(#clip0_8_144)">
<path d="M46.2266 46.3182L50.0323 57.5579L51.9815 50.4171L50.1881 47.2853C48.9072 46.9901 47.5824 46.6689 46.2266 46.3182Z" fill="#00DAC9"/>
<path d="M10.5288 39.75L19.3022 41.4919L22.6477 37.3835C21.1985 36.5697 19.7921 35.6829 18.434 34.7265L10.5288 39.75Z" fill="#00DAC9"/>
<path d="M28.373 2.94396L27.9484 1.92722L26.5879 2.67354L26.8103 3.02781C27.3312 2.99238 27.8521 2.96443 28.373 2.94396Z" fill="#00DAC9"/>
<path d="M62.7582 49.0909L61.6343 48.889C60.491 48.6748 59.3509 48.4497 58.2139 48.2135C57.976 48.1639 57.7322 48.1119 57.492 48.0612C56.3955 47.825 55.3009 47.5849 54.2084 47.3408L53.245 47.1188L52.8597 47.0303C52.4768 46.9389 52.0946 46.846 51.7132 46.7516L50.7559 46.5154C49.4873 46.1965 48.2239 45.8631 46.9656 45.5152L46.1331 45.2849C45.5194 45.1109 44.9073 44.9334 44.2968 44.7523C44.0257 44.672 43.7557 44.5929 43.4857 44.5102C42.5438 44.2252 41.6055 43.93 40.6707 43.6246C40.4257 43.5454 40.1819 43.4628 39.9381 43.3813C39.33 43.1742 38.7234 42.9633 38.1185 42.7483L37.3978 42.4909C36.3837 42.1272 35.3752 41.7489 34.3722 41.3561L33.7014 41.0951C33.0505 40.8345 32.4019 40.5676 31.7558 40.2944C31.6832 40.2626 31.6095 40.233 31.5357 40.2023L31.1017 40.011C29.8838 39.4796 28.6743 38.9246 27.4803 38.3365C27.265 38.2314 27.0497 38.1228 26.8357 38.0153C26.1839 37.6855 25.5382 37.3457 24.8983 36.9962C24.6874 36.8805 24.4773 36.7624 24.268 36.6419C22.9158 35.8779 21.5957 35.0572 20.3219 34.1703C20.1126 34.0239 19.9045 33.8759 19.6976 33.7263C19.3408 33.4665 18.984 33.2032 18.6272 32.9316C18.3521 32.7198 18.0821 32.5061 17.8173 32.2903C17.6199 32.1282 17.4248 31.9652 17.2322 31.8015C15.9431 30.7115 14.7663 29.4971 13.719 28.1761C13.5596 27.9706 13.4038 27.764 13.254 27.555C12.769 26.8842 12.3319 26.1807 11.9458 25.4494C11.8268 25.231 11.7198 25.009 11.6151 24.7858C11.0403 23.5783 10.6342 22.2986 10.408 20.9821C10.3684 20.7459 10.3347 20.5074 10.3069 20.2665C10.2522 19.7941 10.2209 19.3143 10.213 18.827C10.213 18.5908 10.213 18.3546 10.213 18.1184C10.2547 16.9435 10.4213 15.7762 10.7101 14.636C10.7565 14.4494 10.8052 14.2628 10.8576 14.0739C10.8706 14.0326 10.8849 13.9936 10.8968 13.9558C11.0134 13.5842 11.143 13.2236 11.2857 12.8741C11.3777 12.6521 11.4748 12.4348 11.5771 12.2222C11.9951 11.3572 12.5153 10.5445 13.1267 9.80141C13.2825 9.61247 13.4395 9.42707 13.6024 9.24757C13.8795 8.94763 14.1733 8.65713 14.4778 8.38907C14.6657 8.22059 14.8591 8.05645 15.0581 7.89663C15.5581 7.49734 16.0833 7.13012 16.6304 6.79722C16.8492 6.66378 17.074 6.53388 17.3011 6.40989C17.765 6.15482 18.2446 5.91864 18.7402 5.70135C18.9852 5.59271 19.2325 5.48761 19.4847 5.38842C19.8962 5.22545 20.3156 5.07312 20.7429 4.93141C20.9943 4.85268 21.2476 4.77396 21.5029 4.69523C22.0159 4.54408 22.5372 4.40591 23.0668 4.28074C23.3296 4.21933 23.596 4.16265 23.8636 4.10597C24.2502 4.02566 24.6414 3.95127 25.0351 3.88396C25.2944 3.83987 25.554 3.79854 25.8141 3.75996C26.3088 3.68596 26.8071 3.62141 27.309 3.5663C27.5714 3.53796 27.8343 3.51158 28.0975 3.48718C28.5851 3.4423 29.0735 3.4053 29.5627 3.37617C29.8148 3.36122 30.067 3.34783 30.3191 3.33602C31.4965 3.28406 32.6739 3.27344 33.8346 3.29469C34.4206 3.30493 35.0013 3.32343 35.577 3.35019C38.228 3.47568 39.8573 3.7477 42.4779 4.16501C39.8538 3.63785 37.1994 3.27226 34.5298 3.07032L34.4537 2.49523L33.419 2.99593C32.0097 2.91681 30.5648 2.88728 29.1317 2.92035L28.2992 0.924639L25.5864 2.41256L26.011 3.09866C25.4948 3.14669 24.9814 3.20455 24.4708 3.27225L22.2266 0L20.2833 2.29093L21.613 3.77886C21.0707 3.9001 20.5367 4.03708 20.011 4.18981L16.3563 0.401504L15.3038 3.73871L17.1448 5.22427C16.6398 5.44785 16.1498 5.69033 15.6748 5.9517L10.7286 2.29093L10.6881 6.87398L12.7682 8.00646C12.4598 8.28672 12.1649 8.57998 11.8834 8.88622L5.28402 5.5502L7.92543 12.1526L9.49886 12.6356C9.3506 12.9835 9.217 13.3457 9.09807 13.722L1.73042 11.6082L7.20115 18.6628L8.32979 18.7549C8.32979 19.2493 8.35476 19.7367 8.40471 20.2169L0 19.7481L7.65189 25.9903L9.99004 25.6053C10.369 26.3575 10.7993 27.0831 11.278 27.777L2.09553 29.8766L12.2973 34.7608L15.9115 32.7792C16.518 33.2917 17.1523 33.7909 17.8144 34.2766L8.65684 40.0972L19.5852 42.276L23.2792 37.7402C23.9333 38.0976 24.5989 38.4471 25.276 38.7888L17.5813 49.6932L28.2397 48.5123L30.4803 41.1577C31.1439 41.4332 31.8119 41.7009 32.4843 41.9607L29.0591 56.3817L37.3485 51.8589L37.1296 43.6352C37.7497 43.8438 38.3689 44.0461 38.9873 44.2422L40.0791 59.7284L45.5498 52.6678L43.528 45.5943C44.1568 45.7691 44.7815 45.9383 45.4023 46.1021L50.1036 60L52.745 50.3167L51.1311 47.4943C51.6513 47.6116 52.1623 47.7234 52.6641 47.8297L57.5735 56.0145L57.2274 48.7319C57.8744 48.85 58.494 48.9575 59.0816 49.0567C59.7357 49.1629 60.3906 49.2673 61.0463 49.3696L62.188 50.6887L61.8585 49.4936C65.8819 50.0994 69.9326 50.5635 74 50.6485C69.8893 50.3545 66.8109 49.8345 62.7582 49.0909ZM27.9483 1.92722L28.3741 2.94397C27.8524 2.96444 27.3311 2.99396 26.8102 3.03253L26.5878 2.67827L27.9483 1.92722ZM21.2276 2.28149L22.1684 1.17263L23.6895 3.39034C23.2613 3.45647 22.8371 3.53126 22.4169 3.61471L21.2276 2.28149ZM16.1292 3.4919L16.6762 1.75835L19.2475 4.42481C18.7844 4.57517 18.3317 4.73774 17.8893 4.91252L16.1292 3.4919ZM11.4053 6.45712L11.4303 3.69383L15.0053 6.33903C14.4246 6.6931 13.8684 7.08524 13.3403 7.51284L11.4053 6.45712ZM8.4618 11.5728L6.64456 7.03222L11.4077 9.44715C10.771 10.2266 10.2293 11.078 9.7938 11.9837L8.4618 11.5728ZM8.34287 18.0452L7.57459 17.9826L3.62258 12.8883L8.90184 14.4069C8.5836 15.5962 8.39462 16.8159 8.33811 18.0452H8.34287ZM7.86002 25.238L2.14072 20.5771L8.48915 20.9313C8.7008 22.3147 9.10089 23.663 9.67844 24.9393L7.86002 25.238ZM12.2806 33.966L4.23387 30.1128L11.7264 28.3981C12.7932 29.8143 14.0048 31.1171 15.3418 32.2856L12.2806 33.966ZM19.3069 41.4919L10.5288 39.75L18.434 34.7265C19.7925 35.6829 21.1992 36.5697 22.6488 37.3835L19.3069 41.4919ZM27.6974 47.8592L19.0762 48.811L25.9265 39.1041C27.1967 39.7264 28.5001 40.3192 29.825 40.8813L27.6974 47.8592ZM30.1271 54.993L33.161 42.2181C34.2397 42.6279 35.3267 43.0188 36.4137 43.3907L36.6301 51.4456L30.1271 54.993ZM44.7673 52.5238L40.6618 57.8165L39.7223 44.4724C40.7284 44.7873 41.7286 45.0853 42.7229 45.3664L44.7673 52.5238ZM51.9827 50.4171L50.0334 57.5579L46.2277 46.3182C47.5835 46.6724 48.9084 46.9901 50.188 47.2853L51.9827 50.4171ZM53.618 48.034C54.6277 48.243 55.5946 48.432 56.5103 48.6032L56.7291 53.2217L53.618 48.034Z" fill="#05142C"/>
<path d="M39.7222 44.4724L40.6641 57.8165L44.7648 52.5238L42.7227 45.3664C41.7285 45.083 40.7283 44.785 39.7222 44.4724Z" fill="#00DAC9"/>
<path d="M53.6133 48.034L56.7292 53.2217L56.5104 48.6032C55.5899 48.432 54.623 48.243 53.6133 48.034Z" fill="#00DAC9"/>
<path d="M11.4076 9.44715L6.64453 7.03223L8.46177 11.5728L9.79377 11.9778C10.2296 11.0742 10.7713 10.2248 11.4076 9.44715Z" fill="#00DAC9"/>
<path d="M2.14062 20.5771L7.85516 25.238L9.67359 24.9393C9.09604 23.663 8.69595 22.3147 8.4843 20.9313L2.14062 20.5771Z" fill="#00DAC9"/>
<path d="M15.0053 6.33903L11.4302 3.69383L11.4053 6.45712L13.3462 7.51284C13.8724 7.08545 14.4266 6.69331 15.0053 6.33903Z" fill="#00DAC9"/>
<path d="M3.62256 12.8883L7.56981 17.9826L8.33809 18.0452C8.3946 16.8159 8.58359 15.5962 8.90182 14.4069L3.62256 12.8883Z" fill="#00DAC9"/>
<path d="M19.2475 4.4248L16.6762 1.75835L16.1292 3.4919L17.8893 4.90897C18.3317 4.73498 18.7844 4.5736 19.2475 4.4248Z" fill="#00DAC9"/>
<path d="M33.1562 42.2181L30.1223 54.993L36.6242 51.4503L36.4089 43.3955C35.3219 43.0188 34.2349 42.6302 33.1562 42.2181Z" fill="#00DAC9"/>
<path d="M11.724 28.4017L4.23389 30.1128L12.2759 33.9625L15.3419 32.2856C14.0042 31.1183 12.7918 29.8168 11.724 28.4017Z" fill="#00DAC9"/>
<path d="M23.6884 3.38797L22.1673 1.17026L21.2266 2.27912L22.4159 3.61234C22.8369 3.52968 23.261 3.45489 23.6884 3.38797Z" fill="#00DAC9"/>
<path d="M19.0715 48.811L27.6927 47.8592L29.8191 40.8813C28.4943 40.3192 27.1908 39.7264 25.9207 39.1041L19.0715 48.811Z" fill="#00DAC9"/>
<path d="M61.6658 40.8601L59.2991 36.3254L47.562 29.416L61.6658 40.8601Z" fill="#001EBA"/>
<path d="M45.9065 11.2185L38.6602 20.6656L50.6434 13.2685L45.9065 11.2185ZM46.1348 12.09L49.1081 13.3795L41.5739 18.0299L46.1348 12.09Z" fill="#05142C"/>
<path d="M50.1631 15.2335L39.4333 21.3045L54.6967 18.2885L50.1631 15.2335ZM50.1298 16.0672L52.8854 17.9248L43.6089 19.7563L50.1298 16.0672Z" fill="#05142C"/>
<path d="M53.725 19.9394L39.5154 22.1099L58.6249 23.7985L53.725 19.9394ZM53.5264 20.6869L56.3141 22.8834L45.438 21.9221L53.5264 20.6869Z" fill="#05142C"/>
<path d="M61.9442 30.271L56.6412 24.7633L40.2837 22.7558L61.9442 30.271ZM59.3754 28.6296L46.8165 24.2697L56.301 25.4353L59.3754 28.6296Z" fill="#05142C"/>
<path d="M59.0291 30.3915L40.2383 23.5576L63.9634 37.0198L59.0291 30.3915ZM58.5831 30.9819L61.3791 34.736L47.9485 27.1157L58.5831 30.9819Z" fill="#05142C"/>
<path d="M63.8873 43.575L59.8437 35.8165L39.7578 23.9993L63.8873 43.575ZM61.6657 40.8589L47.5619 29.416L59.299 36.3243L61.6657 40.8589Z" fill="#05142C"/>
<path d="M61.1936 47.0928L59.6369 41.4493L39.3119 24.2815L58.0527 45.919C57.4272 45.6828 56.7445 45.4171 56.0309 45.1337L38.5329 24.2709L49.3971 42.387C48.8714 42.1563 48.3394 41.9201 47.8011 41.6784L38.2594 24.9948L43.1593 39.4761C42.6209 39.2076 42.0833 38.9321 41.5466 38.6494L37.6219 24.8991L38.4758 36.982C37.9541 36.6868 37.4388 36.3865 36.9298 36.081L36.6217 24.5378L34.2753 34.4159C33.7853 34.09 33.3056 33.7602 32.8362 33.4264L35.7095 23.9993L30.3803 31.5499C29.9617 31.2035 29.5581 30.854 29.1696 30.5013L34.9805 23.3663L27.0848 28.3851C26.7383 27.9868 26.4164 27.5857 26.1191 27.1818L34.8889 22.372L24.661 24.7125C24.454 24.2479 24.2842 23.7677 24.1532 23.2766L34.0648 21.6481L23.8821 21.0801C23.8893 20.7275 23.9219 20.3759 23.9796 20.0279L33.8828 20.8345L24.5528 18.1574C24.6646 17.8716 24.7835 17.5937 24.9096 17.3237L34.0671 20.1106L25.7064 15.8806C25.8384 15.6728 25.9752 15.4709 26.1179 15.2725L34.2515 19.6985L26.9171 14.2664C27.1169 14.0396 27.3239 13.8208 27.5379 13.6098L34.575 19.2911L28.3704 12.8564C28.6273 12.6403 28.8937 12.4348 29.1685 12.2376L35.4657 19.2911L30.171 11.5787C30.4339 11.4204 30.7038 11.2681 30.9774 11.1228L35.9165 19.095L32.3058 10.4875C32.7577 10.2938 33.2219 10.1151 33.6985 9.95138L36.6812 19.2958L35.3754 9.44714C35.7417 9.35031 36.1131 9.26135 36.4897 9.18026L37.4899 19.7823L39.8507 8.64177C40.2562 8.59808 40.6641 8.56147 41.0756 8.52368L38.3403 20.0575L45.8673 8.41622C53.2896 8.60398 60.9534 10.2879 66.0935 11.7357C60.9701 10.0222 53.5441 8.18713 46.2633 7.80334C45.9882 7.78917 45.7135 7.77696 45.4391 7.76673C44.2808 7.72304 42.1145 7.71949 40.9776 7.75964C40.729 7.76791 40.4828 7.77854 40.2366 7.79153C39.8204 7.81357 39.4077 7.84191 38.9986 7.87655C38.7488 7.89781 38.5007 7.92143 38.2541 7.94741C37.5263 8.02613 36.8099 8.12572 36.1051 8.24617C35.8672 8.2879 35.6321 8.33159 35.3998 8.37725C35.0133 8.45519 34.6315 8.53903 34.2533 8.63114C34.0202 8.68861 33.7883 8.74884 33.5576 8.81182C33.4077 8.85315 33.2591 8.89566 33.1104 8.93936C32.8809 9.00785 32.6549 9.0787 32.4301 9.1531C31.9283 9.31842 31.4387 9.49989 30.9614 9.69749C30.7402 9.7896 30.5225 9.88407 30.3084 9.98327C30.2526 10.0081 30.199 10.0352 30.1443 10.06C29.9279 10.1632 29.7142 10.2694 29.5033 10.3789C29.2155 10.5284 28.9336 10.6859 28.6577 10.8512C28.2795 11.0768 27.9108 11.3165 27.5552 11.5716C27.2722 11.7763 26.9967 11.9892 26.7287 12.2104C26.4115 12.4734 26.1067 12.7489 25.8141 13.0371C25.5917 13.2579 25.3765 13.4858 25.1695 13.7232C24.8591 14.0756 24.5677 14.4442 24.2966 14.8273C24.1503 15.0328 24.01 15.2441 23.8732 15.4602C23.7364 15.6764 23.627 15.8629 23.5164 16.072C23.4546 16.1818 23.3975 16.2916 23.3368 16.4038C23.2262 16.614 23.1192 16.8289 23.0181 17.0474C22.8897 17.3237 22.7695 17.6059 22.6554 17.8964C22.5697 18.1137 22.4889 18.3369 22.4116 18.5636C22.3343 18.7904 22.2629 19.0159 22.1939 19.2497C22.169 19.3371 22.1428 19.4245 22.1178 19.5131C22.0881 19.6583 22.0631 19.8036 22.0405 19.9476C21.9852 20.3038 21.9526 20.6632 21.943 21.0234C21.9358 21.2596 21.943 21.4958 21.9537 21.732C21.9743 22.0669 22.014 22.4005 22.0726 22.731C22.1123 22.9625 22.161 23.1935 22.2189 23.4242C22.3486 23.935 22.5176 24.4352 22.7243 24.9204C22.8171 25.1412 22.9194 25.3597 23.0276 25.5781C23.2808 26.0841 23.5648 26.5743 23.878 27.046C24.008 27.242 24.1432 27.4388 24.2835 27.6364C24.5903 28.0592 24.9226 28.4776 25.2801 28.8917C25.4359 29.0724 25.5953 29.246 25.7558 29.429C26.1626 29.8695 26.5967 30.3053 27.0534 30.7351C27.2246 30.8957 27.4006 31.0563 27.579 31.2169C27.9826 31.583 28.4024 31.9428 28.8385 32.2962C29.0228 32.445 29.2084 32.5938 29.3975 32.7403C29.893 33.1276 30.4056 33.5094 30.9352 33.8857C31.1386 34.031 31.3431 34.1739 31.5501 34.3168C32.0393 34.6529 32.5384 34.9843 33.0474 35.3111C33.2591 35.4469 33.4708 35.5815 33.6848 35.7149C34.1867 36.0298 34.6965 36.338 35.2143 36.6396C35.4521 36.7801 35.6959 36.9206 35.9386 37.0588C36.4626 37.3587 36.9923 37.6532 37.5274 37.9421C37.7748 38.0755 38.0222 38.209 38.2707 38.3401C38.8257 38.6329 39.3843 38.9207 39.9465 39.2033L48.1424 43.0069C37.7956 39.2281 24.4001 34.0652 19.2445 24.6748C17.6758 21.7332 17.1549 18.1208 18.4952 15.0009C19.3539 12.9261 20.8928 11.1842 22.6958 9.84274C33.0854 2.16693 52.846 6.90468 64.0372 11.065C52.6902 6.2233 31.9337 1.19742 21.0814 9.03855C19.1215 10.4556 17.46 12.3569 16.5181 14.6029C15.0458 17.9992 15.5595 21.9575 17.2923 25.1577C21.1754 32.3612 29.3149 36.982 36.6409 40.1161C45.3049 43.7285 56.3604 46.4929 65.5084 48.5961L64.7948 48.3599C63.5905 47.9513 62.3901 47.529 61.1936 47.0928ZM41.8213 8.47763C42.8774 8.41622 43.9489 8.39378 45.0324 8.40441L39.9934 16.1983L41.8213 8.47763ZM39.1026 8.72916L37.7611 15.0587L37.1926 9.03619C37.8182 8.91653 38.4548 8.81379 39.1026 8.72798V8.72916ZM34.6808 9.63845L34.9187 11.4299L34.3764 9.73056C34.4774 9.69867 34.5785 9.66679 34.6808 9.63726V9.63845ZM31.6564 10.7816L31.7647 11.0413L31.616 10.8052L31.6564 10.7816ZM25.3449 16.4923L26.4426 17.0474L25.2402 16.6813C25.2747 16.6175 25.3092 16.5549 25.3449 16.4923ZM24.3138 18.8246L26.841 19.5497L24.1508 19.3312C24.2032 19.16 24.2614 18.9911 24.3138 18.8246ZM24.0046 22.5846C23.9582 22.3219 23.9253 22.057 23.9058 21.791L27.5819 21.9965L24.0046 22.5846ZM24.981 25.3668L30.0806 24.1989L25.7112 26.5973C25.4455 26.2006 25.2017 25.7898 24.981 25.3668ZM27.5653 28.9212L31.6576 26.3233L28.6475 30.0195C28.2686 29.655 27.9078 29.2889 27.5653 28.9212ZM32.2297 32.9847C31.7889 32.6604 31.3591 32.3317 30.9405 31.9987L33.7389 28.032L32.2297 32.9847ZM34.9092 34.8363L36.0521 30.0254L36.2019 35.65C35.7658 35.3784 35.3349 35.1072 34.9092 34.8363ZM39.2203 37.4107L38.816 31.6928L40.6736 38.196C40.186 37.9362 39.7016 37.6728 39.2203 37.406V37.4107ZM44.0631 39.9284L41.2909 31.7306L46.6903 41.1707C45.8213 40.7691 44.9456 40.3535 44.0631 39.9236V39.9284ZM45.8173 30.7032L59.0065 41.8426L60.3707 46.7893L59.688 46.539L59.4561 46.4516L45.8173 30.7032ZM43.7789 31.6314L54.6347 44.5775C53.3539 44.0638 51.9695 43.4935 50.5186 42.8711L43.7789 31.6314Z" fill="#05142C"/>
<path d="M58.5831 30.9843L47.9497 27.1157L61.3792 34.7383L58.5831 30.9843Z" fill="#001EBA"/>
<path d="M30.9358 32.0022C31.3528 32.3352 31.7826 32.6639 32.225 32.9882L33.7342 28.0356L30.9358 32.0022Z" fill="#001EBA"/>
<path d="M24.981 25.3668C25.2017 25.7898 25.4455 26.2006 25.7112 26.5973L30.0806 24.1989L24.981 25.3668Z" fill="#001EBA"/>
<path d="M34.9092 34.8363C35.3349 35.1103 35.7659 35.3815 36.2019 35.65L36.0521 30.0254L34.9092 34.8363Z" fill="#001EBA"/>
<path d="M27.5654 28.9213C27.9079 29.2889 28.2687 29.6538 28.6477 30.0159L31.6578 26.3197L27.5654 28.9213Z" fill="#001EBA"/>
<path d="M50.1298 16.0708L43.6101 19.7587L52.8854 17.9271L50.1298 16.0708Z" fill="#001EBA"/>
<path d="M39.2203 37.406C39.7023 37.6728 40.1868 37.9362 40.6736 38.196L38.8159 31.6881L39.2203 37.406Z" fill="#001EBA"/>
<path d="M59.3753 28.6296L56.301 25.4353L46.8164 24.2709L59.3753 28.6296Z" fill="#001EBA"/>
<path d="M53.5264 20.6869L45.438 21.9221L56.314 22.8834L53.5264 20.6869Z" fill="#001EBA"/>
<path d="M44.0633 39.9236C44.9433 40.3535 45.819 40.7692 46.6904 41.1707L41.291 31.7306L44.0633 39.9236Z" fill="#001EBA"/>
<path d="M46.1397 12.0876L41.5835 18.0275L49.1177 13.3772L46.1397 12.0876Z" fill="#001EBA"/>
<path d="M45.0289 8.40323C43.949 8.39261 42.8775 8.41504 41.8178 8.47645L39.9863 16.1983L45.0289 8.40323Z" fill="#001EBA"/>
<path d="M54.6347 44.5799L43.7788 31.6338L50.5185 42.8735C51.9718 43.4958 53.3538 44.0662 54.6347 44.5799Z" fill="#001EBA"/>
<path d="M59.6881 46.5414L60.3707 46.7917L59.0066 41.8449L45.8174 30.7032L59.4562 46.454L59.6881 46.5414Z" fill="#001EBA"/>
<path d="M23.9048 21.791C23.9242 22.057 23.9571 22.3219 24.0035 22.5846L27.5809 21.9941L23.9048 21.791Z" fill="#001EBA"/>
<path d="M39.1026 8.72798C38.4557 8.81222 37.819 8.91377 37.1926 9.03265L37.7611 15.0552L39.1026 8.72798Z" fill="#001EBA"/>
<path d="M24.3138 18.8246C24.2579 18.9911 24.2032 19.16 24.1509 19.3312L26.8411 19.5497L24.3138 18.8246Z" fill="#001EBA"/>
<path d="M25.3449 16.4924C25.3092 16.5549 25.2747 16.6175 25.2402 16.6813L26.4426 17.0474L25.3449 16.4924Z" fill="#001EBA"/>
<path d="M34.6809 9.63727C34.5786 9.66679 34.4776 9.69867 34.3765 9.72938L34.9188 11.4287L34.6809 9.63727Z" fill="#001EBA"/>
<path d="M31.6564 10.7816L31.616 10.8016L31.7646 11.0378L31.6564 10.7816Z" fill="#001EBA"/>
<path d="M89.254 26.234C85.366 26.234 82.594 23.498 82.594 19.7C82.594 15.902 85.366 13.166 89.254 13.166C93.124 13.166 95.896 15.902 95.896 19.7C95.896 23.498 93.124 26.234 89.254 26.234ZM89.254 22.994C91.09 22.994 92.422 21.626 92.422 19.7C92.422 17.774 91.09 16.406 89.254 16.406C87.418 16.406 86.068 17.774 86.068 19.7C86.068 21.626 87.418 22.994 89.254 22.994ZM103.738 26.234C99.8504 26.234 97.0784 23.498 97.0784 19.7C97.0784 15.902 99.8504 13.166 103.738 13.166C107.608 13.166 110.38 15.902 110.38 19.7C110.38 23.498 107.608 26.234 103.738 26.234ZM103.738 22.994C105.574 22.994 106.906 21.626 106.906 19.7C106.906 17.774 105.574 16.406 103.738 16.406C101.902 16.406 100.552 17.774 100.552 19.7C100.552 21.626 101.902 22.994 103.738 22.994ZM118.223 26.234C114.335 26.234 111.563 23.498 111.563 19.7C111.563 15.902 114.335 13.166 118.223 13.166C122.093 13.166 124.865 15.902 124.865 19.7C124.865 23.498 122.093 26.234 118.223 26.234ZM118.223 22.994C120.059 22.994 121.391 21.626 121.391 19.7C121.391 17.774 120.059 16.406 118.223 16.406C116.387 16.406 115.037 17.774 115.037 19.7C115.037 21.626 116.387 22.994 118.223 22.994ZM135.958 16.802V17.108L133.474 20.654L135.958 24.2V24.506H132.754L130.432 20.888V20.42L132.754 16.802H135.958ZM137.452 16.802H140.656V17.108L138.19 20.654L140.656 24.2V24.506H137.452L135.13 20.888V20.42L137.452 16.802ZM141.054 13.4H150.774V16.496H147.624V26H144.222V16.496H141.054V13.4ZM158.1 16.514L159.306 13.4H162.762V13.778L157.38 26H153.906V25.622L155.382 22.49L151.332 13.778V13.4H154.788L156.138 16.514L157.146 19.088L158.1 16.514ZM164.095 21.158L164.689 13.4H173.725V26H170.323V16.532H167.821L167.443 21.428C167.209 24.506 165.967 26.036 163.087 26.036C162.817 26.036 162.259 26.018 162.025 26V22.94C162.187 22.958 162.475 22.958 162.637 22.958C163.609 22.958 164.005 22.436 164.095 21.158ZM181.865 13.166C185.645 13.166 188.363 15.902 188.363 19.7C188.363 23.498 185.645 26.234 181.865 26.234C178.499 26.234 175.961 24.128 175.439 20.924H178.769C179.165 22.256 180.335 23.084 181.793 23.084C183.197 23.084 184.295 22.292 184.745 21.05H180.695V18.332H184.745C184.295 17.09 183.197 16.316 181.793 16.316C180.389 16.316 179.237 17.09 178.823 18.35H175.475C176.033 15.218 178.553 13.166 181.865 13.166ZM197.315 18.008V13.4H200.717V26H197.315V21.266H193.571V26H190.187V13.4H193.571V18.008H197.315ZM206.49 21.14V22.994H211.53V26H203.142V13.4H211.386V16.352H206.49V18.242H211.008V21.14H206.49ZM213.566 13.4H218.588C221.378 13.4 223.178 15.182 223.178 17.954C223.178 20.708 221.378 22.49 218.588 22.49H216.95V26H213.566V13.4ZM216.914 19.484H218.264C219.236 19.484 219.794 18.89 219.794 17.99C219.794 17.072 219.236 16.478 218.264 16.478H216.914V19.484ZM228.094 26H224.71V13.4H232.594V16.604H228.094V26ZM239.775 26.234C235.887 26.234 233.115 23.498 233.115 19.7C233.115 15.902 235.887 13.166 239.775 13.166C243.645 13.166 246.417 15.902 246.417 19.7C246.417 23.498 243.645 26.234 239.775 26.234ZM239.775 22.994C241.611 22.994 242.943 21.626 242.943 19.7C242.943 17.774 241.611 16.406 239.775 16.406C237.939 16.406 236.589 17.774 236.589 19.7C236.589 21.626 237.939 22.994 239.775 22.994ZM254.098 26.234C250.318 26.234 247.6 23.498 247.6 19.7C247.6 15.902 250.318 13.166 254.098 13.166C257.41 13.166 259.93 15.236 260.488 18.404H257.068C256.654 17.18 255.538 16.406 254.17 16.406C252.37 16.406 251.074 17.774 251.074 19.7C251.074 21.626 252.37 22.994 254.17 22.994C255.574 22.994 256.726 22.166 257.122 20.87H260.524C260.002 24.11 257.464 26.234 254.098 26.234ZM265.588 21.14V22.994H270.628V26H262.24V13.4H270.484V16.352H265.588V18.242H270.106V21.14H265.588ZM272.663 13.4H277.685C280.475 13.4 282.275 15.182 282.275 17.954C282.275 20.708 280.475 22.49 277.685 22.49H276.047V26H272.663V13.4ZM276.011 19.484H277.361C278.333 19.484 278.891 18.89 278.891 17.99C278.891 17.072 278.333 16.478 277.361 16.478H276.011V19.484ZM291.872 19.358C292.916 19.988 293.546 21.104 293.546 22.382C293.546 24.542 291.908 26 289.37 26H283.808V13.4H289.28C291.512 13.4 293.042 14.768 293.042 16.82C293.042 17.846 292.61 18.764 291.872 19.358ZM288.74 16.172H287.03V18.188H288.74C289.442 18.188 289.838 17.828 289.838 17.198C289.838 16.55 289.442 16.172 288.74 16.172ZM287.03 23.102H289.082C289.784 23.102 290.198 22.652 290.198 21.968C290.198 21.266 289.784 20.834 289.082 20.834H287.03V23.102ZM298.51 19.808L303.19 13.4H305.764V26H302.362V22.922L302.488 19.61L297.844 26H295.234V13.4H298.618V16.91L298.51 19.808ZM314.057 26.234C310.277 26.234 307.559 23.498 307.559 19.7C307.559 15.902 310.277 13.166 314.057 13.166C317.369 13.166 319.889 15.236 320.447 18.404H317.027C316.613 17.18 315.497 16.406 314.129 16.406C312.329 16.406 311.033 17.774 311.033 19.7C311.033 21.626 312.329 22.994 314.129 22.994C315.533 22.994 316.685 22.166 317.081 20.87H320.483C319.961 24.11 317.423 26.234 314.057 26.234ZM324.629 16.802L326.951 20.42V20.888L324.629 24.506H321.425V24.2L323.891 20.654L321.425 17.108V16.802H324.629ZM326.123 16.802H329.345L331.667 20.42V20.888L329.345 24.506H326.123V24.2L328.607 20.654L326.123 17.108V16.802Z" fill="#05142C"/>
<path d="M83.582 38.2H86.69C87.8287 38.2 88.7153 38.4847 89.35 39.054C89.9847 39.614 90.302 40.4027 90.302 41.42C90.302 42.4373 89.9847 43.2307 89.35 43.8C88.7153 44.36 87.8287 44.64 86.69 44.64H84.436V48H83.582V38.2ZM86.676 43.856C87.5907 43.856 88.2813 43.6553 88.748 43.254C89.2147 42.8433 89.448 42.2367 89.448 41.434C89.448 40.6313 89.2147 40.0293 88.748 39.628C88.2813 39.2173 87.5907 39.012 86.676 39.012H84.436V43.856H86.676ZM95.299 48.182C94.571 48.182 93.927 48.0233 93.367 47.706C92.807 47.3793 92.373 46.9313 92.065 46.362C91.757 45.7833 91.603 45.1207 91.603 44.374C91.603 43.6367 91.757 42.9833 92.065 42.414C92.3823 41.8353 92.821 41.3873 93.381 41.07C93.941 40.7433 94.585 40.58 95.313 40.58C96.0597 40.58 96.7177 40.7527 97.287 41.098C97.8563 41.4433 98.2903 41.9287 98.589 42.554C98.8877 43.1793 99.0277 43.898 99.009 44.71H92.429C92.5037 45.5313 92.7977 46.1893 93.311 46.684C93.8337 47.1693 94.4963 47.412 95.299 47.412C95.887 47.412 96.405 47.2813 96.853 47.02C97.301 46.7587 97.6463 46.3947 97.889 45.928L98.799 45.942C98.519 46.6327 98.0663 47.1787 97.441 47.58C96.825 47.9813 96.111 48.182 95.299 48.182ZM98.211 43.996C98.1177 43.1747 97.8097 42.5307 97.287 42.064C96.7643 41.588 96.1063 41.35 95.313 41.35C94.5103 41.35 93.8477 41.5927 93.325 42.078C92.8023 42.554 92.5037 43.1933 92.429 43.996H98.211ZM101.229 40.762H101.985L105.093 45.06L108.187 40.762H108.957V48H108.145V42.12L105.387 45.956H104.813L102.041 42.12V48H101.229V40.762ZM115.016 48.182C114.279 48.182 113.621 48.0233 113.042 47.706C112.464 47.3793 112.011 46.9267 111.684 46.348C111.367 45.7693 111.208 45.1113 111.208 44.374C111.208 43.6367 111.367 42.9833 111.684 42.414C112.011 41.8353 112.464 41.3873 113.042 41.07C113.621 40.7433 114.279 40.58 115.016 40.58C115.754 40.58 116.407 40.7433 116.976 41.07C117.555 41.3873 118.003 41.8353 118.32 42.414C118.647 42.9833 118.81 43.6367 118.81 44.374C118.81 45.1113 118.647 45.7693 118.32 46.348C118.003 46.9267 117.555 47.3793 116.976 47.706C116.407 48.0233 115.754 48.182 115.016 48.182ZM112.02 44.374C112.02 44.962 112.146 45.4847 112.398 45.942C112.65 46.3993 113 46.7587 113.448 47.02C113.906 47.272 114.428 47.398 115.016 47.398C115.595 47.398 116.108 47.272 116.556 47.02C117.014 46.7587 117.368 46.3993 117.62 45.942C117.872 45.4847 117.998 44.962 117.998 44.374C117.998 43.786 117.872 43.2633 117.62 42.806C117.368 42.3487 117.014 41.994 116.556 41.742C116.108 41.49 115.595 41.364 115.016 41.364C114.428 41.364 113.906 41.49 113.448 41.742C113 41.994 112.65 42.3487 112.398 42.806C112.146 43.2633 112.02 43.786 112.02 44.374ZM126.639 44.724H121.879V48H121.067V40.762H121.879V43.954H126.639V40.762H127.451V48H126.639V44.724ZM132.213 41.518H129.385V40.762H135.853V41.518H133.025V48H132.213V41.518ZM141.137 40.762H141.893L145.001 45.06L148.095 40.762H148.865V48H148.053V42.12L145.295 45.956H144.721L141.949 42.12V48H141.137V40.762ZM154.015 48.112C153.175 48.112 152.507 47.9207 152.013 47.538C151.527 47.146 151.285 46.6187 151.285 45.956C151.285 45.312 151.509 44.8033 151.957 44.43C152.405 44.0473 153.002 43.856 153.749 43.856H156.941V43.338C156.941 42.7313 156.735 42.246 156.325 41.882C155.923 41.518 155.387 41.336 154.715 41.336C154.173 41.336 153.702 41.4667 153.301 41.728C152.899 41.98 152.624 42.3253 152.475 42.764H151.649C151.826 42.092 152.185 41.56 152.727 41.168C153.277 40.776 153.935 40.58 154.701 40.58C155.298 40.58 155.825 40.6967 156.283 40.93C156.749 41.154 157.109 41.4713 157.361 41.882C157.622 42.2927 157.753 42.764 157.753 43.296V48H157.081L156.997 46.754C156.679 47.1927 156.264 47.5287 155.751 47.762C155.237 47.9953 154.659 48.112 154.015 48.112ZM152.097 45.942C152.097 46.3807 152.269 46.7307 152.615 46.992C152.969 47.2533 153.445 47.384 154.043 47.384C154.593 47.384 155.088 47.2767 155.527 47.062C155.975 46.8473 156.325 46.5487 156.577 46.166C156.829 45.7833 156.955 45.354 156.955 44.878V44.57H153.777C153.282 44.57 152.876 44.696 152.559 44.948C152.251 45.2 152.097 45.5313 152.097 45.942ZM160.483 40.762H161.295V47.23H165.663V40.762H166.461V47.23H170.829V40.762H171.641V48H160.483V40.762ZM174.524 40.762H175.336V46.74L180.278 40.762H181.062V48H180.25V41.994L175.294 48H174.524V40.762ZM189.516 44.724H184.756V48H183.944V40.762H184.756V43.954H189.516V40.762H190.328V48H189.516V44.724ZM196.96 40.762H197.772V46.74L202.714 40.762H203.498V48H202.686V41.994L197.73 48H196.96V40.762ZM212.975 48.182C212.238 48.182 211.58 48.0233 211.001 47.706C210.423 47.3793 209.97 46.9267 209.643 46.348C209.326 45.7693 209.167 45.1113 209.167 44.374C209.167 43.6367 209.326 42.9833 209.643 42.414C209.97 41.8353 210.423 41.3873 211.001 41.07C211.58 40.7433 212.238 40.58 212.975 40.58C213.713 40.58 214.366 40.7433 214.935 41.07C215.514 41.3873 215.962 41.8353 216.279 42.414C216.606 42.9833 216.769 43.6367 216.769 44.374C216.769 45.1113 216.606 45.7693 216.279 46.348C215.962 46.9267 215.514 47.3793 214.935 47.706C214.366 48.0233 213.713 48.182 212.975 48.182ZM209.979 44.374C209.979 44.962 210.105 45.4847 210.357 45.942C210.609 46.3993 210.959 46.7587 211.407 47.02C211.865 47.272 212.387 47.398 212.975 47.398C213.554 47.398 214.067 47.272 214.515 47.02C214.973 46.7587 215.327 46.3993 215.579 45.942C215.831 45.4847 215.957 44.962 215.957 44.374C215.957 43.786 215.831 43.2633 215.579 42.806C215.327 42.3487 214.973 41.994 214.515 41.742C214.067 41.49 213.554 41.364 212.975 41.364C212.387 41.364 211.865 41.49 211.407 41.742C210.959 41.994 210.609 42.3487 210.357 42.806C210.105 43.2633 209.979 43.786 209.979 44.374ZM222.54 48.182C221.803 48.182 221.145 48.0233 220.566 47.706C219.987 47.3793 219.535 46.9267 219.208 46.348C218.891 45.7693 218.732 45.1113 218.732 44.374V43.408C218.732 42.3067 218.844 41.3967 219.068 40.678C219.292 39.95 219.647 39.376 220.132 38.956C220.617 38.5267 221.261 38.214 222.064 38.018L225.774 37.136V38.004L222.26 38.816C221.42 39.012 220.781 39.3853 220.342 39.936C219.913 40.4867 219.665 41.252 219.6 42.232C219.917 41.728 220.342 41.3407 220.874 41.07C221.406 40.79 222.003 40.65 222.666 40.65C223.385 40.65 224.024 40.8133 224.584 41.14C225.153 41.4573 225.597 41.9007 225.914 42.47C226.231 43.0393 226.39 43.688 226.39 44.416C226.39 45.144 226.227 45.7973 225.9 46.376C225.573 46.9453 225.116 47.3887 224.528 47.706C223.949 48.0233 223.287 48.182 222.54 48.182ZM219.544 44.416C219.544 44.9947 219.67 45.5127 219.922 45.97C220.174 46.418 220.529 46.768 220.986 47.02C221.443 47.272 221.966 47.398 222.554 47.398C223.142 47.398 223.665 47.272 224.122 47.02C224.579 46.768 224.934 46.418 225.186 45.97C225.447 45.5127 225.578 44.9947 225.578 44.416C225.578 43.828 225.447 43.31 225.186 42.862C224.934 42.4047 224.579 42.05 224.122 41.798C223.665 41.546 223.142 41.42 222.554 41.42C221.966 41.42 221.443 41.546 220.986 41.798C220.529 42.05 220.174 42.4047 219.922 42.862C219.67 43.31 219.544 43.828 219.544 44.416ZM231.815 48.182C231.078 48.182 230.42 48.0233 229.841 47.706C229.263 47.3793 228.81 46.9267 228.483 46.348C228.166 45.7693 228.007 45.1113 228.007 44.374C228.007 43.6367 228.166 42.9833 228.483 42.414C228.81 41.8353 229.263 41.3873 229.841 41.07C230.42 40.7433 231.078 40.58 231.815 40.58C232.553 40.58 233.206 40.7433 233.775 41.07C234.354 41.3873 234.802 41.8353 235.119 42.414C235.446 42.9833 235.609 43.6367 235.609 44.374C235.609 45.1113 235.446 45.7693 235.119 46.348C234.802 46.9267 234.354 47.3793 233.775 47.706C233.206 48.0233 232.553 48.182 231.815 48.182ZM228.819 44.374C228.819 44.962 228.945 45.4847 229.197 45.942C229.449 46.3993 229.799 46.7587 230.247 47.02C230.705 47.272 231.227 47.398 231.815 47.398C232.394 47.398 232.907 47.272 233.355 47.02C233.813 46.7587 234.167 46.3993 234.419 45.942C234.671 45.4847 234.797 44.962 234.797 44.374C234.797 43.786 234.671 43.2633 234.419 42.806C234.167 42.3487 233.813 41.994 233.355 41.742C232.907 41.49 232.394 41.364 231.815 41.364C231.227 41.364 230.705 41.49 230.247 41.742C229.799 41.994 229.449 42.3487 229.197 42.806C228.945 43.2633 228.819 43.786 228.819 44.374ZM241.73 48.182C241.076 48.182 240.484 48.0467 239.952 47.776C239.429 47.496 239.004 47.1133 238.678 46.628V50.8H237.866V40.762H238.552L238.636 42.204C238.953 41.6907 239.378 41.294 239.91 41.014C240.451 40.7247 241.058 40.58 241.73 40.58C242.448 40.58 243.088 40.7433 243.648 41.07C244.217 41.3967 244.656 41.8493 244.964 42.428C245.281 42.9973 245.44 43.646 245.44 44.374C245.44 45.102 245.281 45.7553 244.964 46.334C244.656 46.9127 244.217 47.3653 243.648 47.692C243.088 48.0187 242.448 48.182 241.73 48.182ZM238.65 44.374C238.65 44.962 238.776 45.4847 239.028 45.942C239.28 46.3993 239.63 46.7587 240.078 47.02C240.535 47.272 241.058 47.398 241.646 47.398C242.234 47.398 242.752 47.272 243.2 47.02C243.648 46.7587 243.998 46.3993 244.25 45.942C244.502 45.4847 244.628 44.962 244.628 44.374C244.628 43.7953 244.502 43.2773 244.25 42.82C243.998 42.3627 243.648 42.008 243.2 41.756C242.752 41.4947 242.234 41.364 241.646 41.364C241.058 41.364 240.535 41.4947 240.078 41.756C239.63 42.008 239.28 42.3627 239.028 42.82C238.776 43.2773 238.65 43.7953 238.65 44.374ZM246.974 50.03H247.576C247.931 50.03 248.206 49.9973 248.402 49.932C248.608 49.876 248.776 49.7687 248.906 49.61C249.037 49.4607 249.168 49.2273 249.298 48.91L249.704 47.888L246.26 40.762H247.17L248.878 44.332L250.124 46.908L251.16 44.332L252.63 40.762H253.484L250.026 49.218C249.858 49.638 249.672 49.96 249.466 50.184C249.27 50.4173 249.032 50.576 248.752 50.66C248.472 50.7533 248.108 50.8 247.66 50.8H246.974V50.03ZM253.533 47.23H254.415C254.63 47.1273 254.789 46.964 254.891 46.74C255.003 46.516 255.078 46.2033 255.115 45.802L255.521 40.762H260.757V47.23H262.031V49.988H261.233V48H254.317V49.988H253.533V47.23ZM259.945 47.244V41.518H256.263L255.913 45.9C255.857 46.5067 255.717 46.9547 255.493 47.244H259.945ZM266.938 48.182C266.201 48.182 265.543 48.0233 264.964 47.706C264.386 47.3793 263.933 46.9267 263.606 46.348C263.289 45.7693 263.13 45.1113 263.13 44.374C263.13 43.6367 263.289 42.9833 263.606 42.414C263.933 41.8353 264.386 41.3873 264.964 41.07C265.543 40.7433 266.201 40.58 266.938 40.58C267.676 40.58 268.329 40.7433 268.898 41.07C269.477 41.3873 269.925 41.8353 270.242 42.414C270.569 42.9833 270.732 43.6367 270.732 44.374C270.732 45.1113 270.569 45.7693 270.242 46.348C269.925 46.9267 269.477 47.3793 268.898 47.706C268.329 48.0233 267.676 48.182 266.938 48.182ZM263.942 44.374C263.942 44.962 264.068 45.4847 264.32 45.942C264.572 46.3993 264.922 46.7587 265.37 47.02C265.828 47.272 266.35 47.398 266.938 47.398C267.517 47.398 268.03 47.272 268.478 47.02C268.936 46.7587 269.29 46.3993 269.542 45.942C269.794 45.4847 269.92 44.962 269.92 44.374C269.92 43.786 269.794 43.2633 269.542 42.806C269.29 42.3487 268.936 41.994 268.478 41.742C268.03 41.49 267.517 41.364 266.938 41.364C266.35 41.364 265.828 41.49 265.37 41.742C264.922 41.994 264.572 42.3487 264.32 42.806C264.068 43.2633 263.942 43.786 263.942 44.374ZM272.989 40.762H276.419C277.091 40.762 277.632 40.9393 278.043 41.294C278.463 41.6487 278.673 42.1107 278.673 42.68C278.673 43.0533 278.575 43.3893 278.379 43.688C278.183 43.9773 277.917 44.1873 277.581 44.318C277.982 44.4673 278.295 44.696 278.519 45.004C278.743 45.3027 278.855 45.6573 278.855 46.068C278.855 46.6467 278.64 47.1133 278.211 47.468C277.791 47.8227 277.231 48 276.531 48H272.989V40.762ZM276.531 47.258C276.998 47.258 277.362 47.146 277.623 46.922C277.894 46.6887 278.029 46.3713 278.029 45.97C278.029 45.578 277.894 45.27 277.623 45.046C277.352 44.8127 276.988 44.696 276.531 44.696H273.801V47.258H276.531ZM276.489 43.982C276.89 43.982 277.217 43.87 277.469 43.646C277.721 43.4127 277.847 43.1093 277.847 42.736C277.847 42.3627 277.721 42.064 277.469 41.84C277.217 41.6067 276.89 41.49 276.489 41.49H273.801V43.982H276.489ZM283.392 48.112C282.552 48.112 281.884 47.9207 281.39 47.538C280.904 47.146 280.662 46.6187 280.662 45.956C280.662 45.312 280.886 44.8033 281.334 44.43C281.782 44.0473 282.379 43.856 283.126 43.856H286.318V43.338C286.318 42.7313 286.112 42.246 285.702 41.882C285.3 41.518 284.764 41.336 284.092 41.336C283.55 41.336 283.079 41.4667 282.678 41.728C282.276 41.98 282.001 42.3253 281.852 42.764H281.026C281.203 42.092 281.562 41.56 282.104 41.168C282.654 40.776 283.312 40.58 284.078 40.58C284.675 40.58 285.202 40.6967 285.66 40.93C286.126 41.154 286.486 41.4713 286.738 41.882C286.999 42.2927 287.13 42.764 287.13 43.296V48H286.458L286.374 46.754C286.056 47.1927 285.641 47.5287 285.128 47.762C284.614 47.9953 284.036 48.112 283.392 48.112ZM281.474 45.942C281.474 46.3807 281.646 46.7307 281.992 46.992C282.346 47.2533 282.822 47.384 283.42 47.384C283.97 47.384 284.465 47.2767 284.904 47.062C285.352 46.8473 285.702 46.5487 285.954 46.166C286.206 45.7833 286.332 45.354 286.332 44.878V44.57H283.154C282.659 44.57 282.253 44.696 281.936 44.948C281.628 45.2 281.474 45.5313 281.474 45.942ZM295.432 44.724H290.672V48H289.86V40.762H290.672V43.954H295.432V40.762H296.244V48H295.432V44.724ZM299.13 40.762H299.942V46.74L304.883 40.762H305.668V48H304.856V41.994L299.9 48H299.13V40.762ZM312.959 45.438H310.761L308.927 48H307.947L309.865 45.354C309.305 45.2233 308.862 44.962 308.535 44.57C308.209 44.1687 308.045 43.6787 308.045 43.1C308.045 42.3907 308.283 41.826 308.759 41.406C309.245 40.9767 309.875 40.762 310.649 40.762H313.771V48H312.959V45.438ZM308.857 43.1C308.857 43.5947 309.021 43.982 309.347 44.262C309.674 44.542 310.113 44.682 310.663 44.682H312.973V41.518H310.663C310.113 41.518 309.674 41.658 309.347 41.938C309.021 42.2087 308.857 42.596 308.857 43.1Z" fill="#05142C"/>
</g>
<defs>
<clipPath id="clip0_8_144">
<rect width="332" height="60" fill="white"/>
</clipPath>
</defs>
</svg>
