<svg width="154" height="46" viewBox="0 0 154 46" fill="none" xmlns="http://www.w3.org/2000/svg">
<g clip-path="url(#clip0_117_649)">
<path d="M18.2769 10.805V25.926C18.2769 27.6703 17.1168 28.8297 15.0862 28.8297C13.0557 28.8297 11.8945 27.6672 11.8945 25.926V21.8515C11.8945 21.8515 10.1537 22.4333 7.68749 22.4333C3.19174 22.4333 0 19.2351 0 14.584V10.805C0 9.06071 1.18914 7.9013 3.19174 7.9013C5.22228 7.9013 6.38244 9.06382 6.38244 10.805V14.584C6.38244 16.1831 7.39771 17.2004 8.84869 17.2004C10.7343 17.2004 11.8945 16.6186 11.8945 16.6186V10.834C11.8945 9.06071 13.0547 7.89819 15.0862 7.89819C17.1178 7.89819 18.2769 9.06071 18.2769 10.805Z" fill="#3E5496"/>
<path d="M28.7204 17.4906L33.6529 10.8048C34.958 8.91535 35.9733 7.90112 37.714 7.90112C39.7446 7.90112 40.9058 9.09268 40.9058 10.8048V25.9259C40.9058 27.6702 39.7446 28.8296 37.714 28.8296C35.6835 28.8296 34.5223 27.667 34.5223 25.9259V19.2349H34.2325L29.301 25.9259C27.9949 27.8153 26.9797 28.8296 25.2389 28.8296C23.2084 28.8296 22.0482 27.637 22.0482 25.9259V10.8048C22.0482 9.06053 23.2084 7.90112 25.2389 7.90112C27.2695 7.90112 28.4307 9.06364 28.4307 10.8048V17.4906H28.7204Z" fill="#3E5496"/>
<path d="M43.9516 16.3282C43.9516 11.3867 47.7229 7.60669 53.6696 7.60669C58.747 7.60669 61.6479 10.5104 61.6479 12.5492C61.6479 14.1483 60.6327 15.1657 58.4572 15.1657C56.1359 15.1657 55.8461 13.1299 53.6696 13.1299C51.784 13.1299 50.4789 14.4387 50.4789 16.3282V20.3975C50.4789 22.288 51.784 23.5957 53.6696 23.5957C56.1359 23.5957 56.4257 21.5611 58.747 21.5611C60.9204 21.5611 61.9377 22.5784 61.9377 24.1775C61.9377 26.2122 59.0399 29.119 53.6696 29.119C47.7229 29.119 43.9516 25.34 43.9516 20.3975V16.3282Z" fill="#3E5496"/>
<path d="M65.5641 14C63.5336 14 62.3724 12.8365 62.3724 11.0963C62.3724 9.35618 63.5336 8.19263 65.5641 8.19263H78.329C80.3595 8.19263 81.5197 9.35515 81.5197 11.0963C81.5197 12.8375 80.3595 14 78.329 14H75.1362V25.926C75.1362 27.6703 73.9761 28.8297 71.9455 28.8297C69.915 28.8297 68.7538 27.6671 68.7538 25.926V14H65.5641Z" fill="#3E5496"/>
<path d="M89.7878 15.7464H92.254C92.3699 10.976 95.8515 7.60669 101.392 7.60669C107.049 7.60669 110.531 11.0953 110.531 16.0378V20.6889C110.531 25.6304 107.049 29.119 101.392 29.119C95.9674 29.119 92.5148 25.9218 92.254 21.2697H89.7878V25.9259C89.7878 27.6702 88.6276 28.8297 86.596 28.8297C84.5645 28.8297 83.4053 27.6671 83.4053 25.9259V10.8049C83.4053 9.06062 84.5655 7.90121 86.596 7.90121C88.6266 7.90121 89.7878 9.06373 89.7878 10.8049V15.7464ZM98.7813 20.6889C98.7813 23.0139 99.9415 24.1775 101.392 24.1775C102.843 24.1775 104.004 23.0139 104.004 20.6889V16.0378C104.004 13.7117 102.842 12.5492 101.392 12.5492C99.9425 12.5492 98.7813 13.7117 98.7813 16.0378V20.6889Z" fill="#7CB8EB"/>
<path d="M114.301 29.119C112.562 29.119 111.403 27.9565 111.403 26.2153C111.403 23.3116 115.466 24.7634 115.466 18.0756V11.0963C115.466 9.35203 116.626 8.19263 118.656 8.19263H128.953C130.983 8.19263 132.144 9.35515 132.144 11.0963V25.926C132.144 27.6703 130.983 28.8297 128.953 28.8297C126.922 28.8297 125.761 27.6671 125.761 25.926V14H121.845V18.0694C121.845 25.34 118.074 29.119 114.301 29.119Z" fill="#7CB8EB"/>
<path d="M149.985 8.19263C152.015 8.19263 153.176 9.35515 153.176 11.0963V25.926C153.176 27.6703 152.015 28.8297 149.985 28.8297C147.954 28.8297 146.794 27.6671 146.794 25.9519V21.2697H145.345L140.412 27.3778C140.412 27.3778 139.25 28.8297 137.656 28.8297C135.624 28.8297 134.464 27.6671 134.464 25.926C134.464 24.6172 135.624 23.3095 135.624 23.3095L138.671 19.8209V19.5295C138.671 19.5295 135.334 18.367 135.334 14.7332C135.334 11.3909 138.526 8.19263 144.038 8.19263H149.985ZM146.794 16.3323V13.13H144.038C142.732 13.13 142.006 13.8559 142.006 14.7291C142.006 15.6023 142.731 16.3282 144.038 16.3282L146.794 16.3323Z" fill="#7CB8EB"/>
<path d="M139.509 6.27812L138.448 5.62789C137.97 5.33713 137.574 4.92827 137.299 4.4404C137.023 3.95253 136.877 3.40198 136.874 2.84137L136.864 1.59693C136.859 1.55179 136.84 1.50923 136.811 1.47469C136.781 1.44015 136.742 1.41522 136.699 1.40307C136.655 1.39093 136.609 1.39214 136.566 1.40654C136.523 1.42093 136.485 1.44787 136.457 1.48389L135.809 2.54686C135.519 3.02616 135.111 3.42287 134.624 3.69903C134.137 3.97519 133.588 4.12158 133.028 4.12419L131.786 4.13456C131.758 4.1347 131.729 4.14052 131.703 4.15169C131.676 4.16287 131.652 4.17917 131.632 4.19969C131.611 4.2202 131.595 4.24451 131.584 4.27124C131.574 4.29796 131.568 4.32658 131.568 4.35545C131.568 4.39276 131.578 4.42939 131.596 4.462C131.614 4.49462 131.64 4.52216 131.672 4.54212L132.733 5.1913C133.212 5.48221 133.607 5.89111 133.883 6.37894C134.159 6.86678 134.305 7.41726 134.308 7.97782L134.317 9.22226C134.317 9.27009 134.333 9.31651 134.362 9.35448C134.391 9.39246 134.432 9.41992 134.478 9.4327C134.524 9.44548 134.573 9.44289 134.617 9.42531C134.661 9.40773 134.699 9.37613 134.724 9.3353L135.373 8.2713C135.663 7.79186 136.071 7.39505 136.557 7.11887C137.044 6.84269 137.594 6.69638 138.153 6.69397L139.395 6.68463C139.443 6.68433 139.489 6.66843 139.527 6.63936C139.565 6.61029 139.593 6.56963 139.605 6.52355C139.618 6.47746 139.615 6.42846 139.598 6.38399C139.58 6.33951 139.549 6.30198 139.508 6.27708L139.509 6.27812Z" fill="#FCB428"/>
<path d="M63.9589 34.8444L64.3387 33.658C64.5072 33.1234 64.8099 32.6411 65.2179 32.2574C65.6258 31.8738 66.1253 31.6015 66.6684 31.4668L67.8741 31.1629C67.9307 31.1415 67.9765 31.0985 68.0015 31.0433C68.0265 30.9881 68.0287 30.9252 68.0076 30.8684C67.9971 30.84 67.9812 30.814 67.9605 30.7919C67.9399 30.7698 67.9151 30.7521 67.8875 30.7398L66.7035 30.3592C66.1701 30.1902 65.6889 29.8868 65.306 29.478C64.9231 29.0693 64.6514 28.5689 64.5167 28.0248L64.2135 26.8167C64.1993 26.7601 64.1634 26.7115 64.1136 26.6814C64.0637 26.6513 64.004 26.6421 63.9475 26.6559C63.9112 26.6654 63.8779 26.6838 63.8506 26.7096C63.8233 26.7353 63.8029 26.7675 63.7912 26.8032L63.4124 27.9896C63.2434 28.524 62.9404 29.0062 62.5323 29.3898C62.1243 29.7734 61.6249 30.0458 61.0818 30.1808L59.8802 30.4888C59.8338 30.5003 59.7923 30.5267 59.7622 30.564C59.7321 30.6012 59.715 30.6474 59.7135 30.6953C59.712 30.7432 59.7261 30.7903 59.7538 30.8294C59.7815 30.8685 59.8211 30.8975 59.8668 30.9119L61.0507 31.2915C61.5833 31.4611 62.0636 31.7647 62.4459 32.1731C62.8282 32.5816 63.0996 33.0814 63.2344 33.6248L63.5449 34.833C63.5588 34.8764 63.5857 34.9144 63.6221 34.9418C63.6585 34.9692 63.7024 34.9845 63.7479 34.9858C63.7933 34.987 63.8381 34.9741 63.8759 34.9488C63.9137 34.9234 63.9427 34.887 63.9589 34.8444Z" fill="#FCB428"/>
<path d="M20.0777 8.19265L20.4575 7.00628C20.6261 6.47168 20.9288 5.98942 21.3367 5.60572C21.7446 5.22202 22.2441 4.94976 22.7872 4.81502L23.9929 4.51117C24.0495 4.48976 24.0953 4.44674 24.1203 4.39154C24.1454 4.33634 24.1475 4.27346 24.1264 4.21665C24.1059 4.16084 24.0642 4.11539 24.0105 4.09013L22.8265 3.70954C22.2931 3.54051 21.8119 3.23711 21.429 2.82839C21.0461 2.41966 20.7743 1.91928 20.6397 1.37517L20.3365 0.167022C20.3223 0.110479 20.2864 0.0618502 20.2365 0.0317392C20.1867 0.00162813 20.127 -0.00752297 20.0705 0.00628118C20.0342 0.0157288 20.0009 0.0341672 19.9736 0.0599C19.9463 0.0856328 19.9258 0.117834 19.9142 0.15354L19.5354 1.33991C19.3664 1.87439 19.0634 2.3565 18.6553 2.74014C18.2473 3.12378 17.7478 3.39613 17.2048 3.53117L15.9991 3.8371C15.9526 3.84858 15.9112 3.87497 15.8811 3.91224C15.851 3.94951 15.8338 3.99562 15.8323 4.04354C15.8308 4.09146 15.845 4.13857 15.8726 4.17769C15.9003 4.2168 15.94 4.24578 15.9856 4.26021L17.1696 4.63976C17.7021 4.80942 18.1825 5.11295 18.5647 5.52141C18.947 5.92988 19.2185 6.42966 19.3533 6.9731L19.6638 8.18124C19.6776 8.22465 19.7046 8.26267 19.7409 8.29005C19.7773 8.31742 19.8212 8.3328 19.8667 8.33405C19.9122 8.3353 19.9569 8.32237 19.9947 8.29704C20.0325 8.27171 20.0615 8.23523 20.0777 8.19265Z" fill="#FCB428"/>
<path d="M35.4041 9.87341L32.3844 13.8598C32.0779 14.2645 32.1566 14.8414 32.5602 15.1484C32.9638 15.4553 33.5395 15.3761 33.846 14.9715L36.8657 10.9851C37.1723 10.5804 37.0936 10.0035 36.69 9.69655C36.2863 9.38958 35.7107 9.46876 35.4041 9.87341Z" fill="white"/>
<path d="M69.6397 9.11035H64.465C64.0078 9.11035 63.6371 9.48179 63.6371 9.93998C63.6371 10.3982 64.0078 10.7696 64.465 10.7696H69.6397C70.097 10.7696 70.4677 10.3982 70.4677 9.93998C70.4677 9.48179 70.097 9.11035 69.6397 9.11035Z" fill="white"/>
<path d="M129.148 8.79932H123.974C123.516 8.79932 123.146 9.17075 123.146 9.62895C123.146 10.0871 123.516 10.4586 123.974 10.4586H129.148C129.606 10.4586 129.976 10.0871 129.976 9.62895C129.976 9.17075 129.606 8.79932 129.148 8.79932Z" fill="white"/>
<path d="M15.8231 10.3039V16.7335C15.8231 17.2203 16.217 17.615 16.7028 17.615C17.1887 17.615 17.5825 17.2203 17.5825 16.7335V10.3039C17.5825 9.81705 17.1887 9.4224 16.7028 9.4224C16.217 9.4224 15.8231 9.81705 15.8231 10.3039Z" fill="white"/>
<path d="M45.7896 12.9256C46.5141 11.5526 48.1368 9.28456 51.1143 8.8656C51.2168 8.85078 51.3213 8.85814 51.4207 8.8872C51.5201 8.91625 51.6121 8.96632 51.6906 9.03403C51.7691 9.10175 51.8321 9.18553 51.8755 9.27973C51.919 9.37393 51.9417 9.47636 51.9423 9.58012C51.9419 9.73613 51.8913 9.88785 51.7981 10.0128C51.7049 10.1378 51.574 10.2293 51.4248 10.2739C50.4758 10.5529 48.4411 11.3877 47.1671 13.6266C47.1041 13.7357 47.0136 13.8262 46.9045 13.889C46.7955 13.9519 46.6719 13.9848 46.5461 13.9844H46.4271C46.3034 13.9833 46.182 13.9505 46.0745 13.8891C45.967 13.8277 45.877 13.7397 45.8131 13.6335C45.7492 13.5274 45.7134 13.4066 45.7093 13.2826C45.7052 13.1587 45.7329 13.0358 45.7896 12.9256Z" fill="white"/>
<path d="M94.2245 12.9256C94.949 11.5526 96.5718 9.28456 99.5493 8.8656C99.6518 8.85078 99.7562 8.85814 99.8556 8.8872C99.955 8.91625 100.047 8.96632 100.126 9.03403C100.204 9.10175 100.267 9.18553 100.31 9.27973C100.354 9.37393 100.377 9.47636 100.377 9.58012C100.377 9.73613 100.326 9.88785 100.233 10.0128C100.14 10.1378 100.009 10.2293 99.8598 10.2739C98.9107 10.5529 96.876 11.3877 95.602 13.6266C95.5391 13.7357 95.4485 13.8262 95.3395 13.889C95.2305 13.9519 95.1068 13.9848 94.9811 13.9844H94.8621C94.7383 13.9833 94.6169 13.9505 94.5094 13.8891C94.4019 13.8277 94.3119 13.7397 94.248 13.6335C94.1841 13.5274 94.1484 13.4066 94.1443 13.2826C94.1401 13.1587 94.1678 13.0358 94.2245 12.9256Z" fill="white"/>
<path d="M21.2472 4.1378C20.7515 3.8495 19.9411 3.21484 19.8314 2.10728C19.8274 2.06911 19.8316 2.03052 19.8437 1.99411C19.8559 1.9577 19.8756 1.92432 19.9017 1.89622C19.9278 1.86811 19.9596 1.84594 19.995 1.83118C20.0303 1.81643 20.0684 1.80944 20.1067 1.81069C20.1648 1.81368 20.2204 1.83553 20.265 1.87294C20.3096 1.91036 20.3409 1.96131 20.3541 2.0181C20.5234 2.68888 20.9431 3.26902 21.5267 3.63899C21.566 3.66392 21.5981 3.6988 21.6197 3.74013C21.6414 3.78146 21.6517 3.82777 21.6498 3.87439V3.91691C21.6482 3.96326 21.6345 4.00839 21.6102 4.04786C21.5859 4.08734 21.5518 4.1198 21.5112 4.14208C21.4706 4.16435 21.4249 4.17567 21.3786 4.17492C21.3324 4.17417 21.2871 4.16138 21.2472 4.1378Z" fill="white"/>
<path d="M64.9214 30.6859C64.4257 30.3976 63.6153 29.7629 63.5056 28.6554C63.5016 28.6172 63.5058 28.5786 63.5179 28.5422C63.5301 28.5058 63.5498 28.4724 63.5759 28.4443C63.602 28.4162 63.6338 28.394 63.6692 28.3793C63.7045 28.3645 63.7426 28.3575 63.7809 28.3588C63.839 28.3618 63.8946 28.3836 63.9392 28.421C63.9838 28.4585 64.0151 28.5094 64.0283 28.5662C64.1976 29.237 64.6173 29.8171 65.2008 30.1871C65.2402 30.212 65.2723 30.2469 65.2939 30.2882C65.3156 30.3296 65.3259 30.3759 65.324 30.4225V30.465C65.3224 30.5114 65.3087 30.5565 65.2844 30.596C65.2601 30.6354 65.226 30.6679 65.1854 30.6902C65.1448 30.7124 65.0991 30.7238 65.0528 30.723C65.0066 30.7223 64.9613 30.7095 64.9214 30.6859Z" fill="white"/>
<path d="M136.646 3.18892C136.367 3.68981 135.747 4.51425 134.644 4.64077C134.606 4.64539 134.567 4.64177 134.531 4.63014C134.494 4.61851 134.461 4.59916 134.432 4.57339C134.404 4.54762 134.382 4.51603 134.366 4.48078C134.351 4.44553 134.344 4.40743 134.345 4.36907C134.346 4.31135 134.366 4.25558 134.401 4.21026C134.437 4.16495 134.487 4.13258 134.542 4.11811C135.211 3.93877 135.785 3.50832 136.145 2.91618C136.169 2.8764 136.203 2.84374 136.244 2.82153C136.285 2.79931 136.331 2.78831 136.377 2.78966H136.42C136.466 2.79035 136.511 2.80315 136.551 2.82677C136.591 2.8504 136.624 2.88404 136.647 2.92437C136.67 2.9647 136.682 3.01032 136.682 3.05672C136.682 3.10312 136.67 3.14869 136.646 3.18892Z" fill="white"/>
<path d="M136.837 12.8591C137.685 11.5587 139.512 9.45144 142.516 9.31144C142.619 9.3063 142.722 9.32341 142.818 9.36161C142.915 9.39981 143.001 9.45821 143.073 9.53289C143.145 9.60756 143.2 9.69678 143.234 9.79453C143.269 9.89228 143.282 9.9963 143.273 10.0996C143.258 10.2549 143.193 10.4012 143.089 10.5168C142.984 10.6325 142.845 10.7113 142.693 10.7415C141.722 10.9323 139.619 11.5711 138.139 13.6857C138.066 13.7886 137.967 13.8705 137.852 13.9229C137.738 13.9753 137.611 13.9965 137.486 13.9843L137.37 13.9729C137.247 13.9598 137.13 13.9154 137.029 13.844C136.928 13.7726 136.847 13.6766 136.793 13.565C136.74 13.4534 136.716 13.3299 136.724 13.2064C136.731 13.0829 136.77 12.9633 136.837 12.8591Z" fill="white"/>
<path d="M1.51826 37.0461C1.51826 36.7761 1.31826 36.7061 1.12826 36.7061C0.928257 36.7061 0.738257 36.7761 0.738257 37.0461V41.7361C0.738257 42.0161 0.928257 42.0861 1.12826 42.0861C1.31826 42.0861 1.51826 42.0161 1.51826 41.7361V39.4661C2.58826 39.4161 2.89826 39.9161 3.19826 40.7861C3.35826 41.2161 3.49826 41.7061 3.73826 41.9861C3.80826 42.0761 4.00826 42.1161 4.18826 42.0861C4.37826 42.0461 4.45826 41.9361 4.38826 41.7561C4.18826 41.2861 4.06826 41.0861 3.84826 40.4361C3.64826 39.8261 3.32826 39.2161 2.60826 39.0761C3.02826 38.9061 3.33826 38.5561 3.55826 38.1961C3.77826 37.8361 3.96826 37.4661 4.17826 37.1161C4.32826 36.8561 4.20826 36.7361 3.94826 36.7161C3.67826 36.6861 3.53826 36.8161 3.47826 36.8961C3.22826 37.2461 3.08826 37.6161 2.87826 37.9561C2.58826 38.4561 2.24826 38.8061 1.51826 38.8761V37.0461ZM4.82302 39.4061C4.82302 40.9861 5.40302 42.0861 7.04302 42.0861C8.67302 42.0861 9.25302 40.9861 9.25302 39.4061C9.25302 37.8261 8.67302 36.7061 7.04302 36.7061C5.40302 36.7061 4.82302 37.8261 4.82302 39.4061ZM8.43302 39.4061C8.43302 40.3561 8.20302 41.5361 7.04302 41.5361C5.88302 41.5361 5.65302 40.3561 5.65302 39.4061C5.65302 38.4561 5.88302 37.2761 7.04302 37.2761C8.20302 37.2761 8.43302 38.4561 8.43302 39.4061ZM12.57 40.6161C12.77 40.6161 12.89 40.4661 13 40.2761L13.93 38.5961C14 38.4561 14.11 38.1961 14.18 37.9461V41.7361C14.18 42.0161 14.35 42.0861 14.54 42.0861C14.74 42.0861 14.89 42.0161 14.89 41.7361V37.0561C14.89 36.7961 14.69 36.7161 14.47 36.7161C14.21 36.7161 14.09 36.8461 13.97 37.0561L12.57 39.6361L11.17 37.0561C11.05 36.8461 10.93 36.7161 10.68 36.7161C10.45 36.7161 10.25 36.7961 10.25 37.0561V41.7361C10.25 42.0161 10.4 42.0861 10.6 42.0861C10.79 42.0861 10.96 42.0161 10.96 41.7361V37.9461C11.03 38.1961 11.14 38.4561 11.21 38.5961L12.14 40.2761C12.25 40.4761 12.37 40.6161 12.57 40.6161ZM19.2375 41.7261C19.2775 41.9361 19.4475 42.0461 19.6975 42.0161C19.8675 41.9861 20.0175 41.9161 19.9775 41.6261C19.9475 41.4261 19.9375 41.2061 19.9375 40.9761V38.7761C19.9375 37.3861 19.4275 36.6661 18.0275 36.6661C17.2675 36.6661 16.7075 36.8161 16.3275 37.1361C16.0875 37.3461 16.1375 37.5361 16.2775 37.6561C16.4075 37.7661 16.6075 37.8261 16.7975 37.6661C17.0675 37.4561 17.4075 37.2861 17.9075 37.2861C18.3475 37.2861 18.9275 37.4061 19.0875 37.8861C19.1475 38.0761 19.1775 38.3661 19.1775 38.7761C18.8775 38.7661 18.6475 38.7561 18.5175 38.7561C17.3675 38.7561 15.7875 39.0061 15.7875 40.5561C15.7875 41.5761 16.5075 42.1261 17.4175 42.1261C18.2475 42.1261 18.8375 41.7661 19.1775 41.0561C19.1775 41.3861 19.2075 41.5761 19.2375 41.7261ZM19.1775 39.3761C19.2175 39.9561 19.1375 40.5161 18.7375 40.9761C18.4375 41.3261 18.0475 41.5061 17.5775 41.5061C17.0375 41.5061 16.6275 41.2061 16.6275 40.5861C16.6275 39.5561 17.6775 39.3461 18.4575 39.3461C18.6175 39.3461 18.8575 39.3561 19.1775 39.3761ZM21.9675 37.0461C21.9675 36.7761 21.7775 36.7061 21.5775 36.7061C21.3875 36.7061 21.1875 36.7761 21.1875 37.0461V41.7361C21.1875 42.0161 21.3875 42.0861 21.5775 42.0861C21.7775 42.0861 21.9675 42.0161 21.9675 41.7361V39.5761H24.1775V41.7361C24.1775 42.0161 24.3775 42.0861 24.5675 42.0861C24.7675 42.0861 24.9575 42.0161 24.9575 41.7361V37.0461C24.9575 36.7761 24.7675 36.7061 24.5675 36.7061C24.3775 36.7061 24.1775 36.7761 24.1775 37.0461V38.9461H21.9675V37.0461ZM26.8058 41.3661C26.9458 41.1961 27.0858 40.8161 27.1458 40.3461C27.2858 39.4861 27.2958 38.2261 27.3358 37.7261C27.3558 37.5561 27.3858 37.4361 27.6158 37.4361H28.7358C28.9658 37.4361 28.9958 37.5261 28.9958 37.6961V41.3661H26.8058ZM27.3658 36.8061C26.7358 36.8061 26.6358 37.2861 26.6058 37.7361C26.5658 38.1361 26.5458 39.4561 26.4358 40.3161C26.3558 40.8461 26.2358 41.1361 26.0458 41.2361C25.7658 41.3961 25.6058 41.5061 25.6058 41.9161V42.8361C25.6058 43.1061 25.7558 43.1761 25.9558 43.1761C26.1558 43.1761 26.2958 43.1061 26.2958 42.8361V42.1361C26.2958 41.9761 26.3958 41.9861 26.4558 41.9861H29.4858C29.5458 41.9861 29.6458 41.9761 29.6458 42.1361V42.8361C29.6458 43.1061 29.7958 43.1761 29.9858 43.1761C30.1858 43.1761 30.3358 43.1061 30.3358 42.8361V41.9161C30.3358 41.5761 30.1558 41.3761 29.7758 41.3661V37.7361C29.7758 37.2761 29.7858 36.8061 28.9958 36.8061H27.3658ZM34.1398 41.7261C34.1798 41.9361 34.3498 42.0461 34.5998 42.0161C34.7698 41.9861 34.9198 41.9161 34.8798 41.6261C34.8498 41.4261 34.8398 41.2061 34.8398 40.9761V38.7761C34.8398 37.3861 34.3298 36.6661 32.9298 36.6661C32.1698 36.6661 31.6098 36.8161 31.2298 37.1361C30.9898 37.3461 31.0398 37.5361 31.1798 37.6561C31.3098 37.7661 31.5098 37.8261 31.6998 37.6661C31.9698 37.4561 32.3098 37.2861 32.8098 37.2861C33.2498 37.2861 33.8298 37.4061 33.9898 37.8861C34.0498 38.0761 34.0798 38.3661 34.0798 38.7761C33.7798 38.7661 33.5498 38.7561 33.4198 38.7561C32.2698 38.7561 30.6898 39.0061 30.6898 40.5561C30.6898 41.5761 31.4098 42.1261 32.3198 42.1261C33.1498 42.1261 33.7398 41.7661 34.0798 41.0561C34.0798 41.3861 34.1098 41.5761 34.1398 41.7261ZM34.0798 39.3761C34.1198 39.9561 34.0398 40.5161 33.6398 40.9761C33.3398 41.3261 32.9498 41.5061 32.4798 41.5061C31.9398 41.5061 31.5298 41.2061 31.5298 40.5861C31.5298 39.5561 32.5798 39.3461 33.3598 39.3461C33.5198 39.3461 33.7598 39.3561 34.0798 39.3761ZM42.2055 36.8061H39.9555C39.1955 36.8061 39.1955 37.2861 39.1955 37.7361V41.7361C39.1955 42.0161 39.3855 42.0861 39.5855 42.0861C39.7755 42.0861 39.9755 42.0161 39.9755 41.7361V37.6861C39.9755 37.5261 40.0055 37.4361 40.2355 37.4361H41.9255C42.1555 37.4361 42.1955 37.5261 42.1955 37.6861V41.7361C42.1955 42.0161 42.3855 42.0861 42.5855 42.0861C42.7755 42.0861 42.9755 42.0161 42.9755 41.7361V37.7361C42.9755 37.2761 42.9755 36.8061 42.2055 36.8061ZM45.0134 37.0461C45.0134 36.7761 44.8434 36.7061 44.6534 36.7061C44.4534 36.7061 44.2734 36.7761 44.2734 37.0461V43.5061C44.2734 43.7761 44.4734 43.8461 44.6634 43.8461C44.8634 43.8461 45.0634 43.7761 45.0634 43.5061V41.3061C45.3634 41.7461 45.8534 42.1161 46.4934 42.1161C48.0134 42.1161 48.5534 40.8561 48.5534 39.3961C48.5534 37.9361 48.1134 36.6761 46.6034 36.6761C45.8534 36.6761 45.3434 37.0861 45.0134 37.6061V37.0461ZM45.0634 39.5661V39.0761C45.0634 38.2561 45.5034 37.3661 46.4634 37.3661C47.5434 37.3661 47.6934 38.4961 47.6934 39.3961C47.6934 40.2961 47.5434 41.4261 46.4634 41.4261C45.4934 41.4261 45.0634 40.3861 45.0634 39.5661ZM49.2566 39.4061C49.2566 40.9861 49.8366 42.0861 51.4766 42.0861C53.1066 42.0861 53.6866 40.9861 53.6866 39.4061C53.6866 37.8261 53.1066 36.7061 51.4766 36.7061C49.8366 36.7061 49.2566 37.8261 49.2566 39.4061ZM52.8666 39.4061C52.8666 40.3561 52.6366 41.5361 51.4766 41.5361C50.3166 41.5361 50.0866 40.3561 50.0866 39.4061C50.0866 38.4561 50.3166 37.2761 51.4766 37.2761C52.6366 37.2761 52.8666 38.4561 52.8666 39.4061ZM57.5536 36.7461V35.2961C57.5536 35.0161 57.3736 34.9461 57.1836 34.9461C56.9936 34.9461 56.8136 35.0161 56.8136 35.2961V36.7461C55.4636 36.8361 54.2836 37.4561 54.2836 39.3961C54.2836 41.3361 55.4636 41.9561 56.8136 42.0461V43.4961C56.8136 43.7661 56.9936 43.8461 57.1836 43.8461C57.3736 43.8461 57.5536 43.7661 57.5536 43.4961V42.0461C59.1836 41.8961 60.0836 41.0361 60.0836 39.3961C60.0836 37.7061 59.0736 36.8361 57.5536 36.7461ZM56.8136 37.3161V41.5161C55.8136 41.4361 55.1236 40.7761 55.1236 39.3961C55.1236 38.0161 55.8136 37.3861 56.8136 37.3161ZM57.5536 41.5161V37.3161C58.7636 37.4461 59.2436 38.2761 59.2436 39.3961C59.2436 40.5261 58.7136 41.4261 57.5536 41.5161ZM64.2824 38.6261C64.2924 38.8161 64.2024 38.8561 64.0724 38.8661H61.5824C61.6024 38.1061 62.1424 37.2761 63.0124 37.2761C63.7924 37.2761 64.2524 37.7961 64.2824 38.6261ZM64.9824 40.7061C65.0324 40.4761 64.9024 40.3361 64.6924 40.3061C64.5024 40.2861 64.3124 40.3861 64.2524 40.5661C64.0724 41.1361 63.6024 41.4561 63.0324 41.4561C61.9224 41.4561 61.5724 40.4561 61.5624 39.4661H64.2224C64.9724 39.4661 65.0424 39.1261 65.0424 38.7761C65.0624 37.5261 64.2624 36.6661 62.9824 36.6661C61.3424 36.6661 60.6924 37.9961 60.6924 39.4161C60.6924 40.8261 61.4024 42.1261 62.9924 42.1261C63.9024 42.1261 64.7624 41.6361 64.9824 40.7061ZM65.7508 39.4061C65.7508 40.9861 66.3308 42.0861 67.9608 42.0861C69.2508 42.0861 69.6808 41.1561 69.7708 40.6161C69.8108 40.3461 69.7408 40.2161 69.4808 40.1961C69.2408 40.1761 69.0808 40.2661 69.0308 40.4761C68.9008 41.0261 68.6308 41.4761 67.9608 41.4761C66.8108 41.4761 66.5808 40.3261 66.5808 39.4061C66.5808 38.4861 66.8108 37.3361 67.9608 37.3361C68.6308 37.3361 68.9008 37.7861 69.0308 38.3361C69.0808 38.5361 69.2408 38.6261 69.4808 38.6161C69.7408 38.5861 69.8108 38.4561 69.7708 38.1961C69.6808 37.6561 69.2508 36.7061 67.9608 36.7061C66.3308 36.7061 65.7508 37.8261 65.7508 39.4061ZM70.4871 39.4061C70.4871 40.9861 71.0671 42.0861 72.6971 42.0861C73.9871 42.0861 74.4171 41.1561 74.5071 40.6161C74.5471 40.3461 74.4771 40.2161 74.2171 40.1961C73.9771 40.1761 73.8171 40.2661 73.7671 40.4761C73.6371 41.0261 73.3671 41.4761 72.6971 41.4761C71.5471 41.4761 71.3171 40.3261 71.3171 39.4061C71.3171 38.4861 71.5471 37.3361 72.6971 37.3361C73.3671 37.3361 73.6371 37.7861 73.7671 38.3361C73.8171 38.5361 73.9771 38.6261 74.2171 38.6161C74.4771 38.5861 74.5471 38.4561 74.5071 38.1961C74.4171 37.6561 73.9871 36.7061 72.6971 36.7061C71.0671 36.7061 70.4871 37.8261 70.4871 39.4061ZM79.4534 37.0461C79.4534 36.7761 79.2634 36.7061 79.0634 36.7061C78.9334 36.7061 78.8034 36.7261 78.7234 36.8461L76.7734 39.9661C76.6334 40.1961 76.4434 40.5161 76.3134 40.8161V37.0461C76.3134 36.7761 76.1134 36.7061 75.9134 36.7061C75.7234 36.7061 75.5234 36.7761 75.5234 37.0461V41.7361C75.5234 42.0161 75.7234 42.0861 75.9134 42.0861C76.0434 42.0861 76.1934 42.0461 76.2634 41.9261L78.2434 38.7761C78.3934 38.5261 78.5634 38.2761 78.6734 37.9961V41.7361C78.6734 42.0161 78.8734 42.0861 79.0634 42.0861C79.2634 42.0861 79.4534 42.0161 79.4534 41.7361V37.0461ZM80.4578 39.4061C80.4578 40.9861 81.0378 42.0861 82.6778 42.0861C84.3078 42.0861 84.8878 40.9861 84.8878 39.4061C84.8878 37.8261 84.3078 36.7061 82.6778 36.7061C81.0378 36.7061 80.4578 37.8261 80.4578 39.4061ZM84.0678 39.4061C84.0678 40.3561 83.8378 41.5361 82.6778 41.5361C81.5178 41.5361 81.2878 40.3561 81.2878 39.4061C81.2878 38.4561 81.5178 37.2761 82.6778 37.2761C83.8378 37.2761 84.0678 38.4561 84.0678 39.4061ZM86.6647 37.0461C86.6647 36.7761 86.4747 36.7061 86.2747 36.7061C86.0847 36.7061 85.8847 36.7761 85.8847 37.0461V41.7361C85.8847 42.0161 86.0847 42.0861 86.2747 42.0861C86.4747 42.0861 86.6647 42.0161 86.6647 41.7361V39.5761H88.8747V41.7361C88.8747 42.0161 89.0747 42.0861 89.2647 42.0861C89.4647 42.0861 89.6547 42.0161 89.6547 41.7361V37.0461C89.6547 36.7761 89.4647 36.7061 89.2647 36.7061C89.0747 36.7061 88.8747 36.7761 88.8747 37.0461V38.9461H86.6647V37.0461ZM94.0031 41.7261C94.0431 41.9361 94.2131 42.0461 94.4631 42.0161C94.6331 41.9861 94.7831 41.9161 94.7431 41.6261C94.7131 41.4261 94.7031 41.2061 94.7031 40.9761V38.7761C94.7031 37.3861 94.1931 36.6661 92.7931 36.6661C92.0331 36.6661 91.4731 36.8161 91.0931 37.1361C90.8531 37.3461 90.9031 37.5361 91.0431 37.6561C91.1731 37.7661 91.3731 37.8261 91.5631 37.6661C91.8331 37.4561 92.1731 37.2861 92.6731 37.2861C93.1131 37.2861 93.6931 37.4061 93.8531 37.8861C93.9131 38.0761 93.9431 38.3661 93.9431 38.7761C93.6431 38.7661 93.4131 38.7561 93.2831 38.7561C92.1331 38.7561 90.5531 39.0061 90.5531 40.5561C90.5531 41.5761 91.2731 42.1261 92.1831 42.1261C93.0131 42.1261 93.6031 41.7661 93.9431 41.0561C93.9431 41.3861 93.9731 41.5761 94.0031 41.7261ZM93.9431 39.3761C93.9831 39.9561 93.9031 40.5161 93.5031 40.9761C93.2031 41.3261 92.8131 41.5061 92.3431 41.5061C91.8031 41.5061 91.3931 41.2061 91.3931 40.5861C91.3931 39.5561 92.4431 39.3461 93.2231 39.3461C93.3831 39.3461 93.6231 39.3561 93.9431 39.3761ZM97.1831 36.8061C96.4131 36.8061 96.3831 37.4161 96.3531 37.8761C96.3031 38.3961 96.2731 39.5661 96.1431 40.5461C96.0831 41.0361 96.0731 41.3861 95.5731 41.3961C95.4131 41.3961 95.3231 41.5261 95.3131 41.7461C95.3031 41.8961 95.3931 42.0561 95.6731 42.0661C96.4531 42.1261 96.7731 41.5361 96.8831 40.6361C97.0031 39.6561 97.0631 38.3961 97.1131 37.7461C97.1231 37.5761 97.2031 37.4461 97.4331 37.4461H98.3931C98.6131 37.4461 98.6531 37.5361 98.6531 37.6961V41.7461C98.6531 42.0161 98.8431 42.0861 99.0431 42.0861C99.2431 42.0861 99.4331 42.0161 99.4331 41.7461V37.7361C99.4331 37.2861 99.4431 36.8061 98.6731 36.8061H97.1831ZM101.518 37.0461C101.518 36.7761 101.328 36.7061 101.128 36.7061C100.938 36.7061 100.738 36.7761 100.738 37.0461V41.0561C100.738 41.5161 100.738 41.9861 101.508 41.9861H102.958C103.878 41.9861 104.578 41.3161 104.578 40.3761C104.578 39.4461 103.978 38.7961 102.978 38.7961H101.518V37.0461ZM101.518 39.4261H102.838C103.428 39.4261 103.718 39.7761 103.718 40.4061C103.718 41.0061 103.428 41.3561 102.838 41.3561H101.788C101.558 41.3561 101.518 41.2661 101.518 41.0961V39.4261ZM106.206 37.0461C106.206 36.7761 106.016 36.7061 105.816 36.7061C105.626 36.7061 105.426 36.7761 105.426 37.0461V41.7361C105.426 42.0161 105.626 42.0861 105.816 42.0861C106.016 42.0861 106.206 42.0161 106.206 41.7361V39.5761H108.416V41.7361C108.416 42.0161 108.616 42.0861 108.806 42.0861C109.006 42.0861 109.196 42.0161 109.196 41.7361V37.0461C109.196 36.7761 109.006 36.7061 108.806 36.7061C108.616 36.7061 108.416 36.7761 108.416 37.0461V38.9461H106.206V37.0461ZM110.194 39.4061C110.194 40.9861 110.774 42.0861 112.414 42.0861C114.044 42.0861 114.624 40.9861 114.624 39.4061C114.624 37.8261 114.044 36.7061 112.414 36.7061C110.774 36.7061 110.194 37.8261 110.194 39.4061ZM113.804 39.4061C113.804 40.3561 113.574 41.5361 112.414 41.5361C111.254 41.5361 111.024 40.3561 111.024 39.4061C111.024 38.4561 111.254 37.2761 112.414 37.2761C113.574 37.2761 113.804 38.4561 113.804 39.4061ZM118.821 36.8461C116.731 40.1961 116.541 40.5161 116.401 40.8161V37.0461C116.401 36.7761 116.211 36.7061 116.011 36.7061C115.821 36.7061 115.621 36.7761 115.621 37.0461V41.7361C115.621 42.0161 115.821 42.0861 116.011 42.0861C116.141 42.0861 116.291 42.0461 116.361 41.9261L118.361 38.7361C118.581 38.3861 118.671 38.1861 118.771 37.9961V41.7361C118.771 42.0161 118.971 42.0861 119.161 42.0861C119.361 42.0861 119.551 42.0161 119.551 41.7361V37.0461C119.551 36.7761 119.361 36.7061 119.161 36.7061C119.031 36.7061 118.901 36.7261 118.821 36.8461ZM118.391 35.0561C118.151 35.3461 117.941 35.4361 117.591 35.4361C117.241 35.4361 117.031 35.3461 116.781 35.0561C116.681 34.9261 116.511 34.9061 116.391 34.9561C116.261 35.0261 116.241 35.1461 116.311 35.3061C116.451 35.6161 116.901 36.0061 117.591 36.0061C118.121 36.0061 118.651 35.7561 118.871 35.3061C118.941 35.1461 118.921 35.0261 118.781 34.9561C118.641 34.8961 118.491 34.9461 118.391 35.0561ZM125.761 42.4861L127.711 37.0461C127.801 36.7961 127.541 36.7061 127.301 36.7061C127.061 36.7061 126.921 36.7961 126.841 37.0461L125.791 40.1361C125.731 40.3161 125.651 40.5861 125.611 40.7861C125.561 40.5661 125.491 40.3161 125.431 40.1461L124.321 37.0461C124.231 36.7961 124.081 36.7061 123.851 36.7061C123.611 36.7061 123.381 36.7961 123.481 37.0461L125.221 41.7861L124.981 42.5061C124.861 42.8461 124.731 43.1361 124.271 43.0461C124.121 43.0061 123.881 42.9961 123.851 43.2961C123.821 43.5761 123.981 43.7061 124.111 43.7361C125.211 43.9661 125.521 43.1661 125.761 42.4861ZM128.946 37.5161C129.126 36.6561 129.596 35.9561 130.586 35.6061C131.116 35.4161 131.766 35.1961 131.986 35.0561C132.256 34.8761 132.316 34.7061 132.206 34.4761C132.086 34.2461 131.866 34.1661 131.666 34.3261C131.286 34.6561 130.746 34.7661 130.296 34.9661C128.406 35.7861 128.116 37.7061 128.146 39.3161C128.176 40.6761 128.656 42.0861 130.376 42.0861C132.006 42.0861 132.586 40.9761 132.586 39.3961C132.586 37.8161 132.106 36.7061 130.466 36.7061C129.836 36.7061 129.306 37.0561 128.966 37.5261L128.946 37.5161ZM131.756 39.3961C131.756 40.3161 131.526 41.4661 130.376 41.4661C129.216 41.4661 128.986 40.3161 128.986 39.3961C128.986 38.4761 129.216 37.3261 130.376 37.3261C131.526 37.3261 131.756 38.4761 131.756 39.3961ZM133.182 39.4061C133.182 40.9861 133.762 42.0861 135.402 42.0861C137.032 42.0861 137.612 40.9861 137.612 39.4061C137.612 37.8261 137.032 36.7061 135.402 36.7061C133.762 36.7061 133.182 37.8261 133.182 39.4061ZM136.792 39.4061C136.792 40.3561 136.562 41.5361 135.402 41.5361C134.242 41.5361 134.012 40.3561 134.012 39.4061C134.012 38.4561 134.242 37.2761 135.402 37.2761C136.562 37.2761 136.792 38.4561 136.792 39.4061ZM139.349 37.0461C139.349 36.7761 139.179 36.7061 138.989 36.7061C138.789 36.7061 138.609 36.7761 138.609 37.0461V43.5061C138.609 43.7761 138.809 43.8461 138.999 43.8461C139.199 43.8461 139.399 43.7761 139.399 43.5061V41.3061C139.699 41.7461 140.189 42.1161 140.829 42.1161C142.349 42.1161 142.889 40.8561 142.889 39.3961C142.889 37.9361 142.449 36.6761 140.939 36.6761C140.189 36.6761 139.679 37.0861 139.349 37.6061V37.0461ZM139.399 39.5661V39.0761C139.399 38.2561 139.839 37.3661 140.799 37.3661C141.879 37.3661 142.029 38.4961 142.029 39.3961C142.029 40.2961 141.879 41.4261 140.799 41.4261C139.829 41.4261 139.399 40.3861 139.399 39.5661ZM144.673 37.0461C144.673 36.7761 144.473 36.7061 144.283 36.7061C144.083 36.7061 143.893 36.7761 143.893 37.0461V41.7361C143.893 42.0161 144.083 42.0861 144.283 42.0861C144.473 42.0861 144.673 42.0161 144.673 41.7361V39.4661C145.743 39.4161 146.053 39.9161 146.353 40.7861C146.513 41.2161 146.653 41.7061 146.893 41.9861C146.963 42.0761 147.163 42.1161 147.343 42.0861C147.533 42.0461 147.613 41.9361 147.543 41.7561C147.343 41.2861 147.223 41.0861 147.003 40.4361C146.803 39.8261 146.483 39.2161 145.763 39.0761C146.183 38.9061 146.493 38.5561 146.713 38.1961C146.933 37.8361 147.123 37.4661 147.333 37.1161C147.483 36.8561 147.363 36.7361 147.103 36.7161C146.833 36.6861 146.693 36.8161 146.633 36.8961C146.383 37.2461 146.243 37.6161 146.033 37.9561C145.743 38.4561 145.403 38.8061 144.673 38.8761V37.0461ZM152.403 37.0461C152.403 36.7761 152.213 36.7061 152.013 36.7061C151.883 36.7061 151.753 36.7261 151.673 36.8461L149.723 39.9661C149.583 40.1961 149.393 40.5161 149.263 40.8161V37.0461C149.263 36.7761 149.063 36.7061 148.863 36.7061C148.673 36.7061 148.473 36.7761 148.473 37.0461V41.7361C148.473 42.0161 148.673 42.0861 148.863 42.0861C148.993 42.0861 149.143 42.0461 149.213 41.9261L151.193 38.7761C151.343 38.5261 151.513 38.2761 151.623 37.9961V41.7361C151.623 42.0161 151.823 42.0861 152.013 42.0861C152.213 42.0861 152.403 42.0161 152.403 41.7361V37.0461Z" fill="#192638"/>
</g>
<defs>
<clipPath id="clip0_117_649">
<rect width="154" height="46" fill="white"/>
</clipPath>
</defs>
</svg>
