<svg width="70" height="70" viewBox="0 0 70 70" fill="none" xmlns="http://www.w3.org/2000/svg">
<g clip-path="url(#clip0_228_456)">
<circle cx="20" cy="20" r="20" fill="#EAEFFF"/>
<path d="M18.9499 60.7761C18.8234 60.6896 18.6812 60.6289 18.5312 60.5973C18.3813 60.5658 18.2266 60.5641 18.0759 60.5924C17.9253 60.6206 17.7818 60.6783 17.6535 60.7621C17.5251 60.8458 17.4146 60.954 17.3281 61.0805L15.2431 64.129C14.7097 64.9087 15.2797 65.9546 16.2052 65.9546C16.3952 65.9549 16.5823 65.9087 16.7503 65.8201C16.9183 65.7315 17.0622 65.6032 17.1693 65.4463L19.2543 62.3978C19.429 62.1424 19.495 61.8281 19.4379 61.5239C19.3809 61.2198 19.2053 60.9508 18.9499 60.7761ZM11.7293 53.5356L8.19297 54.6005C8.04624 54.6447 7.90966 54.7174 7.79101 54.8143C7.67236 54.9113 7.57397 55.0307 7.50146 55.1656C7.42895 55.3006 7.38374 55.4486 7.3684 55.601C7.35307 55.7535 7.36792 55.9075 7.4121 56.0542C7.59878 56.6742 8.2516 57.02 8.86576 56.8351L12.4021 55.7701C12.6984 55.6809 12.9472 55.4776 13.0936 55.205C13.24 54.9324 13.2722 54.6128 13.183 54.3164C13.0938 54.0201 12.8905 53.7714 12.6179 53.6249C12.3453 53.4785 12.0256 53.4464 11.7293 53.5356ZM52.6715 61.0805C52.4968 60.8251 52.2278 60.6495 51.9237 60.5924C51.6195 60.5353 51.3052 60.6014 51.0497 60.7761C50.7943 60.9508 50.6187 61.2198 50.5616 61.5239C50.5045 61.828 50.5706 62.1424 50.7453 62.3978L52.8303 65.4463C52.9374 65.6032 53.0813 65.7315 53.2493 65.82C53.4173 65.9086 53.6044 65.9548 53.7944 65.9546C54.7167 65.9546 55.2912 64.9108 54.7565 64.129L52.6715 61.0805ZM61.8066 54.6004L58.2703 53.5354C57.9739 53.4462 57.6543 53.4784 57.3817 53.6248C57.1091 53.7712 56.9058 54.02 56.8166 54.3163C56.7274 54.6126 56.7595 54.9322 56.906 55.2048C57.0524 55.4775 57.3012 55.6807 57.5975 55.7699L61.1338 56.8349C61.4287 56.9192 61.7448 56.884 62.0139 56.737C62.283 56.59 62.4834 56.3429 62.5718 56.0493C62.6602 55.7557 62.6295 55.4391 62.4863 55.168C62.3431 54.8968 62.0989 54.6929 61.8066 54.6004ZM34.9998 8.59763C35.3092 8.59763 35.606 8.47471 35.8248 8.25589C36.0436 8.03708 36.1666 7.74031 36.1666 7.43086V3.05545C36.1666 2.746 36.0436 2.44923 35.8248 2.23041C35.606 2.0116 35.3092 1.88867 34.9998 1.88867C34.6903 1.88867 34.3936 2.0116 34.1748 2.23041C33.9559 2.44923 33.833 2.746 33.833 3.05545V7.43086C33.833 7.74031 33.9559 8.03708 34.1748 8.25589C34.3936 8.47471 34.6903 8.59763 34.9998 8.59763ZM19.52 7.96422C19.5982 8.09598 19.7016 8.21105 19.8243 8.30286C19.947 8.39466 20.0866 8.4614 20.235 8.49927C20.3835 8.53714 20.538 8.54539 20.6896 8.52355C20.8413 8.50172 20.9872 8.45022 21.1189 8.37201C21.2507 8.29381 21.3658 8.19042 21.4576 8.06775C21.5494 7.94507 21.6162 7.80551 21.6541 7.65704C21.692 7.50856 21.7002 7.35408 21.6784 7.20241C21.6566 7.05074 21.6051 6.90486 21.5269 6.77309L19.8002 3.86402C19.4712 3.3101 18.7555 3.12706 18.2013 3.45624C18.0695 3.53444 17.9544 3.63784 17.8626 3.76052C17.7708 3.8832 17.7041 4.02276 17.6662 4.17124C17.6284 4.31971 17.6201 4.47419 17.6419 4.62585C17.6638 4.77752 17.7153 4.92339 17.7935 5.05516L19.52 7.96422ZM48.8806 8.37201C49.4359 8.70177 50.1513 8.51713 50.4796 7.96422L52.2061 5.0553C52.2843 4.92354 52.3358 4.77766 52.3576 4.626C52.3795 4.47434 52.3712 4.31986 52.3333 4.17139C52.2955 4.02291 52.2287 3.88335 52.1369 3.76067C52.0451 3.63799 51.9301 3.53459 51.7983 3.45638C51.5322 3.29843 51.2142 3.25265 50.9144 3.32913C50.6145 3.4056 50.3573 3.59806 50.1994 3.86417L48.4727 6.77309C48.3945 6.90486 48.343 7.05074 48.3212 7.20241C48.2994 7.35408 48.3076 7.50856 48.3455 7.65704C48.3834 7.80551 48.4501 7.94507 48.542 8.06775C48.6338 8.19042 48.7489 8.29381 48.8806 8.37201Z" fill="#FCB428"/>
<path d="M69.386 25.5513L63.7039 15.5254C63.3058 14.8234 62.735 14.2347 62.0455 13.8152C61.8142 13.6124 61.5122 13.5091 61.2052 13.5279C60.8981 13.5466 60.6109 13.6859 60.406 13.9154L49.2369 26.4336L43.1133 18.0621C43.023 17.938 42.9091 17.8329 42.7781 17.7529C42.6472 17.6729 42.5017 17.6195 42.3501 17.5957C42.1984 17.572 42.0436 17.5785 41.8945 17.6147C41.7453 17.6509 41.6048 17.7162 41.4809 17.8068C41.357 17.8974 41.2523 18.0115 41.1726 18.1427C41.0929 18.2739 41.0399 18.4195 41.0165 18.5712C40.9932 18.7229 41 18.8777 41.0366 19.0267C41.0732 19.1758 41.1389 19.3161 41.2298 19.4398L47.8437 28.4813L34.8421 65.7694C34.1938 65.7269 33.5887 65.4288 33.1639 64.9308C1.6911 28.0318 2.95034 29.5092 2.90425 29.4538H11.4903C11.7997 29.4538 12.0965 29.3308 12.3153 29.112C12.5341 28.8932 12.657 28.5964 12.657 28.287C12.657 27.9775 12.5341 27.6808 12.3153 27.462C12.0965 27.2431 11.7997 27.1202 11.4903 27.1202H2.45898C2.57099 26.7867 2.17356 27.5302 8.32597 16.6758C8.40228 16.5416 8.49132 16.415 8.59185 16.2978L19.8275 28.8906L29.993 58.0449C30.0727 58.2735 30.2216 58.4718 30.419 58.612C30.6164 58.7523 30.8526 58.8277 31.0947 58.8278C31.8934 58.8278 32.4618 58.0373 32.1965 57.2766L22.495 29.4538H40.8665C41.1759 29.4538 41.4727 29.3308 41.6915 29.112C41.9103 28.8932 42.0333 28.5964 42.0333 28.287C42.0333 27.9775 41.9103 27.6808 41.6915 27.462C41.4727 27.2431 41.1759 27.1202 40.8665 27.1202H21.3753L10.9651 15.4524H28.7955L24.5118 21.3084C23.9415 22.088 24.5145 23.1641 25.4525 23.1641C25.6362 23.1644 25.8173 23.1212 25.9811 23.0381C26.145 22.9551 26.2869 22.8345 26.3952 22.6862L31.6867 15.4524H51.7083C52.0178 15.4524 52.3145 15.3295 52.5333 15.1107C52.7522 14.8919 52.8751 14.5951 52.8751 14.2857C52.8751 13.9762 52.7522 13.6795 52.5333 13.4606C52.3145 13.2418 52.0178 13.1189 51.7083 13.1189H10.4254C9.73412 13.1198 9.05138 13.272 8.42515 13.5649C8.24725 13.6115 8.08295 13.6996 7.94575 13.822C7.26045 14.2409 6.69272 14.827 6.29578 15.5252L0.613581 25.5513C0.125431 26.4128 -0.0675247 27.3855 0.0207127 28.3319C0.0234838 28.4057 0.0326722 28.4778 0.0485695 28.5473C0.170643 29.4246 0.533073 30.2704 1.13178 30.9722L31.3882 66.4452C33.2839 68.6678 36.7179 68.6652 38.6112 66.4452L68.8676 30.9722C70.158 29.4596 70.3661 27.2811 69.386 25.5513ZM67.0923 29.4578L38.1378 63.4043L49.9758 29.4538H60.0055C60.315 29.4538 60.6118 29.3308 60.8306 29.112C61.0494 28.8932 61.1723 28.5964 61.1723 28.287C61.1723 27.9775 61.0494 27.6808 60.8306 27.462C60.6118 27.2431 60.315 27.1202 60.0055 27.1202H51.7518L61.4076 16.2981C61.6285 16.5567 61.1248 15.7067 67.3558 26.7018C67.8542 27.5812 67.7483 28.6888 67.0923 29.4578Z" fill="#7CB8EB"/>
</g>
<defs>
<clipPath id="clip0_228_456">
<rect width="70" height="70" fill="white"/>
</clipPath>
</defs>
</svg>
