<svg width="70" height="70" viewBox="0 0 70 70" fill="none" xmlns="http://www.w3.org/2000/svg">
<g clip-path="url(#clip0_228_450)">
<circle cx="50" cy="50" r="20" fill="#EAEFFF"/>
<path d="M1.16534 41.5353C1.58242 41.5353 2.52582 41.3545 3.32133 41.018C10.5096 37.9787 6.31222 25.6435 12.7665 19.0838C16.4458 15.3442 23.9228 13.4401 29.5865 16.8846C30.5795 17.4884 31.0177 18.6743 30.7125 19.7623C26.2913 16.8158 20.2061 16.9625 15.125 20.2625C14.8688 20.4325 14.69 20.6967 14.6275 20.9978C14.565 21.2988 14.6239 21.6124 14.7914 21.8703C14.9588 22.1282 15.2213 22.3095 15.5218 22.3749C15.8222 22.4402 16.1364 22.3843 16.3958 22.2193C21.0502 19.1964 26.6479 19.2624 30.325 22.3837C30.8193 22.8032 31.5614 22.7388 31.9677 22.2513C34.0489 19.7539 33.2216 16.3643 30.799 14.8911C24.4722 11.0433 15.8174 12.6561 11.1034 17.4472C3.67716 24.9948 8.34717 38.5193 1.05728 39.2069C0.758395 39.2346 0.481664 39.3764 0.284625 39.6028C0.0875866 39.8292 -0.0145981 40.1229 -0.000682292 40.4227C0.0132335 40.7226 0.142179 41.0055 0.359344 41.2127C0.576508 41.4199 0.865182 41.5355 1.16534 41.5353ZM41.5068 16.2946C47.0453 13.6648 53.8525 15.6474 57.2335 19.0836C63.6814 25.6371 59.4945 37.9804 66.6786 41.018C67.3232 41.2906 68.0113 41.4628 68.7237 41.5301C69.3634 41.5901 69.9341 41.1214 69.9947 40.4782C70.0091 40.3256 69.9933 40.1718 69.9482 40.0253C69.9032 39.8789 69.8297 39.7428 69.732 39.6247C69.6343 39.5067 69.5143 39.4091 69.3789 39.3374C69.2435 39.2658 69.0952 39.2215 68.9427 39.2071C61.6331 38.5176 66.3482 25.0206 58.8966 17.4474C54.9979 13.4848 47.2279 10.9955 40.5059 14.1869C40.2264 14.3196 40.0111 14.5579 39.9073 14.8494C39.8035 15.1409 39.8198 15.4617 39.9525 15.7412C40.0181 15.8796 40.1105 16.0037 40.2241 16.1065C40.3378 16.2092 40.4706 16.2885 40.6149 16.3399C40.7593 16.3913 40.9123 16.4138 41.0654 16.406C41.2184 16.3982 41.3684 16.3604 41.5068 16.2946Z" fill="#7CB8EB"/>
<path d="M69.4508 55.1059C67.4245 53.8417 63.8469 51.9644 60.4216 50.6207C58.5104 49.8708 56.4234 49.8538 54.5454 50.5723C48.5064 52.8826 43.8217 49.2308 38.3652 54.0282C37.5512 54.744 36.3341 54.2416 36.1724 53.2585C36.1866 53.0218 36.1799 52.7884 36.1591 52.6018C35.0538 41.7547 19.5477 43.1783 18.6368 33.875C18.3217 30.6549 20.4427 28.6931 22.3547 27.9915C24.2879 27.2825 26.9915 27.4461 28.7827 30.0326C30.2393 32.1361 33.3635 32.2749 34.9977 30.236C36.6333 32.2792 39.7668 32.126 41.217 30.0326C43.0081 27.4461 45.7119 27.2825 47.6449 27.9915C49.5569 28.6931 51.6779 30.6549 51.3627 33.875C50.7179 40.4608 42.8928 41.6069 37.8808 45.5743C37.0177 46.2574 37.5013 47.6558 38.6056 47.6558C38.8682 47.6559 39.1232 47.5671 39.3289 47.4038C44.0989 43.628 52.8954 42.1688 53.685 34.1022C54.4709 26.0752 44.0085 21.9035 39.2989 28.7039C38.8666 29.3277 38.0222 29.5385 37.3352 29.1951C37.0104 29.0323 36.7527 28.7612 36.6065 28.4286C36.4603 28.0961 36.4348 27.7229 36.5345 27.3735C38.6547 19.9391 47.0599 17.9692 53.6039 22.219C53.7324 22.3025 53.876 22.3599 54.0267 22.3878C54.1773 22.4158 54.332 22.4138 54.4818 22.3819C54.6317 22.3501 54.7738 22.289 54.9001 22.2022C55.0263 22.1154 55.1343 22.0046 55.2177 21.876C55.3862 21.6166 55.4447 21.3008 55.3804 20.9981C55.316 20.6955 55.1341 20.4308 54.8747 20.2623C47.0184 15.16 36.847 17.77 34.2905 26.7336C34.2729 26.7956 34.2606 26.858 34.2462 26.9202C34.0445 27.0017 33.8696 27.1381 33.7415 27.314C33.6134 27.4898 33.5371 27.698 33.5213 27.915C33.5009 28.1841 33.4113 28.4434 33.2611 28.6677C33.111 28.892 32.9054 29.0737 32.6643 29.1951C31.9769 29.5388 31.1325 29.3277 30.7009 28.7041C25.9858 21.896 15.5293 26.0827 16.3146 34.1022C17.3841 45.0289 32.8211 43.6438 33.829 52.7692C33.8184 52.9321 33.8179 53.0955 33.8275 53.2584C33.6659 54.2407 32.449 54.7443 31.6346 54.0281C26.1783 49.2308 21.4832 52.8786 15.4545 50.5721C13.5766 49.8535 11.4896 49.8707 9.5783 50.6206C6.15298 51.9643 2.57527 53.8414 0.549067 55.1058C0.288133 55.2703 0.102977 55.5315 0.0341004 55.8322C-0.0347767 56.1328 0.0182315 56.4486 0.18153 56.7103C0.344828 56.972 0.605125 57.1583 0.905481 57.2286C1.20584 57.2989 1.52181 57.2474 1.78427 57.0853C3.71947 55.8778 7.14348 54.0822 10.4304 52.7926C11.7987 52.2558 13.287 52.241 14.6206 52.7513C21.2752 55.2974 25.4886 51.7312 30.0939 55.7804C31.5164 57.0309 33.6076 56.9931 34.9999 55.7297C36.3912 56.9923 38.4822 57.0318 39.9058 55.7804C44.5035 51.7379 48.7347 55.2935 55.3791 52.7513C56.7129 52.241 58.2011 52.2558 59.5693 52.7926C62.8562 54.082 66.2804 55.8777 68.2155 57.0853C68.7667 57.4292 69.4848 57.2552 69.8228 56.7132C69.9039 56.5832 69.9587 56.4385 69.9839 56.2874C70.0091 56.1363 70.0043 55.9817 69.9697 55.8325C69.9352 55.6832 69.8716 55.5422 69.7825 55.4176C69.6935 55.2929 69.5808 55.187 69.4508 55.1059Z" fill="#7CB8EB"/>
<path d="M35 11.9585C35.3094 11.9585 35.6062 11.8355 35.825 11.6167C36.0438 11.398 36.1667 11.1012 36.1667 10.7918V2.62516C36.1667 2.31574 36.0438 2.01899 35.825 1.8002C35.6062 1.58141 35.3094 1.4585 35 1.4585C34.6906 1.4585 34.3938 1.58141 34.1751 1.8002C33.9563 2.01899 33.8333 2.31574 33.8333 2.62516V10.7918C33.8333 11.1012 33.9563 11.398 34.1751 11.6167C34.3938 11.8355 34.6906 11.9585 35 11.9585ZM35 59.4999C34.6906 59.4999 34.3938 59.6228 34.1751 59.8416C33.9563 60.0604 33.8333 60.3572 33.8333 60.6666V67.3749C33.8333 67.6843 33.9563 67.981 34.1751 68.1998C34.3938 68.4186 34.6906 68.5415 35 68.5415C35.3094 68.5415 35.6062 68.4186 35.825 68.1998C36.0438 67.981 36.1667 67.6843 36.1667 67.3749V60.6666C36.1667 60.3572 36.0438 60.0604 35.825 59.8416C35.6062 59.6228 35.3094 59.4999 35 59.4999ZM20.0275 9.08817C20.3269 9.65648 21.032 9.87771 21.6035 9.57642C21.7391 9.505 21.8592 9.40758 21.9571 9.28972C22.055 9.17186 22.1287 9.03588 22.174 8.88953C22.2194 8.74319 22.2355 8.58934 22.2213 8.43679C22.2072 8.28423 22.1632 8.13595 22.0918 8.00041L20.26 4.52419C20.1886 4.38862 20.0912 4.26845 19.9733 4.17054C19.8555 4.07262 19.7195 3.99889 19.5731 3.95355C19.4268 3.90821 19.2729 3.89215 19.1203 3.90628C18.9678 3.92042 18.8195 3.96448 18.6839 4.03594C18.5484 4.10737 18.4283 4.20479 18.3304 4.32264C18.2325 4.4405 18.1588 4.57648 18.1134 4.72283C18.0681 4.86918 18.052 5.02302 18.0661 5.17558C18.0802 5.32813 18.1243 5.47642 18.1957 5.61196L20.0275 9.08817ZM48.3965 9.57642C48.6702 9.72063 48.99 9.7502 49.2856 9.65864C49.5811 9.56708 49.8282 9.36188 49.9725 9.08817L51.8043 5.61196C51.8758 5.47642 51.9198 5.32814 51.934 5.17557C51.9481 5.02301 51.932 4.86915 51.8867 4.7228C51.8414 4.57644 51.7676 4.44045 51.6697 4.3226C51.5718 4.20474 51.4516 4.10734 51.3161 4.03594C51.1805 3.96452 51.0322 3.92049 50.8797 3.90637C50.7271 3.89226 50.5733 3.90833 50.4269 3.95366C50.2806 3.999 50.1446 4.07272 50.0267 4.17061C49.9089 4.2685 49.8115 4.38865 49.74 4.52419L47.9084 8.00041C47.8369 8.13593 47.7929 8.28421 47.7787 8.43677C47.7646 8.58933 47.7806 8.74318 47.8259 8.88954C47.8713 9.03589 47.945 9.17188 48.0429 9.28974C48.1408 9.4076 48.2609 9.50501 48.3965 9.57642Z" fill="#FCB428"/>
<path d="M21.6035 57.507C21.3298 57.3628 21.0099 57.3332 20.7144 57.4247C20.4188 57.5163 20.1718 57.7215 20.0275 57.9952L18.1957 61.4714C17.784 62.2524 18.3577 63.1822 19.2267 63.1822C19.4393 63.1824 19.648 63.1244 19.8301 63.0146C20.0121 62.9048 20.1607 62.7473 20.2598 62.5592L22.0916 59.083C22.1631 58.9475 22.2071 58.7992 22.2213 58.6466C22.2354 58.4941 22.2194 58.3402 22.1741 58.1939C22.1287 58.0475 22.055 57.9115 21.9571 57.7936C21.8592 57.6758 21.7391 57.5784 21.6035 57.507ZM49.9725 57.9952C49.9011 57.8597 49.8036 57.7395 49.6858 57.6416C49.5679 57.5437 49.4319 57.47 49.2856 57.4247C49.1393 57.3794 48.9854 57.3633 48.8329 57.3774C48.6803 57.3915 48.532 57.4355 48.3965 57.507C48.2609 57.5784 48.1408 57.6758 48.0429 57.7937C47.945 57.9115 47.8713 58.0475 47.8259 58.1939C47.7806 58.3402 47.7645 58.494 47.7787 58.6466C47.7928 58.7992 47.8368 58.9474 47.9082 59.083L49.74 62.5592C49.8391 62.7473 49.9877 62.9048 50.1698 63.0146C50.3519 63.1244 50.5605 63.1824 50.7731 63.1822C51.642 63.1822 52.216 62.2525 51.8042 61.4714L49.9725 57.9952Z" fill="#FCB428"/>
</g>
<defs>
<clipPath id="clip0_228_450">
<rect width="70" height="70" fill="white"/>
</clipPath>
</defs>
</svg>
