<svg width="24" height="40" viewBox="0 0 24 40" fill="none" xmlns="http://www.w3.org/2000/svg">
<path d="M22.1244 0.879975C20.9511 -0.293325 19.0488 -0.293325 17.8755 0.879975L0.879946 17.8756C-0.293354 19.0489 -0.293354 20.9511 0.879946 22.1244C2.05325 23.2977 3.95554 23.2977 5.12884 22.1244L22.1244 5.12887C23.2977 3.95557 23.2977 2.05327 22.1244 0.879975Z" fill="#DDE2F1"/>
<path d="M5.12884 17.8756C3.95554 16.7023 2.05325 16.7023 0.879946 17.8756C-0.293354 19.0489 -0.293354 20.9511 0.879946 22.1244L17.8755 39.12C19.0488 40.2933 20.9511 40.2933 22.1244 39.12C23.2977 37.9467 23.2977 36.0444 22.1244 34.8711L5.12884 17.8756Z" fill="#DDE2F1"/>
</svg>
