<svg width="100" height="100" viewBox="0 0 100 100" fill="none" xmlns="http://www.w3.org/2000/svg">
<g clip-path="url(#clip0_228_327)">
<ellipse cx="19.9902" cy="20" rx="19.9902" ry="20" fill="#EAEFFF"/>
<mask id="mask0_228_327" style="mask-type:luminance" maskUnits="userSpaceOnUse" x="0" y="0" width="100" height="100">
<path d="M99.9512 0H0V100H99.9512V0Z" fill="white"/>
</mask>
<g mask="url(#mask0_228_327)">
<path d="M46.1201 61.7188H22.694C21.1408 61.7188 19.6511 61.1014 18.5528 60.0026C17.4545 58.9037 16.8375 57.4134 16.8375 55.8594V36.3281C16.8375 31.6661 18.6886 27.1951 21.9835 23.8985C25.2784 20.602 29.7473 18.75 34.407 18.75C39.0668 18.75 43.5357 20.602 46.8306 23.8985C50.1255 27.1951 51.9766 31.6661 51.9766 36.3281V55.8594C51.9766 57.4134 51.3596 58.9037 50.2612 60.0026C49.1629 61.1014 47.6733 61.7188 46.1201 61.7188ZM34.407 22.6562C30.7841 22.6604 27.3107 24.1021 24.7488 26.6652C22.187 29.2283 20.746 32.7034 20.7418 36.3281V55.8594C20.7418 56.3774 20.9475 56.8742 21.3136 57.2404C21.6797 57.6067 22.1763 57.8125 22.694 57.8125H46.1201C46.6378 57.8125 47.1344 57.6067 47.5005 57.2404C47.8666 56.8742 48.0722 56.3774 48.0722 55.8594V36.3281C48.0735 34.5323 47.7209 32.7539 47.0347 31.0946C46.3484 29.4353 45.3418 27.9276 44.0727 26.6578C42.8035 25.388 41.2965 24.381 39.638 23.6943C37.9795 23.0077 36.2019 22.655 34.407 22.6562Z" fill="#7CB8EB"/>
<path d="M46.1201 77.3438H22.694C21.1408 77.3438 19.6511 76.7264 18.5528 75.6276C17.4545 74.5287 16.8375 73.0384 16.8375 71.4844C16.8375 69.9304 17.4545 68.44 18.5528 67.3412C19.6511 66.2423 21.1408 65.625 22.694 65.625H46.1201C47.6733 65.625 49.1629 66.2423 50.2612 67.3412C51.3596 68.44 51.9766 69.9304 51.9766 71.4844C51.9766 73.0384 51.3596 74.5287 50.2612 75.6276C49.1629 76.7264 47.6733 77.3438 46.1201 77.3438ZM22.694 69.5312C22.1763 69.5312 21.6797 69.737 21.3136 70.1033C20.9475 70.4696 20.7418 70.9664 20.7418 71.4844C20.7418 72.0024 20.9475 72.4992 21.3136 72.8654C21.6797 73.2317 22.1763 73.4375 22.694 73.4375H46.1201C46.6378 73.4375 47.1344 73.2317 47.5005 72.8654C47.8666 72.4992 48.0722 72.0024 48.0722 71.4844C48.0722 70.9664 47.8666 70.4696 47.5005 70.1033C47.1344 69.737 46.6378 69.5312 46.1201 69.5312H22.694Z" fill="#7CB8EB"/>
<path d="M18.7897 57.8125H2.001C1.74464 57.8125 1.49078 57.762 1.25394 57.6638C1.01709 57.5657 0.801882 57.4218 0.620606 57.2404C0.254503 56.8742 0.0488281 56.3774 0.0488281 55.8594V48.0469C0.0488281 47.5289 0.254503 47.0321 0.620606 46.6658C0.986709 46.2995 1.48325 46.0938 2.001 46.0938H18.7897C19.3074 46.0938 19.804 46.2995 20.1701 46.6658C20.5362 47.0321 20.7418 47.5289 20.7418 48.0469C20.7418 48.5649 20.5362 49.0617 20.1701 49.4279C19.804 49.7942 19.3074 50 18.7897 50H3.95317V53.9062H18.7897C19.3074 53.9062 19.804 54.112 20.1701 54.4783C20.5362 54.8446 20.7418 55.3414 20.7418 55.8594C20.7418 56.3774 20.5362 56.8742 20.1701 57.2404C19.804 57.6067 19.3074 57.8125 18.7897 57.8125Z" fill="#7CB8EB"/>
<path d="M98.0478 57.8125H50.0244C49.5067 57.8125 49.0101 57.6067 48.644 57.2404C48.2779 56.8742 48.0722 56.3774 48.0722 55.8594C48.0722 55.3414 48.2779 54.8446 48.644 54.4783C49.0101 54.112 49.5067 53.9062 50.0244 53.9062H96.0957V50H50.0244C49.5067 50 49.0101 49.7942 48.644 49.4279C48.2779 49.0617 48.0722 48.5649 48.0722 48.0469C48.0722 47.5289 48.2779 47.0321 48.644 46.6658C49.0101 46.2995 49.5067 46.0938 50.0244 46.0938H98.0478C98.5656 46.0938 99.0621 46.2995 99.4282 46.6658C99.7943 47.0321 100 47.5289 100 48.0469V55.8594C100 56.3774 99.7943 56.8742 99.4282 57.2404C99.0621 57.6067 98.5656 57.8125 98.0478 57.8125Z" fill="#7CB8EB"/>
<path d="M5.90533 96.875C5.38758 96.875 4.89104 96.6692 4.52493 96.3029C4.15883 95.9367 3.95316 95.4399 3.95316 94.9219V55.8594C3.95316 55.3414 4.15883 54.8446 4.52493 54.4783C4.89104 54.112 5.38758 53.9062 5.90533 53.9062C6.42308 53.9062 6.91962 54.112 7.28572 54.4783C7.65182 54.8446 7.8575 55.3414 7.8575 55.8594V94.9219C7.8575 95.4399 7.65182 95.9367 7.28572 96.3029C6.91962 96.6692 6.42308 96.875 5.90533 96.875Z" fill="#7CB8EB"/>
<path d="M94.1435 96.875H57.8331C57.3153 96.875 56.8188 96.6692 56.4527 96.3029C56.0866 95.9367 55.8809 95.4399 55.8809 94.9219V55.8594C55.8809 55.3414 56.0866 54.8446 56.4527 54.4783C56.8188 54.112 57.3153 53.9062 57.8331 53.9062C58.3508 53.9062 58.8474 54.112 59.2135 54.4783C59.5796 54.8446 59.7853 55.3414 59.7853 55.8594V92.9688H92.1913V55.8594C92.1913 55.3414 92.397 54.8446 92.7631 54.4783C93.1292 54.112 93.6257 53.9062 94.1435 53.9062C94.6612 53.9062 95.1578 54.112 95.5239 54.4783C95.89 54.8446 96.0957 55.3414 96.0957 55.8594V94.9219C96.0957 95.4399 95.89 95.9367 95.5239 96.3029C95.1578 96.6692 94.6612 96.875 94.1435 96.875Z" fill="#7CB8EB"/>
<path d="M50.0244 96.875C49.5067 96.875 49.0101 96.6692 48.644 96.3029C48.2779 95.9367 48.0722 95.4399 48.0722 94.9219C48.0722 94.4039 47.8666 93.9071 47.5005 93.5408C47.1344 93.1745 46.6378 92.9688 46.1201 92.9688H22.694C22.1763 92.9688 21.6797 93.1745 21.3136 93.5408C20.9475 93.9071 20.7418 94.4039 20.7418 94.9219C20.7418 95.4399 20.5362 95.9367 20.1701 96.3029C19.804 96.6692 19.3074 96.875 18.7897 96.875C18.2719 96.875 17.7754 96.6692 17.4093 96.3029C17.0432 95.9367 16.8375 95.4399 16.8375 94.9219C16.8375 93.3679 17.4545 91.8775 18.5528 90.7787C19.6511 89.6798 21.1408 89.0625 22.694 89.0625H46.1201C47.6733 89.0625 49.1629 89.6798 50.2612 90.7787C51.3596 91.8775 51.9766 93.3679 51.9766 94.9219C51.9766 95.4399 51.7709 95.9367 51.4048 96.3029C51.0387 96.6692 50.5422 96.875 50.0244 96.875Z" fill="#7CB8EB"/>
<path d="M34.407 96.875C33.8893 96.875 33.3927 96.6692 33.0266 96.3029C32.6605 95.9367 32.4549 95.4399 32.4549 94.9219V83.2031C32.4549 82.6851 32.6605 82.1883 33.0266 81.8221C33.3927 81.4558 33.8893 81.25 34.407 81.25C34.9248 81.25 35.4213 81.4558 35.7874 81.8221C36.1535 82.1883 36.3592 82.6851 36.3592 83.2031V94.9219C36.3592 95.4399 36.1535 95.9367 35.7874 96.3029C35.4213 96.6692 34.9248 96.875 34.407 96.875Z" fill="#7CB8EB"/>
<path d="M34.407 69.5312C33.8893 69.5312 33.3927 69.3255 33.0266 68.9592C32.6605 68.5929 32.4549 68.0961 32.4549 67.5781V59.7656C32.4549 59.2476 32.6605 58.7508 33.0266 58.3846C33.3927 58.0183 33.8893 57.8125 34.407 57.8125C34.9248 57.8125 35.4213 58.0183 35.7874 58.3846C36.1535 58.7508 36.3592 59.2476 36.3592 59.7656V67.5781C36.3592 68.0961 36.1535 68.5929 35.7874 68.9592C35.4213 69.3255 34.9248 69.5312 34.407 69.5312Z" fill="#7CB8EB"/>
<path d="M38.3114 85.1562H30.5027C29.9849 85.1562 29.4884 84.9505 29.1223 84.5842C28.7562 84.2179 28.5505 83.7211 28.5505 83.2031V75.3906C28.5505 74.8726 28.7562 74.3758 29.1223 74.0096C29.4884 73.6433 29.9849 73.4375 30.5027 73.4375C31.0204 73.4375 31.517 73.6433 31.8831 74.0096C32.2492 74.3758 32.4548 74.8726 32.4548 75.3906V81.25H36.3592V75.3906C36.3592 74.8726 36.5649 74.3758 36.931 74.0096C37.2971 73.6433 37.7936 73.4375 38.3114 73.4375C38.8291 73.4375 39.3257 73.6433 39.6918 74.0096C40.0579 74.3758 40.2635 74.8726 40.2635 75.3906V83.2031C40.2635 83.7211 40.0579 84.2179 39.6918 84.5842C39.3257 84.9505 38.8291 85.1562 38.3114 85.1562Z" fill="#7CB8EB"/>
<path d="M94.1435 77.3438H57.8331C57.3153 77.3438 56.8188 77.138 56.4527 76.7717C56.0866 76.4054 55.8809 75.9086 55.8809 75.3906C55.8809 74.8726 56.0866 74.3758 56.4527 74.0096C56.8188 73.6433 57.3153 73.4375 57.8331 73.4375H94.1435C94.6612 73.4375 95.1578 73.6433 95.5239 74.0096C95.89 74.3758 96.0957 74.8726 96.0957 75.3906C96.0957 75.9086 95.89 76.4054 95.5239 76.7717C95.1578 77.138 94.6612 77.3438 94.1435 77.3438Z" fill="#7CB8EB"/>
<path d="M81.8448 65.625H70.1318C69.614 65.625 69.1175 65.4192 68.7514 65.0529C68.3853 64.6867 68.1796 64.1899 68.1796 63.6719C68.1796 63.1539 68.3853 62.6571 68.7514 62.2908C69.1175 61.9245 69.614 61.7188 70.1318 61.7188H81.8448C82.3626 61.7188 82.8591 61.9245 83.2252 62.2908C83.5913 62.6571 83.797 63.1539 83.797 63.6719C83.797 64.1899 83.5913 64.6867 83.2252 65.0529C82.8591 65.4192 82.3626 65.625 81.8448 65.625Z" fill="#FCB428"/>
<path d="M81.8448 85.1562H70.1318C69.614 85.1562 69.1175 84.9505 68.7514 84.5842C68.3853 84.2179 68.1796 83.7211 68.1796 83.2031C68.1796 82.6851 68.3853 82.1883 68.7514 81.8221C69.1175 81.4558 69.614 81.25 70.1318 81.25H81.8448C82.3626 81.25 82.8591 81.4558 83.2252 81.8221C83.5913 82.1883 83.797 82.6851 83.797 83.2031C83.797 83.7211 83.5913 84.2179 83.2252 84.5842C82.8591 84.9505 82.3626 85.1562 81.8448 85.1562Z" fill="#FCB428"/>
<path d="M70.1318 50C69.614 50 69.1175 49.7942 68.7514 49.4279C68.3853 49.0617 68.1796 48.5649 68.1796 48.0469V40.2344C68.1796 39.7164 68.3853 39.2196 68.7514 38.8533C69.1175 38.487 69.614 38.2812 70.1318 38.2812C70.6495 38.2812 71.1461 38.487 71.5122 38.8533C71.8783 39.2196 72.084 39.7164 72.084 40.2344V48.0469C72.084 48.5649 71.8783 49.0617 71.5122 49.4279C71.1461 49.7942 70.6495 50 70.1318 50Z" fill="#7CB8EB"/>
<path d="M14.8853 22.6562C14.3676 22.6562 13.871 22.4505 13.5049 22.0842C13.1388 21.7179 12.9331 21.2211 12.9331 20.7031C12.9362 18.1141 13.9656 15.6319 15.7954 13.8012C17.6253 11.9705 20.1062 10.9406 22.694 10.9375C23.2117 10.9375 23.7083 11.1433 24.0744 11.5096C24.4405 11.8758 24.6462 12.3726 24.6462 12.8906C24.6462 13.4086 24.4405 13.9054 24.0744 14.2717C23.7083 14.638 23.2117 14.8438 22.694 14.8438C21.1408 14.8438 19.6511 15.4611 18.5528 16.5599C17.4545 17.6588 16.8375 19.1491 16.8375 20.7031C16.8375 21.2211 16.6318 21.7179 16.2657 22.0842C15.8996 22.4505 15.4031 22.6562 14.8853 22.6562Z" fill="#FCB428"/>
<path d="M14.8853 22.6562C14.3676 22.6562 13.871 22.4505 13.5049 22.0842C13.1388 21.7179 12.9331 21.2211 12.9331 20.7031C12.9331 19.9337 12.7817 19.1717 12.4873 18.4608C12.193 17.7499 11.7616 17.104 11.2178 16.5599C10.674 16.0158 10.0284 15.5842 9.31781 15.2898C8.60727 14.9953 7.84571 14.8438 7.07662 14.8438C6.55887 14.8438 6.06233 14.638 5.69623 14.2717C5.33013 13.9054 5.12445 13.4086 5.12445 12.8906C5.12445 12.3726 5.33013 11.8758 5.69623 11.5096C6.06233 11.1433 6.55887 10.9375 7.07662 10.9375C9.66441 10.9406 12.1453 11.9705 13.9752 13.8012C15.805 15.6319 16.8344 18.1141 16.8375 20.7031C16.8375 21.2211 16.6318 21.7179 16.2657 22.0842C15.8996 22.4505 15.4031 22.6562 14.8853 22.6562Z" fill="#FCB428"/>
<path d="M22.694 14.8438C20.1062 14.8406 17.6253 13.8108 15.7954 11.98C13.9656 10.1493 12.9362 7.66718 12.9331 5.07812C12.9331 4.56012 13.1388 4.06334 13.5049 3.69706C13.871 3.33078 14.3676 3.125 14.8853 3.125C15.4031 3.125 15.8996 3.33078 16.2657 3.69706C16.6318 4.06334 16.8375 4.56012 16.8375 5.07812C16.8375 6.63213 17.4545 8.12248 18.5528 9.22133C19.6511 10.3202 21.1408 10.9375 22.694 10.9375C23.2117 10.9375 23.7083 11.1433 24.0744 11.5096C24.4405 11.8758 24.6462 12.3726 24.6462 12.8906C24.6462 13.4086 24.4405 13.9054 24.0744 14.2717C23.7083 14.638 23.2117 14.8438 22.694 14.8438Z" fill="#FCB428"/>
<path d="M7.07662 14.8438C6.55887 14.8438 6.06233 14.638 5.69623 14.2717C5.33013 13.9054 5.12445 13.4086 5.12445 12.8906C5.12445 12.3726 5.33013 11.8758 5.69623 11.5096C6.06233 11.1433 6.55887 10.9375 7.07662 10.9375C7.84571 10.9375 8.60727 10.7859 9.31781 10.4915C10.0284 10.197 10.674 9.76542 11.2178 9.22133C11.7616 8.67724 12.193 8.0313 12.4873 7.32041C12.7817 6.60952 12.9331 5.84759 12.9331 5.07812C12.9331 4.56012 13.1388 4.06334 13.5049 3.69706C13.871 3.33078 14.3676 3.125 14.8853 3.125C15.4031 3.125 15.8996 3.33078 16.2657 3.69706C16.6318 4.06334 16.8375 4.56012 16.8375 5.07812C16.8344 7.66718 15.805 10.1493 13.9752 11.98C12.1453 13.8108 9.66441 14.8406 7.07662 14.8438Z" fill="#FCB428"/>
<path d="M62.3231 34.375C61.8053 34.375 61.3088 34.1692 60.9427 33.8029C60.5766 33.4367 60.3709 32.9399 60.3709 32.4219V24.6094C60.3709 24.0914 60.5766 23.5946 60.9427 23.2283C61.3088 22.862 61.8053 22.6563 62.3231 22.6562C62.8408 22.6562 63.3374 22.862 63.7035 23.2283C64.0696 23.5946 64.2752 24.0914 64.2752 24.6094V32.4219C64.2752 32.6784 64.2248 32.9323 64.1267 33.1693C64.0285 33.4063 63.8847 33.6216 63.7035 33.8029C63.5222 33.9843 63.307 34.1282 63.0701 34.2263C62.8333 34.3245 62.5794 34.375 62.3231 34.375Z" fill="#FCB428"/>
<path d="M66.2274 30.4688H58.4187C57.901 30.4688 57.4044 30.263 57.0383 29.8967C56.6722 29.5304 56.4666 29.0336 56.4666 28.5156C56.4666 27.9976 56.6722 27.5008 57.0383 27.1346C57.4044 26.7683 57.901 26.5625 58.4187 26.5625H66.2274C66.7452 26.5625 67.2417 26.7683 67.6078 27.1346C67.9739 27.5008 68.1796 27.9976 68.1796 28.5156C68.1796 29.0336 67.9739 29.5304 67.6078 29.8967C67.2417 30.263 66.7452 30.4688 66.2274 30.4688Z" fill="#FCB428"/>
<path d="M81.8448 22.6562C81.3271 22.6562 80.8305 22.4505 80.4644 22.0842C80.0983 21.7179 79.8926 21.2211 79.8926 20.7031V12.8906C79.8926 12.3726 80.0983 11.8758 80.4644 11.5096C80.8305 11.1433 81.3271 10.9375 81.8448 10.9375C82.3626 10.9375 82.8591 11.1433 83.2252 11.5096C83.5913 11.8758 83.797 12.3726 83.797 12.8906V20.7031C83.797 21.2211 83.5913 21.7179 83.2252 22.0842C82.8591 22.4505 82.3626 22.6562 81.8448 22.6562Z" fill="#FCB428"/>
<path d="M85.7491 18.75H77.9405C77.4227 18.75 76.9262 18.5442 76.5601 18.1779C76.194 17.8117 75.9883 17.3149 75.9883 16.7969C75.9883 16.2789 76.194 15.7821 76.5601 15.4158C76.9262 15.0495 77.4227 14.8438 77.9405 14.8438H85.7491C86.2669 14.8438 86.7634 15.0495 87.1295 15.4158C87.4956 15.7821 87.7013 16.2789 87.7013 16.7969C87.7013 17.3149 87.4956 17.8117 87.1295 18.1779C86.7634 18.5442 86.2669 18.75 85.7491 18.75Z" fill="#FCB428"/>
<path d="M72.084 5.07812C72.084 5.46442 71.9695 5.84203 71.755 6.16322C71.5405 6.48441 71.2356 6.73475 70.8789 6.88258C70.5222 7.0304 70.1296 7.06908 69.751 6.99372C69.3723 6.91836 69.0244 6.73234 68.7514 6.45919C68.4784 6.18604 68.2925 5.83803 68.2171 5.45916C68.1418 5.08029 68.1805 4.68758 68.3282 4.3307C68.476 3.97381 68.7262 3.66877 69.0472 3.45416C69.3683 3.23955 69.7457 3.125 70.1318 3.125C70.6495 3.125 71.1461 3.33078 71.5122 3.69706C71.8783 4.06334 72.084 4.56012 72.084 5.07812Z" fill="#FCB428"/>
<path d="M42.2157 24.7461C41.698 24.7461 41.2014 24.5403 40.8353 24.174C40.4692 23.8078 40.2635 23.311 40.2635 22.793V5.07812C40.2635 4.56012 40.4692 4.06334 40.8353 3.69706C41.2014 3.33078 41.698 3.125 42.2157 3.125H61.347C61.8648 3.125 62.3613 3.33078 62.7274 3.69706C63.0935 4.06334 63.2992 4.56012 63.2992 5.07812C63.2992 5.59613 63.0935 6.09291 62.7274 6.45919C62.3613 6.82547 61.8648 7.03125 61.347 7.03125H44.1679V22.793C44.1679 23.311 43.9622 23.8078 43.5961 24.174C43.23 24.5403 42.7335 24.7461 42.2157 24.7461Z" fill="#7CB8EB"/>
<path d="M98.0478 42.1875H50.0244C49.5067 42.1875 49.0101 41.9817 48.644 41.6154C48.2779 41.2492 48.0722 40.7524 48.0722 40.2344C48.0722 39.7164 48.2779 39.2196 48.644 38.8533C49.0101 38.487 49.5067 38.2812 50.0244 38.2812H96.0957V7.03125H78.9165C78.3988 7.03125 77.9023 6.82547 77.5362 6.45919C77.17 6.09291 76.9644 5.59613 76.9644 5.07812C76.9644 4.56012 77.17 4.06334 77.5362 3.69706C77.9023 3.33078 78.3988 3.125 78.9165 3.125H98.0478C98.5656 3.125 99.0621 3.33078 99.4282 3.69706C99.7943 4.06334 100 4.56012 100 5.07812V40.2344C100 40.7524 99.7943 41.2492 99.4282 41.6154C99.0621 41.9817 98.5656 42.1875 98.0478 42.1875Z" fill="#7CB8EB"/>
</g>
</g>
<defs>
<clipPath id="clip0_228_327">
<rect width="100" height="100" fill="white"/>
</clipPath>
</defs>
</svg>
