<svg width="32" height="31" viewBox="0 0 32 31" fill="none" xmlns="http://www.w3.org/2000/svg">
<path d="M20.9108 14.9697L20.3805 15.5L20.9108 16.0303L29.3961 24.5156C30.6653 25.7848 30.6653 27.8426 29.3961 29.1118C28.1269 30.381 26.0691 30.381 24.7999 29.1118L16.3146 20.6265L15.7843 20.0962L15.2539 20.6265L6.76866 29.1118C5.49946 30.381 3.44167 30.381 2.17247 29.1118C0.903261 27.8426 0.903262 25.7848 2.17247 24.5156L10.6577 16.0303L11.1881 15.5L10.6577 14.9697L2.17247 6.48439C0.903262 5.21518 0.903261 3.1574 2.17247 1.88819C3.44167 0.618991 5.49946 0.618991 6.76866 1.88819L15.2539 10.3735L15.7843 10.9038L16.3146 10.3735L24.7999 1.88819C26.0691 0.618991 28.1269 0.618991 29.3961 1.88819C30.6653 3.1574 30.6653 5.21518 29.3961 6.48439L20.9108 14.9697Z" fill="#DBE5EF" stroke="white" stroke-width="1.5"/>
</svg>
