<svg width="74" height="60" viewBox="0 0 74 60" fill="none" xmlns="http://www.w3.org/2000/svg">
<g clip-path="url(#clip0_208_912)">
<path d="M46.2266 46.3182L50.0323 57.5579L51.9815 50.4171L50.1881 47.2853C48.9072 46.9901 47.5824 46.6689 46.2266 46.3182Z" fill="#00DAC9"/>
<path d="M10.5288 39.75L19.3022 41.4919L22.6477 37.3835C21.1985 36.5697 19.7921 35.6829 18.434 34.7265L10.5288 39.75Z" fill="#00DAC9"/>
<path d="M28.373 2.94396L27.9484 1.92722L26.5879 2.67354L26.8103 3.02781C27.3312 2.99238 27.8521 2.96443 28.373 2.94396Z" fill="#00DAC9"/>
<path d="M62.7582 49.0909L61.6343 48.889C60.491 48.6748 59.3509 48.4497 58.2139 48.2135C57.976 48.1639 57.7322 48.1119 57.492 48.0612C56.3955 47.825 55.3009 47.5849 54.2084 47.3408L53.245 47.1188L52.8597 47.0303C52.4768 46.9389 52.0946 46.846 51.7132 46.7516L50.7559 46.5154C49.4873 46.1965 48.2239 45.8631 46.9656 45.5152L46.1331 45.2849C45.5194 45.1109 44.9073 44.9334 44.2968 44.7523C44.0257 44.672 43.7557 44.5929 43.4857 44.5102C42.5438 44.2252 41.6055 43.93 40.6707 43.6246C40.4257 43.5454 40.1819 43.4628 39.9381 43.3813C39.33 43.1742 38.7234 42.9633 38.1185 42.7483L37.3978 42.4909C36.3837 42.1272 35.3752 41.7489 34.3722 41.3561L33.7014 41.0951C33.0505 40.8345 32.4019 40.5676 31.7558 40.2944C31.6832 40.2626 31.6095 40.233 31.5357 40.2023L31.1017 40.011C29.8838 39.4796 28.6743 38.9246 27.4803 38.3365C27.265 38.2314 27.0497 38.1228 26.8357 38.0153C26.1839 37.6855 25.5382 37.3457 24.8983 36.9962C24.6874 36.8805 24.4773 36.7624 24.268 36.6419C22.9158 35.8779 21.5957 35.0572 20.3219 34.1703C20.1126 34.0239 19.9045 33.8759 19.6976 33.7263C19.3408 33.4665 18.984 33.2032 18.6272 32.9316C18.3521 32.7198 18.0821 32.5061 17.8173 32.2903C17.6199 32.1282 17.4248 31.9652 17.2322 31.8015C15.9431 30.7115 14.7663 29.4971 13.719 28.1761C13.5596 27.9706 13.4038 27.764 13.254 27.555C12.769 26.8842 12.3319 26.1807 11.9458 25.4494C11.8268 25.231 11.7198 25.009 11.6151 24.7858C11.0403 23.5783 10.6342 22.2986 10.408 20.9821C10.3684 20.7459 10.3347 20.5074 10.3069 20.2665C10.2522 19.7941 10.2209 19.3143 10.213 18.827C10.213 18.5908 10.213 18.3546 10.213 18.1184C10.2547 16.9435 10.4213 15.7762 10.7101 14.636C10.7565 14.4494 10.8052 14.2628 10.8576 14.0739C10.8706 14.0326 10.8849 13.9936 10.8968 13.9558C11.0134 13.5842 11.143 13.2236 11.2857 12.8741C11.3777 12.6521 11.4748 12.4348 11.5771 12.2222C11.9951 11.3572 12.5153 10.5445 13.1267 9.80141C13.2825 9.61247 13.4395 9.42707 13.6024 9.24757C13.8795 8.94763 14.1733 8.65713 14.4778 8.38907C14.6657 8.22059 14.8591 8.05645 15.0581 7.89663C15.5581 7.49734 16.0833 7.13012 16.6304 6.79722C16.8492 6.66378 17.074 6.53388 17.3011 6.40989C17.765 6.15482 18.2446 5.91864 18.7402 5.70135C18.9852 5.59271 19.2325 5.48761 19.4847 5.38842C19.8962 5.22545 20.3156 5.07312 20.7429 4.93141C20.9943 4.85268 21.2476 4.77396 21.5029 4.69523C22.0159 4.54408 22.5372 4.40591 23.0668 4.28074C23.3296 4.21933 23.596 4.16265 23.8636 4.10597C24.2502 4.02566 24.6414 3.95127 25.0351 3.88396C25.2944 3.83987 25.554 3.79854 25.8141 3.75996C26.3088 3.68596 26.8071 3.62141 27.309 3.5663C27.5714 3.53796 27.8343 3.51158 28.0975 3.48718C28.5851 3.4423 29.0735 3.4053 29.5627 3.37617C29.8148 3.36122 30.067 3.34783 30.3191 3.33602C31.4965 3.28406 32.6739 3.27344 33.8346 3.29469C34.4206 3.30493 35.0013 3.32343 35.577 3.35019C38.228 3.47568 39.8573 3.7477 42.4779 4.16501C39.8538 3.63785 37.1994 3.27226 34.5298 3.07032L34.4537 2.49523L33.419 2.99593C32.0097 2.91681 30.5648 2.88728 29.1317 2.92035L28.2992 0.924639L25.5864 2.41256L26.011 3.09866C25.4948 3.14669 24.9814 3.20455 24.4708 3.27225L22.2266 0L20.2833 2.29093L21.613 3.77886C21.0707 3.9001 20.5367 4.03708 20.011 4.18981L16.3563 0.401504L15.3038 3.73871L17.1448 5.22427C16.6398 5.44785 16.1498 5.69033 15.6748 5.9517L10.7286 2.29093L10.6881 6.87398L12.7682 8.00646C12.4598 8.28672 12.1649 8.57998 11.8834 8.88622L5.28402 5.5502L7.92543 12.1526L9.49886 12.6356C9.3506 12.9835 9.217 13.3457 9.09807 13.722L1.73042 11.6082L7.20115 18.6628L8.32979 18.7549C8.32979 19.2493 8.35476 19.7367 8.40471 20.2169L0 19.7481L7.65189 25.9903L9.99004 25.6053C10.369 26.3575 10.7993 27.0831 11.278 27.777L2.09553 29.8766L12.2973 34.7608L15.9115 32.7792C16.518 33.2917 17.1523 33.7909 17.8144 34.2766L8.65684 40.0972L19.5852 42.276L23.2792 37.7402C23.9333 38.0976 24.5989 38.4471 25.276 38.7888L17.5813 49.6932L28.2397 48.5123L30.4803 41.1577C31.1439 41.4332 31.8119 41.7009 32.4843 41.9607L29.0591 56.3817L37.3485 51.8589L37.1296 43.6352C37.7497 43.8438 38.3689 44.0461 38.9873 44.2422L40.0791 59.7284L45.5498 52.6678L43.528 45.5943C44.1568 45.7691 44.7815 45.9383 45.4023 46.1021L50.1036 60L52.745 50.3167L51.1311 47.4943C51.6513 47.6116 52.1623 47.7234 52.6641 47.8297L57.5735 56.0145L57.2274 48.7319C57.8744 48.85 58.494 48.9575 59.0816 49.0567C59.7357 49.1629 60.3906 49.2673 61.0463 49.3696L62.188 50.6887L61.8585 49.4936C65.8819 50.0994 69.9326 50.5635 74 50.6485C69.8893 50.3545 66.8109 49.8345 62.7582 49.0909ZM27.9483 1.92722L28.3741 2.94397C27.8524 2.96444 27.3311 2.99396 26.8102 3.03253L26.5878 2.67827L27.9483 1.92722ZM21.2276 2.28149L22.1684 1.17263L23.6895 3.39034C23.2613 3.45647 22.8371 3.53126 22.4169 3.61471L21.2276 2.28149ZM16.1292 3.4919L16.6762 1.75835L19.2475 4.42481C18.7844 4.57517 18.3317 4.73774 17.8893 4.91252L16.1292 3.4919ZM11.4053 6.45712L11.4303 3.69383L15.0053 6.33903C14.4246 6.6931 13.8684 7.08524 13.3403 7.51284L11.4053 6.45712ZM8.4618 11.5728L6.64456 7.03222L11.4077 9.44715C10.771 10.2266 10.2293 11.078 9.7938 11.9837L8.4618 11.5728ZM8.34287 18.0452L7.57459 17.9826L3.62258 12.8883L8.90184 14.4069C8.5836 15.5962 8.39462 16.8159 8.33811 18.0452H8.34287ZM7.86002 25.238L2.14072 20.5771L8.48915 20.9313C8.7008 22.3147 9.10089 23.663 9.67844 24.9393L7.86002 25.238ZM12.2806 33.966L4.23387 30.1128L11.7264 28.3981C12.7932 29.8143 14.0048 31.1171 15.3418 32.2856L12.2806 33.966ZM19.3069 41.4919L10.5288 39.75L18.434 34.7265C19.7925 35.6829 21.1992 36.5697 22.6488 37.3835L19.3069 41.4919ZM27.6974 47.8592L19.0762 48.811L25.9265 39.1041C27.1967 39.7264 28.5001 40.3192 29.825 40.8813L27.6974 47.8592ZM30.1271 54.993L33.161 42.2181C34.2397 42.6279 35.3267 43.0188 36.4137 43.3907L36.6301 51.4456L30.1271 54.993ZM44.7673 52.5238L40.6618 57.8165L39.7223 44.4724C40.7284 44.7873 41.7286 45.0853 42.7229 45.3664L44.7673 52.5238ZM51.9827 50.4171L50.0334 57.5579L46.2277 46.3182C47.5835 46.6724 48.9084 46.9901 50.188 47.2853L51.9827 50.4171ZM53.618 48.034C54.6277 48.243 55.5946 48.432 56.5103 48.6032L56.7291 53.2217L53.618 48.034Z" fill="#05142C"/>
<path d="M39.7222 44.4724L40.6641 57.8165L44.7648 52.5238L42.7227 45.3664C41.7285 45.083 40.7283 44.785 39.7222 44.4724Z" fill="#00DAC9"/>
<path d="M53.6133 48.034L56.7292 53.2217L56.5104 48.6032C55.5899 48.432 54.623 48.243 53.6133 48.034Z" fill="#00DAC9"/>
<path d="M11.4076 9.44715L6.64453 7.03223L8.46177 11.5728L9.79377 11.9778C10.2296 11.0742 10.7713 10.2248 11.4076 9.44715Z" fill="#00DAC9"/>
<path d="M2.14062 20.5771L7.85516 25.238L9.67359 24.9393C9.09604 23.663 8.69595 22.3147 8.4843 20.9313L2.14062 20.5771Z" fill="#00DAC9"/>
<path d="M15.0053 6.33903L11.4302 3.69383L11.4053 6.45712L13.3462 7.51284C13.8724 7.08545 14.4266 6.69331 15.0053 6.33903Z" fill="#00DAC9"/>
<path d="M3.62256 12.8883L7.56981 17.9826L8.33809 18.0452C8.3946 16.8159 8.58359 15.5962 8.90182 14.4069L3.62256 12.8883Z" fill="#00DAC9"/>
<path d="M19.2477 4.4248L16.6765 1.75835L16.1294 3.4919L17.8895 4.90897C18.332 4.73498 18.7847 4.5736 19.2477 4.4248Z" fill="#00DAC9"/>
<path d="M33.1564 42.2181L30.1226 54.993L36.6244 51.4503L36.4091 43.3955C35.3221 43.0188 34.2351 42.6302 33.1564 42.2181Z" fill="#00DAC9"/>
<path d="M11.724 28.4017L4.23389 30.1128L12.2759 33.9625L15.3419 32.2856C14.0042 31.1183 12.7918 29.8168 11.724 28.4017Z" fill="#00DAC9"/>
<path d="M23.6884 3.38798L22.1673 1.17026L21.2266 2.27912L22.4159 3.61234C22.8369 3.52968 23.261 3.45489 23.6884 3.38798Z" fill="#00DAC9"/>
<path d="M19.0713 48.811L27.6925 47.8592L29.8189 40.8813C28.494 40.3192 27.1906 39.7264 25.9204 39.1041L19.0713 48.811Z" fill="#00DAC9"/>
<path d="M61.6663 40.8601L59.2996 36.3254L47.5625 29.416L61.6663 40.8601Z" fill="#001EBA"/>
<path d="M45.907 11.2185L38.6606 20.6656L50.6439 13.2685L45.907 11.2185ZM46.1353 12.09L49.1086 13.3795L41.5744 18.0299L46.1353 12.09Z" fill="#05142C"/>
<path d="M50.1634 15.2335L39.4336 21.3045L54.6969 18.2885L50.1634 15.2335ZM50.1301 16.0672L52.8857 17.9248L43.6092 19.7563L50.1301 16.0672Z" fill="#05142C"/>
<path d="M53.7253 19.9394L39.5156 22.1099L58.6251 23.7985L53.7253 19.9394ZM53.5267 20.6869L56.3143 22.8834L45.4383 21.9221L53.5267 20.6869Z" fill="#05142C"/>
<path d="M61.9442 30.271L56.6412 24.7633L40.2837 22.7558L61.9442 30.271ZM59.3754 28.6296L46.8165 24.2697L56.301 25.4353L59.3754 28.6296Z" fill="#05142C"/>
<path d="M59.0296 30.3915L40.2388 23.5576L63.9639 37.0198L59.0296 30.3915ZM58.5836 30.9819L61.3796 34.736L47.9489 27.1157L58.5836 30.9819Z" fill="#05142C"/>
<path d="M63.8878 43.575L59.8442 35.8165L39.7583 23.9993L63.8878 43.575ZM61.6662 40.8589L47.5624 29.416L59.2995 36.3243L61.6662 40.8589Z" fill="#05142C"/>
<path d="M61.1939 47.0928L59.6371 41.4493L39.3121 24.2815L58.053 45.919C57.4274 45.6828 56.7448 45.4171 56.0312 45.1337L38.5332 24.2709L49.3973 42.387C48.8717 42.1563 48.3397 41.9201 47.8013 41.6784L38.2596 24.9948L43.1595 39.4761C42.6212 39.2076 42.0836 38.9321 41.5468 38.6494L37.6222 24.8991L38.4761 36.982C37.9544 36.6868 37.439 36.3865 36.93 36.081L36.622 24.5378L34.2755 34.4159C33.7855 34.09 33.3058 33.7602 32.8365 33.4264L35.7098 23.9993L30.3806 31.5499C29.962 31.2035 29.5584 30.854 29.1699 30.5013L34.9808 23.3663L27.0851 28.3851C26.7386 27.9868 26.4167 27.5857 26.1194 27.1818L34.8892 22.372L24.6613 24.7125C24.4543 24.2479 24.2845 23.7677 24.1535 23.2766L34.065 21.6481L23.8823 21.0801C23.8895 20.7275 23.9221 20.3759 23.9798 20.0279L33.883 20.8345L24.5531 18.1574C24.6649 17.8716 24.7838 17.5937 24.9098 17.3237L34.0674 20.1106L25.7067 15.8806C25.8387 15.6728 25.9755 15.4709 26.1182 15.2725L34.2517 19.6985L26.9174 14.2664C27.1172 14.0396 27.3241 13.8208 27.5382 13.6098L34.5752 19.2911L28.3707 12.8564C28.6276 12.6403 28.894 12.4348 29.1687 12.2376L35.466 19.2911L30.1713 11.5787C30.4341 11.4204 30.7041 11.2681 30.9776 11.1228L35.9167 19.095L32.306 10.4875C32.758 10.2938 33.2222 10.1151 33.6987 9.95138L36.6814 19.2958L35.3756 9.44714C35.7419 9.35031 36.1134 9.26135 36.49 9.18026L37.4902 19.7823L39.8509 8.64177C40.2564 8.59808 40.6644 8.56147 41.0759 8.52368L38.3405 20.0575L45.8675 8.41622C53.2899 8.60398 60.9537 10.2879 66.0938 11.7357C60.9703 10.0222 53.5444 8.18713 46.2636 7.80334C45.9884 7.78917 45.7137 7.77696 45.4394 7.76673C44.281 7.72304 42.1148 7.71949 40.9778 7.75964C40.7293 7.76791 40.4831 7.77854 40.2369 7.79153C39.8206 7.81357 39.408 7.84191 38.9988 7.87655C38.7491 7.89781 38.5009 7.92143 38.2543 7.94741C37.5265 8.02613 36.8101 8.12572 36.1053 8.24617C35.8674 8.2879 35.6324 8.33159 35.4 8.37725C35.0135 8.45519 34.6318 8.53903 34.2536 8.63114C34.0205 8.68861 33.7886 8.74884 33.5578 8.81182C33.408 8.85315 33.2593 8.89566 33.1107 8.93936C32.8811 9.00785 32.6552 9.0787 32.4304 9.1531C31.9285 9.31842 31.4389 9.49989 30.9616 9.69749C30.7404 9.7896 30.5228 9.88407 30.3087 9.98327C30.2528 10.0081 30.1993 10.0352 30.1446 10.06C29.9281 10.1632 29.7144 10.2694 29.5035 10.3789C29.2157 10.5284 28.9339 10.6859 28.658 10.8512C28.2798 11.0768 27.9111 11.3165 27.5555 11.5716C27.2724 11.7763 26.9969 11.9892 26.7289 12.2104C26.4118 12.4734 26.1069 12.7489 25.8144 13.0371C25.592 13.2579 25.3767 13.4858 25.1698 13.7232C24.8594 14.0756 24.568 14.4442 24.2968 14.8273C24.1506 15.0328 24.0102 15.2441 23.8734 15.4602C23.7367 15.6764 23.6273 15.8629 23.5167 16.072C23.4548 16.1818 23.3977 16.2916 23.3371 16.4038C23.2265 16.614 23.1194 16.8289 23.0183 17.0474C22.8899 17.3237 22.7698 17.6059 22.6556 17.8964C22.57 18.1137 22.4891 18.3369 22.4118 18.5636C22.3345 18.7904 22.2631 19.0159 22.1942 19.2497C22.1692 19.3371 22.143 19.4245 22.1181 19.5131C22.0883 19.6583 22.0633 19.8036 22.0408 19.9476C21.9854 20.3038 21.9529 20.6632 21.9432 21.0234C21.9361 21.2596 21.9432 21.4958 21.9539 21.732C21.9746 22.0669 22.0143 22.4005 22.0729 22.731C22.1125 22.9625 22.1613 23.1935 22.2191 23.4242C22.3489 23.935 22.5179 24.4352 22.7246 24.9204C22.8174 25.1412 22.9196 25.3597 23.0279 25.5781C23.281 26.0841 23.565 26.5743 23.8782 27.046C24.0082 27.242 24.1434 27.4388 24.2838 27.6364C24.5906 28.0592 24.9228 28.4776 25.2804 28.8917C25.4362 29.0724 25.5955 29.246 25.7561 29.429C26.1628 29.8695 26.5969 30.3053 27.0536 30.7351C27.2249 30.8957 27.4009 31.0563 27.5793 31.2169C27.9828 31.583 28.4027 31.9428 28.8387 32.2962C29.0231 32.445 29.2086 32.5938 29.3977 32.7403C29.8932 33.1276 30.4058 33.5094 30.9355 33.8857C31.1388 34.031 31.3434 34.1739 31.5503 34.3168C32.0395 34.6529 32.5386 34.9843 33.0476 35.3111C33.2593 35.4469 33.471 35.5815 33.6851 35.7149C34.187 36.0298 34.6968 36.338 35.2145 36.6396C35.4524 36.7801 35.6962 36.9206 35.9388 37.0588C36.4629 37.3587 36.9925 37.6532 37.5277 37.9421C37.7751 38.0755 38.0224 38.209 38.271 38.3401C38.826 38.6329 39.3846 38.9207 39.9467 39.2033L48.1426 43.0069C37.7958 39.2281 24.4003 34.0652 19.2447 24.6748C17.6761 21.7332 17.1551 18.1208 18.4955 15.0009C19.3541 12.9261 20.8931 11.1842 22.6961 9.84274C33.0857 2.16693 52.8463 6.90468 64.0375 11.065C52.6905 6.2233 31.9339 1.19742 21.0817 9.03855C19.1217 10.4556 17.4603 12.3569 16.5183 14.6029C15.046 17.9992 15.5598 21.9575 17.2926 25.1577C21.1756 32.3612 29.3151 36.982 36.6411 40.1161C45.3051 43.7285 56.3606 46.4929 65.5086 48.5961L64.7951 48.3599C63.5907 47.9513 62.3903 47.529 61.1939 47.0928ZM41.8216 8.47763C42.8776 8.41622 43.9492 8.39378 45.0326 8.40441L39.9936 16.1983L41.8216 8.47763ZM39.1028 8.72916L37.7613 15.0587L37.1928 9.03619C37.8184 8.91653 38.4551 8.81379 39.1028 8.72798V8.72916ZM34.6811 9.63845L34.9189 11.4299L34.3766 9.73056C34.4777 9.69867 34.5788 9.66679 34.6811 9.63726V9.63845ZM31.6567 10.7816L31.7649 11.0413L31.6163 10.8052L31.6567 10.7816ZM25.3451 16.4923L26.4428 17.0474L25.2405 16.6813C25.275 16.6175 25.3094 16.5549 25.3451 16.4923ZM24.314 18.8246L26.8413 19.5497L24.1511 19.3312C24.2034 19.16 24.2617 18.9911 24.314 18.8246ZM24.0048 22.5846C23.9584 22.3219 23.9255 22.057 23.9061 21.791L27.5822 21.9965L24.0048 22.5846ZM24.9812 25.3668L30.0809 24.1989L25.7114 26.5973C25.4457 26.2006 25.2019 25.7898 24.9812 25.3668ZM27.5655 28.9212L31.6579 26.3233L28.6478 30.0195C28.2688 29.655 27.908 29.2889 27.5655 28.9212ZM32.2299 32.9847C31.7891 32.6604 31.3594 32.3317 30.9407 31.9987L33.7391 28.032L32.2299 32.9847ZM34.9094 34.8363L36.0523 30.0254L36.2022 35.65C35.7661 35.3784 35.3352 35.1072 34.9094 34.8363ZM39.2206 37.4107L38.8162 31.6928L40.6739 38.196C40.1863 37.9362 39.7018 37.6728 39.2206 37.406V37.4107ZM44.0634 39.9284L41.2911 31.7306L46.6905 41.1707C45.8215 40.7692 44.9458 40.3535 44.0634 39.9236V39.9284ZM45.8176 30.7032L59.0068 41.8426L60.3709 46.7893L59.6883 46.539L59.4563 46.4516L45.8176 30.7032ZM43.7791 31.6314L54.635 44.5775C53.3541 44.0638 51.9698 43.4935 50.5188 42.8711L43.7791 31.6314Z" fill="#05142C"/>
<path d="M58.5836 30.9843L47.9502 27.1157L61.3797 34.7383L58.5836 30.9843Z" fill="#001EBA"/>
<path d="M30.936 32.0022C31.3531 32.3352 31.7828 32.6639 32.2252 32.9882L33.7344 28.0356L30.936 32.0022Z" fill="#001EBA"/>
<path d="M24.9814 25.3668C25.2022 25.7898 25.446 26.2006 25.7117 26.5973L30.0811 24.1989L24.9814 25.3668Z" fill="#001EBA"/>
<path d="M34.9097 34.8364C35.3354 35.1103 35.7664 35.3815 36.2024 35.65L36.0526 30.0254L34.9097 34.8364Z" fill="#001EBA"/>
<path d="M27.5654 28.9213C27.9079 29.2889 28.2687 29.6538 28.6477 30.0159L31.6578 26.3197L27.5654 28.9213Z" fill="#001EBA"/>
<path d="M50.13 16.0708L43.6104 19.7587L52.8856 17.9271L50.13 16.0708Z" fill="#001EBA"/>
<path d="M39.2208 37.406C39.7028 37.6728 40.1873 37.9362 40.6741 38.196L38.8164 31.6881L39.2208 37.406Z" fill="#001EBA"/>
<path d="M59.3753 28.6296L56.301 25.4353L46.8164 24.2709L59.3753 28.6296Z" fill="#001EBA"/>
<path d="M53.5268 20.6869L45.4385 21.9221L56.3145 22.8834L53.5268 20.6869Z" fill="#001EBA"/>
<path d="M44.0633 39.9236C44.9433 40.3535 45.819 40.7692 46.6904 41.1707L41.291 31.7306L44.0633 39.9236Z" fill="#001EBA"/>
<path d="M46.1402 12.0876L41.584 18.0275L49.1181 13.3772L46.1402 12.0876Z" fill="#001EBA"/>
<path d="M45.0289 8.40323C43.949 8.39261 42.8775 8.41504 41.8178 8.47645L39.9863 16.1983L45.0289 8.40323Z" fill="#001EBA"/>
<path d="M54.6351 44.5799L43.7793 31.6338L50.519 42.8735C51.9723 43.4958 53.3543 44.0662 54.6351 44.5799Z" fill="#001EBA"/>
<path d="M59.6881 46.5414L60.3707 46.7917L59.0066 41.8449L45.8174 30.7032L59.4562 46.454L59.6881 46.5414Z" fill="#001EBA"/>
<path d="M23.9048 21.791C23.9242 22.057 23.9571 22.3219 24.0035 22.5846L27.5809 21.9941L23.9048 21.791Z" fill="#001EBA"/>
<path d="M39.1029 8.72798C38.4559 8.81222 37.8192 8.91377 37.1929 9.03265L37.7614 15.0552L39.1029 8.72798Z" fill="#001EBA"/>
<path d="M24.3143 18.8246C24.2584 18.9911 24.2037 19.16 24.1514 19.3312L26.8415 19.5497L24.3143 18.8246Z" fill="#001EBA"/>
<path d="M25.3454 16.4924C25.3097 16.5549 25.2752 16.6175 25.2407 16.6813L26.4431 17.0474L25.3454 16.4924Z" fill="#001EBA"/>
<path d="M34.6809 9.63727C34.5786 9.66679 34.4776 9.69867 34.3765 9.72938L34.9188 11.4287L34.6809 9.63727Z" fill="#001EBA"/>
<path d="M31.6566 10.7816L31.6162 10.8016L31.7649 11.0378L31.6566 10.7816Z" fill="#001EBA"/>
</g>
<defs>
<clipPath id="clip0_208_912">
<rect width="74" height="60" fill="white"/>
</clipPath>
</defs>
</svg>
