<svg width="24" height="40" viewBox="0 0 24 40" fill="none" xmlns="http://www.w3.org/2000/svg">
<path d="M1.87558 0.879975C3.04888 -0.293325 4.95118 -0.293325 6.12448 0.879975L23.1201 17.8756C24.2934 19.0489 24.2934 20.9511 23.1201 22.1244C21.9468 23.2977 20.0445 23.2977 18.8712 22.1244L1.87558 5.12887C0.702281 3.95557 0.702281 2.05327 1.87558 0.879975Z" fill="#7CB8EB"/>
<path d="M18.8712 17.8756C20.0445 16.7023 21.9468 16.7023 23.1201 17.8756C24.2934 19.0489 24.2934 20.9511 23.1201 22.1244L6.12448 39.12C4.95118 40.2933 3.04888 40.2933 1.87558 39.12C0.702281 37.9467 0.702281 36.0444 1.87558 34.8711L18.8712 17.8756Z" fill="#7CB8EB"/>
</svg>
