<svg width="100" height="100" viewBox="0 0 100 100" fill="none" xmlns="http://www.w3.org/2000/svg">
<g clip-path="url(#clip0_129_1513)">
<circle cx="55.9512" cy="80" r="20" fill="#EAEFFF"/>
<path d="M81.9766 62.3652C81.4586 62.3652 80.9618 62.1595 80.5955 61.7932C80.2292 61.4269 80.0234 60.9301 80.0234 60.4121V58.0078C80.0234 57.4898 80.2292 56.993 80.5955 56.6267C80.9618 56.2605 81.4586 56.0547 81.9766 56.0547C82.4946 56.0547 82.9913 56.2605 83.3576 56.6267C83.7239 56.993 83.9297 57.4898 83.9297 58.0078V60.4102C83.9299 60.6668 83.8796 60.921 83.7816 61.1582C83.6835 61.3954 83.5397 61.6109 83.3583 61.7925C83.1769 61.9741 82.9615 62.1181 82.7244 62.2164C82.4874 62.3147 82.2332 62.3652 81.9766 62.3652ZM90.1797 54.1621H87.7773C87.2593 54.1621 86.7626 53.9563 86.3963 53.5901C86.03 53.2238 85.8242 52.727 85.8242 52.209C85.8242 51.691 86.03 51.1942 86.3963 50.8279C86.7626 50.4616 87.2593 50.2559 87.7773 50.2559H90.1797C90.6977 50.2559 91.1945 50.4616 91.5608 50.8279C91.927 51.1942 92.1328 51.691 92.1328 52.209C92.1328 52.727 91.927 53.2238 91.5608 53.5901C91.1945 53.9563 90.6977 54.1621 90.1797 54.1621ZM76.1738 54.1621H73.7715C73.2535 54.1621 72.7567 53.9563 72.3904 53.5901C72.0241 53.2238 71.8184 52.727 71.8184 52.209C71.8184 51.691 72.0241 51.1942 72.3904 50.8279C72.7567 50.4616 73.2535 50.2559 73.7715 50.2559H76.1719C76.6899 50.2559 77.1867 50.4616 77.5529 50.8279C77.9192 51.1942 78.125 51.691 78.125 52.209C78.125 52.727 77.9192 53.2238 77.5529 53.5901C77.1867 53.9563 76.6899 54.1621 76.1719 54.1621H76.1738ZM81.9746 48.3613C81.4566 48.3613 80.9598 48.1556 80.5935 47.7893C80.2273 47.423 80.0215 46.9262 80.0215 46.4082V44.002C80.0215 43.484 80.2273 42.9872 80.5935 42.6209C80.9598 42.2546 81.4566 42.0488 81.9746 42.0488C82.4926 42.0488 82.9894 42.2546 83.3557 42.6209C83.722 42.9872 83.9277 43.484 83.9277 44.002V46.4062C83.9277 46.9239 83.7222 47.4204 83.3564 47.7866C82.9905 48.1529 82.4942 48.3589 81.9766 48.3594L81.9746 48.3613ZM10.1562 20.3125C9.63825 20.3125 9.14146 20.1067 8.77518 19.7404C8.4089 19.3742 8.20312 18.8774 8.20312 18.3594V15.959C8.20312 15.441 8.4089 14.9442 8.77518 14.5779C9.14146 14.2116 9.63825 14.0059 10.1562 14.0059C10.6743 14.0059 11.171 14.2116 11.5373 14.5779C11.9036 14.9442 12.1094 15.441 12.1094 15.959V18.3594C12.1094 18.8774 11.9036 19.3742 11.5373 19.7404C11.171 20.1067 10.6743 20.3125 10.1562 20.3125ZM18.3594 12.1094H15.959C15.441 12.1094 14.9442 11.9036 14.5779 11.5373C14.2116 11.171 14.0059 10.6743 14.0059 10.1562C14.0059 9.63825 14.2116 9.14146 14.5779 8.77518C14.9442 8.4089 15.441 8.20312 15.959 8.20312H18.3594C18.8774 8.20312 19.3742 8.4089 19.7404 8.77518C20.1067 9.14146 20.3125 9.63825 20.3125 10.1562C20.3125 10.6743 20.1067 11.171 19.7404 11.5373C19.3742 11.9036 18.8774 12.1094 18.3594 12.1094ZM4.35742 12.1094H1.95312C1.43512 12.1094 0.938339 11.9036 0.572057 11.5373C0.205775 11.171 0 10.6743 0 10.1562C0 9.63825 0.205775 9.14146 0.572057 8.77518C0.938339 8.4089 1.43512 8.20312 1.95312 8.20312H4.35742C4.87542 8.20312 5.37221 8.4089 5.73849 8.77518C6.10477 9.14146 6.31055 9.63825 6.31055 10.1562C6.31055 10.6743 6.10477 11.171 5.73849 11.5373C5.37221 11.9036 4.87542 12.1094 4.35742 12.1094ZM10.1562 6.30859C9.63825 6.30859 9.14146 6.10282 8.77518 5.73654C8.4089 5.37025 8.20312 4.87347 8.20312 4.35547V1.95312C8.20312 1.43512 8.4089 0.938339 8.77518 0.572057C9.14146 0.205775 9.63825 0 10.1562 0C10.6743 0 11.171 0.205775 11.5373 0.572057C11.9036 0.938339 12.1094 1.43512 12.1094 1.95312V4.35547C12.1094 4.87347 11.9036 5.37025 11.5373 5.73654C11.171 6.10282 10.6743 6.30859 10.1562 6.30859Z" fill="#FCB428"/>
<path d="M83.2441 94.1856C82.0466 94.1856 80.876 93.8304 79.8803 93.1652C78.8847 92.4999 78.1086 91.5542 77.6503 90.4479C77.1921 89.3415 77.0722 88.1241 77.3058 86.9497C77.5394 85.7752 78.1161 84.6963 78.9628 83.8496C79.8096 83.0028 80.8884 82.4261 82.0629 82.1925C83.2374 81.9589 84.4548 82.0788 85.5612 82.5371C86.6675 82.9953 87.6131 83.7714 88.2784 84.7671C88.9437 85.7627 89.2988 86.9334 89.2988 88.1309C89.2988 89.7367 88.6609 91.2767 87.5255 92.4122C86.39 93.5476 84.8499 94.1856 83.2441 94.1856ZM83.2441 85.9824C82.8192 85.9824 82.4038 86.1084 82.0505 86.3445C81.6972 86.5806 81.4219 86.9161 81.2592 87.3087C81.0966 87.7013 81.0541 88.1332 81.137 88.55C81.2199 88.9668 81.4245 89.3496 81.725 89.65C82.0254 89.9505 82.4082 90.1551 82.825 90.238C83.2418 90.3209 83.6737 90.2784 84.0663 90.1158C84.4589 89.9531 84.7944 89.6778 85.0305 89.3245C85.2666 88.9712 85.3926 88.5558 85.3926 88.1309C85.3926 87.5611 85.1662 87.0146 84.7633 86.6117C84.3604 86.2088 83.8139 85.9824 83.2441 85.9824Z" fill="#FCB428"/>
<path d="M42.1621 16.5508C40.9646 16.5508 39.794 16.1957 38.7983 15.5304C37.8026 14.8651 37.0266 13.9195 36.5683 12.8131C36.11 11.7068 35.9901 10.4894 36.2238 9.31489C36.4574 8.14039 37.034 7.06155 37.8808 6.21479C38.7276 5.36802 39.8064 4.79137 40.9809 4.55775C42.1554 4.32413 43.3728 4.44403 44.4791 4.90229C45.5855 5.36056 46.5311 6.1366 47.1964 7.13229C47.8617 8.12798 48.2168 9.29859 48.2168 10.4961C48.2168 12.1019 47.5789 13.6419 46.4434 14.7774C45.308 15.9129 43.7679 16.5508 42.1621 16.5508ZM42.1621 8.34766C41.7372 8.34766 41.3218 8.47366 40.9685 8.70974C40.6152 8.94581 40.3398 9.28135 40.1772 9.67393C40.0146 10.0665 39.9721 10.4985 40.055 10.9152C40.1379 11.332 40.3425 11.7148 40.6429 12.0153C40.9434 12.3157 41.3262 12.5204 41.743 12.6033C42.1597 12.6862 42.5917 12.6436 42.9843 12.481C43.3769 12.3184 43.7124 12.043 43.9485 11.6897C44.1845 11.3364 44.3105 10.921 44.3105 10.4961C44.3108 10.2138 44.2554 9.93421 44.1476 9.67333C44.0397 9.41244 43.8815 9.17537 43.682 8.97566C43.4825 8.77595 43.2455 8.61752 42.9847 8.50943C42.7239 8.40134 42.4444 8.34571 42.1621 8.34571V8.34766Z" fill="#FCB428"/>
<path d="M41.4063 100C41.1222 100 40.8416 99.938 40.584 99.8184C22.7758 91.5325 8.46672 77.2227 0.18167 59.4141C-0.0231764 58.9718 -0.0552017 58.4688 0.0918868 58.0041C0.238975 57.5393 0.554544 57.1464 0.976592 56.9024L35.6758 36.7188C36.8917 36.0134 38.3065 35.7291 39.7005 35.9103C41.0945 36.0915 42.3897 36.7279 43.3848 37.7208L47.793 42.1309L89.3555 0.572337C89.5369 0.390743 89.7523 0.246682 89.9894 0.148392C90.2265 0.0501028 90.4807 -0.000488281 90.7373 -0.000488281C90.994 -0.000488281 91.2482 0.0501028 91.4853 0.148392C91.7224 0.246682 91.9378 0.390743 92.1192 0.572337L99.4278 7.88288C99.7939 8.24915 99.9996 8.74584 99.9996 9.26374C99.9996 9.78164 99.7939 10.2783 99.4278 10.6446L75.2442 34.8262C75.064 35.0128 74.8485 35.1616 74.6102 35.2639C74.3719 35.3663 74.1156 35.4202 73.8563 35.4224C73.597 35.4247 73.3398 35.3753 73.0997 35.2771C72.8597 35.1789 72.6416 35.0338 72.4583 34.8505C72.2749 34.6671 72.1298 34.449 72.0316 34.209C71.9334 33.9689 71.884 33.7117 71.8863 33.4524C71.8885 33.1931 71.9424 32.9368 72.0448 32.6985C72.1471 32.4602 72.2959 32.2447 72.4825 32.0645L95.2852 9.26374L90.7383 4.71687L50.5547 44.8985L55.1016 49.4454L60.0528 44.4942C60.4203 44.128 60.9182 43.9228 61.4371 43.9237C61.9559 43.9246 62.4531 44.1316 62.8194 44.4991C63.1856 44.8666 63.3908 45.3646 63.3899 45.8834C63.389 46.4022 63.182 46.8995 62.8145 47.2657L57.8653 52.2071L62.2735 56.6153C63.2673 57.6098 63.9048 58.9046 64.087 60.2986C64.2693 61.6926 63.986 63.1078 63.2813 64.3243L43.0977 99.0235C42.9263 99.3204 42.6797 99.567 42.3828 99.7384C42.0859 99.9098 41.7491 100 41.4063 100ZM31.7793 90.418C34.6152 92.3035 37.5699 94.0036 40.625 95.5079L55.3379 70.2032L43.9453 58.8126L36.8633 65.8966C36.4968 66.2628 35.9999 66.4684 35.4818 66.4682C34.9637 66.4681 34.4668 66.2621 34.1006 65.8956C33.7344 65.5291 33.5287 65.0321 33.5289 64.514C33.5291 63.9959 33.7351 63.4991 34.1016 63.1329L41.1875 56.0548L29.7969 44.6641L4.49222 59.3751C5.97828 62.392 7.65485 65.3113 9.51175 68.1153L20.7227 61.9786C20.948 61.8488 21.1971 61.7653 21.4551 61.7331C21.7131 61.7008 21.975 61.7204 22.2254 61.7907C22.4758 61.861 22.7096 61.9806 22.9131 62.1425C23.1167 62.3044 23.2858 62.5053 23.4107 62.7334C23.5355 62.9615 23.6136 63.2123 23.6402 63.471C23.6669 63.7297 23.6416 63.9911 23.5659 64.2398C23.4901 64.4886 23.3655 64.7198 23.1992 64.9198C23.033 65.1197 22.8285 65.2845 22.5977 65.4044L11.7617 71.3341C16.4901 77.7597 22.1592 83.4366 28.5782 88.1739L35.2754 77.5274C35.5561 77.1003 35.9931 76.8002 36.4926 76.6916C36.992 76.583 37.5141 76.6745 37.9469 76.9464C38.3796 77.2184 38.6885 77.6492 38.8073 78.1463C38.926 78.6435 38.8452 79.1673 38.5821 79.6055L31.7793 90.418ZM33.2871 42.6309L57.3692 66.711L59.8985 62.3614C60.1713 61.8908 60.281 61.3432 60.2103 60.8038C60.1397 60.2644 59.8927 59.7635 59.5078 59.379L40.625 40.4884C40.2406 40.1035 39.7396 39.8565 39.2002 39.7859C38.6609 39.7152 38.1132 39.8249 37.6426 40.0977L33.2871 42.6309ZM59.2637 92.8673C58.1858 92.8674 57.1156 92.6865 56.0977 92.3321C55.851 92.2515 55.6229 92.1225 55.4267 91.9527C55.2304 91.783 55.07 91.5758 54.9547 91.3433C54.8394 91.1108 54.7716 90.8577 54.7553 90.5987C54.7389 90.3397 54.7743 90.08 54.8595 89.8349C54.9446 89.5898 55.0777 89.364 55.2511 89.1709C55.4244 88.9778 55.6345 88.8212 55.8691 88.7102C56.1036 88.5992 56.358 88.5361 56.6172 88.5245C56.8765 88.5129 57.1354 88.553 57.3789 88.6427C58.5456 89.0471 59.8109 89.0681 60.9903 88.7028C62.1698 88.3375 63.2016 87.6049 63.9354 86.6118C64.6692 85.6188 65.0664 84.4173 65.0693 83.1826C65.0721 81.9479 64.6804 80.7445 63.9512 79.7481C63.7974 79.5413 63.686 79.306 63.6235 79.056C63.561 78.8059 63.5487 78.5459 63.5871 78.291C63.6256 78.0361 63.7142 77.7914 63.8477 77.5709C63.9812 77.3504 64.157 77.1585 64.365 77.0063C64.5731 76.8541 64.8092 76.7445 65.0597 76.684C65.3103 76.6235 65.5703 76.6131 65.8249 76.6536C66.0795 76.694 66.3235 76.7845 66.543 76.9197C66.7625 77.0549 66.953 77.2323 67.1036 77.4415C68.1629 78.8881 68.8006 80.6002 68.9456 82.3873C69.0907 84.1745 68.7374 85.967 67.9252 87.5655C67.113 89.1641 65.8735 90.5062 64.3445 91.4428C62.8155 92.3794 61.0568 92.8738 59.2637 92.8712V92.8673ZM6.90433 47.127C6.54954 47.128 6.20118 47.0324 5.89664 46.8504C5.59211 46.6683 5.34292 46.4068 5.17581 46.0938C3.95088 43.7716 3.6979 41.0581 4.47246 38.5495C5.24702 36.0409 6.98576 33.9423 9.30667 32.7149C9.57816 32.5723 9.85355 32.4415 10.1367 32.3243C10.3854 29.7171 11.5828 27.2921 13.5014 25.5094C15.4201 23.7268 17.9265 22.7107 20.5449 22.6541C23.1633 22.5975 25.7113 23.5042 27.7052 25.2023C29.6992 26.9003 31.0002 29.2713 31.3614 31.8653C31.4323 32.3786 31.2965 32.8992 30.9837 33.3123C30.6709 33.7255 30.2067 33.9975 29.6934 34.0684C29.1801 34.1394 28.6595 34.0035 28.2464 33.6907C27.8332 33.3779 27.5612 32.9138 27.4903 32.4005C27.2283 30.6922 26.3239 29.1485 24.9619 28.0849C23.5998 27.0212 21.883 26.5178 20.1622 26.6777C18.4414 26.8376 16.8467 27.6485 15.7039 28.9449C14.5611 30.2413 13.9565 31.9252 14.0137 33.6524C14.0357 34.1057 13.8992 34.5524 13.6276 34.916C13.356 35.2795 12.9663 35.5371 12.5254 35.6446C11.64 35.8603 10.8154 36.2751 10.1143 36.8574C9.41323 37.4396 8.85416 38.1741 8.47962 39.0049C8.10507 39.8358 7.9249 40.7411 7.9528 41.652C7.98071 42.5629 8.21595 43.4555 8.64066 44.2618C8.79783 44.5594 8.87543 44.8926 8.86594 45.229C8.85644 45.5654 8.76017 45.8937 8.58647 46.182C8.41276 46.4702 8.16751 46.7087 7.87449 46.8743C7.58148 47.0399 7.25065 47.1269 6.91409 47.127H6.90433Z" fill="#7CB8EB"/>
<path d="M67.5781 41.5928C67.4502 41.5931 67.3226 41.5807 67.1972 41.5557C67.0722 41.5304 66.9499 41.4932 66.832 41.4443C66.7141 41.395 66.601 41.3348 66.4941 41.2646C66.3875 41.1931 66.288 41.1113 66.1972 41.0205C66.1066 40.9301 66.0254 40.8306 65.9551 40.7236C65.8141 40.5135 65.7152 40.2781 65.664 40.0303C65.612 39.7784 65.612 39.5185 65.664 39.2666C65.6893 39.1415 65.7265 39.0192 65.7754 38.9014C65.8247 38.7834 65.8849 38.6703 65.9551 38.5635C66.0964 38.3492 66.2798 38.1658 66.4941 38.0244C66.601 37.9542 66.7141 37.8941 66.832 37.8447C66.9499 37.7959 67.0722 37.7586 67.1972 37.7334C67.4493 37.6826 67.7089 37.6826 67.9609 37.7334C68.0859 37.7589 68.2082 37.7962 68.3261 37.8447C68.4436 37.8937 68.5561 37.9539 68.6621 38.0244C68.7691 38.0948 68.8686 38.1759 68.959 38.2666C69.0498 38.3574 69.1316 38.4568 69.2031 38.5635C69.2733 38.6703 69.3334 38.7834 69.3828 38.9014C69.4316 39.0192 69.4689 39.1415 69.4941 39.2666C69.5436 39.5187 69.5436 39.7781 69.4941 40.0303C69.4439 40.2808 69.345 40.519 69.2031 40.7314C69.1315 40.838 69.0497 40.9374 68.959 41.0283C68.8686 41.1196 68.7691 41.2014 68.6621 41.2725C68.5561 41.343 68.4436 41.4032 68.3261 41.4521C68.2082 41.5007 68.0859 41.538 67.9609 41.5635C67.8346 41.5859 67.7064 41.5957 67.5781 41.5928Z" fill="#FCB428"/>
</g>
<defs>
<clipPath id="clip0_129_1513">
<rect width="100" height="100" fill="white"/>
</clipPath>
</defs>
</svg>
