<svg width="101" height="100" viewBox="0 0 101 100" fill="none" xmlns="http://www.w3.org/2000/svg">
<g clip-path="url(#clip0_129_2316)">
<circle cx="19.8496" cy="80" r="20" fill="#EAEFFF"/>
<g clip-path="url(#clip1_129_2316)">
<path d="M19.1182 31.6822H42.1589C42.9478 31.6822 43.7291 31.8376 44.4579 32.1395C45.1868 32.4414 45.8491 32.8839 46.407 33.4418C46.9649 33.9997 47.4074 34.662 47.7093 35.3909C48.0112 36.1198 48.1666 36.901 48.1666 37.6899V43.7946C48.1666 44.0364 48.2143 44.2758 48.3068 44.4991C48.3993 44.7225 48.5349 44.9255 48.7059 45.0964C48.8768 45.2674 49.0798 45.403 49.3032 45.4955C49.5265 45.5881 49.7659 45.6357 50.0077 45.6357C50.2495 45.6357 50.4889 45.5881 50.7123 45.4955C50.9356 45.403 51.1386 45.2674 51.3096 45.0964C51.4805 44.9255 51.6161 44.7225 51.7087 44.4991C51.8012 44.2758 51.8488 44.0364 51.8488 43.7946V37.6899C51.8514 36.0983 52.4855 34.5727 53.6119 33.4481C54.7383 32.3235 56.2649 31.6919 57.8566 31.6919H66.9612C67.4495 31.6919 67.9178 31.4979 68.2631 31.1526C68.6083 30.8074 68.8023 30.3391 68.8023 29.8508C68.8023 29.3625 68.6083 28.8942 68.2631 28.5489C67.9178 28.2037 67.4495 28.0097 66.9612 28.0097H57.8411C56.3104 28.0061 54.8009 28.3671 53.4374 29.0626C52.0739 29.7582 50.8956 30.7684 50 32.0097C49.1054 30.7666 47.9276 29.7546 46.564 29.0573C45.2004 28.36 43.6904 27.9976 42.1589 28H19.1182C18.6299 28 18.1616 28.194 17.8163 28.5393C17.4711 28.8845 17.2771 29.3528 17.2771 29.8411C17.2771 30.3294 17.4711 30.7977 17.8163 31.1429C18.1616 31.4882 18.6299 31.6822 19.1182 31.6822Z" fill="#7CB8EB"/>
<path d="M93.6512 52.3895C93.0939 52.2644 92.5248 52.1995 91.9536 52.1957V37.6899C91.9536 35.1213 90.9337 32.6578 89.1182 30.8409C87.3027 29.0239 84.84 28.0021 82.2714 28H82.1667C81.6785 28 81.2102 28.194 80.8649 28.5392C80.5196 28.8845 80.3257 29.3528 80.3257 29.8411C80.3257 30.3294 80.5196 30.7977 80.8649 31.1429C81.2102 31.4882 81.6785 31.6822 82.1667 31.6822H82.2714C83.8648 31.6822 85.3929 32.3151 86.5195 33.4418C87.6462 34.5685 88.2792 36.0966 88.2792 37.6899V53.0543C87.2044 53.5877 86.2615 54.353 85.5185 55.2951C84.7755 56.2372 84.2509 57.3325 83.9826 58.5019C82.7771 57.9814 81.478 57.7124 80.1648 57.7112H57.7966C55.6353 57.7086 53.5366 58.4366 51.8412 59.7771V50.1221C51.8412 49.6338 51.6472 49.1655 51.3019 48.8202C50.9567 48.475 50.4884 48.281 50.0001 48.281C49.5118 48.281 49.0435 48.475 48.6982 48.8202C48.353 49.1655 48.159 49.6338 48.159 50.1221V59.7829C46.4627 58.4423 44.3638 57.713 42.2016 57.7132H19.8295C18.5203 57.7154 17.2252 57.9844 16.0233 58.5039C15.752 57.3357 15.2265 56.2417 14.4842 55.2998C13.7419 54.3579 12.8011 53.5912 11.7288 53.0543V37.6899C11.7268 36.8063 11.9205 35.9331 12.2962 35.1333C12.6718 34.3334 13.22 33.6267 13.9013 33.064C14.0923 32.9112 14.251 32.722 14.368 32.5072C14.4851 32.2925 14.5582 32.0565 14.5831 31.8132C14.608 31.5699 14.5841 31.3241 14.5129 31.0901C14.4417 30.8561 14.3246 30.6386 14.1685 30.4504C14.0123 30.2622 13.8202 30.1069 13.6033 29.9938C13.3865 29.8806 13.1493 29.8118 12.9056 29.7913C12.6618 29.7709 12.4165 29.7992 12.1838 29.8746C11.9511 29.95 11.7358 30.0711 11.5505 30.2306C10.4523 31.1385 9.56866 32.2781 8.96287 33.5677C8.35708 34.8574 8.04418 36.2651 8.0466 37.6899V52.1996C6.8375 52.2108 5.64616 52.4919 4.55957 53.0224C3.47298 53.5528 2.51857 54.3192 1.76603 55.2657C1.01349 56.2121 0.481808 57.3147 0.209816 58.4928C-0.0621774 59.671 -0.0676191 60.895 0.193888 62.0756L3.26172 75.8353C3.75223 78.0868 4.91481 80.1362 6.59561 81.7125C8.27641 83.2888 10.3962 84.3176 12.6745 84.6628L12.0505 85.2868C10.94 86.4255 10.3229 87.9558 10.3328 89.5463C10.3428 91.1368 10.979 92.6593 12.1037 93.784C13.2284 94.9086 14.7509 95.5449 16.3414 95.5548C17.9318 95.5648 19.4622 94.9477 20.6009 93.8372L29.6377 84.8004H71.816C72.3043 84.8004 72.7726 84.6064 73.1178 84.2612C73.4631 83.9159 73.6571 83.4476 73.6571 82.9593C73.6571 82.471 73.4631 82.0027 73.1178 81.6575C72.7726 81.3122 72.3043 81.1182 71.816 81.1182H14.4497C12.6791 81.1266 10.9594 80.527 9.57771 79.4198C8.19605 78.3126 7.23623 76.7647 6.85862 75.0349L3.78885 61.2752C3.6616 60.7071 3.64748 60.1196 3.7473 59.5461C3.84711 58.9726 4.05891 58.4244 4.3706 57.9327C4.68229 57.4411 5.08776 57.0156 5.56387 56.6807C6.03998 56.3458 6.57739 56.1079 7.14544 55.9806C7.71348 55.8534 8.30103 55.8393 8.87453 55.9391C9.44803 56.0389 9.99625 56.2507 10.4879 56.5624C10.9795 56.8741 11.405 57.2795 11.7399 57.7556C12.0749 58.2317 12.3128 58.7692 12.44 59.3372L13.9032 65.8934C14.2976 67.6981 15.2992 69.3129 16.7407 70.468C18.1822 71.6231 19.9765 72.2487 21.8237 72.2403H78.1764C80.0236 72.249 81.8177 71.6235 83.259 70.4683C84.7003 69.313 85.7014 67.6981 86.095 65.8934L87.5582 59.3372C87.6855 58.7692 87.9234 58.2317 88.2583 57.7556C88.5932 57.2795 89.0187 56.8741 89.5103 56.5624C90.002 56.2507 90.5502 56.0389 91.1237 55.9391C91.6972 55.8393 92.2848 55.8534 92.8528 55.9806C93.4208 56.1079 93.9583 56.3458 94.4344 56.6807C94.9105 57.0156 95.3159 57.4411 95.6276 57.9327C95.9393 58.4244 96.1511 58.9726 96.2509 59.5461C96.3508 60.1196 96.3366 60.7071 96.2094 61.2752L93.1416 75.0349C92.7643 76.7651 91.8047 78.3134 90.423 79.421C89.0413 80.5286 87.3213 81.1284 85.5505 81.1202H67.0272C66.5389 81.1202 66.0706 81.3141 65.7254 81.6594C65.3801 82.0047 65.1861 82.473 65.1861 82.9612C65.1861 83.4495 65.3801 83.9178 65.7254 84.2631C66.0706 84.6084 66.5389 84.8023 67.0272 84.8023H70.3586L79.3974 93.8391C80.536 94.9496 82.0664 95.5667 83.6569 95.5568C85.2474 95.5468 86.7699 94.9106 87.8945 93.7859C89.0192 92.6613 89.6554 91.1387 89.6654 89.5483C89.6754 87.9578 89.0582 86.4274 87.9478 85.2888L87.3237 84.6647C89.6017 84.3192 91.7211 83.2902 93.4015 81.714C95.0819 80.1377 96.2442 78.0884 96.7346 75.8372L99.8043 62.0775C100.27 59.9771 99.884 57.7777 98.7305 55.9615C97.5771 54.1454 95.7505 52.8608 93.6512 52.3895ZM48.159 67.3411V68.5601H21.8237C20.8148 68.5647 19.8348 68.2229 19.0475 67.5919C18.2602 66.9608 17.7133 66.0788 17.4981 65.093L16.8509 62.186C17.7589 61.6575 18.7905 61.378 19.8412 61.376H42.2016C43.7238 61.3741 45.1887 61.9558 46.2951 63.0012C47.4014 64.0466 48.065 65.4763 48.1493 66.9961C48.1493 67.0388 48.1532 67.0814 48.1609 67.124C48.159 67.2074 48.159 67.2771 48.159 67.3411ZM78.1764 68.5601H51.8412V67.3411C51.8427 65.7619 52.4706 64.2478 53.5871 63.131C54.7035 62.0141 56.2174 61.3858 57.7966 61.3837H80.1687C81.2162 61.3867 82.2444 61.6662 83.1493 62.1938L82.502 65.1008C82.2861 66.0858 81.7388 66.967 80.9516 67.5972C80.1644 68.2275 79.1849 68.5687 78.1764 68.564V68.5601ZM17.7462 84.7926H24.4323L17.9981 91.2267C17.5519 91.6556 16.9553 91.8924 16.3364 91.8862C15.7175 91.8801 15.1257 91.6315 14.688 91.1939C14.2504 90.7562 14.0018 90.1644 13.9956 89.5455C13.9895 88.9266 14.2263 88.33 14.6551 87.8837L17.7462 84.7926ZM85.3431 91.2267C84.8992 91.669 84.2982 91.9173 83.6716 91.9173C83.045 91.9173 82.444 91.669 82.0001 91.2267L75.566 84.7926H82.252L85.3431 87.8837C85.7863 88.3271 86.0353 88.9283 86.0353 89.5552C86.0353 90.1821 85.7863 90.7834 85.3431 91.2267Z" fill="#7CB8EB"/>
<path d="M74.3411 31.6822C75.3579 31.6822 76.1822 30.8579 76.1822 29.8411C76.1822 28.8243 75.3579 28 74.3411 28C73.3243 28 72.5 28.8243 72.5 29.8411C72.5 30.8579 73.3243 31.6822 74.3411 31.6822Z" fill="#FCB428"/>
<path d="M63.9243 42.0738C64.9411 42.0738 65.7654 41.2495 65.7654 40.2327C65.7654 39.2159 64.9411 38.3916 63.9243 38.3916C62.9075 38.3916 62.0833 39.2159 62.0833 40.2327C62.0833 41.2495 62.9075 42.0738 63.9243 42.0738Z" fill="#7CB8EB"/>
<path d="M77.4321 42.0738C78.449 42.0738 79.2732 41.2495 79.2732 40.2327C79.2732 39.2159 78.449 38.3916 77.4321 38.3916C76.4153 38.3916 75.5911 39.2159 75.5911 40.2327C75.5911 41.2495 76.4153 42.0738 77.4321 42.0738Z" fill="#7CB8EB"/>
<path d="M63.9243 50.2364C64.9411 50.2364 65.7654 49.4121 65.7654 48.3953C65.7654 47.3785 64.9411 46.5542 63.9243 46.5542C62.9075 46.5542 62.0833 47.3785 62.0833 48.3953C62.0833 49.4121 62.9075 50.2364 63.9243 50.2364Z" fill="#7CB8EB"/>
<path d="M77.4321 50.2364C78.449 50.2364 79.2732 49.4121 79.2732 48.3953C79.2732 47.3785 78.449 46.5542 77.4321 46.5542C76.4153 46.5542 75.5911 47.3785 75.5911 48.3953C75.5911 49.4121 76.4153 50.2364 77.4321 50.2364Z" fill="#7CB8EB"/>
<path d="M22.5098 41.628C23.5266 41.628 24.3509 40.8037 24.3509 39.7869C24.3509 38.7701 23.5266 37.9458 22.5098 37.9458C21.493 37.9458 20.6687 38.7701 20.6687 39.7869C20.6687 40.8037 21.493 41.628 22.5098 41.628Z" fill="#7CB8EB"/>
<path d="M36.0174 41.628C37.0342 41.628 37.8584 40.8037 37.8584 39.7869C37.8584 38.7701 37.0342 37.9458 36.0174 37.9458C35.0006 37.9458 34.1763 38.7701 34.1763 39.7869C34.1763 40.8037 35.0006 41.628 36.0174 41.628Z" fill="#7CB8EB"/>
<path d="M22.5098 49.7925C23.5266 49.7925 24.3509 48.9682 24.3509 47.9514C24.3509 46.9346 23.5266 46.1104 22.5098 46.1104C21.493 46.1104 20.6687 46.9346 20.6687 47.9514C20.6687 48.9682 21.493 49.7925 22.5098 49.7925Z" fill="#7CB8EB"/>
<path d="M36.0174 49.7925C37.0342 49.7925 37.8584 48.9682 37.8584 47.9514C37.8584 46.9346 37.0342 46.1104 36.0174 46.1104C35.0006 46.1104 34.1763 46.9346 34.1763 47.9514C34.1763 48.9682 35.0006 49.7925 36.0174 49.7925Z" fill="#7CB8EB"/>
<path d="M15.521 36.6674C15.1689 36.6676 14.8235 36.5718 14.5219 36.3901C14.2203 36.2085 13.974 35.948 13.8096 35.6366L10.8199 29.9745L5.14427 26.9946C4.83245 26.8305 4.57137 26.5844 4.38924 26.2828C4.2071 25.9811 4.11084 25.6355 4.11084 25.2832C4.11084 24.9308 4.2071 24.5852 4.38924 24.2835C4.57137 23.9819 4.83245 23.7358 5.14427 23.5717L10.8199 20.5937L13.8096 14.9316C13.974 14.6203 14.2203 14.3597 14.5219 14.1781C14.8235 13.9965 15.1689 13.9006 15.521 13.9009C15.8727 13.901 16.2178 13.997 16.519 14.1786C16.8202 14.3602 17.0662 14.6206 17.2304 14.9316L20.222 20.5937L25.8977 23.5795C26.2095 23.7435 26.4706 23.9897 26.6527 24.2913C26.8348 24.5929 26.9311 24.9385 26.9311 25.2909C26.9311 25.6432 26.8348 25.9889 26.6527 26.2905C26.4706 26.5921 26.2095 26.8382 25.8977 27.0023L20.2201 29.9823L17.2304 35.6444C17.0651 35.954 16.8187 36.2127 16.5176 36.3929C16.2164 36.5732 15.8719 36.668 15.521 36.6674ZM10.2011 25.2812L13.1482 26.8282C13.494 27.0103 13.7764 27.2928 13.9585 27.6385L15.521 30.5933L17.0815 27.6385C17.2636 27.2928 17.5461 27.0103 17.8918 26.8282L20.8408 25.2812L17.8918 23.7342C17.5459 23.5533 17.2633 23.2713 17.0815 22.9259L15.521 19.971L13.9585 22.9143C13.7766 23.259 13.4949 23.5408 13.1501 23.7226L10.2011 25.2812Z" fill="#FCB428"/>
<path d="M40.765 23.802C40.5022 23.8022 40.2444 23.7306 40.0193 23.5951C39.7942 23.4595 39.6104 23.2651 39.4877 23.0327L36.7729 17.8905L31.6148 15.18C31.3821 15.0576 31.1872 14.8739 31.0513 14.6488C30.9153 14.4237 30.8435 14.1657 30.8435 13.9028C30.8435 13.6398 30.9153 13.3818 31.0513 13.1567C31.1872 12.9316 31.3821 12.7479 31.6148 12.6255L36.7729 9.91508L39.4877 4.76991C39.6102 4.53755 39.7939 4.34305 40.0189 4.20738C40.2438 4.0717 40.5015 4 40.7642 4C41.0269 4 41.2847 4.0717 41.5096 4.20738C41.7346 4.34305 41.9182 4.53755 42.0408 4.76991L44.757 9.91508L49.9108 12.6255C50.1435 12.7479 50.3384 12.9316 50.4743 13.1567C50.6102 13.3818 50.6821 13.6398 50.6821 13.9028C50.6821 14.1657 50.6102 14.4237 50.4743 14.6488C50.3384 14.8739 50.1435 15.0576 49.9108 15.18L44.7555 17.8905L42.0408 23.0327C41.9182 23.2649 41.7346 23.4592 41.5098 23.5947C41.285 23.7302 41.0275 23.8019 40.765 23.802ZM35.3889 13.9028L38.5106 15.5437C38.769 15.679 38.9803 15.8893 39.1168 16.147L40.765 19.2673L42.4131 16.147C42.5488 15.8897 42.7591 15.6794 43.0164 15.5437L46.1367 13.9028L43.0179 12.2618C42.7598 12.1259 42.549 11.9151 42.4131 11.6571L40.765 8.53534L39.1168 11.6571C38.9797 11.9144 38.7685 12.1245 38.5106 12.2604L35.3889 13.9028Z" fill="#FCB428"/>
</g>
</g>
<defs>
<clipPath id="clip0_129_2316">
<rect width="100.049" height="100" fill="white"/>
</clipPath>
<clipPath id="clip1_129_2316">
<rect width="100" height="92" fill="white" transform="translate(0 4)"/>
</clipPath>
</defs>
</svg>
