<svg width="154" height="46" viewBox="0 0 154 46" fill="none" xmlns="http://www.w3.org/2000/svg">
<g clip-path="url(#clip0_117_778)">
<path d="M18.2769 10.8049V25.9259C18.2769 27.6702 17.1168 28.8296 15.0862 28.8296C13.0557 28.8296 11.8945 27.6671 11.8945 25.9259V21.8514C11.8945 21.8514 10.1537 22.4332 7.68749 22.4332C3.19174 22.4332 0 19.235 0 14.5838V10.8049C0 9.06059 1.18914 7.90118 3.19174 7.90118C5.22228 7.90118 6.38244 9.0637 6.38244 10.8049V14.5838C6.38244 16.183 7.39771 17.2003 8.84869 17.2003C10.7343 17.2003 11.8945 16.6185 11.8945 16.6185V10.8339C11.8945 9.06059 13.0547 7.89807 15.0862 7.89807C17.1178 7.89807 18.2769 9.06059 18.2769 10.8049Z" fill="#3E5496"/>
<path d="M28.7204 17.4907L33.6529 10.8049C34.958 8.91547 35.9733 7.90125 37.714 7.90125C39.7446 7.90125 40.9058 9.0928 40.9058 10.8049V25.926C40.9058 27.6703 39.7446 28.8297 37.714 28.8297C35.6835 28.8297 34.5223 27.6672 34.5223 25.926V19.235H34.2325L29.301 25.926C27.9949 27.8155 26.9797 28.8297 25.2389 28.8297C23.2084 28.8297 22.0482 27.6371 22.0482 25.926V10.8049C22.0482 9.06065 23.2084 7.90125 25.2389 7.90125C27.2695 7.90125 28.4307 9.06376 28.4307 10.8049V17.4907H28.7204Z" fill="#3E5496"/>
<path d="M43.9516 16.3282C43.9516 11.3867 47.7229 7.60669 53.6696 7.60669C58.747 7.60669 61.6479 10.5104 61.6479 12.5492C61.6479 14.1483 60.6327 15.1657 58.4572 15.1657C56.1359 15.1657 55.8461 13.1299 53.6696 13.1299C51.784 13.1299 50.4789 14.4387 50.4789 16.3282V20.3975C50.4789 22.288 51.784 23.5957 53.6696 23.5957C56.1359 23.5957 56.4257 21.5611 58.747 21.5611C60.9204 21.5611 61.9377 22.5784 61.9377 24.1775C61.9377 26.2122 59.0399 29.119 53.6696 29.119C47.7229 29.119 43.9516 25.34 43.9516 20.3975V16.3282Z" fill="#3E5496"/>
<path d="M65.5641 14C63.5336 14 62.3724 12.8365 62.3724 11.0963C62.3724 9.35618 63.5336 8.19263 65.5641 8.19263H78.329C80.3595 8.19263 81.5197 9.35515 81.5197 11.0963C81.5197 12.8375 80.3595 14 78.329 14H75.1362V25.926C75.1362 27.6703 73.9761 28.8297 71.9455 28.8297C69.915 28.8297 68.7538 27.6671 68.7538 25.926V14H65.5641Z" fill="#3E5496"/>
<path d="M89.7878 15.7464H92.254C92.3699 10.976 95.8515 7.60669 101.392 7.60669C107.049 7.60669 110.531 11.0953 110.531 16.0378V20.6889C110.531 25.6304 107.049 29.119 101.392 29.119C95.9674 29.119 92.5148 25.9218 92.254 21.2697H89.7878V25.9259C89.7878 27.6702 88.6276 28.8297 86.596 28.8297C84.5645 28.8297 83.4053 27.6671 83.4053 25.9259V10.8049C83.4053 9.06062 84.5655 7.90121 86.596 7.90121C88.6266 7.90121 89.7878 9.06373 89.7878 10.8049V15.7464ZM98.7813 20.6889C98.7813 23.0139 99.9415 24.1775 101.392 24.1775C102.843 24.1775 104.004 23.0139 104.004 20.6889V16.0378C104.004 13.7117 102.842 12.5492 101.392 12.5492C99.9425 12.5492 98.7813 13.7117 98.7813 16.0378V20.6889Z" fill="#7CB8EB"/>
<path d="M114.301 29.119C112.562 29.119 111.403 27.9565 111.403 26.2153C111.403 23.3116 115.466 24.7634 115.466 18.0756V11.0963C115.466 9.35203 116.626 8.19263 118.656 8.19263H128.953C130.983 8.19263 132.144 9.35515 132.144 11.0963V25.926C132.144 27.6703 130.983 28.8297 128.953 28.8297C126.922 28.8297 125.761 27.6671 125.761 25.926V14H121.845V18.0694C121.845 25.34 118.074 29.119 114.301 29.119Z" fill="#7CB8EB"/>
<path d="M149.985 8.19263C152.015 8.19263 153.176 9.35515 153.176 11.0963V25.926C153.176 27.6703 152.015 28.8297 149.985 28.8297C147.954 28.8297 146.794 27.6671 146.794 25.9519V21.2697H145.345L140.412 27.3778C140.412 27.3778 139.25 28.8297 137.656 28.8297C135.624 28.8297 134.464 27.6671 134.464 25.926C134.464 24.6172 135.624 23.3095 135.624 23.3095L138.671 19.8209V19.5295C138.671 19.5295 135.334 18.367 135.334 14.7332C135.334 11.3909 138.526 8.19263 144.038 8.19263H149.985ZM146.794 16.3323V13.13H144.038C142.732 13.13 142.006 13.8559 142.006 14.7291C142.006 15.6023 142.731 16.3282 144.038 16.3282L146.794 16.3323Z" fill="#7CB8EB"/>
<path d="M139.509 6.27824L138.448 5.62802C137.97 5.33725 137.574 4.92839 137.299 4.44052C137.023 3.95265 136.877 3.4021 136.874 2.8415L136.864 1.59705C136.859 1.55192 136.84 1.50935 136.811 1.47481C136.781 1.44028 136.742 1.41534 136.699 1.4032C136.655 1.39105 136.609 1.39226 136.566 1.40666C136.523 1.42106 136.485 1.44799 136.457 1.48402L135.809 2.54698C135.519 3.02629 135.111 3.42299 134.624 3.69915C134.137 3.97531 133.588 4.1217 133.028 4.12431L131.786 4.13468C131.758 4.13482 131.729 4.14064 131.703 4.15181C131.676 4.16299 131.652 4.1793 131.632 4.19981C131.611 4.22032 131.595 4.24463 131.584 4.27136C131.574 4.29808 131.568 4.3267 131.568 4.35557C131.568 4.39288 131.578 4.42951 131.596 4.46213C131.614 4.49474 131.64 4.52228 131.672 4.54224L132.733 5.19142C133.212 5.48234 133.607 5.89123 133.883 6.37907C134.159 6.8669 134.305 7.41738 134.308 7.97794L134.317 9.22239C134.317 9.27021 134.333 9.31663 134.362 9.3546C134.391 9.39258 134.432 9.42004 134.478 9.43282C134.524 9.4456 134.573 9.44301 134.617 9.42543C134.661 9.40786 134.699 9.37625 134.724 9.33542L135.373 8.27142C135.663 7.79198 136.071 7.39517 136.557 7.11899C137.044 6.84281 137.594 6.69651 138.153 6.69409L139.395 6.68476C139.443 6.68445 139.489 6.66855 139.527 6.63948C139.565 6.61041 139.593 6.56975 139.605 6.52367C139.618 6.47758 139.615 6.42859 139.598 6.38411C139.58 6.33963 139.549 6.3021 139.508 6.2772L139.509 6.27824Z" fill="#FCB428"/>
<path d="M63.9589 34.8445L64.3387 33.6581C64.5072 33.1235 64.8099 32.6413 65.2179 32.2576C65.6258 31.8739 66.1253 31.6016 66.6684 31.4669L67.8741 31.163C67.9307 31.1416 67.9765 31.0986 68.0015 31.0434C68.0265 30.9882 68.0287 30.9253 68.0076 30.8685C67.9971 30.8401 67.9812 30.8141 67.9605 30.792C67.9399 30.7699 67.9151 30.7522 67.8875 30.7399L66.7035 30.3593C66.1701 30.1903 65.6889 29.8869 65.306 29.4782C64.9231 29.0694 64.6514 28.5691 64.5167 28.0249L64.2135 26.8168C64.1993 26.7603 64.1634 26.7116 64.1136 26.6815C64.0637 26.6514 64.004 26.6423 63.9475 26.6561C63.9112 26.6655 63.8779 26.6839 63.8506 26.7097C63.8233 26.7354 63.8029 26.7676 63.7912 26.8033L63.4124 27.9897C63.2434 28.5242 62.9404 29.0063 62.5323 29.3899C62.1243 29.7736 61.6249 30.0459 61.0818 30.1809L59.8802 30.4889C59.8338 30.5004 59.7923 30.5268 59.7622 30.5641C59.7321 30.6014 59.715 30.6475 59.7135 30.6954C59.712 30.7433 59.7261 30.7904 59.7538 30.8295C59.7815 30.8687 59.8211 30.8976 59.8668 30.9121L61.0507 31.2916C61.5833 31.4613 62.0636 31.7648 62.4459 32.1733C62.8282 32.5817 63.0996 33.0815 63.2344 33.6249L63.5449 34.8331C63.5588 34.8765 63.5857 34.9145 63.6221 34.9419C63.6585 34.9693 63.7024 34.9847 63.7479 34.9859C63.7933 34.9872 63.8381 34.9742 63.8759 34.9489C63.9137 34.9236 63.9427 34.8871 63.9589 34.8445Z" fill="#FCB428"/>
<path d="M20.0777 8.19265L20.4575 7.00628C20.6261 6.47168 20.9288 5.98942 21.3367 5.60572C21.7446 5.22202 22.2441 4.94976 22.7872 4.81502L23.9929 4.51117C24.0495 4.48976 24.0953 4.44674 24.1203 4.39154C24.1454 4.33634 24.1475 4.27346 24.1264 4.21665C24.1059 4.16084 24.0642 4.11539 24.0105 4.09013L22.8265 3.70954C22.2931 3.54051 21.8119 3.23711 21.429 2.82839C21.0461 2.41966 20.7743 1.91928 20.6397 1.37517L20.3365 0.167022C20.3223 0.110479 20.2864 0.0618502 20.2365 0.0317392C20.1867 0.00162813 20.127 -0.00752297 20.0705 0.00628118C20.0342 0.0157288 20.0009 0.0341672 19.9736 0.0599C19.9463 0.0856328 19.9258 0.117834 19.9142 0.15354L19.5354 1.33991C19.3664 1.87439 19.0634 2.3565 18.6553 2.74014C18.2473 3.12378 17.7478 3.39613 17.2048 3.53117L15.9991 3.8371C15.9526 3.84858 15.9112 3.87497 15.8811 3.91224C15.851 3.94951 15.8338 3.99562 15.8323 4.04354C15.8308 4.09146 15.845 4.13857 15.8726 4.17769C15.9003 4.2168 15.94 4.24578 15.9856 4.26021L17.1696 4.63976C17.7021 4.80942 18.1825 5.11295 18.5647 5.52141C18.947 5.92988 19.2185 6.42966 19.3533 6.9731L19.6638 8.18124C19.6776 8.22465 19.7046 8.26267 19.7409 8.29005C19.7773 8.31742 19.8212 8.3328 19.8667 8.33405C19.9122 8.3353 19.9569 8.32237 19.9947 8.29704C20.0325 8.27171 20.0615 8.23523 20.0777 8.19265Z" fill="#FCB428"/>
<path d="M35.4041 9.87329L32.3844 13.8597C32.0779 14.2644 32.1566 14.8413 32.5602 15.1482C32.9638 15.4552 33.5395 15.376 33.846 14.9714L36.8657 10.9849C37.1723 10.5803 37.0936 10.0034 36.69 9.69643C36.2863 9.38946 35.7107 9.46864 35.4041 9.87329Z" fill="white"/>
<path d="M69.6397 9.11035H64.465C64.0078 9.11035 63.6371 9.48179 63.6371 9.93998C63.6371 10.3982 64.0078 10.7696 64.465 10.7696H69.6397C70.097 10.7696 70.4677 10.3982 70.4677 9.93998C70.4677 9.48179 70.097 9.11035 69.6397 9.11035Z" fill="white"/>
<path d="M129.148 8.79932H123.974C123.516 8.79932 123.146 9.17075 123.146 9.62895C123.146 10.0871 123.516 10.4586 123.974 10.4586H129.148C129.606 10.4586 129.976 10.0871 129.976 9.62895C129.976 9.17075 129.606 8.79932 129.148 8.79932Z" fill="white"/>
<path d="M15.8231 10.304V16.7336C15.8231 17.2205 16.217 17.6151 16.7028 17.6151C17.1887 17.6151 17.5825 17.2205 17.5825 16.7336V10.304C17.5825 9.81717 17.1887 9.42252 16.7028 9.42252C16.217 9.42252 15.8231 9.81717 15.8231 10.304Z" fill="white"/>
<path d="M45.7896 12.9256C46.5141 11.5526 48.1368 9.28456 51.1143 8.8656C51.2168 8.85078 51.3213 8.85814 51.4207 8.8872C51.5201 8.91625 51.6121 8.96632 51.6906 9.03403C51.7691 9.10175 51.8321 9.18553 51.8755 9.27973C51.919 9.37393 51.9417 9.47636 51.9423 9.58012C51.9419 9.73613 51.8913 9.88785 51.7981 10.0128C51.7049 10.1378 51.574 10.2293 51.4248 10.2739C50.4758 10.5529 48.4411 11.3877 47.1671 13.6266C47.1041 13.7357 47.0136 13.8262 46.9045 13.889C46.7955 13.9519 46.6719 13.9848 46.5461 13.9844H46.4271C46.3034 13.9833 46.182 13.9505 46.0745 13.8891C45.967 13.8277 45.877 13.7397 45.8131 13.6335C45.7492 13.5274 45.7134 13.4066 45.7093 13.2826C45.7052 13.1587 45.7329 13.0358 45.7896 12.9256Z" fill="white"/>
<path d="M94.2245 12.9256C94.949 11.5526 96.5718 9.28456 99.5493 8.8656C99.6518 8.85078 99.7562 8.85814 99.8556 8.8872C99.955 8.91625 100.047 8.96632 100.126 9.03403C100.204 9.10175 100.267 9.18553 100.31 9.27973C100.354 9.37393 100.377 9.47636 100.377 9.58012C100.377 9.73613 100.326 9.88785 100.233 10.0128C100.14 10.1378 100.009 10.2293 99.8598 10.2739C98.9107 10.5529 96.876 11.3877 95.602 13.6266C95.5391 13.7357 95.4485 13.8262 95.3395 13.889C95.2305 13.9519 95.1068 13.9848 94.9811 13.9844H94.8621C94.7383 13.9833 94.6169 13.9505 94.5094 13.8891C94.4019 13.8277 94.3119 13.7397 94.248 13.6335C94.1841 13.5274 94.1484 13.4066 94.1443 13.2826C94.1401 13.1587 94.1678 13.0358 94.2245 12.9256Z" fill="white"/>
<path d="M21.2472 4.1378C20.7515 3.8495 19.9411 3.21484 19.8314 2.10728C19.8274 2.06911 19.8316 2.03052 19.8437 1.99411C19.8559 1.9577 19.8756 1.92432 19.9017 1.89622C19.9278 1.86811 19.9596 1.84594 19.995 1.83118C20.0303 1.81643 20.0684 1.80944 20.1067 1.81069C20.1648 1.81368 20.2204 1.83553 20.265 1.87294C20.3096 1.91036 20.3409 1.96131 20.3541 2.0181C20.5234 2.68888 20.9431 3.26902 21.5267 3.63899C21.566 3.66392 21.5981 3.6988 21.6197 3.74013C21.6414 3.78146 21.6517 3.82777 21.6498 3.87439V3.91691C21.6482 3.96326 21.6345 4.00839 21.6102 4.04786C21.5859 4.08734 21.5518 4.1198 21.5112 4.14208C21.4706 4.16435 21.4249 4.17567 21.3786 4.17492C21.3324 4.17417 21.2871 4.16138 21.2472 4.1378Z" fill="white"/>
<path d="M64.9214 30.6859C64.4257 30.3976 63.6153 29.7629 63.5056 28.6554C63.5016 28.6172 63.5058 28.5786 63.5179 28.5422C63.5301 28.5058 63.5498 28.4724 63.5759 28.4443C63.602 28.4162 63.6338 28.394 63.6692 28.3793C63.7045 28.3645 63.7426 28.3575 63.7809 28.3588C63.839 28.3618 63.8946 28.3836 63.9392 28.421C63.9838 28.4585 64.0151 28.5094 64.0283 28.5662C64.1976 29.237 64.6173 29.8171 65.2008 30.1871C65.2402 30.212 65.2723 30.2469 65.2939 30.2882C65.3156 30.3296 65.3259 30.3759 65.324 30.4225V30.465C65.3224 30.5114 65.3087 30.5565 65.2844 30.596C65.2601 30.6354 65.226 30.6679 65.1854 30.6902C65.1448 30.7124 65.0991 30.7238 65.0528 30.723C65.0066 30.7223 64.9613 30.7095 64.9214 30.6859Z" fill="white"/>
<path d="M136.646 3.18892C136.367 3.68981 135.747 4.51425 134.644 4.64077C134.606 4.64539 134.567 4.64177 134.531 4.63014C134.494 4.61851 134.461 4.59916 134.432 4.57339C134.404 4.54762 134.382 4.51603 134.366 4.48078C134.351 4.44553 134.344 4.40743 134.345 4.36907C134.346 4.31135 134.366 4.25558 134.401 4.21026C134.437 4.16495 134.487 4.13258 134.542 4.11811C135.211 3.93877 135.785 3.50832 136.145 2.91618C136.169 2.8764 136.203 2.84374 136.244 2.82153C136.285 2.79931 136.331 2.78831 136.377 2.78966H136.42C136.466 2.79035 136.511 2.80315 136.551 2.82677C136.591 2.8504 136.624 2.88404 136.647 2.92437C136.67 2.9647 136.682 3.01032 136.682 3.05672C136.682 3.10312 136.67 3.14869 136.646 3.18892Z" fill="white"/>
<path d="M136.837 12.8593C137.685 11.5588 139.512 9.45156 142.516 9.31156C142.619 9.30643 142.722 9.32354 142.818 9.36173C142.915 9.39993 143.001 9.45833 143.073 9.53301C143.145 9.60768 143.2 9.6969 143.234 9.79465C143.269 9.8924 143.282 9.99642 143.273 10.0997C143.258 10.255 143.193 10.4013 143.089 10.517C142.984 10.6326 142.845 10.7114 142.693 10.7416C141.722 10.9324 139.619 11.5713 138.139 13.6858C138.066 13.7887 137.967 13.8706 137.852 13.923C137.738 13.9755 137.611 13.9967 137.486 13.9844L137.37 13.973C137.247 13.9599 137.13 13.9156 137.029 13.8441C136.928 13.7727 136.847 13.6767 136.793 13.5651C136.74 13.4535 136.716 13.33 136.724 13.2065C136.731 13.083 136.77 12.9634 136.837 12.8593Z" fill="white"/>
<path d="M1.51826 37.046C1.51826 36.776 1.31826 36.706 1.12826 36.706C0.928257 36.706 0.738257 36.776 0.738257 37.046V41.736C0.738257 42.016 0.928257 42.086 1.12826 42.086C1.31826 42.086 1.51826 42.016 1.51826 41.736V39.466C2.58826 39.416 2.89826 39.916 3.19826 40.786C3.35826 41.216 3.49826 41.706 3.73826 41.986C3.80826 42.076 4.00826 42.116 4.18826 42.086C4.37826 42.046 4.45826 41.936 4.38826 41.756C4.18826 41.286 4.06826 41.086 3.84826 40.436C3.64826 39.826 3.32826 39.216 2.60826 39.076C3.02826 38.906 3.33826 38.556 3.55826 38.196C3.77826 37.836 3.96826 37.466 4.17826 37.116C4.32826 36.856 4.20826 36.736 3.94826 36.716C3.67826 36.686 3.53826 36.816 3.47826 36.896C3.22826 37.246 3.08826 37.616 2.87826 37.956C2.58826 38.456 2.24826 38.806 1.51826 38.876V37.046ZM4.82302 39.406C4.82302 40.986 5.40302 42.086 7.04302 42.086C8.67302 42.086 9.25302 40.986 9.25302 39.406C9.25302 37.826 8.67302 36.706 7.04302 36.706C5.40302 36.706 4.82302 37.826 4.82302 39.406ZM8.43302 39.406C8.43302 40.356 8.20302 41.536 7.04302 41.536C5.88302 41.536 5.65302 40.356 5.65302 39.406C5.65302 38.456 5.88302 37.276 7.04302 37.276C8.20302 37.276 8.43302 38.456 8.43302 39.406ZM12.57 40.616C12.77 40.616 12.89 40.466 13 40.276L13.93 38.596C14 38.456 14.11 38.196 14.18 37.946V41.736C14.18 42.016 14.35 42.086 14.54 42.086C14.74 42.086 14.89 42.016 14.89 41.736V37.056C14.89 36.796 14.69 36.716 14.47 36.716C14.21 36.716 14.09 36.846 13.97 37.056L12.57 39.636L11.17 37.056C11.05 36.846 10.93 36.716 10.68 36.716C10.45 36.716 10.25 36.796 10.25 37.056V41.736C10.25 42.016 10.4 42.086 10.6 42.086C10.79 42.086 10.96 42.016 10.96 41.736V37.946C11.03 38.196 11.14 38.456 11.21 38.596L12.14 40.276C12.25 40.476 12.37 40.616 12.57 40.616ZM19.2375 41.726C19.2775 41.936 19.4475 42.046 19.6975 42.016C19.8675 41.986 20.0175 41.916 19.9775 41.626C19.9475 41.426 19.9375 41.206 19.9375 40.976V38.776C19.9375 37.386 19.4275 36.666 18.0275 36.666C17.2675 36.666 16.7075 36.816 16.3275 37.136C16.0875 37.346 16.1375 37.536 16.2775 37.656C16.4075 37.766 16.6075 37.826 16.7975 37.666C17.0675 37.456 17.4075 37.286 17.9075 37.286C18.3475 37.286 18.9275 37.406 19.0875 37.886C19.1475 38.076 19.1775 38.366 19.1775 38.776C18.8775 38.766 18.6475 38.756 18.5175 38.756C17.3675 38.756 15.7875 39.006 15.7875 40.556C15.7875 41.576 16.5075 42.126 17.4175 42.126C18.2475 42.126 18.8375 41.766 19.1775 41.056C19.1775 41.386 19.2075 41.576 19.2375 41.726ZM19.1775 39.376C19.2175 39.956 19.1375 40.516 18.7375 40.976C18.4375 41.326 18.0475 41.506 17.5775 41.506C17.0375 41.506 16.6275 41.206 16.6275 40.586C16.6275 39.556 17.6775 39.346 18.4575 39.346C18.6175 39.346 18.8575 39.356 19.1775 39.376ZM21.9675 37.046C21.9675 36.776 21.7775 36.706 21.5775 36.706C21.3875 36.706 21.1875 36.776 21.1875 37.046V41.736C21.1875 42.016 21.3875 42.086 21.5775 42.086C21.7775 42.086 21.9675 42.016 21.9675 41.736V39.576H24.1775V41.736C24.1775 42.016 24.3775 42.086 24.5675 42.086C24.7675 42.086 24.9575 42.016 24.9575 41.736V37.046C24.9575 36.776 24.7675 36.706 24.5675 36.706C24.3775 36.706 24.1775 36.776 24.1775 37.046V38.946H21.9675V37.046ZM26.8058 41.366C26.9458 41.196 27.0858 40.816 27.1458 40.346C27.2858 39.486 27.2958 38.226 27.3358 37.726C27.3558 37.556 27.3858 37.436 27.6158 37.436H28.7358C28.9658 37.436 28.9958 37.526 28.9958 37.696V41.366H26.8058ZM27.3658 36.806C26.7358 36.806 26.6358 37.286 26.6058 37.736C26.5658 38.136 26.5458 39.456 26.4358 40.316C26.3558 40.846 26.2358 41.136 26.0458 41.236C25.7658 41.396 25.6058 41.506 25.6058 41.916V42.836C25.6058 43.106 25.7558 43.176 25.9558 43.176C26.1558 43.176 26.2958 43.106 26.2958 42.836V42.136C26.2958 41.976 26.3958 41.986 26.4558 41.986H29.4858C29.5458 41.986 29.6458 41.976 29.6458 42.136V42.836C29.6458 43.106 29.7958 43.176 29.9858 43.176C30.1858 43.176 30.3358 43.106 30.3358 42.836V41.916C30.3358 41.576 30.1558 41.376 29.7758 41.366V37.736C29.7758 37.276 29.7858 36.806 28.9958 36.806H27.3658ZM34.1398 41.726C34.1798 41.936 34.3498 42.046 34.5998 42.016C34.7698 41.986 34.9198 41.916 34.8798 41.626C34.8498 41.426 34.8398 41.206 34.8398 40.976V38.776C34.8398 37.386 34.3298 36.666 32.9298 36.666C32.1698 36.666 31.6098 36.816 31.2298 37.136C30.9898 37.346 31.0398 37.536 31.1798 37.656C31.3098 37.766 31.5098 37.826 31.6998 37.666C31.9698 37.456 32.3098 37.286 32.8098 37.286C33.2498 37.286 33.8298 37.406 33.9898 37.886C34.0498 38.076 34.0798 38.366 34.0798 38.776C33.7798 38.766 33.5498 38.756 33.4198 38.756C32.2698 38.756 30.6898 39.006 30.6898 40.556C30.6898 41.576 31.4098 42.126 32.3198 42.126C33.1498 42.126 33.7398 41.766 34.0798 41.056C34.0798 41.386 34.1098 41.576 34.1398 41.726ZM34.0798 39.376C34.1198 39.956 34.0398 40.516 33.6398 40.976C33.3398 41.326 32.9498 41.506 32.4798 41.506C31.9398 41.506 31.5298 41.206 31.5298 40.586C31.5298 39.556 32.5798 39.346 33.3598 39.346C33.5198 39.346 33.7598 39.356 34.0798 39.376ZM42.2055 36.806H39.9555C39.1955 36.806 39.1955 37.286 39.1955 37.736V41.736C39.1955 42.016 39.3855 42.086 39.5855 42.086C39.7755 42.086 39.9755 42.016 39.9755 41.736V37.686C39.9755 37.526 40.0055 37.436 40.2355 37.436H41.9255C42.1555 37.436 42.1955 37.526 42.1955 37.686V41.736C42.1955 42.016 42.3855 42.086 42.5855 42.086C42.7755 42.086 42.9755 42.016 42.9755 41.736V37.736C42.9755 37.276 42.9755 36.806 42.2055 36.806ZM45.0134 37.046C45.0134 36.776 44.8434 36.706 44.6534 36.706C44.4534 36.706 44.2734 36.776 44.2734 37.046V43.506C44.2734 43.776 44.4734 43.846 44.6634 43.846C44.8634 43.846 45.0634 43.776 45.0634 43.506V41.306C45.3634 41.746 45.8534 42.116 46.4934 42.116C48.0134 42.116 48.5534 40.856 48.5534 39.396C48.5534 37.936 48.1134 36.676 46.6034 36.676C45.8534 36.676 45.3434 37.086 45.0134 37.606V37.046ZM45.0634 39.566V39.076C45.0634 38.256 45.5034 37.366 46.4634 37.366C47.5434 37.366 47.6934 38.496 47.6934 39.396C47.6934 40.296 47.5434 41.426 46.4634 41.426C45.4934 41.426 45.0634 40.386 45.0634 39.566ZM49.2566 39.406C49.2566 40.986 49.8366 42.086 51.4766 42.086C53.1066 42.086 53.6866 40.986 53.6866 39.406C53.6866 37.826 53.1066 36.706 51.4766 36.706C49.8366 36.706 49.2566 37.826 49.2566 39.406ZM52.8666 39.406C52.8666 40.356 52.6366 41.536 51.4766 41.536C50.3166 41.536 50.0866 40.356 50.0866 39.406C50.0866 38.456 50.3166 37.276 51.4766 37.276C52.6366 37.276 52.8666 38.456 52.8666 39.406ZM57.5536 36.746V35.296C57.5536 35.016 57.3736 34.946 57.1836 34.946C56.9936 34.946 56.8136 35.016 56.8136 35.296V36.746C55.4636 36.836 54.2836 37.456 54.2836 39.396C54.2836 41.336 55.4636 41.956 56.8136 42.046V43.496C56.8136 43.766 56.9936 43.846 57.1836 43.846C57.3736 43.846 57.5536 43.766 57.5536 43.496V42.046C59.1836 41.896 60.0836 41.036 60.0836 39.396C60.0836 37.706 59.0736 36.836 57.5536 36.746ZM56.8136 37.316V41.516C55.8136 41.436 55.1236 40.776 55.1236 39.396C55.1236 38.016 55.8136 37.386 56.8136 37.316ZM57.5536 41.516V37.316C58.7636 37.446 59.2436 38.276 59.2436 39.396C59.2436 40.526 58.7136 41.426 57.5536 41.516ZM64.2824 38.626C64.2924 38.816 64.2024 38.856 64.0724 38.866H61.5824C61.6024 38.106 62.1424 37.276 63.0124 37.276C63.7924 37.276 64.2524 37.796 64.2824 38.626ZM64.9824 40.706C65.0324 40.476 64.9024 40.336 64.6924 40.306C64.5024 40.286 64.3124 40.386 64.2524 40.566C64.0724 41.136 63.6024 41.456 63.0324 41.456C61.9224 41.456 61.5724 40.456 61.5624 39.466H64.2224C64.9724 39.466 65.0424 39.126 65.0424 38.776C65.0624 37.526 64.2624 36.666 62.9824 36.666C61.3424 36.666 60.6924 37.996 60.6924 39.416C60.6924 40.826 61.4024 42.126 62.9924 42.126C63.9024 42.126 64.7624 41.636 64.9824 40.706ZM65.7508 39.406C65.7508 40.986 66.3308 42.086 67.9608 42.086C69.2508 42.086 69.6808 41.156 69.7708 40.616C69.8108 40.346 69.7408 40.216 69.4808 40.196C69.2408 40.176 69.0808 40.266 69.0308 40.476C68.9008 41.026 68.6308 41.476 67.9608 41.476C66.8108 41.476 66.5808 40.326 66.5808 39.406C66.5808 38.486 66.8108 37.336 67.9608 37.336C68.6308 37.336 68.9008 37.786 69.0308 38.336C69.0808 38.536 69.2408 38.626 69.4808 38.616C69.7408 38.586 69.8108 38.456 69.7708 38.196C69.6808 37.656 69.2508 36.706 67.9608 36.706C66.3308 36.706 65.7508 37.826 65.7508 39.406ZM70.4871 39.406C70.4871 40.986 71.0671 42.086 72.6971 42.086C73.9871 42.086 74.4171 41.156 74.5071 40.616C74.5471 40.346 74.4771 40.216 74.2171 40.196C73.9771 40.176 73.8171 40.266 73.7671 40.476C73.6371 41.026 73.3671 41.476 72.6971 41.476C71.5471 41.476 71.3171 40.326 71.3171 39.406C71.3171 38.486 71.5471 37.336 72.6971 37.336C73.3671 37.336 73.6371 37.786 73.7671 38.336C73.8171 38.536 73.9771 38.626 74.2171 38.616C74.4771 38.586 74.5471 38.456 74.5071 38.196C74.4171 37.656 73.9871 36.706 72.6971 36.706C71.0671 36.706 70.4871 37.826 70.4871 39.406ZM79.4534 37.046C79.4534 36.776 79.2634 36.706 79.0634 36.706C78.9334 36.706 78.8034 36.726 78.7234 36.846L76.7734 39.966C76.6334 40.196 76.4434 40.516 76.3134 40.816V37.046C76.3134 36.776 76.1134 36.706 75.9134 36.706C75.7234 36.706 75.5234 36.776 75.5234 37.046V41.736C75.5234 42.016 75.7234 42.086 75.9134 42.086C76.0434 42.086 76.1934 42.046 76.2634 41.926L78.2434 38.776C78.3934 38.526 78.5634 38.276 78.6734 37.996V41.736C78.6734 42.016 78.8734 42.086 79.0634 42.086C79.2634 42.086 79.4534 42.016 79.4534 41.736V37.046ZM80.4578 39.406C80.4578 40.986 81.0378 42.086 82.6778 42.086C84.3078 42.086 84.8878 40.986 84.8878 39.406C84.8878 37.826 84.3078 36.706 82.6778 36.706C81.0378 36.706 80.4578 37.826 80.4578 39.406ZM84.0678 39.406C84.0678 40.356 83.8378 41.536 82.6778 41.536C81.5178 41.536 81.2878 40.356 81.2878 39.406C81.2878 38.456 81.5178 37.276 82.6778 37.276C83.8378 37.276 84.0678 38.456 84.0678 39.406ZM86.6647 37.046C86.6647 36.776 86.4747 36.706 86.2747 36.706C86.0847 36.706 85.8847 36.776 85.8847 37.046V41.736C85.8847 42.016 86.0847 42.086 86.2747 42.086C86.4747 42.086 86.6647 42.016 86.6647 41.736V39.576H88.8747V41.736C88.8747 42.016 89.0747 42.086 89.2647 42.086C89.4647 42.086 89.6547 42.016 89.6547 41.736V37.046C89.6547 36.776 89.4647 36.706 89.2647 36.706C89.0747 36.706 88.8747 36.776 88.8747 37.046V38.946H86.6647V37.046ZM94.0031 41.726C94.0431 41.936 94.2131 42.046 94.4631 42.016C94.6331 41.986 94.7831 41.916 94.7431 41.626C94.7131 41.426 94.7031 41.206 94.7031 40.976V38.776C94.7031 37.386 94.1931 36.666 92.7931 36.666C92.0331 36.666 91.4731 36.816 91.0931 37.136C90.8531 37.346 90.9031 37.536 91.0431 37.656C91.1731 37.766 91.3731 37.826 91.5631 37.666C91.8331 37.456 92.1731 37.286 92.6731 37.286C93.1131 37.286 93.6931 37.406 93.8531 37.886C93.9131 38.076 93.9431 38.366 93.9431 38.776C93.6431 38.766 93.4131 38.756 93.2831 38.756C92.1331 38.756 90.5531 39.006 90.5531 40.556C90.5531 41.576 91.2731 42.126 92.1831 42.126C93.0131 42.126 93.6031 41.766 93.9431 41.056C93.9431 41.386 93.9731 41.576 94.0031 41.726ZM93.9431 39.376C93.9831 39.956 93.9031 40.516 93.5031 40.976C93.2031 41.326 92.8131 41.506 92.3431 41.506C91.8031 41.506 91.3931 41.206 91.3931 40.586C91.3931 39.556 92.4431 39.346 93.2231 39.346C93.3831 39.346 93.6231 39.356 93.9431 39.376ZM97.1831 36.806C96.4131 36.806 96.3831 37.416 96.3531 37.876C96.3031 38.396 96.2731 39.566 96.1431 40.546C96.0831 41.036 96.0731 41.386 95.5731 41.396C95.4131 41.396 95.3231 41.526 95.3131 41.746C95.3031 41.896 95.3931 42.056 95.6731 42.066C96.4531 42.126 96.7731 41.536 96.8831 40.636C97.0031 39.656 97.0631 38.396 97.1131 37.746C97.1231 37.576 97.2031 37.446 97.4331 37.446H98.3931C98.6131 37.446 98.6531 37.536 98.6531 37.696V41.746C98.6531 42.016 98.8431 42.086 99.0431 42.086C99.2431 42.086 99.4331 42.016 99.4331 41.746V37.736C99.4331 37.286 99.4431 36.806 98.6731 36.806H97.1831ZM101.518 37.046C101.518 36.776 101.328 36.706 101.128 36.706C100.938 36.706 100.738 36.776 100.738 37.046V41.056C100.738 41.516 100.738 41.986 101.508 41.986H102.958C103.878 41.986 104.578 41.316 104.578 40.376C104.578 39.446 103.978 38.796 102.978 38.796H101.518V37.046ZM101.518 39.426H102.838C103.428 39.426 103.718 39.776 103.718 40.406C103.718 41.006 103.428 41.356 102.838 41.356H101.788C101.558 41.356 101.518 41.266 101.518 41.096V39.426ZM106.206 37.046C106.206 36.776 106.016 36.706 105.816 36.706C105.626 36.706 105.426 36.776 105.426 37.046V41.736C105.426 42.016 105.626 42.086 105.816 42.086C106.016 42.086 106.206 42.016 106.206 41.736V39.576H108.416V41.736C108.416 42.016 108.616 42.086 108.806 42.086C109.006 42.086 109.196 42.016 109.196 41.736V37.046C109.196 36.776 109.006 36.706 108.806 36.706C108.616 36.706 108.416 36.776 108.416 37.046V38.946H106.206V37.046ZM110.194 39.406C110.194 40.986 110.774 42.086 112.414 42.086C114.044 42.086 114.624 40.986 114.624 39.406C114.624 37.826 114.044 36.706 112.414 36.706C110.774 36.706 110.194 37.826 110.194 39.406ZM113.804 39.406C113.804 40.356 113.574 41.536 112.414 41.536C111.254 41.536 111.024 40.356 111.024 39.406C111.024 38.456 111.254 37.276 112.414 37.276C113.574 37.276 113.804 38.456 113.804 39.406ZM118.821 36.846C116.731 40.196 116.541 40.516 116.401 40.816V37.046C116.401 36.776 116.211 36.706 116.011 36.706C115.821 36.706 115.621 36.776 115.621 37.046V41.736C115.621 42.016 115.821 42.086 116.011 42.086C116.141 42.086 116.291 42.046 116.361 41.926L118.361 38.736C118.581 38.386 118.671 38.186 118.771 37.996V41.736C118.771 42.016 118.971 42.086 119.161 42.086C119.361 42.086 119.551 42.016 119.551 41.736V37.046C119.551 36.776 119.361 36.706 119.161 36.706C119.031 36.706 118.901 36.726 118.821 36.846ZM118.391 35.056C118.151 35.346 117.941 35.436 117.591 35.436C117.241 35.436 117.031 35.346 116.781 35.056C116.681 34.926 116.511 34.906 116.391 34.956C116.261 35.026 116.241 35.146 116.311 35.306C116.451 35.616 116.901 36.006 117.591 36.006C118.121 36.006 118.651 35.756 118.871 35.306C118.941 35.146 118.921 35.026 118.781 34.956C118.641 34.896 118.491 34.946 118.391 35.056ZM125.761 42.486L127.711 37.046C127.801 36.796 127.541 36.706 127.301 36.706C127.061 36.706 126.921 36.796 126.841 37.046L125.791 40.136C125.731 40.316 125.651 40.586 125.611 40.786C125.561 40.566 125.491 40.316 125.431 40.146L124.321 37.046C124.231 36.796 124.081 36.706 123.851 36.706C123.611 36.706 123.381 36.796 123.481 37.046L125.221 41.786L124.981 42.506C124.861 42.846 124.731 43.136 124.271 43.046C124.121 43.006 123.881 42.996 123.851 43.296C123.821 43.576 123.981 43.706 124.111 43.736C125.211 43.966 125.521 43.166 125.761 42.486ZM128.946 37.516C129.126 36.656 129.596 35.956 130.586 35.606C131.116 35.416 131.766 35.196 131.986 35.056C132.256 34.876 132.316 34.706 132.206 34.476C132.086 34.246 131.866 34.166 131.666 34.326C131.286 34.656 130.746 34.766 130.296 34.966C128.406 35.786 128.116 37.706 128.146 39.316C128.176 40.676 128.656 42.086 130.376 42.086C132.006 42.086 132.586 40.976 132.586 39.396C132.586 37.816 132.106 36.706 130.466 36.706C129.836 36.706 129.306 37.056 128.966 37.526L128.946 37.516ZM131.756 39.396C131.756 40.316 131.526 41.466 130.376 41.466C129.216 41.466 128.986 40.316 128.986 39.396C128.986 38.476 129.216 37.326 130.376 37.326C131.526 37.326 131.756 38.476 131.756 39.396ZM133.182 39.406C133.182 40.986 133.762 42.086 135.402 42.086C137.032 42.086 137.612 40.986 137.612 39.406C137.612 37.826 137.032 36.706 135.402 36.706C133.762 36.706 133.182 37.826 133.182 39.406ZM136.792 39.406C136.792 40.356 136.562 41.536 135.402 41.536C134.242 41.536 134.012 40.356 134.012 39.406C134.012 38.456 134.242 37.276 135.402 37.276C136.562 37.276 136.792 38.456 136.792 39.406ZM139.349 37.046C139.349 36.776 139.179 36.706 138.989 36.706C138.789 36.706 138.609 36.776 138.609 37.046V43.506C138.609 43.776 138.809 43.846 138.999 43.846C139.199 43.846 139.399 43.776 139.399 43.506V41.306C139.699 41.746 140.189 42.116 140.829 42.116C142.349 42.116 142.889 40.856 142.889 39.396C142.889 37.936 142.449 36.676 140.939 36.676C140.189 36.676 139.679 37.086 139.349 37.606V37.046ZM139.399 39.566V39.076C139.399 38.256 139.839 37.366 140.799 37.366C141.879 37.366 142.029 38.496 142.029 39.396C142.029 40.296 141.879 41.426 140.799 41.426C139.829 41.426 139.399 40.386 139.399 39.566ZM144.673 37.046C144.673 36.776 144.473 36.706 144.283 36.706C144.083 36.706 143.893 36.776 143.893 37.046V41.736C143.893 42.016 144.083 42.086 144.283 42.086C144.473 42.086 144.673 42.016 144.673 41.736V39.466C145.743 39.416 146.053 39.916 146.353 40.786C146.513 41.216 146.653 41.706 146.893 41.986C146.963 42.076 147.163 42.116 147.343 42.086C147.533 42.046 147.613 41.936 147.543 41.756C147.343 41.286 147.223 41.086 147.003 40.436C146.803 39.826 146.483 39.216 145.763 39.076C146.183 38.906 146.493 38.556 146.713 38.196C146.933 37.836 147.123 37.466 147.333 37.116C147.483 36.856 147.363 36.736 147.103 36.716C146.833 36.686 146.693 36.816 146.633 36.896C146.383 37.246 146.243 37.616 146.033 37.956C145.743 38.456 145.403 38.806 144.673 38.876V37.046ZM152.403 37.046C152.403 36.776 152.213 36.706 152.013 36.706C151.883 36.706 151.753 36.726 151.673 36.846L149.723 39.966C149.583 40.196 149.393 40.516 149.263 40.816V37.046C149.263 36.776 149.063 36.706 148.863 36.706C148.673 36.706 148.473 36.776 148.473 37.046V41.736C148.473 42.016 148.673 42.086 148.863 42.086C148.993 42.086 149.143 42.046 149.213 41.926L151.193 38.776C151.343 38.526 151.513 38.276 151.623 37.996V41.736C151.623 42.016 151.823 42.086 152.013 42.086C152.213 42.086 152.403 42.016 152.403 41.736V37.046Z" fill="#192638"/>
</g>
<defs>
<clipPath id="clip0_117_778">
<rect width="154" height="46" fill="white"/>
</clipPath>
</defs>
</svg>
