<svg width="74" height="60" viewBox="0 0 74 60" fill="none" xmlns="http://www.w3.org/2000/svg">
<path d="M46.2266 46.3181L50.0323 57.5579L51.9815 50.417L50.1881 47.2853C48.9072 46.99 47.5824 46.6688 46.2266 46.3181Z" fill="#00DAC9"/>
<path d="M10.5288 39.7501L19.3022 41.4919L22.6477 37.3836C21.1985 36.5697 19.7921 35.6829 18.434 34.7266L10.5288 39.7501Z" fill="#00DAC9"/>
<path d="M28.373 2.944L27.9484 1.92725L26.5879 2.67357L26.8103 3.02784C27.3312 2.99241 27.8521 2.96446 28.373 2.944Z" fill="#00DAC9"/>
<path d="M62.7582 49.0909L61.6343 48.889C60.491 48.6748 59.3509 48.4497 58.2139 48.2135C57.976 48.1639 57.7322 48.1119 57.492 48.0612C56.3955 47.825 55.3009 47.5849 54.2084 47.3408L53.245 47.1188L52.8597 47.0303C52.4768 46.9389 52.0946 46.846 51.7132 46.7516L50.7559 46.5154C49.4873 46.1965 48.2239 45.8631 46.9656 45.5152L46.1331 45.2849C45.5194 45.1109 44.9073 44.9334 44.2968 44.7523C44.0257 44.672 43.7557 44.5929 43.4857 44.5102C42.5438 44.2252 41.6055 43.93 40.6707 43.6246C40.4257 43.5454 40.1819 43.4628 39.9381 43.3813C39.33 43.1742 38.7234 42.9633 38.1185 42.7483L37.3978 42.4909C36.3837 42.1272 35.3752 41.7489 34.3722 41.3561L33.7014 41.0951C33.0505 40.8345 32.4019 40.5676 31.7558 40.2944C31.6832 40.2626 31.6095 40.233 31.5357 40.2023L31.1017 40.011C29.8838 39.4796 28.6743 38.9246 27.4803 38.3365C27.265 38.2314 27.0497 38.1228 26.8357 38.0153C26.1839 37.6855 25.5382 37.3457 24.8983 36.9962C24.6874 36.8805 24.4773 36.7624 24.268 36.6419C22.9158 35.8779 21.5957 35.0572 20.3219 34.1703C20.1126 34.0239 19.9045 33.8759 19.6976 33.7263C19.3408 33.4665 18.984 33.2032 18.6272 32.9316C18.3521 32.7198 18.0821 32.5061 17.8173 32.2903C17.6199 32.1282 17.4248 31.9652 17.2322 31.8015C15.9431 30.7115 14.7663 29.4971 13.719 28.1761C13.5596 27.9706 13.4038 27.764 13.254 27.555C12.769 26.8842 12.3319 26.1807 11.9458 25.4494C11.8268 25.231 11.7198 25.009 11.6151 24.7858C11.0403 23.5783 10.6342 22.2986 10.408 20.9821C10.3684 20.7459 10.3347 20.5074 10.3069 20.2665C10.2522 19.7941 10.2209 19.3143 10.213 18.827C10.213 18.5908 10.213 18.3546 10.213 18.1184C10.2547 16.9435 10.4213 15.7762 10.7101 14.636C10.7565 14.4494 10.8052 14.2628 10.8576 14.0739C10.8706 14.0326 10.8849 13.9936 10.8968 13.9558C11.0134 13.5842 11.143 13.2236 11.2857 12.8741C11.3777 12.6521 11.4748 12.4348 11.5771 12.2222C11.9951 11.3572 12.5153 10.5445 13.1267 9.80141C13.2825 9.61247 13.4395 9.42707 13.6024 9.24757C13.8795 8.94763 14.1733 8.65713 14.4778 8.38907C14.6657 8.22059 14.8591 8.05645 15.0581 7.89663C15.5581 7.49734 16.0833 7.13012 16.6304 6.79722C16.8492 6.66378 17.074 6.53388 17.3011 6.40989C17.765 6.15482 18.2446 5.91864 18.7402 5.70135C18.9852 5.59271 19.2325 5.48761 19.4847 5.38842C19.8962 5.22545 20.3156 5.07312 20.7429 4.93141C20.9943 4.85268 21.2476 4.77396 21.5029 4.69523C22.0159 4.54408 22.5372 4.40591 23.0668 4.28074C23.3296 4.21933 23.596 4.16265 23.8636 4.10597C24.2502 4.02566 24.6414 3.95127 25.0351 3.88396C25.2944 3.83987 25.554 3.79854 25.8141 3.75996C26.3088 3.68596 26.8071 3.62141 27.309 3.5663C27.5714 3.53796 27.8343 3.51158 28.0975 3.48718C28.5851 3.4423 29.0735 3.4053 29.5627 3.37617C29.8148 3.36122 30.067 3.34783 30.3191 3.33602C31.4965 3.28406 32.6739 3.27344 33.8346 3.29469C34.4206 3.30493 35.0013 3.32343 35.577 3.35019C38.228 3.47568 39.8573 3.7477 42.4779 4.16501C39.8538 3.63785 37.1994 3.27226 34.5298 3.07032L34.4537 2.49523L33.419 2.99593C32.0097 2.91681 30.5648 2.88728 29.1317 2.92035L28.2992 0.924639L25.5864 2.41256L26.011 3.09866C25.4948 3.14669 24.9814 3.20455 24.4708 3.27225L22.2266 0L20.2833 2.29093L21.613 3.77886C21.0707 3.9001 20.5367 4.03708 20.011 4.18981L16.3563 0.401504L15.3038 3.73871L17.1448 5.22427C16.6398 5.44785 16.1498 5.69033 15.6748 5.9517L10.7286 2.29093L10.6881 6.87398L12.7682 8.00646C12.4598 8.28672 12.1649 8.57998 11.8834 8.88622L5.28402 5.5502L7.92543 12.1526L9.49886 12.6356C9.3506 12.9835 9.217 13.3457 9.09807 13.722L1.73042 11.6082L7.20115 18.6628L8.32979 18.7549C8.32979 19.2493 8.35476 19.7367 8.40471 20.2169L0 19.7481L7.65189 25.9903L9.99004 25.6053C10.369 26.3575 10.7993 27.0831 11.278 27.777L2.09553 29.8766L12.2973 34.7608L15.9115 32.7792C16.518 33.2917 17.1523 33.7909 17.8144 34.2766L8.65684 40.0972L19.5852 42.276L23.2792 37.7402C23.9333 38.0976 24.5989 38.4471 25.276 38.7888L17.5813 49.6932L28.2397 48.5123L30.4803 41.1577C31.1439 41.4332 31.8119 41.7009 32.4843 41.9607L29.0591 56.3817L37.3485 51.8589L37.1296 43.6352C37.7497 43.8438 38.3689 44.0461 38.9873 44.2422L40.0791 59.7284L45.5498 52.6678L43.528 45.5943C44.1568 45.7691 44.7815 45.9383 45.4023 46.1021L50.1036 60L52.745 50.3167L51.1311 47.4943C51.6513 47.6116 52.1623 47.7234 52.6641 47.8297L57.5735 56.0145L57.2274 48.7319C57.8744 48.85 58.494 48.9575 59.0816 49.0567C59.7357 49.1629 60.3906 49.2673 61.0463 49.3696L62.188 50.6887L61.8585 49.4936C65.8819 50.0994 69.9326 50.5635 74 50.6485C69.8893 50.3545 66.8109 49.8345 62.7582 49.0909ZM27.9483 1.92722L28.3741 2.94397C27.8524 2.96444 27.3311 2.99396 26.8102 3.03253L26.5878 2.67827L27.9483 1.92722ZM21.2276 2.28149L22.1684 1.17263L23.6895 3.39034C23.2613 3.45647 22.8371 3.53126 22.4169 3.61471L21.2276 2.28149ZM16.1292 3.4919L16.6762 1.75835L19.2475 4.42481C18.7844 4.57517 18.3317 4.73774 17.8893 4.91252L16.1292 3.4919ZM11.4053 6.45712L11.4303 3.69383L15.0053 6.33903C14.4246 6.6931 13.8684 7.08524 13.3403 7.51284L11.4053 6.45712ZM8.4618 11.5728L6.64456 7.03222L11.4077 9.44715C10.771 10.2266 10.2293 11.078 9.7938 11.9837L8.4618 11.5728ZM8.34287 18.0452L7.57459 17.9826L3.62258 12.8883L8.90184 14.4069C8.5836 15.5962 8.39462 16.8159 8.33811 18.0452H8.34287ZM7.86002 25.238L2.14072 20.5771L8.48915 20.9313C8.7008 22.3147 9.10089 23.663 9.67844 24.9393L7.86002 25.238ZM12.2806 33.966L4.23387 30.1128L11.7264 28.3981C12.7932 29.8143 14.0048 31.1171 15.3418 32.2856L12.2806 33.966ZM19.3069 41.4919L10.5288 39.75L18.434 34.7265C19.7925 35.6829 21.1992 36.5697 22.6488 37.3835L19.3069 41.4919ZM27.6974 47.8592L19.0762 48.811L25.9265 39.1041C27.1967 39.7264 28.5001 40.3192 29.825 40.8813L27.6974 47.8592ZM30.1271 54.993L33.161 42.2181C34.2397 42.6279 35.3267 43.0188 36.4137 43.3907L36.6301 51.4456L30.1271 54.993ZM44.7673 52.5238L40.6618 57.8165L39.7223 44.4724C40.7284 44.7873 41.7286 45.0853 42.7229 45.3664L44.7673 52.5238ZM51.9827 50.4171L50.0334 57.5579L46.2277 46.3182C47.5835 46.6724 48.9084 46.9901 50.188 47.2853L51.9827 50.4171ZM53.618 48.034C54.6277 48.243 55.5946 48.432 56.5103 48.6032L56.7291 53.2217L53.618 48.034Z" fill="white"/>
<path d="M39.7222 44.4724L40.6641 57.8165L44.7648 52.5237L42.7227 45.3663C41.7285 45.0829 40.7283 44.785 39.7222 44.4724Z" fill="#00DAC9"/>
<path d="M53.6133 48.0339L56.7292 53.2216L56.5104 48.6031C55.5899 48.4319 54.623 48.243 53.6133 48.0339Z" fill="#00DAC9"/>
<path d="M11.4076 9.44715L6.64453 7.03223L8.46177 11.5728L9.79377 11.9778C10.2296 11.0742 10.7713 10.2248 11.4076 9.44715Z" fill="#00DAC9"/>
<path d="M2.14062 20.5771L7.85516 25.2381L9.67359 24.9394C9.09604 23.6631 8.69595 22.3147 8.4843 20.9314L2.14062 20.5771Z" fill="#00DAC9"/>
<path d="M15.0053 6.33905L11.4302 3.69385L11.4053 6.45714L13.3462 7.51286C13.8724 7.08547 14.4266 6.69333 15.0053 6.33905Z" fill="#00DAC9"/>
<path d="M3.62256 12.8882L7.56981 17.9826L8.33809 18.0451C8.3946 16.8159 8.58359 15.5961 8.90182 14.4068L3.62256 12.8882Z" fill="#00DAC9"/>
<path d="M19.2475 4.42476L16.6762 1.7583L16.1292 3.49185L17.8893 4.90892C18.3317 4.73494 18.7844 4.57355 19.2475 4.42476Z" fill="#00DAC9"/>
<path d="M33.1562 42.218L30.1223 54.9929L36.6242 51.4502L36.4089 43.3954C35.3219 43.0187 34.2349 42.6301 33.1562 42.218Z" fill="#00DAC9"/>
<path d="M11.724 28.4016L4.23389 30.1127L12.2759 33.9624L15.3419 32.2856C14.0042 31.1183 12.7918 29.8167 11.724 28.4016Z" fill="#00DAC9"/>
<path d="M23.6884 3.38788L22.1673 1.17017L21.2266 2.27902L22.4159 3.61225C22.8369 3.52959 23.261 3.4548 23.6884 3.38788Z" fill="#00DAC9"/>
<path d="M19.0715 48.8109L27.6927 47.8591L29.8191 40.8812C28.4943 40.3191 27.1908 39.7263 25.9207 39.104L19.0715 48.8109Z" fill="#00DAC9"/>
<path d="M61.6658 40.8601L59.2991 36.3254L47.562 29.416L61.6658 40.8601Z" fill="#001EBA"/>
<path d="M45.9065 11.2185L38.6602 20.6657L50.6434 13.2685L45.9065 11.2185ZM46.1348 12.09L49.1081 13.3795L41.5739 18.0299L46.1348 12.09Z" fill="white"/>
<path d="M50.1631 15.2336L39.4333 21.3046L54.6967 18.2886L50.1631 15.2336ZM50.1298 16.0674L52.8854 17.9249L43.6089 19.7565L50.1298 16.0674Z" fill="white"/>
<path d="M53.725 19.9395L39.5154 22.1099L58.6249 23.7986L53.725 19.9395ZM53.5264 20.687L56.3141 22.8834L45.438 21.9222L53.5264 20.687Z" fill="white"/>
<path d="M61.9442 30.2711L56.6412 24.7634L40.2837 22.7559L61.9442 30.2711ZM59.3754 28.6296L46.8165 24.2698L56.301 25.4353L59.3754 28.6296Z" fill="white"/>
<path d="M59.0291 30.3914L40.2383 23.5576L63.9634 37.0198L59.0291 30.3914ZM58.5831 30.9819L61.3791 34.7359L47.9485 27.1156L58.5831 30.9819Z" fill="white"/>
<path d="M63.8873 43.5749L59.8437 35.8165L39.7578 23.9993L63.8873 43.5749ZM61.6657 40.8589L47.5619 29.416L59.299 36.3243L61.6657 40.8589Z" fill="white"/>
<path d="M61.1936 47.0929L59.6369 41.4494L39.3119 24.2816L58.0527 45.9191C57.4272 45.6829 56.7445 45.4172 56.0309 45.1338L38.5329 24.2709L49.3971 42.387C48.8714 42.1563 48.3394 41.9202 47.8011 41.6785L38.2594 24.9948L43.1593 39.4761C42.6209 39.2077 42.0833 38.9321 41.5466 38.6495L37.6219 24.8992L38.4758 36.9821C37.9541 36.6868 37.4388 36.3865 36.9298 36.081L36.6217 24.5378L34.2753 34.416C33.7853 34.0901 33.3056 33.7602 32.8362 33.4264L35.7095 23.9993L30.3803 31.55C29.9617 31.2036 29.5581 30.854 29.1696 30.5013L34.9805 23.3664L27.0848 28.3852C26.7383 27.9868 26.4164 27.5857 26.1191 27.1818L34.8889 22.3721L24.661 24.7126C24.454 24.2479 24.2842 23.7678 24.1532 23.2766L34.0648 21.6482L23.8821 21.0802C23.8893 20.7276 23.9219 20.376 23.9796 20.028L33.8828 20.8345L24.5528 18.1574C24.6646 17.8717 24.7835 17.5938 24.9096 17.3237L34.0671 20.1106L25.7064 15.8807C25.8384 15.6728 25.9752 15.4709 26.1179 15.2725L34.2515 19.6985L26.9171 14.2664C27.1169 14.0397 27.3239 13.8208 27.5379 13.6098L34.575 19.2911L28.3704 12.8564C28.6273 12.6403 28.8937 12.4348 29.1685 12.2376L35.4657 19.2911L30.171 11.5787C30.4339 11.4205 30.7038 11.2681 30.9774 11.1229L35.9165 19.0951L32.3058 10.4875C32.7577 10.2939 33.2219 10.1152 33.6985 9.95142L36.6812 19.2958L35.3754 9.44718C35.7417 9.35035 36.1131 9.26138 36.4897 9.1803L37.4899 19.7824L39.8507 8.64181C40.2562 8.59812 40.6641 8.56151 41.0756 8.52372L38.3403 20.0575L45.8673 8.41626C53.2896 8.60402 60.9534 10.288 66.0935 11.7357C60.9701 10.0223 53.5441 8.18717 46.2633 7.80338C45.9882 7.78921 45.7135 7.777 45.4391 7.76677C44.2808 7.72307 42.1145 7.71953 40.9776 7.75968C40.729 7.76795 40.4828 7.77858 40.2366 7.79157C39.8204 7.81361 39.4077 7.84195 38.9986 7.87659C38.7488 7.89785 38.5007 7.92147 38.2541 7.94744C37.5263 8.02617 36.8099 8.12576 36.1051 8.24621C35.8672 8.28794 35.6321 8.33163 35.3998 8.37729C35.0133 8.45523 34.6315 8.53907 34.2533 8.63118C34.0202 8.68865 33.7883 8.74888 33.5576 8.81186C33.4077 8.85319 33.2591 8.8957 33.1104 8.93939C32.8809 9.00789 32.6549 9.07874 32.4301 9.15314C31.9283 9.31846 31.4387 9.49993 30.9614 9.69753C30.7402 9.78964 30.5225 9.88411 30.3084 9.9833C30.2526 10.0081 30.199 10.0353 30.1443 10.0601C29.9279 10.1632 29.7142 10.2695 29.5033 10.3789C29.2155 10.5285 28.9336 10.6859 28.6577 10.8513C28.2795 11.0768 27.9108 11.3165 27.5552 11.5716C27.2722 11.7763 26.9967 11.9892 26.7287 12.2105C26.4115 12.4734 26.1067 12.749 25.8141 13.0371C25.5917 13.2579 25.3765 13.4858 25.1695 13.7232C24.8591 14.0757 24.5677 14.4442 24.2966 14.8273C24.1503 15.0328 24.01 15.2442 23.8732 15.4603C23.7364 15.6764 23.627 15.863 23.5164 16.072C23.4546 16.1818 23.3975 16.2916 23.3368 16.4038C23.2262 16.614 23.1192 16.8289 23.0181 17.0474C22.8897 17.3237 22.7695 17.606 22.6554 17.8965C22.5697 18.1138 22.4889 18.3369 22.4116 18.5637C22.3343 18.7904 22.2629 19.016 22.1939 19.2498C22.169 19.3372 22.1428 19.4245 22.1178 19.5131C22.0881 19.6584 22.0631 19.8036 22.0405 19.9477C21.9852 20.3039 21.9526 20.6632 21.943 21.0235C21.9358 21.2597 21.943 21.4958 21.9537 21.732C21.9743 22.067 22.014 22.4005 22.0726 22.731C22.1123 22.9625 22.161 23.1936 22.2189 23.4242C22.3486 23.9351 22.5176 24.4352 22.7243 24.9204C22.8171 25.1412 22.9194 25.3597 23.0276 25.5782C23.2808 26.0842 23.5648 26.5743 23.878 27.046C24.008 27.2421 24.1432 27.4389 24.2835 27.6365C24.5903 28.0592 24.9226 28.4777 25.2801 28.8918C25.4359 29.0724 25.5953 29.246 25.7558 29.4291C26.1626 29.8695 26.5967 30.3053 27.0534 30.7351C27.2246 30.8957 27.4006 31.0563 27.579 31.2169C27.9826 31.583 28.4024 31.9428 28.8385 32.2963C29.0228 32.4451 29.2084 32.5939 29.3975 32.7403C29.893 33.1276 30.4056 33.5095 30.9352 33.8858C31.1386 34.031 31.3431 34.1739 31.5501 34.3168C32.0393 34.653 32.5384 34.9844 33.0474 35.3111C33.2591 35.4469 33.4708 35.5815 33.6848 35.715C34.1867 36.0299 34.6965 36.3381 35.2143 36.6396C35.4521 36.7801 35.6959 36.9207 35.9386 37.0588C36.4626 37.3588 36.9923 37.6532 37.5274 37.9421C37.7748 38.0756 38.0222 38.209 38.2707 38.3401C38.8257 38.633 39.3843 38.9207 39.9465 39.2033L48.1424 43.007C37.7956 39.2281 24.4001 34.0653 19.2445 24.6748C17.6758 21.7332 17.1549 18.1208 18.4952 15.0009C19.3539 12.9261 20.8928 11.1843 22.6958 9.84278C33.0854 2.16697 52.846 6.90472 64.0372 11.065C52.6902 6.22334 31.9337 1.19746 21.0814 9.03859C19.1215 10.4557 17.46 12.3569 16.5181 14.603C15.0458 17.9992 15.5595 21.9576 17.2923 25.1578C21.1754 32.3612 29.3149 36.9821 36.6409 40.1161C45.3049 43.7285 56.3604 46.493 65.5084 48.5961L64.7948 48.36C63.5905 47.9514 62.3901 47.529 61.1936 47.0929ZM41.8213 8.47767C42.8774 8.41626 43.9489 8.39382 45.0324 8.40445L39.9934 16.1983L41.8213 8.47767ZM39.1026 8.7292L37.7611 15.0588L37.1926 9.03623C37.8182 8.91656 38.4548 8.81383 39.1026 8.72802V8.7292ZM34.6808 9.63848L34.9187 11.4299L34.3764 9.73059C34.4774 9.69871 34.5785 9.66683 34.6808 9.6373V9.63848ZM31.6564 10.7816L31.7647 11.0414L31.616 10.8052L31.6564 10.7816ZM25.3449 16.4924L26.4426 17.0474L25.2402 16.6813C25.2747 16.6176 25.3092 16.555 25.3449 16.4924ZM24.3138 18.8247L26.841 19.5497L24.1508 19.3313C24.2032 19.16 24.2614 18.9912 24.3138 18.8247ZM24.0046 22.5846C23.9582 22.3219 23.9253 22.0571 23.9058 21.7911L27.5819 21.9965L24.0046 22.5846ZM24.981 25.3668L30.0806 24.1989L25.7112 26.5973C25.4455 26.2006 25.2017 25.7898 24.981 25.3668ZM27.5653 28.9213L31.6576 26.3233L28.6475 30.0195C28.2686 29.655 27.9078 29.2889 27.5653 28.9213ZM32.2297 32.9847C31.7889 32.6604 31.3591 32.3317 30.9405 31.9987L33.7389 28.0321L32.2297 32.9847ZM34.9092 34.8364L36.0521 30.0254L36.2019 35.65C35.7658 35.3784 35.3349 35.1072 34.9092 34.8364ZM39.2203 37.4107L38.816 31.6928L40.6736 38.196C40.186 37.9362 39.7016 37.6729 39.2203 37.406V37.4107ZM44.0631 39.9284L41.2909 31.7306L46.6903 41.1707C45.8213 40.7692 44.9456 40.3535 44.0631 39.9237V39.9284ZM45.8173 30.7033L59.0065 41.8426L60.3707 46.7894L59.688 46.539L59.4561 46.4516L45.8173 30.7033ZM43.7789 31.6314L54.6347 44.5776C53.3539 44.0639 51.9695 43.4935 50.5186 42.8712L43.7789 31.6314Z" fill="white"/>
<path d="M58.5831 30.9843L47.9497 27.1157L61.3792 34.7384L58.5831 30.9843Z" fill="#001EBA"/>
<path d="M30.9358 32.0023C31.3528 32.3353 31.7826 32.664 32.225 32.9883L33.7342 28.0356L30.9358 32.0023Z" fill="#001EBA"/>
<path d="M24.981 25.3669C25.2017 25.7899 25.4455 26.2007 25.7112 26.5974L30.0806 24.199L24.981 25.3669Z" fill="#001EBA"/>
<path d="M34.9092 34.8363C35.3349 35.1103 35.7659 35.3815 36.2019 35.65L36.0521 30.0254L34.9092 34.8363Z" fill="#001EBA"/>
<path d="M27.5654 28.9213C27.9079 29.289 28.2687 29.6539 28.6477 30.016L31.6578 26.3198L27.5654 28.9213Z" fill="#001EBA"/>
<path d="M50.1298 16.0708L43.6101 19.7587L52.8854 17.9272L50.1298 16.0708Z" fill="#001EBA"/>
<path d="M39.2203 37.4061C39.7023 37.673 40.1868 37.9363 40.6736 38.1961L38.8159 31.6882L39.2203 37.4061Z" fill="#001EBA"/>
<path d="M59.3753 28.6297L56.301 25.4354L46.8164 24.271L59.3753 28.6297Z" fill="#001EBA"/>
<path d="M53.5264 20.687L45.438 21.9222L56.314 22.8835L53.5264 20.687Z" fill="#001EBA"/>
<path d="M44.0633 39.9237C44.9433 40.3536 45.819 40.7693 46.6904 41.1708L41.291 31.7307L44.0633 39.9237Z" fill="#001EBA"/>
<path d="M46.1397 12.0876L41.5835 18.0275L49.1177 13.3772L46.1397 12.0876Z" fill="#001EBA"/>
<path d="M45.0289 8.40317C43.949 8.39254 42.8775 8.41498 41.8178 8.47639L39.9863 16.1982L45.0289 8.40317Z" fill="#001EBA"/>
<path d="M54.6347 44.5799L43.7788 31.6338L50.5185 42.8735C51.9718 43.4959 53.3538 44.0662 54.6347 44.5799Z" fill="#001EBA"/>
<path d="M59.6881 46.5415L60.3707 46.7919L59.0066 41.8451L45.8174 30.7034L59.4562 46.4541L59.6881 46.5415Z" fill="#001EBA"/>
<path d="M23.9048 21.791C23.9242 22.057 23.9571 22.3219 24.0035 22.5846L27.5809 21.9941L23.9048 21.791Z" fill="#001EBA"/>
<path d="M39.1026 8.72803C38.4557 8.81226 37.819 8.91382 37.1926 9.0327L37.7611 15.0553L39.1026 8.72803Z" fill="#001EBA"/>
<path d="M24.3138 18.8247C24.2579 18.9912 24.2032 19.1601 24.1509 19.3313L26.8411 19.5498L24.3138 18.8247Z" fill="#001EBA"/>
<path d="M25.3449 16.4924C25.3092 16.555 25.2747 16.6176 25.2402 16.6814L26.4426 17.0475L25.3449 16.4924Z" fill="#001EBA"/>
<path d="M34.6809 9.63721C34.5786 9.66673 34.4776 9.69861 34.3765 9.72932L34.9188 11.4286L34.6809 9.63721Z" fill="#001EBA"/>
<path d="M31.6564 10.7815L31.616 10.8016L31.7646 11.0377L31.6564 10.7815Z" fill="#001EBA"/>
</svg>
