<svg width="70" height="70" viewBox="0 0 70 70" fill="none" xmlns="http://www.w3.org/2000/svg">
<g clip-path="url(#clip0_228_1213)">
<circle cx="50" cy="20" r="20" fill="#EAEFFF"/>
<path d="M12.412 46.4755L12.3957 21.1577C12.3957 16.9865 13.7658 13.0612 16.3576 9.80501C16.453 9.68512 16.5711 9.58521 16.7051 9.51097C16.8391 9.43673 16.9864 9.38963 17.1387 9.37235C17.2909 9.35507 17.4451 9.36795 17.5923 9.41026C17.7396 9.45257 17.877 9.52347 17.9969 9.61892C18.1168 9.71434 18.2167 9.83243 18.2909 9.96645C18.3651 10.1005 18.4122 10.2478 18.4295 10.4C18.4468 10.5523 18.4339 10.7064 18.3916 10.8537C18.3493 11.0009 18.2784 11.1384 18.183 11.2583C15.9234 14.0971 14.7289 17.5201 14.7289 21.1569L14.7452 46.4742C14.7461 47.7146 15.9937 48.5546 17.149 48.0944C17.4355 47.9844 17.7537 47.9918 18.0348 48.1147C18.3159 48.2377 18.5372 48.4665 18.6509 48.7514C18.7646 49.0364 18.7614 49.3547 18.6421 49.6374C18.5228 49.9201 18.297 50.1444 18.0135 50.2618C15.3323 51.3315 12.4138 49.362 12.412 46.4755ZM55.1253 21.1562L55.1091 46.4243C55.1082 47.6693 53.8489 48.5172 52.6957 48.0414C52.4102 47.9261 52.0907 47.9283 51.8068 48.0475C51.5229 48.1668 51.2977 48.3934 51.1802 48.678C51.0627 48.9626 51.0625 49.2821 51.1796 49.5669C51.2967 49.8516 51.5216 50.0786 51.8054 50.1982C54.488 51.3055 57.4404 49.3302 57.4425 46.4259L57.4586 21.1571C57.4586 16.9871 56.0887 13.0618 53.4972 9.80559C53.4018 9.68568 53.2837 9.58574 53.1497 9.51148C53.0157 9.43722 52.8684 9.39009 52.7161 9.37278C52.5639 9.35547 52.4097 9.36833 52.2625 9.41061C52.1152 9.45289 51.9777 9.52378 51.8579 9.61921C51.6158 9.81189 51.4601 10.0928 51.4252 10.4003C51.3902 10.7077 51.4788 11.0164 51.6715 11.2585C53.9309 14.0975 55.1253 17.5204 55.1253 21.1562ZM37.9137 61.3495C34.438 62.5444 30.4999 61.5297 27.7464 58.3547C28.8066 57.0504 29.4786 55.4214 29.587 53.6431C40.6074 57.2508 52.1205 49.0901 52.208 37.3421C52.2089 37.3182 52.2086 26.8565 52.2086 26.8325C52.2086 26.2157 51.839 25.7908 51.3608 25.6551C47.9339 24.6815 45.0389 22.1655 43.6621 18.6966C43.2957 17.7734 42.0054 17.7004 41.5431 18.5879C40.077 21.4015 37.8141 23.8152 34.8465 25.4668C34.8074 24.1837 34.4581 22.9292 33.8283 21.8106C33.4089 21.0646 32.3486 21.0072 31.8547 21.7145C30.8919 23.0933 28.7401 25.5811 25.1451 26.7494C23.887 27.1585 24.1842 29.0259 25.5055 29.0259C26.1631 29.0259 29.6392 27.7401 32.4275 24.7137C32.5729 25.5175 32.5409 26.3433 32.3336 27.1334C32.0905 28.0641 33.0192 28.8745 33.9091 28.5063C37.3381 27.0854 40.3207 24.7507 42.4814 21.5621C44.1973 24.4426 46.8184 26.5432 49.8754 27.6279V37.2088C49.8754 45.6166 42.9685 52.3669 34.5282 52.1517C26.5058 51.9428 19.9792 45.163 19.9792 37.0381V28.3396C19.9792 28.0302 19.8563 27.7334 19.6375 27.5146C19.4187 27.2958 19.122 27.1729 18.8125 27.1729C18.5031 27.1729 18.2064 27.2958 17.9876 27.5146C17.7688 27.7334 17.6459 28.0302 17.6459 28.3396V37.0381C17.6459 43.9011 21.5925 49.8476 27.271 52.6905V53.1349C27.271 56.4275 24.5794 59.108 21.2712 59.1102C15.3474 59.1141 10.0317 62.864 8.04381 68.4414C7.93995 68.7329 7.95612 69.0536 8.08877 69.3332C8.22141 69.6127 8.45966 69.8281 8.75111 69.932C9.35603 70.1483 10.0251 69.8328 10.2417 69.2247C11.3334 66.1622 13.6286 63.7608 16.4792 62.4766V68.833C16.4792 69.1424 16.6021 69.4391 16.8209 69.6579C17.0397 69.8767 17.3364 69.9997 17.6459 69.9997C17.9553 69.9997 18.252 69.8767 18.4708 69.6579C18.6896 69.4391 18.8125 69.1424 18.8125 68.833V61.7092C20.2995 61.3874 21.1294 61.473 21.8751 61.4189V68.833C21.8751 69.1424 21.998 69.4391 22.2168 69.6579C22.4356 69.8767 22.7323 69.9997 23.0418 69.9997C23.3512 69.9997 23.6479 69.8767 23.8667 69.6579C24.0855 69.4391 24.2084 69.1424 24.2084 68.833V60.9077C24.8546 60.6636 25.4679 60.3402 26.0343 59.9448C29.4244 63.82 34.3356 65.0467 38.6723 63.5561C38.8172 63.5063 38.9509 63.4284 39.0657 63.3269C39.1805 63.2255 39.2742 63.1024 39.3414 62.9647C39.4086 62.827 39.4481 62.6775 39.4575 62.5246C39.4669 62.3716 39.4461 62.2183 39.3963 62.0735C39.3465 61.9286 39.2687 61.7949 39.1672 61.6801C39.0657 61.5653 38.9426 61.4716 38.805 61.4044C38.6673 61.3372 38.5177 61.2977 38.3648 61.2883C38.2119 61.2789 38.0586 61.2996 37.9137 61.3495ZM21.6569 7.77207C21.8306 3.78888 25.8634 0.924977 29.7694 2.3161C32.5757 -0.775895 37.4313 -0.768166 40.2304 2.3161C45.4128 0.471868 50.1568 5.95905 47.6879 10.8015C46.8047 12.5331 44.6125 13.1292 42.9806 12.0843C38.1526 8.99285 32.1694 8.73793 27.0863 12.0827C24.7687 13.6079 21.4761 11.9176 21.6569 7.77207ZM24.4085 9.77569C24.6751 10.2858 25.3223 10.4503 25.8037 10.1334C31.6161 6.30847 38.5901 6.50214 44.2389 10.119C44.7143 10.4235 45.3529 10.244 45.6091 9.74113C47.2842 6.45766 43.6497 2.98548 40.4474 4.77035C40.1928 4.91234 39.8942 4.95384 39.6105 4.88668C39.3268 4.81953 39.0785 4.64858 38.9146 4.40751C37.0334 1.6419 32.9649 1.64365 31.085 4.40751C30.921 4.64858 30.6727 4.81953 30.389 4.88668C30.1053 4.95384 29.8068 4.91234 29.5521 4.77035C26.33 2.97366 22.6903 6.49251 24.4085 9.77569ZM61.9563 68.4413C59.9685 62.8638 54.6528 59.114 48.729 59.11C46.6429 59.1086 44.7385 58.0561 43.6342 56.2945C43.5529 56.1647 43.4467 56.0522 43.3219 55.9634C43.197 55.8746 43.0559 55.8112 42.9066 55.777C42.7572 55.7427 42.6026 55.7382 42.4515 55.7638C42.3005 55.7893 42.1559 55.8443 42.0261 55.9257C41.764 56.0901 41.5778 56.3518 41.5087 56.6534C41.4395 56.955 41.493 57.2717 41.6573 57.5338C42.6487 59.1156 44.1045 60.2847 45.7919 60.9146V68.8328C45.7919 69.1423 45.9148 69.439 46.1336 69.6578C46.3524 69.8766 46.6491 69.9995 46.9585 69.9995C47.268 69.9995 47.5647 69.8766 47.7835 69.6578C48.0023 69.439 48.1252 69.1423 48.1252 68.8328V61.4209C48.8366 61.4717 49.6909 61.3852 51.1877 61.7092V68.833C51.1877 69.1424 51.3107 69.4391 51.5295 69.6579C51.7482 69.8767 52.045 69.9997 52.3544 69.9997C52.6638 69.9997 52.9606 69.8767 53.1794 69.6579C53.3982 69.4391 53.5211 69.1424 53.5211 68.833V62.4766C56.3717 63.7608 58.667 66.1622 59.7586 69.2247C59.8087 69.3707 59.8873 69.5054 59.9898 69.6208C60.0923 69.7362 60.2167 69.8302 60.3558 69.8972C60.4949 69.9642 60.6459 70.0029 60.8 70.0112C60.9542 70.0194 61.1085 69.9969 61.2539 69.9451C61.3993 69.8932 61.533 69.8131 61.6472 69.7092C61.7614 69.6053 61.8539 69.4798 61.9192 69.3399C61.9846 69.2 62.0215 69.0486 62.0278 68.8943C62.0342 68.74 62.0099 68.5861 61.9563 68.4413Z" fill="#7CB8EB"/>
<path d="M63.7386 23.6948C64.0686 23.6948 63.9327 23.7101 67.8794 22.0753C68.0209 22.0167 68.1495 21.9307 68.2579 21.8224C68.3662 21.714 68.4521 21.5854 68.5108 21.4439C68.5694 21.3023 68.5995 21.1506 68.5995 20.9974C68.5995 20.8442 68.5693 20.6925 68.5107 20.5509C68.3923 20.2651 68.1652 20.0379 67.8793 19.9195C67.5935 19.8011 67.2723 19.8011 66.9864 19.9195L63.2918 21.4498C63.1502 21.5085 63.0216 21.5944 62.9133 21.7027C62.805 21.8111 62.719 21.9397 62.6604 22.0813C62.6018 22.2228 62.5716 22.3745 62.5716 22.5277C62.5717 22.681 62.6018 22.8327 62.6605 22.9742C62.7487 23.1875 62.8983 23.3698 63.0902 23.4981C63.2821 23.6264 63.5078 23.6948 63.7386 23.6948ZM67.8794 47.9478L64.1847 46.4174C64.0432 46.3588 63.8915 46.3286 63.7382 46.3286C63.585 46.3286 63.4333 46.3588 63.2918 46.4175C63.1502 46.4761 63.0216 46.562 62.9132 46.6704C62.8049 46.7787 62.719 46.9073 62.6603 47.0489C62.6017 47.1905 62.5715 47.3422 62.5715 47.4954C62.5715 47.6486 62.6017 47.8003 62.6604 47.9419C62.719 48.0834 62.8049 48.212 62.9133 48.3204C63.0216 48.4287 63.1502 48.5147 63.2918 48.5733L66.9864 50.1036C67.2723 50.222 67.5935 50.222 67.8793 50.1036C68.1652 49.9852 68.3923 49.758 68.5107 49.4722C68.5693 49.3306 68.5995 49.1789 68.5995 49.0257C68.5995 48.8725 68.5694 48.7208 68.5108 48.5792C68.4521 48.4377 68.3662 48.3091 68.2579 48.2007C68.1495 48.0924 68.0209 48.0064 67.8794 47.9478Z" fill="#FCB428"/>
<path d="M63.7387 34.65H68.8333C69.1428 34.65 69.4395 34.7729 69.6583 34.9917C69.8771 35.2105 70 35.5073 70 35.8167C70 36.1261 69.8771 36.4228 69.6583 36.6416C69.4395 36.8604 69.1428 36.9834 68.8333 36.9834H63.7387C63.4292 36.9834 63.1325 36.8604 62.9137 36.6416C62.6949 36.4228 62.572 36.1261 62.572 35.8167C62.572 35.5073 62.6949 35.2105 62.9137 34.9917C63.1325 34.7729 63.4292 34.65 63.7387 34.65Z" fill="#FCB428"/>
<path d="M6.5329 23.6948C6.20289 23.6948 6.33881 23.7101 2.39215 22.0753C2.25061 22.0167 2.122 21.9307 2.01367 21.8224C1.90534 21.714 1.8194 21.5854 1.76078 21.4439C1.70216 21.3023 1.67199 21.1506 1.672 20.9974C1.67201 20.8442 1.7022 20.6925 1.76084 20.5509C1.87924 20.2651 2.10634 20.0379 2.39219 19.9195C2.67804 19.8011 2.99922 19.8011 3.28508 19.9195L6.97974 21.4498C7.12129 21.5085 7.2499 21.5944 7.35823 21.7027C7.46656 21.8111 7.55249 21.9397 7.61111 22.0813C7.66974 22.2228 7.6999 22.3745 7.69989 22.5277C7.69988 22.681 7.66969 22.8327 7.61104 22.9742C7.5228 23.1875 7.37325 23.3698 7.18133 23.4981C6.98941 23.6264 6.76374 23.6948 6.5329 23.6948ZM2.39215 47.9478L6.08681 46.4174C6.22836 46.3588 6.38008 46.3286 6.53329 46.3286C6.68651 46.3286 6.83823 46.3588 6.97978 46.4175C7.12133 46.4761 7.24995 46.562 7.35829 46.6704C7.46662 46.7787 7.55256 46.9073 7.61119 47.0489C7.66982 47.1905 7.7 47.3422 7.7 47.4954C7.69999 47.6486 7.66981 47.8003 7.61117 47.9419C7.55254 48.0834 7.4666 48.212 7.35825 48.3204C7.24991 48.4287 7.12129 48.5147 6.97974 48.5733L3.28508 50.1036C2.99922 50.222 2.67804 50.222 2.39219 50.1036C2.10634 49.9852 1.87924 49.758 1.76084 49.4722C1.7022 49.3306 1.67201 49.1789 1.672 49.0257C1.67199 48.8725 1.70216 48.7208 1.76078 48.5792C1.8194 48.4377 1.90534 48.3091 2.01367 48.2007C2.122 48.0924 2.25061 48.0064 2.39215 47.9478Z" fill="#FCB428"/>
<path d="M6.53288 34.65H1.43819C1.12877 34.65 0.832026 34.7729 0.613234 34.9917C0.394441 35.2105 0.271523 35.5073 0.271523 35.8167C0.271523 36.1261 0.394441 36.4228 0.613234 36.6416C0.832026 36.8604 1.12877 36.9834 1.43819 36.9834H6.53288C6.8423 36.9834 7.13904 36.8604 7.35784 36.6416C7.57663 36.4228 7.69954 36.1261 7.69954 35.8167C7.69954 35.5073 7.57663 35.2105 7.35784 34.9917C7.13904 34.7729 6.8423 34.65 6.53288 34.65Z" fill="#FCB428"/>
</g>
<defs>
<clipPath id="clip0_228_1213">
<rect width="70" height="70" fill="white"/>
</clipPath>
</defs>
</svg>
