<svg width="70" height="70" viewBox="0 0 70 70" fill="none" xmlns="http://www.w3.org/2000/svg">
<g clip-path="url(#clip0_228_1758)">
<circle cx="20" cy="50" r="20" fill="#EAEFFF"/>
<path d="M45.4229 63.3032C45.3756 63.1574 45.3 63.0224 45.2005 62.9059C45.101 62.7894 44.9795 62.6936 44.843 62.624C44.7065 62.5545 44.5576 62.5125 44.4048 62.5005C44.252 62.4885 44.0984 62.5068 43.9527 62.5542C43.807 62.6015 43.672 62.6771 43.5555 62.7766C43.439 62.8761 43.3433 62.9976 43.2737 63.1341C43.2042 63.2706 43.1622 63.4195 43.1502 63.5723C43.1382 63.725 43.1564 63.8786 43.2037 64.0243L44.3454 67.5382C44.4216 67.7725 44.5699 67.9767 44.7692 68.1216C44.9684 68.2664 45.2084 68.3445 45.4548 68.3446C46.2454 68.3446 46.8097 67.5717 46.5646 66.8172L45.4229 63.3032ZM24.5771 6.69694C24.6728 6.99122 24.8814 7.23545 25.1571 7.37592C25.4328 7.51638 25.753 7.54157 26.0473 7.44594C26.3416 7.35031 26.5858 7.1417 26.7263 6.86599C26.8667 6.59028 26.8919 6.27007 26.7963 5.97579L25.6546 2.46194C25.6072 2.31621 25.5317 2.18122 25.4322 2.0647C25.3327 1.94818 25.2112 1.8524 25.0747 1.78285C24.9381 1.71329 24.7892 1.67132 24.6365 1.65932C24.4837 1.64733 24.3301 1.66555 24.1844 1.71294C24.0387 1.76029 23.9037 1.83587 23.7872 1.93538C23.6707 2.03489 23.575 2.15637 23.5054 2.29289C23.4359 2.4294 23.3939 2.57828 23.3819 2.73102C23.3699 2.88376 23.3881 3.03737 23.4354 3.18309L24.5771 6.69694ZM63.7016 52.9522L60.6385 50.8862C60.382 50.7132 60.0672 50.6491 59.7635 50.7082C59.4598 50.7672 59.1919 50.9445 59.0189 51.201C58.8459 51.4576 58.7818 51.7723 58.8409 52.0761C58.8999 52.3798 59.0772 52.6477 59.3337 52.8207L62.3968 54.8867C62.6534 55.0597 62.9681 55.1238 63.2719 55.0647C63.5756 55.0057 63.8434 54.8284 64.0165 54.5718C64.1895 54.3153 64.2535 54.0006 64.1945 53.6968C64.1354 53.3931 63.9581 53.1252 63.7016 52.9522ZM6.2984 17.0479L9.36148 19.1139C9.55375 19.2441 9.7806 19.3136 10.0128 19.3136C11.1589 19.3136 11.6197 17.8227 10.6662 17.1796L7.60317 15.1136C7.34662 14.9436 7.0333 14.8819 6.73145 14.9418C6.4296 15.0018 6.16367 15.1786 5.99158 15.4337C5.81948 15.6889 5.75516 16.0016 5.81263 16.304C5.8701 16.6063 6.04469 16.8737 6.2984 17.0479ZM43.9529 7.44609C44.2471 7.54164 44.5673 7.51642 44.843 7.37596C45.1187 7.23551 45.3273 6.99132 45.423 6.69709L46.5647 3.18323C46.6121 3.03752 46.6303 2.88391 46.6183 2.73117C46.6062 2.57843 46.5643 2.42955 46.4947 2.29303C46.4252 2.15652 46.3294 2.03503 46.2129 1.93553C46.0964 1.83602 45.9614 1.76043 45.8157 1.71309C45.2029 1.51359 44.5448 1.84929 44.3456 2.46209L43.2039 5.97594C43.1565 6.12165 43.1383 6.27526 43.1503 6.428C43.1623 6.58075 43.2043 6.72962 43.2739 6.86614C43.3434 7.00266 43.4392 7.12414 43.5557 7.22364C43.6722 7.32315 43.8071 7.39874 43.9529 7.44609ZM26.0471 62.554C25.9014 62.5066 25.7478 62.4884 25.5951 62.5004C25.4423 62.5124 25.2934 62.5544 25.1569 62.6239C25.0204 62.6935 24.8989 62.7893 24.7994 62.9058C24.6999 63.0223 24.6243 63.1573 24.577 63.303L23.4353 66.8169C23.19 67.5717 23.7549 68.3443 24.5451 68.3443C24.7914 68.3442 25.0314 68.2661 25.2307 68.1212C25.4299 67.9764 25.5783 67.7722 25.6544 67.5379L26.7961 64.024C26.8435 63.8783 26.8617 63.7247 26.8497 63.572C26.8377 63.4193 26.7957 63.2704 26.7261 63.1339C26.6566 62.9974 26.5608 62.8759 26.4443 62.7764C26.3278 62.6769 26.1929 62.6014 26.0471 62.554ZM59.9871 19.3136C60.2193 19.3137 60.4461 19.2441 60.6384 19.1139L63.7015 17.0479C63.958 16.8749 64.1353 16.607 64.1943 16.3033C64.2534 15.9996 64.1893 15.6848 64.0163 15.4283C63.8433 15.1717 63.5754 14.9945 63.2717 14.9354C62.968 14.8764 62.6532 14.9404 62.3967 15.1134L59.3336 17.1794C58.3804 17.8226 58.8405 19.3136 59.9871 19.3136ZM9.36148 50.8862L6.2984 52.9522C6.04187 53.1252 5.86458 53.3931 5.80553 53.6968C5.74649 54.0006 5.81052 54.3153 5.98354 54.5718C6.15656 54.8284 6.42441 55.0057 6.72815 55.0647C7.03188 55.1238 7.34664 55.0597 7.60317 54.8867L10.6662 52.8207C10.9228 52.6477 11.1001 52.3798 11.1591 52.0761C11.2182 51.7723 11.1541 51.4576 10.9811 51.201C10.8081 50.9445 10.5402 50.7672 10.2365 50.7082C9.93276 50.6491 9.61801 50.7132 9.36148 50.8862ZM4.86135 33.8335H1.16667C0.857247 33.8335 0.560501 33.9564 0.341709 34.1752C0.122916 34.394 0 34.6907 0 35.0001C0 35.3096 0.122916 35.6063 0.341709 35.8251C0.560501 36.0439 0.857247 36.1668 1.16667 36.1668H4.86135C5.17077 36.1668 5.46752 36.0439 5.68631 35.8251C5.9051 35.6063 6.02802 35.3096 6.02802 35.0001C6.02802 34.6907 5.9051 34.394 5.68631 34.1752C5.46752 33.9564 5.17077 33.8335 4.86135 33.8335ZM68.8333 33.8335H65.1386C64.8292 33.8335 64.5325 33.9564 64.3137 34.1752C64.0949 34.394 63.972 34.6907 63.972 35.0001C63.972 35.3096 64.0949 35.6063 64.3137 35.8251C64.5325 36.0439 64.8292 36.1668 65.1386 36.1668H68.8333C69.1427 36.1668 69.4395 36.0439 69.6583 35.8251C69.8771 35.6063 70 35.3096 70 35.0001C70 34.6907 69.8771 34.394 69.6583 34.1752C69.4395 33.9564 69.1427 33.8335 68.8333 33.8335Z" fill="#FCB428"/>
<path d="M52.9003 47.9984L58.8376 47.1357C62.6644 46.5794 64.1917 41.8737 61.424 39.1758L60.2449 38.0265C60.1352 37.9195 60.0055 37.8352 59.8632 37.7783C59.7209 37.7215 59.5688 37.6933 59.4156 37.6952C59.2624 37.6972 59.1111 37.7293 58.9703 37.7898C58.8295 37.8502 58.702 37.9379 58.5951 38.0476C58.4882 38.1573 58.4039 38.287 58.3471 38.4293C58.2902 38.5716 58.262 38.7237 58.264 38.8769C58.2659 39.0301 58.2981 39.1814 58.3585 39.3222C58.4189 39.463 58.5065 39.5905 58.6162 39.6974L59.7953 40.8467C61.1819 42.1985 60.4214 44.5478 58.5021 44.8267L52.5057 45.698L52.3693 44.903C52.3435 44.7519 52.2882 44.6074 52.2065 44.4778C52.1248 44.3482 52.0183 44.2359 51.8932 44.1474C51.7681 44.059 51.6268 43.996 51.4774 43.9622C51.3279 43.9284 51.1733 43.9244 51.0223 43.9504C50.7173 44.0027 50.4456 44.174 50.267 44.4266C50.0884 44.6792 50.0174 44.9925 50.0697 45.2974L51.6176 54.3222C51.9449 56.2307 49.9489 57.6842 48.232 56.782L35.5431 50.111C35.3757 50.0229 35.1894 49.9769 35.0002 49.9769C34.8111 49.9769 34.6247 50.0229 34.4573 50.111L21.7684 56.782C20.0544 57.6829 18.055 56.2338 18.3829 54.3222L20.8062 40.1927C20.8382 40.0062 20.8243 39.8148 20.7659 39.6349C20.7074 39.455 20.6061 39.2921 20.4706 39.16L10.2047 29.1535C8.8181 27.8018 9.57862 25.4524 11.4979 25.1736L25.6847 23.1121C25.8719 23.0849 26.0497 23.0126 26.2027 22.9014C26.3557 22.7902 26.4794 22.6435 26.5631 22.4739L32.9076 9.61857C33.7646 7.88214 36.234 7.87951 37.0923 9.61857L43.4367 22.4739C43.5204 22.6435 43.6441 22.7903 43.7971 22.9014C43.9502 23.0126 44.1279 23.0849 44.3151 23.1121L58.5019 25.1736C60.4177 25.452 61.1839 27.7996 59.7952 29.1535L49.5295 39.16C49.4198 39.267 49.3322 39.3945 49.2718 39.5353C49.2113 39.676 49.1792 39.8274 49.1772 39.9806C49.1753 40.1338 49.2035 40.2858 49.2603 40.4281C49.3171 40.5704 49.4014 40.7001 49.5084 40.8098C49.6153 40.9196 49.7428 41.0072 49.8836 41.0677C50.0244 41.1281 50.1757 41.1603 50.3289 41.1622C50.4821 41.1642 50.6342 41.136 50.7765 41.0791C50.9188 41.0223 51.0485 40.938 51.1582 40.831L61.4238 30.8245C64.1929 28.1253 62.6625 23.4205 58.8375 22.8646L45.2576 20.8913L42.8636 16.0406L48.2316 13.2185C49.9416 12.3191 51.9455 13.7639 51.6171 15.6782L51.2629 17.7435C51.141 18.4539 51.6874 19.1077 52.4141 19.1077C52.6891 19.1073 52.9551 19.0098 53.1652 18.8324C53.3754 18.655 53.5161 18.4091 53.5625 18.138L53.9168 16.0729C54.5704 12.2617 50.567 9.35447 47.1457 11.1533L41.8308 13.9473L39.1847 8.58578C37.4733 5.11816 32.5258 5.11991 30.8152 8.58578L24.7421 20.8912L19.4094 21.666L18.3824 15.6779C18.0552 13.7697 20.0512 12.3155 21.768 13.2182L23.4942 14.1258C24.0644 14.4258 24.7699 14.2065 25.0698 13.6361C25.1411 13.5005 25.185 13.3522 25.1989 13.1996C25.2129 13.0471 25.1967 12.8932 25.1512 12.7469C25.1058 12.6006 25.0319 12.4647 24.9339 12.3469C24.8359 12.2292 24.7157 12.1318 24.5801 12.0606L22.8538 11.1529C19.4311 9.35345 15.4293 12.2628 16.0828 16.0724L17.0997 22.0016L11.1624 22.8643C7.33556 23.4205 5.80824 28.1263 8.57601 30.8242L12.8599 35L8.57601 39.1758C5.80693 41.8749 7.33731 46.5797 11.1624 47.1357L12.5828 47.342C12.889 47.3865 13.2003 47.3075 13.4483 47.1224C13.6963 46.9374 13.8606 46.6614 13.9051 46.3552C13.9495 46.049 13.8706 45.7376 13.6855 45.4896C13.5004 45.2417 13.2244 45.0774 12.9182 45.0329L11.4978 44.8265C9.58153 44.5481 8.81591 42.2004 10.2045 40.8466L14.5311 36.6292L18.4023 40.4027L16.0826 53.9276C15.429 57.7389 19.4324 60.6458 22.8537 58.8471L28.169 56.0526L30.8152 61.4142C32.5265 64.8818 37.4741 64.8801 39.1847 61.4142L40.2911 59.1722C40.3589 59.0348 40.399 58.8854 40.4091 58.7325C40.4192 58.5796 40.399 58.4263 40.3498 58.2812C40.3006 58.1361 40.2233 58.0021 40.1224 57.8869C40.0214 57.7717 39.8987 57.6775 39.7613 57.6097C39.6239 57.5419 39.4745 57.5018 39.3217 57.4917C39.1688 57.4816 39.0154 57.5017 38.8703 57.5509C38.7252 57.6001 38.5912 57.6774 38.476 57.7784C38.3608 57.8794 38.2666 58.0021 38.1988 58.1395L37.0924 60.3816C36.2353 62.118 33.7659 62.1206 32.9077 60.3816L30.2352 54.9665L35 52.4615L47.1462 58.8471C50.5689 60.6467 54.5707 57.7372 53.9172 53.9276L52.9003 47.9984Z" fill="#7CB8EB"/>
</g>
<defs>
<clipPath id="clip0_228_1758">
<rect width="70" height="70" fill="white"/>
</clipPath>
</defs>
</svg>
