<svg width="100" height="100" viewBox="0 0 100 100" fill="none" xmlns="http://www.w3.org/2000/svg">
<g clip-path="url(#clip0_228_157)">
<ellipse cx="19.9902" cy="20" rx="19.9902" ry="20" fill="#EAEFFF"/>
<mask id="mask0_228_157" style="mask-type:luminance" maskUnits="userSpaceOnUse" x="-1" y="0" width="101" height="100">
<path d="M99.8985 0H-0.0527344V100H99.8985V0Z" fill="white"/>
</mask>
<g mask="url(#mask0_228_157)">
<path d="M16.736 22.1016C16.2182 22.1016 15.7217 21.8958 15.3556 21.5295C14.9895 21.1632 14.7838 20.6664 14.7838 20.1484V1.95312C14.7838 1.43512 14.9895 0.938339 15.3556 0.572057C15.7217 0.205775 16.2182 0 16.736 0L97.9463 0C98.4641 0 98.9606 0.205775 99.3267 0.572057C99.6928 0.938339 99.8985 1.43512 99.8985 1.95312V9.65234C99.8985 10.1703 99.6928 10.6671 99.3267 11.0334C98.9606 11.3997 98.4641 11.6055 97.9463 11.6055C97.4286 11.6055 96.932 11.3997 96.5659 11.0334C96.1998 10.6671 95.9941 10.1703 95.9941 9.65234V3.90625H18.6881V20.1484C18.6881 20.4049 18.6376 20.6589 18.5395 20.8959C18.4414 21.1328 18.2976 21.3481 18.1164 21.5295C17.9351 21.7109 17.7199 21.8547 17.483 21.9529C17.2462 22.051 16.9923 22.1016 16.736 22.1016Z" fill="#7CB8EB"/>
<path d="M97.9463 85.1562H38.9263C38.4086 85.1562 37.912 84.9505 37.5459 84.5842C37.1798 84.2179 36.9741 83.7211 36.9741 83.2031C36.9741 82.6851 37.1798 82.1883 37.5459 81.822C37.912 81.4558 38.4086 81.25 38.9263 81.25H95.9941V27.2305C95.9941 26.7125 96.1998 26.2157 96.5659 25.8494C96.932 25.4831 97.4286 25.2773 97.9463 25.2773C98.4641 25.2773 98.9606 25.4831 99.3267 25.8494C99.6928 26.2157 99.8985 26.7125 99.8985 27.2305V83.2031C99.8985 83.7211 99.6928 84.2179 99.3267 84.5842C98.9606 84.9505 98.4641 85.1562 97.9463 85.1562Z" fill="#7CB8EB"/>
</g>
<path d="M38.5827 23.3242C38.1304 23.327 37.6912 23.1726 37.34 22.8874C36.9889 22.6022 36.7476 22.2038 36.6575 21.7603C36.5674 21.3168 36.634 20.8558 36.8459 20.456C37.0578 20.0562 37.4019 19.7425 37.8194 19.5684L43.6759 17.123C44.1536 16.9231 44.691 16.9212 45.1701 17.1177C45.6491 17.3142 46.0305 17.693 46.2304 18.1709C46.4302 18.6488 46.4321 19.1865 46.2357 19.6658C46.0393 20.145 45.6606 20.5266 45.183 20.7266L39.3421 23.1719C39.1018 23.2733 38.8435 23.3251 38.5827 23.3242Z" fill="#FCB428"/>
<path d="M42.6647 32.6543C42.4061 32.6539 42.1501 32.6028 41.9112 32.504L37.8194 30.795C37.3415 30.595 36.9626 30.2133 36.766 29.7339C36.5694 29.2544 36.5712 28.7164 36.7711 28.2383C36.9709 27.7602 37.3524 27.3811 37.8317 27.1844C38.3109 26.9877 38.8486 26.9896 39.3265 27.1895L43.4182 28.9063C43.8337 29.0809 44.176 29.3939 44.3871 29.7922C44.5982 30.1905 44.6651 30.6496 44.5763 31.0916C44.4876 31.5337 44.2488 31.9314 43.9003 32.2173C43.5519 32.5032 43.1153 32.6597 42.6647 32.6602V32.6543Z" fill="#FCB428"/>
<mask id="mask1_228_157" style="mask-type:luminance" maskUnits="userSpaceOnUse" x="-1" y="0" width="101" height="100">
<path d="M99.8985 0H-0.0527344V100H99.8985V0Z" fill="white"/>
</mask>
<g mask="url(#mask1_228_157)">
<path d="M33.0542 48.6211C32.9956 48.6211 32.937 48.6211 32.8785 48.6211C29.2128 48.2855 25.7789 46.6809 23.1689 44.0838C20.5589 41.4868 18.9363 38.0602 18.5808 34.3945C18.5316 33.8789 18.6892 33.3648 19.0188 32.9653C19.3485 32.5659 19.8233 32.3139 20.3387 32.2646C20.8541 32.2154 21.368 32.3731 21.7672 32.7029C22.1664 33.0328 22.4184 33.5078 22.4675 34.0234C22.6477 35.8886 23.2657 37.6849 24.2712 39.2659C25.2767 40.8468 26.6413 42.1678 28.2538 43.1211C27.3766 41.1154 26.9259 38.9491 26.9302 36.7598V31.0547C26.9302 30.5367 27.1359 30.0399 27.502 29.6736C27.8681 29.3073 28.3646 29.1016 28.8824 29.1016C29.4001 29.1016 29.8967 29.3073 30.2628 29.6736C30.6289 30.0399 30.8345 30.5367 30.8345 31.0547V36.7539C30.8294 38.3406 31.1436 39.9121 31.7584 41.3748C32.3731 42.8375 33.2759 44.1614 34.4129 45.2676C34.6897 45.5392 34.8794 45.8871 34.9579 46.2669C35.0363 46.6468 34.9999 47.0415 34.8533 47.4006C34.7068 47.7597 34.4566 48.067 34.1348 48.2833C33.813 48.4996 33.4341 48.6152 33.0464 48.6152L33.0542 48.6211Z" fill="#7CB8EB"/>
<path d="M1.89944 38.8203C1.38169 38.8203 0.885147 38.6145 0.519044 38.2483C0.15294 37.882 -0.0527344 37.3852 -0.0527344 36.8672C-0.0470511 31.9604 1.90375 27.2561 5.37171 23.7865C8.83967 20.3168 13.5416 18.3651 18.446 18.3594H36.7281C37.7371 18.3609 38.7042 18.7627 39.4175 19.4767C40.1308 20.1907 40.5319 21.1585 40.5329 22.168V28.1953C40.5319 29.2046 40.1307 30.1722 39.4174 30.8859C38.7041 31.5995 37.7369 32.0009 36.7281 32.002H26.0205L21.8116 35.6914C21.4556 36.0036 20.9984 36.1757 20.5251 36.1758H10.6335C7.91027 36.173 5.24757 36.9792 2.98289 38.4922C2.66206 38.7062 2.28505 38.8204 1.89944 38.8203ZM18.446 22.2656C15.169 22.2698 11.9884 23.3753 9.41472 25.4048C6.84101 27.4344 5.02345 30.2701 4.25376 33.457C6.28869 32.6701 8.45181 32.2675 10.6335 32.2695H19.7911L24 28.5801C24.3559 28.2679 24.8131 28.0958 25.2865 28.0957H36.6286V22.2656H18.446Z" fill="#7CB8EB"/>
<path d="M30.0361 32.002C29.7797 32.002 29.5259 31.9514 29.289 31.8533C29.0522 31.7551 28.837 31.6113 28.6557 31.4299C28.4744 31.2485 28.3306 31.0332 28.2325 30.7963C28.1344 30.5593 28.0839 30.3053 28.0839 30.0488V20.3125C28.0839 19.7945 28.2896 19.2977 28.6557 18.9314C29.0218 18.5652 29.5184 18.3594 30.0361 18.3594C30.5539 18.3594 31.0504 18.5652 31.4165 18.9314C31.7826 19.2977 31.9883 19.7945 31.9883 20.3125V30.0488C31.9883 30.3053 31.9378 30.5593 31.8397 30.7963C31.7416 31.0332 31.5978 31.2485 31.4165 31.4299C31.2352 31.6113 31.02 31.7551 30.7832 31.8533C30.5463 31.9514 30.2925 32.002 30.0361 32.002Z" fill="#7CB8EB"/>
<path d="M20.5251 44.4629H10.2723C9.75458 44.4629 9.25804 44.2571 8.89194 43.8908C8.52583 43.5246 8.32016 43.0278 8.32016 42.5098V34.2227C8.32016 33.7047 8.52583 33.2079 8.89194 32.8416C9.25804 32.4753 9.75458 32.2695 10.2723 32.2695H20.5251C21.0429 32.2695 21.5394 32.4753 21.9055 32.8416C22.2716 33.2079 22.4773 33.7047 22.4773 34.2227V42.5098C22.4773 43.0278 22.2716 43.5246 21.9055 43.8908C21.5394 44.2571 21.0429 44.4629 20.5251 44.4629ZM12.2245 40.5566H18.573V36.1758H12.2245V40.5566Z" fill="#7CB8EB"/>
<path d="M19.5764 100H13.0268C10.2977 99.9969 7.68125 98.9108 5.75145 96.9801C3.82166 95.0494 2.73615 92.4316 2.73305 89.7011V71.6797C2.72702 61.4611 4.67035 51.3353 8.45877 41.8457C8.65305 41.3683 9.02804 40.9872 9.50202 40.7853C9.97599 40.5834 10.5105 40.5771 10.9891 40.7678C11.4677 40.9585 11.8515 41.3307 12.057 41.8034C12.2624 42.276 12.2728 42.8107 12.0859 43.291C8.48423 52.3216 6.63765 61.9567 6.6452 71.6797V89.6992C6.64623 91.3931 7.3186 93.0175 8.51489 94.2162C9.71118 95.4149 11.3338 96.0901 13.0268 96.0937H19.5686C20.0863 96.0937 20.5829 96.2995 20.949 96.6658C21.3151 97.0321 21.5207 97.5289 21.5207 98.0469C21.5207 98.5649 21.3151 99.0616 20.949 99.4279C20.5829 99.7942 20.0863 100 19.5686 100H19.5764Z" fill="#7CB8EB"/>
<path d="M62.5769 26.9531H51.551C51.0333 26.9531 50.5367 26.7474 50.1706 26.3811C49.8045 26.0148 49.5988 25.518 49.5988 25C49.5988 24.482 49.8045 23.9852 50.1706 23.6189C50.5367 23.2527 51.0333 23.0469 51.551 23.0469H62.5769C63.0946 23.0469 63.5912 23.2527 63.9573 23.6189C64.3234 23.9852 64.529 24.482 64.529 25C64.529 25.518 64.3234 26.0148 63.9573 26.3811C63.5912 26.7474 63.0946 26.9531 62.5769 26.9531Z" fill="#FCB428"/>
<path d="M57.3411 85.1562C56.8234 85.1562 56.3269 84.9505 55.9608 84.5842C55.5947 84.2179 55.389 83.7211 55.389 83.2031V36.8672C55.389 36.3492 55.5947 35.8524 55.9608 35.4861C56.3269 35.1198 56.8234 34.9141 57.3411 34.9141C57.8589 34.9141 58.3554 35.1198 58.7215 35.4861C59.0876 35.8524 59.2933 36.3492 59.2933 36.8672V83.2031C59.2933 83.7211 59.0876 84.2179 58.7215 84.5842C58.3554 84.9505 57.8589 85.1562 57.3411 85.1562Z" fill="#7CB8EB"/>
<path d="M57.3411 14.4531C56.8234 14.4531 56.3269 14.2474 55.9608 13.8811C55.5947 13.5148 55.389 13.018 55.389 12.5V2.01367C55.389 1.49567 55.5947 0.998886 55.9608 0.632604C56.3269 0.266322 56.8234 0.0605469 57.3411 0.0605469C57.8589 0.0605469 58.3554 0.266322 58.7215 0.632604C59.0876 0.998886 59.2933 1.49567 59.2933 2.01367V12.5C59.2933 13.018 59.0876 13.5148 58.7215 13.8811C58.3554 14.2474 57.8589 14.4531 57.3411 14.4531Z" fill="#7CB8EB"/>
<path d="M30.2391 100H16.6813C16.1636 100 15.667 99.7942 15.3009 99.4279C14.9348 99.0617 14.7291 98.5649 14.7291 98.0469C14.7291 97.5289 14.9348 97.0321 15.3009 96.6658C15.667 96.2995 16.1636 96.0938 16.6813 96.0938H30.2391C31.9333 96.0922 33.5575 95.4182 34.7555 94.2197C35.9534 93.0212 36.6271 91.3961 36.6286 89.7012V72.709C36.6275 70.3247 35.8842 68 34.502 66.0577C33.1197 64.1155 31.1672 62.6522 28.9156 61.8711C25.8958 60.8251 23.2768 58.8639 21.4225 56.26C19.5683 53.6561 18.5709 50.539 18.5691 47.3418V42.5781C18.5691 42.0601 18.7747 41.5633 19.1408 41.1971C19.5069 40.8308 20.0035 40.625 20.5212 40.625C21.039 40.625 21.5355 40.8308 21.9016 41.1971C22.2677 41.5633 22.4734 42.0601 22.4734 42.5781V47.3477C22.4744 49.7322 23.2178 52.0573 24.6005 53.9996C25.9831 55.9419 27.9363 57.405 30.1884 58.1855C33.2083 59.2313 35.8275 61.1924 37.6818 63.7964C39.5361 66.4003 40.5333 69.5176 40.5349 72.7148V89.707C40.5308 92.437 39.4445 95.0538 37.5143 96.9835C35.5841 98.9131 32.9678 99.9979 30.2391 100Z" fill="#7CB8EB"/>
<path d="M85.1518 57.332C84.7657 57.3319 84.3884 57.2173 84.0674 57.0027C83.7465 56.7881 83.4963 56.4831 83.3486 56.1263C83.2009 55.7694 83.1622 55.3768 83.2375 54.998C83.3128 54.6192 83.4987 54.2712 83.7716 53.998L96.5661 41.1973C96.9343 40.8415 97.4274 40.6446 97.9393 40.6491C98.4511 40.6535 98.9408 40.8589 99.3027 41.221C99.6647 41.5832 99.87 42.073 99.8744 42.5851C99.8789 43.0972 99.6821 43.5906 99.3265 43.959L86.532 56.7598C86.1659 57.1261 85.6695 57.3319 85.1518 57.332Z" fill="#7CB8EB"/>
<path d="M57.3411 85.1562C56.9551 85.1561 56.5777 85.0416 56.2568 84.8269C55.9358 84.6123 55.6857 84.3073 55.538 83.9505C55.3902 83.5936 55.3516 83.201 55.4269 82.8222C55.5022 82.4434 55.688 82.0954 55.9609 81.8222L75.5725 62.2012C75.9406 61.8454 76.4338 61.6485 76.9456 61.653C77.4575 61.6574 77.9471 61.8628 78.309 62.225C78.671 62.5871 78.8763 63.0769 78.8808 63.589C78.8852 64.1011 78.6884 64.5945 78.3328 64.9629L58.7213 84.584C58.3553 84.9503 57.8588 85.1561 57.3411 85.1562Z" fill="#7CB8EB"/>
<path d="M73.999 85.1563C73.613 85.1562 73.2356 85.0416 72.9147 84.827C72.5937 84.6123 72.3436 84.3073 72.1959 83.9505C72.0481 83.5937 72.0095 83.201 72.0848 82.8222C72.1601 82.4434 72.3459 82.0954 72.6188 81.8223L96.2089 58.2207C96.389 58.0342 96.6044 57.8854 96.8425 57.783C97.0807 57.6807 97.3369 57.6268 97.5961 57.6245C97.8553 57.6223 98.1124 57.6717 98.3523 57.7699C98.5922 57.8681 98.8102 58.0131 98.9935 58.1965C99.1767 58.3799 99.3217 58.598 99.4199 58.838C99.518 59.078 99.5674 59.3352 99.5652 59.5945C99.5629 59.8539 99.5091 60.1102 99.4067 60.3485C99.3044 60.5867 99.1557 60.8023 98.9693 60.9824L75.3792 84.584C75.0132 84.9503 74.5167 85.1561 73.999 85.1563Z" fill="#7CB8EB"/>
<path d="M79.4651 29.6738C78.9474 29.6738 78.4508 29.4681 78.0847 29.1018C77.7186 28.7355 77.5129 28.2387 77.5129 27.7207V25.1816C77.5129 24.6636 77.7186 24.1669 78.0847 23.8006C78.4508 23.4343 78.9474 23.2285 79.4651 23.2285C79.9829 23.2285 80.4794 23.4343 80.8455 23.8006C81.2116 24.1669 81.4173 24.6636 81.4173 25.1816V27.7207C81.4173 28.2387 81.2116 28.7355 80.8455 29.1018C80.4794 29.4681 79.9829 29.6738 79.4651 29.6738Z" fill="#FCB428"/>
<path d="M79.4651 43.1504C78.9474 43.1504 78.4508 42.9446 78.0847 42.5783C77.7186 42.2121 77.5129 41.7153 77.5129 41.1973V38.7266C77.5129 38.2086 77.7186 37.7118 78.0847 37.3455C78.4508 36.9792 78.9474 36.7734 79.4651 36.7734C79.9829 36.7734 80.4794 36.9792 80.8455 37.3455C81.2116 37.7118 81.4173 38.2086 81.4173 38.7266V41.1973C81.4173 41.7153 81.2116 42.2121 80.8455 42.5783C80.4794 42.9446 79.9829 43.1504 79.4651 43.1504Z" fill="#FCB428"/>
<path d="M87.469 35.1426H84.9312C84.4134 35.1426 83.9169 34.9368 83.5508 34.5705C83.1847 34.2042 82.979 33.7075 82.979 33.1895C82.979 32.6715 83.1847 32.1747 83.5508 31.8084C83.9169 31.4421 84.4134 31.2363 84.9312 31.2363H87.469C87.9867 31.2363 88.4833 31.4421 88.8494 31.8084C89.2155 32.1747 89.4212 32.6715 89.4212 33.1895C89.4212 33.7075 89.2155 34.2042 88.8494 34.5705C88.4833 34.9368 87.9867 35.1426 87.469 35.1426Z" fill="#FCB428"/>
<path d="M73.999 35.1426H71.4612C70.9435 35.1426 70.4469 34.9368 70.0808 34.5705C69.7147 34.2042 69.509 33.7075 69.509 33.1895C69.509 32.6715 69.7147 32.1747 70.0808 31.8084C70.4469 31.4421 70.9435 31.2363 71.4612 31.2363H73.999C74.5168 31.2363 75.0133 31.4421 75.3794 31.8084C75.7455 32.1747 75.9512 32.6715 75.9512 33.1895C75.9512 33.7075 75.7455 34.2042 75.3794 34.5705C75.0133 34.9368 74.5168 35.1426 73.999 35.1426Z" fill="#FCB428"/>
<path d="M97.9463 20.3965C97.8184 20.3962 97.6909 20.3831 97.5656 20.3574C97.4406 20.3322 97.3184 20.2949 97.2006 20.2461C97.0823 20.1975 96.9692 20.1374 96.8629 20.0664C96.6487 19.925 96.4654 19.7416 96.3241 19.5273C96.2531 19.4209 96.193 19.3078 96.1445 19.1894C96.0956 19.0716 96.0584 18.9493 96.0332 18.8242C96.0075 18.6989 95.9945 18.5713 95.9941 18.4433C95.994 18.3122 96.0071 18.1813 96.0332 18.0527C96.0589 17.9278 96.0962 17.8055 96.1445 17.6875C96.1934 17.57 96.2536 17.4575 96.3241 17.3516C96.466 17.1373 96.6492 16.9534 96.8629 16.8105C96.9692 16.7396 97.0823 16.6794 97.2006 16.6308C97.3184 16.582 97.4406 16.5447 97.5656 16.5195C97.8175 16.4688 98.077 16.4688 98.3289 16.5195C98.4538 16.5453 98.576 16.5825 98.694 16.6308C98.8114 16.6798 98.9239 16.74 99.0298 16.8105C99.1368 16.8816 99.2362 16.9634 99.3265 17.0547C99.5078 17.2358 99.6518 17.4508 99.7501 17.6875C99.7984 17.8055 99.8357 17.9278 99.8614 18.0527C99.8868 18.1814 99.8993 18.3122 99.8985 18.4433C99.8988 18.5712 99.8864 18.6988 99.8614 18.8242C99.8362 18.9493 99.7989 19.0716 99.7501 19.1894C99.7016 19.3078 99.6414 19.4209 99.5705 19.5273C99.4989 19.6339 99.4172 19.7333 99.3265 19.8242C99.2361 19.9149 99.1367 19.996 99.0298 20.0664C98.9239 20.1369 98.8114 20.1971 98.694 20.2461C98.576 20.2944 98.4538 20.3317 98.3289 20.3574C98.203 20.383 98.0748 20.3961 97.9463 20.3965Z" fill="#FCB428"/>
</g>
<path d="M52.3748 17.5508C51.9242 17.5503 51.4876 17.3938 51.1392 17.1079C50.7908 16.822 50.5519 16.4243 50.4632 15.9823C50.3744 15.5403 50.4413 15.0811 50.6524 14.6828C50.8635 14.2845 51.2058 13.9715 51.6213 13.7969L61.8311 9.52544C62.309 9.32549 62.8467 9.32366 63.3259 9.52036C63.8052 9.71705 64.1867 10.0962 64.3865 10.5743C64.5864 11.0524 64.5882 11.5903 64.3916 12.0698C64.195 12.5493 63.8161 12.931 63.3382 13.1309L53.1264 17.4004C52.8881 17.4993 52.6328 17.5504 52.3748 17.5508Z" fill="#FCB428"/>
<path d="M62.5769 40.9883C62.318 40.9883 62.0618 40.9365 61.8233 40.8359L50.327 36.0254C50.0905 35.9264 49.8758 35.7817 49.6952 35.5997C49.5146 35.4177 49.3715 35.2019 49.2743 34.9646C49.0779 34.4853 49.0798 33.9476 49.2797 33.4697C49.4795 32.9919 49.8609 32.613 50.34 32.4165C50.819 32.22 51.3564 32.2219 51.8341 32.4219L63.3304 37.2324C63.7471 37.4062 64.0907 37.7192 64.3027 38.1179C64.5147 38.5167 64.5821 38.9767 64.4932 39.4195C64.4044 39.8624 64.1648 40.2607 63.8154 40.5468C63.466 40.8328 63.0283 40.9888 62.5769 40.9883Z" fill="#FCB428"/>
</g>
<defs>
<clipPath id="clip0_228_157">
<rect width="100" height="100" fill="white"/>
</clipPath>
</defs>
</svg>
