<svg width="100" height="100" viewBox="0 0 100 100" fill="none" xmlns="http://www.w3.org/2000/svg">
<g clip-path="url(#clip0_228_1715)">
<ellipse cx="19.8398" cy="80" rx="19.9902" ry="20" fill="#EAEFFF"/>
<g clip-path="url(#clip1_228_1715)">
<path d="M19.1089 31.6822H42.1383C42.9269 31.6822 43.7077 31.8376 44.4363 32.1395C45.1648 32.4414 45.8268 32.8839 46.3844 33.4418C46.942 33.9997 47.3843 34.662 47.6861 35.3909C47.9878 36.1198 48.1432 36.901 48.1432 37.6899V43.7946C48.1432 44.0364 48.1908 44.2758 48.2832 44.4991C48.3757 44.7225 48.5113 44.9255 48.6821 45.0964C48.853 45.2674 49.0559 45.403 49.2791 45.4955C49.5024 45.588 49.7417 45.6357 49.9833 45.6357C50.225 45.6357 50.4643 45.588 50.6876 45.4955C50.9108 45.403 51.1137 45.2674 51.2845 45.0964C51.4554 44.9255 51.591 44.7225 51.6835 44.4991C51.7759 44.2758 51.8235 44.0364 51.8235 43.7946V37.6899C51.8261 36.0983 52.4599 34.5727 53.5857 33.4481C54.7116 32.3235 56.2375 31.6919 57.8284 31.6919H66.9286C67.4166 31.6919 67.8847 31.4979 68.2298 31.1526C68.5749 30.8074 68.7687 30.3391 68.7687 29.8508C68.7687 29.3625 68.5749 28.8942 68.2298 28.5489C67.8847 28.2037 67.4166 28.0097 66.9286 28.0097H57.8129C56.2829 28.0061 54.7742 28.3671 53.4113 29.0626C52.0485 29.7582 50.8708 30.7684 49.9756 32.0097C49.0815 30.7666 47.9042 29.7546 46.5413 29.0573C45.1784 28.36 43.6691 27.9976 42.1383 28H19.1089C18.6208 28 18.1528 28.194 17.8077 28.5393C17.4626 28.8845 17.2687 29.3528 17.2687 29.8411C17.2687 30.3294 17.4626 30.7977 17.8077 31.1429C18.1528 31.4882 18.6208 31.6822 19.1089 31.6822Z" fill="#7CB8EB"/>
<path d="M93.6055 52.3895C93.0484 52.2644 92.4795 52.1995 91.9086 52.1957V37.6899C91.9086 35.1213 90.8893 32.6578 89.0746 30.8409C87.26 29.0239 84.7985 28.0021 82.2312 28H82.1266C81.6385 28 81.1705 28.194 80.8254 28.5392C80.4802 28.8845 80.2864 29.3528 80.2864 29.8411C80.2864 30.3294 80.4802 30.7977 80.8254 31.1429C81.1705 31.4882 81.6385 31.6822 82.1266 31.6822H82.2312C83.8237 31.6822 85.3511 32.3151 86.4772 33.4418C87.6033 34.5685 88.236 36.0966 88.236 37.6899V53.0543C87.1618 53.5877 86.2193 54.353 85.4767 55.2951C84.734 56.2372 84.2097 57.3325 83.9416 58.5019C82.7366 57.9814 81.4381 57.7124 80.1256 57.7112H57.7683C55.6081 57.7086 53.5103 58.4366 51.8158 59.7771V50.1221C51.8158 49.6338 51.6219 49.1655 51.2768 48.8202C50.9317 48.475 50.4636 48.281 49.9756 48.281C49.4875 48.281 49.0195 48.475 48.6744 48.8202C48.3293 49.1655 48.1354 49.6338 48.1354 50.1221V59.7829C46.4399 58.4423 44.342 57.713 42.1809 57.7132H19.8198C18.5111 57.7154 17.2167 57.9844 16.0154 58.5039C15.7442 57.3357 15.219 56.2417 14.4771 55.2998C13.7351 54.3579 12.7948 53.5912 11.723 53.0543V37.6899C11.721 36.8063 11.9146 35.9331 12.2901 35.1333C12.6655 34.3334 13.2134 33.6267 13.8944 33.064C14.0853 32.9112 14.2439 32.722 14.3609 32.5072C14.478 32.2925 14.551 32.0565 14.5759 31.8132C14.6008 31.5699 14.5769 31.3241 14.5057 31.0901C14.4346 30.8561 14.3175 30.6386 14.1615 30.4504C14.0054 30.2622 13.8133 30.1069 13.5966 29.9938C13.3799 29.8806 13.1428 29.8118 12.8992 29.7913C12.6556 29.7709 12.4103 29.7992 12.1778 29.8746C11.9452 29.95 11.73 30.0711 11.5447 30.2306C10.4471 31.1385 9.5639 32.2781 8.95841 33.5677C8.35291 34.8574 8.04016 36.2651 8.04258 37.6899V52.1996C6.83407 52.2108 5.64331 52.4919 4.55725 53.0224C3.47119 53.5528 2.51725 54.3192 1.76508 55.2657C1.0129 56.2121 0.481483 57.3147 0.209622 58.4928C-0.0622377 59.671 -0.0676768 60.895 0.193702 62.0756L3.26003 75.8353C3.75031 78.0868 4.91232 80.1362 6.5923 81.7125C8.27228 83.2888 10.391 84.3176 12.6682 84.6628L12.0445 85.2868C10.9346 86.4255 10.3178 87.9558 10.3277 89.5463C10.3377 91.1368 10.9736 92.6593 12.0977 93.784C13.2218 94.9086 14.7436 95.5449 16.3333 95.5548C17.923 95.5648 19.4526 94.9477 20.5907 93.8372L29.6231 84.8004H71.7808C72.2689 84.8004 72.7369 84.6064 73.082 84.2612C73.4271 83.9159 73.621 83.4476 73.621 82.9593C73.621 82.471 73.4271 82.0027 73.082 81.6575C72.7369 81.3122 72.2689 81.1182 71.7808 81.1182H14.4426C12.6729 81.1266 10.9539 80.527 9.57294 79.4198C8.19196 78.3126 7.23261 76.7647 6.85518 75.0349L3.78691 61.2752C3.65972 60.7071 3.64561 60.1196 3.74538 59.5461C3.84515 58.9726 4.05684 58.4244 4.36838 57.9327C4.67991 57.4411 5.08519 57.0156 5.56106 56.6807C6.03694 56.3458 6.57409 56.1079 7.14186 55.9806C7.70963 55.8534 8.29688 55.8393 8.8701 55.9391C9.44332 56.0389 9.99128 56.2507 10.4827 56.5624C10.9741 56.8741 11.3993 57.2795 11.7341 57.7556C12.0689 58.2317 12.3067 58.7692 12.4338 59.3372L13.8963 65.8934C14.2905 67.6981 15.2916 69.3129 16.7324 70.468C18.1733 71.6231 19.9666 72.2487 21.813 72.2403H78.1382C79.9844 72.249 81.7777 71.6235 83.2183 70.4683C84.6589 69.313 85.6595 67.6981 86.0529 65.8934L87.5154 59.3372C87.6426 58.7692 87.8804 58.2317 88.2151 57.7556C88.5499 57.2795 88.9752 56.8741 89.4666 56.5624C89.958 56.2507 90.5059 56.0389 91.0791 55.9391C91.6524 55.8393 92.2396 55.8534 92.8074 55.9806C93.3752 56.1079 93.9123 56.3458 94.3882 56.6807C94.8641 57.0156 95.2693 57.4411 95.5809 57.9327C95.8924 58.4244 96.1041 58.9726 96.2039 59.5461C96.3036 60.1196 96.2895 60.7071 96.1623 61.2752L93.096 75.0349C92.719 76.7651 91.7598 78.3134 90.3788 79.421C88.9977 80.5286 87.2786 81.1284 85.5086 81.1202H66.9944C66.5064 81.1202 66.0383 81.3141 65.6932 81.6594C65.3481 82.0047 65.1542 82.473 65.1542 82.9612C65.1542 83.4495 65.3481 83.9178 65.6932 84.2631C66.0383 84.6084 66.5064 84.8023 66.9944 84.8023H70.3242L79.3585 93.8391C80.4966 94.9496 82.0263 95.5667 83.616 95.5568C85.2057 95.5468 86.7274 94.9106 87.8515 93.7859C88.9757 92.6613 89.6116 91.1387 89.6215 89.5483C89.6315 87.9578 89.0147 86.4274 87.9047 85.2888L87.281 84.6647C89.5579 84.3192 91.6762 83.2902 93.3558 81.714C95.0354 80.1377 96.1971 78.0884 96.6873 75.8372L99.7555 62.0775C100.221 59.9771 99.8352 57.7777 98.6823 55.9615C97.5294 54.1454 95.7036 52.8608 93.6055 52.3895ZM48.1354 67.3411V68.5601H21.813C20.8045 68.5647 19.825 68.2229 19.0381 67.5919C18.2512 66.9608 17.7046 66.0788 17.4895 65.093L16.8425 62.186C17.7502 61.6575 18.7812 61.378 19.8314 61.376H42.1809C43.7023 61.3741 45.1666 61.9558 46.2724 63.0012C47.3782 64.0466 48.0415 65.4763 48.1257 66.9961C48.1257 67.0388 48.1296 67.0814 48.1373 67.124C48.1354 67.2074 48.1354 67.2771 48.1354 67.3411ZM78.1382 68.5601H51.8158V67.3411C51.8173 65.7619 52.4449 64.2478 53.5608 63.131C54.6767 62.0141 56.1899 61.3858 57.7683 61.3837H80.1295C81.1765 61.3867 82.2041 61.6662 83.1086 62.1938L82.4617 65.1008C82.2458 66.0858 81.6988 66.967 80.912 67.5972C80.1252 68.2275 79.1461 68.5687 78.1382 68.564V68.5601ZM17.7375 84.7926H24.4202L17.9893 91.2267C17.5432 91.6556 16.9469 91.8924 16.3283 91.8862C15.7097 91.8801 15.1182 91.6315 14.6808 91.1939C14.2433 90.7562 13.9949 90.1644 13.9887 89.5455C13.9826 88.9266 14.2192 88.33 14.6479 87.8837L17.7375 84.7926ZM85.3014 91.2267C84.8577 91.669 84.257 91.9173 83.6307 91.9173C83.0044 91.9173 82.4036 91.669 81.96 91.2267L75.529 84.7926H82.2118L85.3014 87.8837C85.7443 88.3271 85.9932 88.9283 85.9932 89.5552C85.9932 90.1821 85.7443 90.7834 85.3014 91.2267Z" fill="#7CB8EB"/>
<path d="M74.3048 31.6822C75.3211 31.6822 76.145 30.8579 76.145 29.8411C76.145 28.8243 75.3211 28 74.3048 28C73.2885 28 72.4646 28.8243 72.4646 29.8411C72.4646 30.8579 73.2885 31.6822 74.3048 31.6822Z" fill="#FCB428"/>
<path d="M63.8932 42.0737C64.9095 42.0737 65.7334 41.2494 65.7334 40.2326C65.7334 39.2158 64.9095 38.3915 63.8932 38.3915C62.8769 38.3915 62.053 39.2158 62.053 40.2326C62.053 41.2494 62.8769 42.0737 63.8932 42.0737Z" fill="#7CB8EB"/>
<path d="M77.3944 42.0737C78.4107 42.0737 79.2346 41.2494 79.2346 40.2326C79.2346 39.2158 78.4107 38.3915 77.3944 38.3915C76.3781 38.3915 75.5542 39.2158 75.5542 40.2326C75.5542 41.2494 76.3781 42.0737 77.3944 42.0737Z" fill="#7CB8EB"/>
<path d="M63.8932 50.2364C64.9095 50.2364 65.7334 49.4121 65.7334 48.3953C65.7334 47.3785 64.9095 46.5543 63.8932 46.5543C62.8769 46.5543 62.053 47.3785 62.053 48.3953C62.053 49.4121 62.8769 50.2364 63.8932 50.2364Z" fill="#7CB8EB"/>
<path d="M77.3944 50.2364C78.4107 50.2364 79.2346 49.4121 79.2346 48.3953C79.2346 47.3785 78.4107 46.5543 77.3944 46.5543C76.3781 46.5543 75.5542 47.3785 75.5542 48.3953C75.5542 49.4121 76.3781 50.2364 77.3944 50.2364Z" fill="#7CB8EB"/>
<path d="M22.4987 41.6279C23.515 41.6279 24.3389 40.8036 24.3389 39.7868C24.3389 38.77 23.515 37.9457 22.4987 37.9457C21.4824 37.9457 20.6585 38.77 20.6585 39.7868C20.6585 40.8036 21.4824 41.6279 22.4987 41.6279Z" fill="#7CB8EB"/>
<path d="M35.9999 41.6279C37.0162 41.6279 37.84 40.8036 37.84 39.7868C37.84 38.77 37.0162 37.9457 35.9999 37.9457C34.9835 37.9457 34.1597 38.77 34.1597 39.7868C34.1597 40.8036 34.9835 41.6279 35.9999 41.6279Z" fill="#7CB8EB"/>
<path d="M22.4987 49.7926C23.515 49.7926 24.3389 48.9684 24.3389 47.9516C24.3389 46.9348 23.515 46.1105 22.4987 46.1105C21.4824 46.1105 20.6585 46.9348 20.6585 47.9516C20.6585 48.9684 21.4824 49.7926 22.4987 49.7926Z" fill="#7CB8EB"/>
<path d="M35.9999 49.7926C37.0162 49.7926 37.84 48.9684 37.84 47.9516C37.84 46.9348 37.0162 46.1105 35.9999 46.1105C34.9835 46.1105 34.1597 46.9348 34.1597 47.9516C34.1597 48.9684 34.9835 49.7926 35.9999 49.7926Z" fill="#7CB8EB"/>
<path d="M15.5133 36.6675C15.1615 36.6677 14.8162 36.5719 14.5147 36.3902C14.2133 36.2086 13.9671 35.9481 13.8028 35.6368L10.8146 29.9746L5.14172 26.9947C4.83004 26.8306 4.56909 26.5845 4.38705 26.2829C4.20501 25.9813 4.10879 25.6356 4.10879 25.2833C4.10879 24.9309 4.20501 24.5853 4.38705 24.2837C4.56909 23.982 4.83004 23.7359 5.14172 23.5719L10.8146 20.5938L13.8028 14.9317C13.9671 14.6204 14.2133 14.3599 14.5147 14.1782C14.8162 13.9966 15.1615 13.9007 15.5133 13.901C15.8649 13.9011 16.2098 13.9971 16.5109 14.1787C16.8119 14.3604 17.0578 14.6207 17.222 14.9317L20.2121 20.5938L25.885 23.5796C26.1967 23.7437 26.4576 23.9898 26.6397 24.2914C26.8217 24.593 26.9179 24.9387 26.9179 25.291C26.9179 25.6434 26.8217 25.989 26.6397 26.2906C26.4576 26.5922 26.1967 26.8384 25.885 27.0024L20.2102 29.9824L17.222 35.6445C17.0568 35.9541 16.8105 36.2129 16.5095 36.3931C16.2085 36.5733 15.8641 36.6681 15.5133 36.6675ZM10.1961 25.2813L13.1418 26.8284C13.4873 27.0104 13.7697 27.2929 13.9516 27.6386L15.5133 30.5935L17.0732 27.6386C17.2551 27.2929 17.5374 27.0104 17.883 26.8284L20.8306 25.2813L17.883 23.7343C17.5373 23.5534 17.2548 23.2714 17.0732 22.926L15.5133 19.9712L13.9516 22.9144C13.7699 23.2591 13.4883 23.5409 13.1437 23.7227L10.1961 25.2813Z" fill="#FCB428"/>
<path d="M40.745 23.802C40.4824 23.8022 40.2247 23.7306 39.9997 23.5951C39.7747 23.4595 39.591 23.2651 39.4684 23.0327L36.7549 17.8905L31.5993 15.18C31.3667 15.0576 31.1719 14.8739 31.0361 14.6488C30.9002 14.4237 30.8284 14.1657 30.8284 13.9028C30.8284 13.6398 30.9002 13.3818 31.0361 13.1567C31.1719 12.9316 31.3667 12.7479 31.5993 12.6255L36.7549 9.91508L39.4684 4.76991C39.5909 4.53755 39.7744 4.34305 39.9993 4.20738C40.2241 4.0717 40.4817 4 40.7443 4C41.0069 4 41.2645 4.0717 41.4893 4.20738C41.7141 4.34305 41.8977 4.53755 42.0202 4.76991L44.7351 9.91508L49.8864 12.6255C50.119 12.7479 50.3138 12.9316 50.4496 13.1567C50.5855 13.3818 50.6573 13.6398 50.6573 13.9028C50.6573 14.1657 50.5855 14.4237 50.4496 14.6488C50.3138 14.8739 50.119 15.0576 49.8864 15.18L44.7336 17.8905L42.0202 23.0327C41.8977 23.2649 41.7142 23.4592 41.4895 23.5947C41.2648 23.7302 41.0074 23.8019 40.745 23.802ZM35.3715 13.9028L38.4918 15.5437C38.75 15.679 38.9612 15.8893 39.0976 16.147L40.745 19.2673L42.3924 16.147C42.528 15.8897 42.7382 15.6794 42.9954 15.5437L46.1141 13.9028L42.9968 12.2618C42.7389 12.1259 42.5282 11.9151 42.3924 11.6571L40.745 8.53534L39.0976 11.6571C38.9606 11.9144 38.7496 12.1245 38.4918 12.2604L35.3715 13.9028Z" fill="#FCB428"/>
</g>
</g>
<defs>
<clipPath id="clip0_228_1715">
<rect width="100" height="100" fill="white"/>
</clipPath>
<clipPath id="clip1_228_1715">
<rect width="99.9512" height="92" fill="white" transform="translate(0 4)"/>
</clipPath>
</defs>
</svg>
