<svg width="25" height="25" viewBox="0 0 25 25" fill="none" xmlns="http://www.w3.org/2000/svg">
<path d="M12.598 24.0926L13.6918 20.6762C14.177 19.1367 15.0488 17.7479 16.2235 16.6429C17.3982 15.538 18.8365 14.7539 20.4005 14.3659L23.8725 13.4909C24.0356 13.4293 24.1675 13.3054 24.2396 13.1464C24.3116 12.9875 24.3179 12.8064 24.257 12.6428C24.1979 12.4821 24.078 12.3512 23.9232 12.2785L20.5137 11.1825C18.9776 10.6957 17.5919 9.822 16.4893 8.64497C15.3867 7.46794 14.604 6.02701 14.2163 4.46011L13.3431 0.980977C13.3022 0.818148 13.1988 0.678111 13.0553 0.5914C12.9118 0.504689 12.7399 0.478336 12.5771 0.518088C12.4726 0.545295 12.3767 0.598392 12.298 0.672495C12.2194 0.746599 12.1606 0.839329 12.1271 0.942154L11.0363 4.35857C10.5495 5.89773 9.67686 7.28606 8.50179 8.39084C7.32672 9.49562 5.8885 10.2799 4.3246 10.6688L0.852519 11.5498C0.718742 11.5829 0.599423 11.6588 0.512744 11.7662C0.426065 11.8735 0.376779 12.0063 0.372391 12.1443C0.368003 12.2823 0.408752 12.4179 0.488437 12.5306C0.568122 12.6432 0.682374 12.7267 0.813778 12.7682L4.22327 13.8612C5.75693 14.3498 7.14013 15.2239 8.24097 16.4001C9.34181 17.5764 10.1236 19.0156 10.5118 20.5806L11.4058 24.0597C11.4457 24.1847 11.5234 24.2942 11.6281 24.373C11.7328 24.4519 11.8594 24.4962 11.9903 24.4998C12.1212 24.5034 12.25 24.4661 12.3589 24.3932C12.4677 24.3202 12.5513 24.2152 12.598 24.0926Z" fill="#7CB8EB"/>
<path d="M15.9658 12.4158C14.5382 11.5856 12.2046 9.75796 11.8887 6.5685C11.8772 6.45858 11.8893 6.34745 11.9242 6.24261C11.9591 6.13776 12.016 6.04163 12.0912 5.9607C12.1663 5.87976 12.2578 5.8159 12.3597 5.77341C12.4615 5.73093 12.5712 5.7108 12.6815 5.7144C12.8488 5.723 13.0088 5.78593 13.1373 5.89368C13.2658 6.00142 13.3558 6.14814 13.3938 6.31167C13.8815 8.24335 15.0901 9.914 16.7705 10.9794C16.8839 11.0512 16.9763 11.1517 17.0386 11.2707C17.1009 11.3897 17.1307 11.523 17.1252 11.6573V11.7797C17.1204 11.9132 17.0811 12.0432 17.0112 12.1568C16.9412 12.2705 16.8429 12.364 16.726 12.4282C16.6091 12.4923 16.4776 12.5249 16.3443 12.5227C16.211 12.5206 16.0806 12.4837 15.9658 12.4158Z" fill="white"/>
</svg>
