<svg width="101" height="100" viewBox="0 0 101 100" fill="none" xmlns="http://www.w3.org/2000/svg">
<g clip-path="url(#clip0_129_1999)">
<circle cx="20" cy="20" r="20" fill="#EAEFFF"/>
<mask id="mask0_129_1999" style="mask-type:luminance" maskUnits="userSpaceOnUse" x="-1" y="0" width="101" height="100">
<path d="M99.9473 0H-0.0527344V100H99.9473V0Z" fill="white"/>
</mask>
<g mask="url(#mask0_129_1999)">
<path d="M16.7441 22.1016C16.2261 22.1016 15.7294 21.8958 15.3631 21.5295C14.9968 21.1632 14.791 20.6664 14.791 20.1484V1.95312C14.791 1.43512 14.9968 0.938339 15.3631 0.572057C15.7294 0.205775 16.2261 0 16.7441 0L97.9941 0C98.5121 0 99.0089 0.205775 99.3752 0.572057C99.7415 0.938339 99.9473 1.43512 99.9473 1.95312V9.65234C99.9473 10.1703 99.7415 10.6671 99.3752 11.0334C99.0089 11.3997 98.5121 11.6055 97.9941 11.6055C97.4761 11.6055 96.9794 11.3997 96.6131 11.0334C96.2468 10.6671 96.041 10.1703 96.041 9.65234V3.90625H18.6973V20.1484C18.6973 20.4049 18.6467 20.6589 18.5486 20.8959C18.4504 21.1328 18.3066 21.3481 18.1252 21.5295C17.9438 21.7109 17.7285 21.8547 17.4916 21.9529C17.2546 22.051 17.0006 22.1016 16.7441 22.1016Z" fill="#7CB8EB"/>
<path d="M97.9941 85.1563H38.9453C38.4273 85.1563 37.9305 84.9505 37.5642 84.5842C37.198 84.2179 36.9922 83.7211 36.9922 83.2031C36.9922 82.6851 37.198 82.1883 37.5642 81.8221C37.9305 81.4558 38.4273 81.25 38.9453 81.25H96.041V27.2305C96.041 26.7125 96.2468 26.2157 96.6131 25.8494C96.9794 25.4831 97.4761 25.2773 97.9941 25.2773C98.5121 25.2773 99.0089 25.4831 99.3752 25.8494C99.7415 26.2157 99.9473 26.7125 99.9473 27.2305V83.2031C99.9473 83.7211 99.7415 84.2179 99.3752 84.5842C99.0089 84.9505 98.5121 85.1563 97.9941 85.1563Z" fill="#7CB8EB"/>
</g>
<path d="M38.6016 23.3242C38.149 23.327 37.7096 23.1726 37.3582 22.8874C37.0069 22.6022 36.7656 22.2038 36.6754 21.7603C36.5852 21.3168 36.6518 20.8558 36.8639 20.456C37.0759 20.0562 37.4202 19.7425 37.8379 19.5684L43.6973 17.123C44.1751 16.9231 44.7128 16.9212 45.1921 17.1177C45.6714 17.3142 46.053 17.693 46.2529 18.1709C46.4529 18.6488 46.4548 19.1865 46.2583 19.6658C46.0618 20.145 45.6829 20.5266 45.2051 20.7266L39.3613 23.1719C39.1209 23.2733 38.8625 23.3251 38.6016 23.3242Z" fill="#FCB428"/>
<path d="M42.6855 32.6542C42.4268 32.6538 42.1706 32.6027 41.9316 32.5038L37.8378 30.7948C37.3597 30.5949 36.9806 30.2132 36.7839 29.7337C36.5872 29.2543 36.589 28.7163 36.789 28.2382C36.9889 27.7601 37.3706 27.381 37.8501 27.1843C38.3296 26.9876 38.8675 26.9894 39.3456 27.1894L43.4394 28.9062C43.8551 29.0807 44.1976 29.3937 44.4087 29.7921C44.6199 30.1904 44.6868 30.6495 44.598 31.0915C44.5093 31.5336 44.2703 31.9313 43.9217 32.2172C43.5731 32.5031 43.1363 32.6595 42.6855 32.6601V32.6542Z" fill="#FCB428"/>
<mask id="mask1_129_1999" style="mask-type:luminance" maskUnits="userSpaceOnUse" x="-1" y="0" width="101" height="100">
<path d="M99.9473 0H-0.0527344V100H99.9473V0Z" fill="white"/>
</mask>
<g mask="url(#mask1_129_1999)">
<path d="M33.0704 48.6211C33.0118 48.6211 32.9532 48.6211 32.8946 48.6211C29.2271 48.2855 25.7916 46.6809 23.1803 44.0838C20.569 41.4868 18.9456 38.0602 18.5899 34.3945C18.5407 33.8789 18.6983 33.3648 19.0282 32.9653C19.358 32.5659 19.833 32.3139 20.3487 32.2646C20.8644 32.2154 21.3785 32.3731 21.7779 32.7029C22.1773 33.0328 22.4294 33.5078 22.4786 34.0234C22.6588 35.8886 23.2771 37.6849 24.2831 39.2659C25.2891 40.8468 26.6544 42.1678 28.2676 43.1211C27.3901 41.1154 26.9391 38.9491 26.9434 36.7598V31.0547C26.9434 30.5367 27.1492 30.0399 27.5155 29.6736C27.8817 29.3073 28.3785 29.1016 28.8965 29.1016C29.4145 29.1016 29.9113 29.3073 30.2776 29.6736C30.6439 30.0399 30.8497 30.5367 30.8497 31.0547V36.7539C30.8445 38.3406 31.1589 39.9121 31.7739 41.3748C32.389 42.8375 33.2922 44.1614 34.4297 45.2676C34.7067 45.5392 34.8965 45.8871 34.975 46.2669C35.0535 46.6468 35.0171 47.0415 34.8704 47.4006C34.7238 47.7597 34.4735 48.067 34.1515 48.2833C33.8295 48.4996 33.4504 48.6152 33.0626 48.6152L33.0704 48.6211Z" fill="#7CB8EB"/>
<path d="M1.90039 38.8203C1.38239 38.8203 0.885605 38.6145 0.519323 38.2483C0.153041 37.882 -0.0527344 37.3852 -0.0527344 36.8672C-0.0470483 31.9604 1.9047 27.2561 5.37436 23.7865C8.84402 20.3168 13.5482 18.3651 18.4551 18.3594H36.7461C37.7555 18.3609 38.7232 18.7627 39.4368 19.4767C40.1504 20.1907 40.5517 21.1585 40.5527 22.168V28.1953C40.5517 29.2046 40.1503 30.1722 39.4367 30.8859C38.723 31.5995 37.7554 32.0009 36.7461 32.002H26.0332L21.8223 35.6914C21.4661 36.0036 21.0087 36.1757 20.5352 36.1758H10.6387C7.91416 36.173 5.25016 36.9792 2.98438 38.4922C2.66339 38.7062 2.2862 38.8204 1.90039 38.8203ZM18.4551 22.2656C15.1765 22.2698 11.9943 23.3753 9.41934 25.4048C6.84438 27.4344 5.02593 30.2701 4.25586 33.457C6.29178 32.6701 8.45596 32.2675 10.6387 32.2695H19.8008L24.0117 28.5801C24.3678 28.2679 24.8253 28.0958 25.2988 28.0957H36.6465V22.2656H18.4551Z" fill="#7CB8EB"/>
<path d="M30.0508 32.002C29.7943 32.002 29.5403 31.9514 29.3034 31.8533C29.0664 31.7551 28.8511 31.6113 28.6697 31.4299C28.4883 31.2485 28.3445 31.0332 28.2463 30.7963C28.1482 30.5593 28.0977 30.3053 28.0977 30.0488V20.3125C28.0977 19.7945 28.3034 19.2977 28.6697 18.9314C29.036 18.5652 29.5328 18.3594 30.0508 18.3594C30.5688 18.3594 31.0656 18.5652 31.4318 18.9314C31.7981 19.2977 32.0039 19.7945 32.0039 20.3125V30.0488C32.0039 30.3053 31.9534 30.5593 31.8552 30.7963C31.7571 31.0332 31.6132 31.2485 31.4318 31.4299C31.2505 31.6113 31.0352 31.7551 30.7982 31.8533C30.5612 31.9514 30.3073 32.002 30.0508 32.002Z" fill="#7CB8EB"/>
<path d="M20.5352 44.4629H10.2773C9.75934 44.4629 9.26256 44.2571 8.89628 43.8908C8.52999 43.5246 8.32422 43.0278 8.32422 42.5098V34.2227C8.32422 33.7047 8.52999 33.2079 8.89628 32.8416C9.26256 32.4753 9.75934 32.2695 10.2773 32.2695H20.5352C21.0532 32.2695 21.5499 32.4753 21.9162 32.8416C22.2825 33.2079 22.4883 33.7047 22.4883 34.2227V42.5098C22.4883 43.0278 22.2825 43.5246 21.9162 43.8908C21.5499 44.2571 21.0532 44.4629 20.5352 44.4629ZM12.2305 40.5566H18.582V36.1758H12.2305V40.5566Z" fill="#7CB8EB"/>
<path d="M19.586 100H13.0332C10.3028 99.9971 7.685 98.9111 5.75427 96.9803C3.82354 95.0496 2.73749 92.4319 2.73439 89.7014V71.6799C2.72836 61.4614 4.67264 51.3355 8.4629 41.8459C8.65728 41.3686 9.03246 40.9874 9.50666 40.7855C9.98087 40.5836 10.5157 40.5773 10.9945 40.768C11.4733 40.9587 11.8573 41.331 12.0629 41.8036C12.2684 42.2762 12.2788 42.811 12.0918 43.2912C8.48838 52.3218 6.6409 61.9569 6.64845 71.6799V89.6994C6.64948 91.3934 7.32218 93.0178 8.51905 94.2165C9.71593 95.4152 11.3393 96.0904 13.0332 96.094H19.5781C20.0961 96.094 20.5929 96.2997 20.9592 96.666C21.3255 97.0323 21.5313 97.5291 21.5313 98.0471C21.5313 98.5651 21.3255 99.0619 20.9592 99.4282C20.5929 99.7944 20.0961 100 19.5781 100H19.586Z" fill="#7CB8EB"/>
<path d="M62.6074 26.9531H51.5762C51.0582 26.9531 50.5614 26.7474 50.1951 26.3811C49.8288 26.0148 49.623 25.518 49.623 25C49.623 24.482 49.8288 23.9852 50.1951 23.6189C50.5614 23.2527 51.0582 23.0469 51.5762 23.0469H62.6074C63.1254 23.0469 63.6222 23.2527 63.9885 23.6189C64.3548 23.9852 64.5605 24.482 64.5605 25C64.5605 25.518 64.3548 26.0148 63.9885 26.3811C63.6222 26.7474 63.1254 26.9531 62.6074 26.9531Z" fill="#FCB428"/>
<path d="M57.3691 85.1562C56.8511 85.1562 56.3544 84.9505 55.9881 84.5842C55.6218 84.2179 55.416 83.7211 55.416 83.2031V36.8672C55.416 36.3492 55.6218 35.8524 55.9881 35.4861C56.3544 35.1198 56.8511 34.9141 57.3691 34.9141C57.8871 34.9141 58.3839 35.1198 58.7502 35.4861C59.1165 35.8524 59.3223 36.3492 59.3223 36.8672V83.2031C59.3223 83.7211 59.1165 84.2179 58.7502 84.5842C58.3839 84.9505 57.8871 85.1562 57.3691 85.1562Z" fill="#7CB8EB"/>
<path d="M57.3691 14.4531C56.8511 14.4531 56.3544 14.2474 55.9881 13.8811C55.6218 13.5148 55.416 13.018 55.416 12.5V2.01367C55.416 1.49567 55.6218 0.998886 55.9881 0.632604C56.3544 0.266322 56.8511 0.0605469 57.3691 0.0605469C57.8871 0.0605469 58.3839 0.266322 58.7502 0.632604C59.1165 0.998886 59.3223 1.49567 59.3223 2.01367V12.5C59.3223 13.018 59.1165 13.5148 58.7502 13.8811C58.3839 14.2474 57.8871 14.4531 57.3691 14.4531Z" fill="#7CB8EB"/>
<path d="M30.2539 100H16.6895C16.1715 100 15.6747 99.7942 15.3084 99.4279C14.9421 99.0617 14.7363 98.5649 14.7363 98.0469C14.7363 97.5289 14.9421 97.0321 15.3084 96.6658C15.6747 96.2995 16.1715 96.0938 16.6895 96.0938H30.2539C31.9488 96.0922 33.5739 95.4182 34.7724 94.2197C35.9709 93.0212 36.6449 91.3961 36.6465 89.7012V72.709C36.6454 70.3247 35.9017 68 34.5188 66.0577C33.1359 64.1155 31.1824 62.6522 28.9297 61.8711C25.9085 60.8251 23.2882 58.8639 21.433 56.26C19.5778 53.6561 18.58 50.539 18.5781 47.3418V42.5781C18.5781 42.0601 18.7839 41.5633 19.1502 41.1971C19.5165 40.8308 20.0132 40.625 20.5312 40.625C21.0493 40.625 21.546 40.8308 21.9123 41.1971C22.2786 41.5633 22.4844 42.0601 22.4844 42.5781V47.3477C22.4853 49.7322 23.2292 52.0573 24.6125 53.9996C25.9958 55.9419 27.9499 57.405 30.2031 58.1855C33.2245 59.2313 35.845 61.1924 37.7002 63.7964C39.5554 66.4003 40.5531 69.5176 40.5547 72.7148V89.707C40.5506 92.437 39.4637 95.0538 37.5326 96.9835C35.6015 98.9131 32.9839 99.9979 30.2539 100Z" fill="#7CB8EB"/>
<path d="M85.1934 57.332C84.8072 57.3319 84.4297 57.2173 84.1086 57.0027C83.7874 56.788 83.5372 56.483 83.3894 56.1262C83.2416 55.7694 83.2029 55.3767 83.2782 54.9979C83.3536 54.6191 83.5395 54.2711 83.8126 53.998L96.6134 41.1972C96.9817 40.8414 97.4751 40.6445 97.9872 40.649C98.4993 40.6534 98.9892 40.8589 99.3513 41.221C99.7134 41.5831 99.9188 42.073 99.9233 42.5851C99.9277 43.0972 99.7309 43.5905 99.3751 43.9589L86.5743 56.7597C86.2081 57.126 85.7114 57.3318 85.1934 57.332Z" fill="#7CB8EB"/>
<path d="M57.3692 85.1562C56.983 85.1561 56.6054 85.0415 56.2843 84.8269C55.9632 84.6123 55.7129 84.3073 55.5652 83.9504C55.4174 83.5936 55.3787 83.2009 55.454 82.8221C55.5293 82.4433 55.7153 82.0953 55.9884 81.8222L75.6095 62.2011C75.9778 61.8453 76.4712 61.6485 76.9833 61.6529C77.4954 61.6574 77.9852 61.8628 78.3474 62.2249C78.7095 62.587 78.9149 63.0769 78.9194 63.589C78.9238 64.1011 78.7269 64.5944 78.3712 64.9628L58.7501 84.5839C58.3839 84.9502 57.8872 85.1561 57.3692 85.1562Z" fill="#7CB8EB"/>
<path d="M74.0352 85.1563C73.649 85.1562 73.2715 85.0416 72.9503 84.827C72.6292 84.6124 72.379 84.3074 72.2312 83.9506C72.0834 83.5937 72.0447 83.2011 72.12 82.8223C72.1954 82.4435 72.3813 82.0955 72.6544 81.8223L96.2559 58.2208C96.4361 58.0342 96.6516 57.8854 96.8899 57.7831C97.1282 57.6807 97.3845 57.6268 97.6438 57.6246C97.9032 57.6223 98.1603 57.6717 98.4004 57.7699C98.6404 57.8682 98.8585 58.0132 99.0419 58.1966C99.2252 58.38 99.3703 58.598 99.4685 58.8381C99.5667 59.0781 99.6161 59.3353 99.6138 59.5946C99.6116 59.8539 99.5577 60.1102 99.4553 60.3485C99.353 60.5868 99.2042 60.8023 99.0176 60.9825L75.4161 84.5841C75.0499 84.9504 74.5532 85.1562 74.0352 85.1563Z" fill="#7CB8EB"/>
<path d="M79.5039 29.6738C78.9859 29.6738 78.4891 29.4681 78.1228 29.1018C77.7566 28.7355 77.5508 28.2387 77.5508 27.7207V25.1816C77.5508 24.6636 77.7566 24.1669 78.1228 23.8006C78.4891 23.4343 78.9859 23.2285 79.5039 23.2285C80.0219 23.2285 80.5187 23.4343 80.885 23.8006C81.2513 24.1669 81.457 24.6636 81.457 25.1816V27.7207C81.457 28.2387 81.2513 28.7355 80.885 29.1018C80.5187 29.4681 80.0219 29.6738 79.5039 29.6738Z" fill="#FCB428"/>
<path d="M79.5039 43.1504C78.9859 43.1504 78.4891 42.9446 78.1228 42.5783C77.7566 42.2121 77.5508 41.7153 77.5508 41.1973V38.7266C77.5508 38.2086 77.7566 37.7118 78.1228 37.3455C78.4891 36.9792 78.9859 36.7734 79.5039 36.7734C80.0219 36.7734 80.5187 36.9792 80.885 37.3455C81.2513 37.7118 81.457 38.2086 81.457 38.7266V41.1973C81.457 41.7153 81.2513 42.2121 80.885 42.5783C80.5187 42.9446 80.0219 43.1504 79.5039 43.1504Z" fill="#FCB428"/>
<path d="M87.5117 35.1426H84.9727C84.4547 35.1426 83.9579 34.9368 83.5916 34.5705C83.2253 34.2042 83.0195 33.7075 83.0195 33.1895C83.0195 32.6715 83.2253 32.1747 83.5916 31.8084C83.9579 31.4421 84.4547 31.2363 84.9727 31.2363H87.5117C88.0297 31.2363 88.5265 31.4421 88.8928 31.8084C89.2591 32.1747 89.4648 32.6715 89.4648 33.1895C89.4648 33.7075 89.2591 34.2042 88.8928 34.5705C88.5265 34.9368 88.0297 35.1426 87.5117 35.1426Z" fill="#FCB428"/>
<path d="M74.0352 35.1426H71.4961C70.9781 35.1426 70.4813 34.9368 70.115 34.5705C69.7487 34.2042 69.543 33.7075 69.543 33.1895C69.543 32.6715 69.7487 32.1747 70.115 31.8084C70.4813 31.4421 70.9781 31.2363 71.4961 31.2363H74.0352C74.5532 31.2363 75.0499 31.4421 75.4162 31.8084C75.7825 32.1747 75.9883 32.6715 75.9883 33.1895C75.9883 33.7075 75.7825 34.2042 75.4162 34.5705C75.0499 34.9368 74.5532 35.1426 74.0352 35.1426Z" fill="#FCB428"/>
<path d="M97.9941 20.3965C97.8662 20.3962 97.7386 20.3831 97.6133 20.3574C97.4882 20.3322 97.3659 20.2949 97.248 20.2461C97.1297 20.1975 97.0166 20.1374 96.9102 20.0664C96.6959 19.925 96.5125 19.7416 96.3711 19.5273C96.3001 19.4209 96.2399 19.3078 96.1914 19.1894C96.1426 19.0716 96.1053 18.9493 96.0801 18.8242C96.0544 18.6989 96.0413 18.5713 96.041 18.4433C96.0409 18.3122 96.054 18.1813 96.0801 18.0527C96.1058 17.9278 96.1431 17.8055 96.1914 17.6875C96.2404 17.57 96.3006 17.4575 96.3711 17.3516C96.5131 17.1373 96.6964 16.9534 96.9102 16.8105C97.0166 16.7396 97.1297 16.6794 97.248 16.6308C97.3659 16.582 97.4882 16.5447 97.6133 16.5195C97.8653 16.4688 98.1249 16.4688 98.377 16.5195C98.5019 16.5453 98.6241 16.5825 98.7422 16.6308C98.8597 16.6798 98.9722 16.74 99.0781 16.8105C99.1852 16.8816 99.2846 16.9634 99.375 17.0547C99.5564 17.2358 99.7004 17.4508 99.7988 17.6875C99.8471 17.8055 99.8844 17.9278 99.9102 18.0527C99.9356 18.1814 99.948 18.3122 99.9473 18.4433C99.9476 18.5712 99.9352 18.6988 99.9102 18.8242C99.8849 18.9493 99.8477 19.0716 99.7988 19.1894C99.7503 19.3078 99.6901 19.4209 99.6191 19.5273C99.5475 19.6339 99.4658 19.7333 99.375 19.8242C99.2846 19.9149 99.1851 19.996 99.0781 20.0664C98.9722 20.1369 98.8597 20.1971 98.7422 20.2461C98.6241 20.2944 98.5019 20.3317 98.377 20.3574C98.2509 20.383 98.1227 20.3961 97.9941 20.3965Z" fill="#FCB428"/>
</g>
<path d="M52.4005 17.5507C51.9497 17.5502 51.5129 17.3937 51.1643 17.1078C50.8157 16.8219 50.5767 16.4242 50.4879 15.9822C50.3992 15.5401 50.4661 15.081 50.6772 14.6827C50.8884 14.2844 51.2309 13.9714 51.6466 13.7968L61.8615 9.52532C62.3396 9.32537 62.8775 9.32354 63.357 9.52023C63.8365 9.71693 64.2181 10.096 64.4181 10.5741C64.618 11.0523 64.6199 11.5902 64.4232 12.0697C64.2265 12.5491 63.8474 12.9308 63.3693 13.1308L53.1525 17.4003C52.9141 17.4992 52.6586 17.5503 52.4005 17.5507Z" fill="#FCB428"/>
<path d="M62.6074 40.9883C62.3485 40.9883 62.0921 40.9365 61.8535 40.8359L50.3516 36.0254C50.115 35.9264 49.9002 35.7817 49.7194 35.5997C49.5387 35.4177 49.3956 35.2019 49.2983 34.9646C49.1018 34.4853 49.1038 33.9476 49.3037 33.4697C49.5037 32.9919 49.8853 32.613 50.3645 32.4165C50.8438 32.22 51.3815 32.2219 51.8594 32.4219L63.3613 37.2324C63.7782 37.4062 64.122 37.7192 64.3341 38.1179C64.5462 38.5167 64.6136 38.9767 64.5247 39.4195C64.4358 39.8624 64.1962 40.2607 63.8466 40.5468C63.497 40.8328 63.0591 40.9888 62.6074 40.9883Z" fill="#FCB428"/>
</g>
<defs>
<clipPath id="clip0_129_1999">
<rect width="100.049" height="100" fill="white"/>
</clipPath>
</defs>
</svg>
